<svg xmlns="http://www.w3.org/2000/svg" width="28" height="30" viewBox="0 0 28 30">
  <defs>
    <radialGradient id="safari-mask-icon-a" cx="135.475%" cy="38.39%" r="118.693%" fx="135.475%" fy="38.39%" gradientTransform="matrix(-.59945 .36635 -.80041 -.27437 2.474 -.007)">
      <stop offset="0%"/>
      <stop offset="100%" stop-opacity="0"/>
    </radialGradient>
    <linearGradient id="safari-mask-icon-b" x1="37.287%" x2="53.139%" y1="5.247%" y2="76.594%">
      <stop offset="0%" stop-opacity=".706"/>
      <stop offset="100%" stop-opacity="0"/>
    </linearGradient>
    <linearGradient id="safari-mask-icon-c" x1="50%" x2="50%" y1="0%" y2="100%">
      <stop offset="0%" stop-opacity=".621"/>
      <stop offset="100%" stop-opacity="0"/>
    </linearGradient>
    <linearGradient id="safari-mask-icon-d" x1="52.259%" x2="41.952%" y1="12.585%" y2="67.967%">
      <stop offset="0%" stop-opacity=".774"/>
      <stop offset="100%" stop-opacity="0"/>
    </linearGradient>
  </defs>
  <g fill="none" fill-rule="evenodd" transform="translate(-2 -1)">
    <rect width="32" height="32" rx="4"/>
    <g transform="translate(2.207 1)">
      <path fill="#75787A" fill-rule="nonzero" d="M12.7588473,22.7586207 C12.7588473,25.6152659 10.4430788,27.9310345 7.58643351,27.9310345 C4.72978825,27.9310345 2.41401971,25.6152659 2.41401971,22.7586207 L2.41401971,10.6896552 C2.41401971,10.1183261 1.95086601,9.65517241 1.37953696,9.65517241 C0.808207904,9.65517241 0.345054196,10.1183261 0.345054196,10.6896552 L0.345054196,22.7586207 C0.345054196,26.7579241 3.58713015,30 7.58643351,30 C11.5857369,30 14.8278128,26.7579241 14.8278128,22.7586207 L14.8278128,15.9123786 L9.19276427,18.7299029 C8.68175203,18.985409 8.4746234,19.6067949 8.73012952,20.1178072 C8.98563564,20.6288194 9.60702154,20.835948 10.1180338,20.5804419 L12.7588473,19.2600352 L12.7588473,22.7586207 Z" transform="matrix(-1 0 0 1 15.173 0)"/>
      <path fill="url(#safari-mask-icon-a)" d="M12.7624924,21.8413631 L13.7933301,21.8413631 L13.7933301,26.4981925 C13.4256778,27.1100924 12.9606087,27.6671965 12.3981227,28.169505 C11.8356367,28.6718134 11.3049843,28.2198198 10.8061656,26.813524 C11.2357632,26.4558811 11.575332,26.0903641 11.824872,25.7169728 C11.9532982,25.5248063 12.1946648,25.1914857 12.3793312,24.7071843 C12.5639976,24.2228829 12.6928965,23.6967396 12.7372412,23.2597461 C12.7669092,22.9673838 12.7753263,22.4945894 12.7624924,21.8413631 Z"/>
      <path fill="#D0D0CC" fill-rule="nonzero" d="M14.8278128,22.7586207 C14.8278128,25.6152659 17.1435814,27.9310345 20.0002266,27.9310345 C22.8568719,27.9310345 25.1726404,25.6152659 25.1726404,22.7586207 L25.1726404,22.7586207 L25.1726404,19.2600352 L22.5318269,20.5804419 C22.0208146,20.835948 21.3994287,20.6288194 21.1439226,20.1178072 C20.8884165,19.6067949 21.0955451,18.985409 21.6065574,18.7299029 L21.6065574,18.7299029 L27.2416059,15.9123786 L27.2416059,22.7586207 C27.2416059,26.7579241 23.99953,30 20.0002266,30 C16.0009232,30 12.7588473,26.7579241 12.7588473,22.7586207 L12.7588473,22.7586207 L12.7588473,2.75862069 C12.7588473,2.18729164 13.222001,1.72413793 13.7933301,1.72413793 C14.3646591,1.72413793 14.8278128,2.18729164 14.8278128,2.75862069 L14.8278128,2.75862069 Z"/>
      <polygon fill="url(#safari-mask-icon-b)" points="25.173 19.483 25.173 21.51 27.238 21.51 27.238 17.428 25.173 17.414"/>
      <path fill="#D0D0CC" fill-rule="nonzero" d="M27.5806727,15.3841565 L27.5835134,18.4362822 L22.6804325,20.8915455 L22.6387068,20.9113676 C21.9647839,21.2171467 21.1676046,20.9356083 20.8357261,20.2718512 C20.4950512,19.5905015 20.7712227,18.761987 21.4536582,18.4207716 L27.5806727,15.3841565 Z"/>
      <polygon fill="url(#safari-mask-icon-c)" points="12.759 6.897 12.759 2.069 14.828 2.069 14.828 6.897"/>
      <path fill="#D0D0CC" fill-rule="nonzero" d="M13.7933301,4.01960491 L19.0249069,9.25118177 C19.5635611,9.78983596 20.4368921,9.78983596 20.9755463,9.25118177 C21.5142005,8.71252757 21.5142005,7.83919657 20.9755463,7.30054237 L13.7933301,0.118326121 L6.61111381,7.30054237 C6.07245961,7.83919657 6.07245961,8.71252757 6.61111381,9.25118177 C7.149768,9.78983596 8.02309901,9.78983596 8.5617532,9.25118177 L13.7933301,4.01960491 Z"/>
      <polygon fill="url(#safari-mask-icon-d)" points=".345 17.414 .349 21.897 2.414 21.897 2.414 17.414"/>
      <path fill="#75787A" fill-rule="nonzero" d="M6.13431433,18.4214797 C6.81566398,18.7621546 7.09183549,19.5906691 6.75116067,20.2720188 C6.41928211,20.9357759 5.62210283,21.2173143 4.94227929,20.9087904 L4.90043073,20.8887696 L0.00337332842,18.4364498 L0.00621398533,15.3843241 L6.13431433,18.4214797 Z"/>
    </g>
  </g>
</svg>
