<?xml version="1.0" encoding="UTF-8"?>
<svg width="86px" height="84px" viewBox="0 0 86 84" version="1.1" xmlns="http://www.w3.org/2000/svg" xmlns:xlink="http://www.w3.org/1999/xlink">
    <!-- Generator: Sketch 52.5 (67469) - http://www.bohemiancoding.com/sketch -->
    <title>cri-logo</title>
    <desc>Created with Sketch.</desc>
    <g id="Landing" stroke="none" stroke-width="1" fill="none" fill-rule="evenodd">
        <g id="Artboard" transform="translate(-3281.000000, -284.000000)">
            <g id="cri-logo" transform="translate(3276.000000, 284.000000)">
                <rect id="Rectangle" opacity="0.656645275" x="0" y="0" width="96" height="96"></rect>
                <path d="M81.2466,7.2228 C80.8206,7.4078 80.1726,7.7608 79.7296,8.3268 C79.4356,7.6288 79.1776,6.9178 78.9636,6.2388 C78.8416,5.8548 78.7566,5.4488 78.7226,5.0418 C78.8666,4.9048 79.0306,4.7968 79.2226,4.7278 C79.6406,4.5748 80.0866,4.6408 80.5596,4.7108 C80.8056,4.7468 81.0606,4.7848 81.3126,4.7888 C82.2706,4.8028 83.2646,4.3208 84.0576,3.4608 C84.5316,2.9458 84.8986,2.3538 85.2256,1.7468 C85.4786,1.9908 85.7176,2.2468 85.9386,2.4598 C85.7136,4.0668 85.0106,5.6448 83.8126,6.2578 C83.3586,6.4898 82.8616,6.6538 82.3806,6.8118 C82.0046,6.9348 81.6166,7.0618 81.2466,7.2228 Z M79.1548,4.5425 C78.9868,4.6035 78.8418,4.6955 78.7088,4.8015 C78.6868,4.0695 78.8438,3.3505 79.2878,2.7785 C79.8468,2.0565 80.7078,1.7265 81.5598,1.4925 C82.3618,1.2705 83.2648,0.7125 84.1198,0.9845 C84.4548,1.0915 84.7748,1.3315 85.0768,1.6075 C84.7488,2.2195 84.3848,2.8155 83.9128,3.3275 C83.1698,4.1335 82.2408,4.5925 81.3588,4.5925 C81.3438,4.5925 81.3298,4.5925 81.3158,4.5925 C81.0768,4.5885 80.8278,4.5515 80.5878,4.5165 C80.1118,4.4455 79.6198,4.3725 79.1548,4.5425 Z M84.164,8.2651 C83.023,8.9951 81.853,9.7461 81.013,10.7781 C80.997,10.7521 80.978,10.7291 80.962,10.7031 C80.533,10.0441 80.152,9.3011 79.818,8.5361 C80.232,7.9511 80.897,7.5891 81.324,7.4031 C81.687,7.2461 82.07,7.1201 82.441,6.9981 C82.93,6.8381 83.434,6.6721 83.903,6.4321 C85.124,5.8071 85.856,4.2401 86.111,2.6251 C86.529,3.0161 86.949,3.4251 87.34,3.8601 C87.296,4.0521 87.259,4.2471 87.221,4.4421 C87.105,5.0441 86.985,5.6661 86.675,6.1891 C86.331,6.7681 85.773,7.1961 85.223,7.5731 C84.878,7.8081 84.515,8.0401 84.164,8.2651 Z M82.834,12.3302 C82.811,12.3772 82.792,12.4272 82.77,12.4752 C82.161,12.1382 81.608,11.6162 81.131,10.9452 C81.953,9.9142 83.128,9.1622 84.27,8.4302 C84.622,8.2052 84.987,7.9722 85.334,7.7352 C85.903,7.3462 86.481,6.9022 86.844,6.2892 C87.172,5.7362 87.295,5.0972 87.415,4.4792 C87.443,4.3342 87.473,4.1892 87.503,4.0452 C88.198,4.8492 88.778,5.7432 89.045,6.7802 C89.057,6.8232 89.063,6.8652 89.072,6.9072 C88.163,8.2992 86.868,9.4492 85.373,10.1712 C85.255,10.2282 85.136,10.2832 85.016,10.3372 C84.569,10.5422 84.108,10.7532 83.729,11.0832 C83.391,11.3782 83.107,11.7742 82.834,12.3302 Z M85.4583,10.3481 C86.9253,9.6401 88.2073,8.5301 89.1293,7.1841 C89.3703,8.5051 89.1183,9.7771 88.4193,10.7201 C88.0483,11.2201 87.5843,11.6261 87.0813,11.9741 C86.9573,12.0601 86.8303,12.1431 86.7013,12.2231 C85.3573,13.0581 84.0643,13.1101 82.9463,12.5631 C82.9683,12.5151 82.9873,12.4641 83.0103,12.4171 C83.2713,11.8851 83.5413,11.5081 83.8583,11.2311 C84.2153,10.9201 84.6643,10.7151 85.0973,10.5161 C85.2183,10.4611 85.3393,10.4061 85.4583,10.3481 Z M16.7876,10.5829 C15.7256,10.0029 14.6446,9.3439 13.7686,8.4669 C14.0186,8.2409 14.2706,8.0179 14.5296,7.8039 C15.2616,7.1989 16.0016,6.6769 16.8826,6.4579 C18.6726,8.4409 21.0706,9.8579 23.6576,10.5289 C24.2716,11.6049 24.7126,12.7639 25.1616,13.9199 C25.1776,13.9619 25.1946,14.0039 25.2106,14.0459 C25.1816,14.0379 25.1546,14.0329 25.1246,14.0239 C22.2336,13.1839 19.4296,12.0259 16.7876,10.5829 Z M12.0714,15.4893 C10.3154,14.7563 8.9444,13.8263 7.9764,12.7173 C8.0264,12.6713 8.0764,12.6243 8.1284,12.5793 C8.8794,11.9323 9.7694,11.4753 10.6234,10.9673 C15.0364,14.5943 20.6784,16.7553 26.3834,17.0053 C26.7644,17.9613 27.1404,18.9193 27.4964,19.8833 C27.8134,20.7383 28.0044,21.6853 27.7364,22.5553 C27.7044,22.6563 27.6674,22.7543 27.6254,22.8493 C24.7834,20.4683 21.4754,18.6013 17.9724,17.4133 C17.2314,17.1613 16.4684,16.9363 15.7314,16.7173 C14.5154,16.3573 13.2584,15.9843 12.0714,15.4893 Z M26.3044,16.8059 C20.6944,16.5409 15.1514,14.4149 10.8014,10.8589 C11.0144,10.7299 11.2244,10.5979 11.4294,10.4559 C12.2184,9.9069 12.9144,9.2449 13.6234,8.5989 C14.5164,9.4959 15.6154,10.1669 16.6934,10.7559 C19.3474,12.2059 22.1654,13.3689 25.0694,14.2119 C25.1484,14.2359 25.2234,14.2539 25.3004,14.2729 C25.6314,15.1189 25.9684,15.9619 26.3044,16.8059 Z M23.5206,10.2888 C21.0776,9.6178 18.8156,8.2738 17.1036,6.4098 C17.3286,6.3678 17.5646,6.3458 17.8116,6.3478 C17.8876,6.3478 17.9636,6.3508 18.0396,6.3548 C18.8576,6.4038 19.6546,6.6898 20.3686,7.0978 C21.5106,7.7488 22.4586,8.7058 23.2006,9.7888 C23.3126,9.9538 23.4186,10.1198 23.5206,10.2888 Z M17.9091,17.5994 C21.4031,18.7854 24.7031,20.6514 27.5351,23.0314 C27.2181,23.6464 26.7061,24.1624 26.1961,24.6434 C25.5551,25.2474 24.8941,25.8394 24.1601,26.3214 C22.9111,24.0554 20.5931,22.6964 19.1761,22.0424 C17.6861,21.3554 16.0891,20.8764 14.5441,20.4134 C13.5391,20.1124 12.4981,19.8004 11.4981,19.4344 C9.0771,18.5474 7.2841,17.4314 6.0581,16.0494 C6.3611,14.8484 6.9271,13.7404 7.8331,12.8524 C8.8201,13.9814 10.2151,14.9274 11.9961,15.6704 C13.1921,16.1704 14.4541,16.5444 15.6751,16.9054 C16.4111,17.1234 17.1721,17.3494 17.9091,17.5994 Z M19.0945,22.2211 C20.4895,22.8651 22.7735,24.2031 23.9945,26.4291 C23.8965,26.4901 23.7975,26.5501 23.6975,26.6071 C22.6325,27.2081 21.3845,27.5481 20.1735,27.2551 C19.0485,26.9831 18.0485,26.3231 16.9315,26.0391 C16.4115,25.3861 15.8285,24.7771 15.1245,24.3071 C13.7895,23.4151 12.1545,23.1071 10.5735,22.8091 C8.9415,22.5021 7.3905,22.2081 6.1285,21.3351 C5.7435,19.7051 5.6385,17.9181 6.0025,16.2841 C7.2475,17.6431 9.0385,18.7421 11.4305,19.6191 C12.4365,19.9871 13.4795,20.3001 14.4885,20.6021 C16.0255,21.0631 17.6165,21.5391 19.0945,22.2211 Z M15.0152,24.4704 C15.6302,24.8814 16.1502,25.4044 16.6202,25.9704 C16.5332,25.9544 16.4452,25.9404 16.3562,25.9304 C14.9772,25.7704 13.7792,26.3854 12.5552,26.9024 C11.8832,26.3424 10.9862,25.9434 9.9382,25.7454 C9.2342,25.6124 8.5162,25.5724 7.8052,25.5614 C7.3612,24.6474 6.8822,23.7074 6.5442,22.7524 C6.4132,22.3864 6.2982,22.0054 6.1962,21.6144 C7.4732,22.4234 9.0272,22.7184 10.5372,23.0024 C12.0992,23.2964 13.7142,23.6004 15.0152,24.4704 Z M9.9017,25.9383 C10.8757,26.1223 11.7157,26.4823 12.3517,26.9863 C12.1057,27.0863 11.8587,27.1823 11.6077,27.2643 C10.8707,27.5053 10.0417,27.6003 9.3337,27.2793 C8.6877,26.9873 8.2387,26.3923 7.9077,25.7593 C8.5747,25.7733 9.2457,25.8143 9.9017,25.9383 Z M78.0614,36.4364 C77.0134,34.1374 75.4804,31.3754 72.8174,29.9994 C73.8034,29.8724 74.8034,29.8274 75.8004,29.8484 C77.0424,30.5444 78.0454,31.7674 79.0194,32.9554 C79.4424,33.4704 79.8424,33.9574 80.2514,34.3904 C81.7974,36.0224 83.9174,36.7734 86.5564,36.6244 C86.6424,36.6204 86.7304,36.6124 86.8184,36.6064 C87.5874,38.3884 88.2564,40.2034 88.9514,42.0104 C87.4944,42.2074 85.5464,42.1194 84.0064,41.7734 C82.3754,41.4074 81.0794,40.7474 80.1554,39.8134 C79.2064,38.8554 78.6014,37.6194 78.0614,36.4364 Z M79.1718,32.8302 C78.2658,31.7252 77.3348,30.5922 76.2028,29.8612 C76.7318,29.8822 77.2608,29.9182 77.7848,29.9722 C78.0508,29.9992 78.3178,30.0332 78.5858,30.0712 C79.1028,30.5182 79.5028,31.0872 79.8918,31.6432 C80.3848,32.3492 80.8948,33.0792 81.6488,33.5742 C82.3508,34.0342 83.1668,34.2962 84.0098,34.3302 C84.0648,34.3322 84.1428,34.3322 84.2338,34.3272 C84.6048,34.3062 85.1938,34.2052 85.3638,33.8822 C85.3788,33.8512 85.3858,33.8192 85.3928,33.7862 C85.9228,34.5972 86.3348,35.4932 86.7238,36.3842 C86.7278,36.3942 86.7318,36.4042 86.7368,36.4142 C84.0638,36.6082 81.9358,35.8812 80.3948,34.2552 C79.9898,33.8272 79.5918,33.3432 79.1718,32.8302 Z M87.3925,49.1621 C88.5775,49.3071 89.7135,49.4471 90.7415,49.6301 C90.5555,51.2881 90.0755,52.9081 89.5595,54.5001 C89.2155,55.5601 88.8515,56.6131 88.4815,57.6651 C87.9055,57.4151 87.2395,57.2121 86.4785,57.0521 C85.6615,56.8811 84.8195,56.7821 84.0055,56.6861 C83.4815,56.6251 82.9405,56.5611 82.4115,56.4791 C80.7875,56.2261 79.5845,55.8231 78.6235,55.2111 C76.5695,53.9031 75.5495,51.5741 75.0575,49.8511 C74.7125,48.6451 74.5045,47.3811 74.3045,46.1601 C74.1525,45.2391 73.9965,44.2871 73.7815,43.3621 C73.4085,41.7521 72.8885,40.4191 72.1935,39.2871 C71.4875,38.1391 70.5355,37.3021 69.5265,36.4161 L69.3695,36.2781 C67.9665,35.0431 66.5115,34.1301 65.0375,33.5521 C65.9065,32.7481 66.8655,32.0441 67.9215,31.4881 C67.9535,31.4711 67.9865,31.4571 68.0195,31.4401 C69.2095,31.8851 70.3985,32.4011 71.4425,33.2441 C73.8225,35.0431 74.7505,38.5551 75.5685,41.6531 C75.8155,42.5861 76.0485,43.4671 76.3055,44.2431 C77.4075,47.9401 82.7125,48.5891 87.3925,49.1621 Z M80.0531,31.5304 C79.7131,31.0434 79.3631,30.5474 78.9331,30.1234 C81.0051,30.4554 83.0491,31.1494 84.4911,32.6384 C84.7091,32.8634 84.9071,33.1054 85.0931,33.3554 L85.0771,33.3674 C85.2081,33.5404 85.2461,33.6824 85.1891,33.7904 C85.0471,34.0614 84.3561,34.1474 84.0171,34.1334 C83.2101,34.1014 82.4291,33.8504 81.7561,33.4094 C81.0341,32.9354 80.5361,32.2214 80.0531,31.5304 Z M88.1109,42.2907 C88.4319,42.2727 88.7359,42.2407 89.0239,42.1997 C89.1329,42.4817 89.2419,42.7627 89.3529,43.0437 C89.7969,44.1747 90.2469,45.1747 90.5299,46.2407 C90.5479,46.3287 90.5669,46.4167 90.5849,46.5047 C90.7199,47.1907 90.7849,47.8607 90.8179,48.5277 C90.8169,48.6137 90.8159,48.6977 90.8119,48.7847 C90.8019,49.0027 90.7839,49.2177 90.7629,49.4337 C89.7379,49.2517 88.6019,49.1127 87.4169,48.9667 C82.7959,48.4017 77.5589,47.7607 76.4939,44.1837 C76.2369,43.4107 76.0039,42.5327 75.7589,41.6027 C74.9319,38.4737 73.9939,34.9267 71.5629,33.0897 C70.5499,32.2707 69.4079,31.7567 68.2609,31.3207 C69.5849,30.6747 71.0049,30.2687 72.4639,30.0497 C75.2339,31.3477 76.8139,34.1737 77.8819,36.5177 C78.4299,37.7167 79.0449,38.9697 80.0159,39.9517 C80.9659,40.9127 82.2939,41.5907 83.9639,41.9657 C85.2329,42.2507 86.7809,42.3657 88.1109,42.2907 Z M65.2218,49.5043 L65.0888,49.7043 C63.4888,52.1223 62.9308,54.3833 63.4288,56.4233 C63.8908,58.3103 65.3218,59.5373 66.7048,60.7233 C67.1258,61.0823 67.5598,61.4553 67.9558,61.8373 C70.1098,63.9153 70.7528,66.8743 71.0948,69.7953 C69.8128,69.5463 68.5288,69.2563 67.2548,68.9463 C67.5108,65.1333 64.5488,62.6233 61.9288,60.4053 C61.5058,60.0463 61.1058,59.7083 60.7198,59.3653 C59.4538,58.1763 59.6558,56.3283 59.9188,55.0403 C60.1338,53.9343 60.6148,52.8193 61.0798,51.7413 C61.9768,49.6663 62.9028,47.5203 62.0138,45.2773 C61.3858,44.0113 60.0048,43.6563 58.6708,43.4303 C59.2308,42.6253 59.6938,41.7683 60.1288,40.8953 C62.1298,41.3433 64.5108,42.0863 66.0428,43.7383 C67.7958,45.6273 66.4278,47.6873 65.2218,49.5043 Z M57.2478,61.115 C58.2148,62.805 59.1318,64.413 59.2878,66.49 C57.9528,65.806 56.7448,64.922 55.8028,63.757 C54.4828,62.127 53.7928,60.087 53.2308,58.067 C52.5528,55.635 52.0308,52.995 52.9148,50.629 C53.2008,49.864 53.6108,49.182 54.0878,48.544 C55.3208,49.494 55.9928,50.574 56.1378,51.842 C56.2418,52.742 56.1218,53.661 56.0058,54.549 C55.9398,55.061 55.8698,55.591 55.8438,56.115 C55.7688,57.618 56.1028,59.079 56.8078,60.342 C56.9548,60.604 57.1018,60.861 57.2478,61.115 Z M86.438,57.2448 C87.193,57.4028 87.851,57.6038 88.417,57.8508 C87.907,59.2898 87.384,60.7238 86.858,62.1568 C86.676,62.6508 86.493,63.1488 86.297,63.6408 C85.7,65.1388 84.985,66.5888 83.868,67.7328 C83.501,68.1088 83.097,68.4348 82.67,68.7248 C82.563,66.6768 82.036,64.6688 80.589,63.0388 C79.912,62.2768 78.832,61.3548 77.689,60.3788 C75.297,58.3378 72.587,56.0238 71.986,53.9648 C71.606,52.5388 71.769,50.9448 71.928,49.4038 C72.109,47.6278 72.297,45.7928 71.691,44.1068 C70.144,40.7408 67.445,37.7018 64.282,35.7668 C64.114,35.6698 63.918,35.6058 63.711,35.5388 C63.583,35.4968 63.454,35.4518 63.328,35.4008 C63.807,34.8008 64.323,34.2308 64.877,33.7028 C66.36,34.2698 67.826,35.1808 69.24,36.4248 L69.397,36.5638 C70.394,37.4398 71.336,38.2668 72.026,39.3898 C72.71,40.5038 73.222,41.8178 73.59,43.4068 C73.803,44.3258 73.959,45.2738 74.11,46.1918 C74.312,47.4188 74.52,48.6878 74.869,49.9058 C75.371,51.6608 76.411,54.0358 78.518,55.3768 C79.502,56.0038 80.73,56.4158 82.382,56.6728 C82.914,56.7558 83.457,56.8198 83.983,56.8818 C84.792,56.9768 85.629,57.0758 86.438,57.2448 Z M80.4415,63.1689 C81.8805,64.7889 82.3865,66.8039 82.4785,68.8559 C80.5725,70.0739 78.1775,70.5029 75.8395,70.4289 C75.9395,65.9219 72.8655,62.5209 69.8885,59.2309 C69.5485,58.8559 69.2095,58.4819 68.8865,58.1199 C68.0905,56.9149 67.7275,55.9129 67.7785,55.0559 C67.8125,54.4839 67.8595,53.8769 67.9105,53.2359 C68.1505,50.1719 68.4235,46.6989 67.5015,43.9289 C66.4555,40.5419 64.5375,39.1539 60.9505,39.2209 C61.3815,38.3529 61.8335,37.4949 62.3795,36.6869 C62.6405,36.3029 62.9135,35.9259 63.2005,35.5599 C63.3515,35.6249 63.5045,35.6779 63.6505,35.7249 C63.8475,35.7889 64.0345,35.8499 64.1825,35.9359 C67.3095,37.8499 69.9805,40.8579 71.5085,44.1819 C72.0975,45.8169 71.9115,47.6299 71.7315,49.3839 C71.5725,50.9419 71.4065,52.5539 71.7965,54.0179 C72.4145,56.1349 75.1485,58.4689 77.5615,60.5289 C78.6995,61.4999 79.7735,62.4179 80.4415,63.1689 Z M69.7423,59.363 C72.6933,62.623 75.7403,65.993 75.6423,70.423 C75.2393,70.405 74.8373,70.374 74.4403,70.328 C73.4003,70.207 72.3503,70.035 71.2973,69.834 C70.9523,66.858 70.3053,63.832 68.0923,61.696 C67.6923,61.309 67.2553,60.935 66.8333,60.574 C65.4733,59.408 64.0663,58.204 63.6203,56.377 C63.1363,54.392 63.6853,52.183 65.2523,49.813 L65.3853,49.613 C66.5703,47.828 68.0453,45.607 66.1873,43.605 C64.6303,41.926 62.2383,41.169 60.2193,40.714 C60.4313,40.284 60.6403,39.852 60.8513,39.421 C64.3993,39.329 66.2893,40.67 67.3143,43.989 C68.2243,46.723 67.9533,50.175 67.7133,53.22 C67.6643,53.863 67.6163,54.47 67.5823,55.045 C67.5283,55.945 67.9023,56.987 68.7313,58.239 C69.0633,58.613 69.4023,58.987 69.7423,59.363 Z M56.3337,51.8193 C56.1817,50.4953 55.4837,49.3693 54.2047,48.3863 C54.7467,47.6883 55.3677,47.0443 55.9987,46.4093 C58.0577,47.5943 59.1037,50.0133 58.5647,52.5213 C58.4367,52.9313 58.2957,53.3393 58.1587,53.7343 C57.4267,55.8543 56.7347,57.8573 57.9157,59.9813 C58.4877,61.0463 59.2107,61.9783 59.9097,62.8793 C61.0887,64.3973 62.2017,65.8363 62.4647,67.7263 C61.4457,67.4273 60.4387,67.0563 59.4907,66.5893 C59.3587,64.4143 58.4147,62.7593 57.4187,61.0173 C57.2727,60.7633 57.1257,60.5063 56.9797,60.2453 C56.2917,59.0153 55.9667,57.5903 56.0397,56.1243 C56.0657,55.6093 56.1347,55.0823 56.2007,54.5743 C56.3187,53.6743 56.4397,52.7433 56.3337,51.8193 Z M61.8023,60.555 C64.3773,62.736 67.2883,65.203 67.0613,68.898 C65.8463,68.601 64.6393,68.292 63.4553,67.996 C63.1943,67.93 62.9323,67.859 62.6703,67.785 C62.4223,65.801 61.2783,64.321 60.0653,62.759 C59.3713,61.864 58.6533,60.939 58.0883,59.887 C56.9493,57.839 57.6273,55.876 58.3453,53.798 C58.4823,53.402 58.6233,52.992 58.7553,52.571 C59.3103,49.988 58.2453,47.502 56.1423,46.266 C56.8183,45.587 57.4993,44.914 58.0963,44.191 C58.2543,44.001 58.4013,43.806 58.5433,43.608 C59.9053,43.833 61.2353,44.149 61.8343,45.358 C62.6903,47.517 61.7803,49.625 60.8993,51.663 C60.4303,52.751 59.9453,53.875 59.7263,55.002 C59.4543,56.335 59.2473,58.253 60.5873,59.511 C60.9773,59.857 61.3783,60.196 61.8023,60.555 Z M15.8349,32.5852 C15.1519,32.5252 14.4469,32.4612 13.7099,32.3542 C14.3009,31.7782 14.9939,31.2622 15.8129,30.8172 C16.9159,30.2192 18.0379,29.8832 19.1689,29.7382 C20.5309,30.0332 21.8809,30.4102 23.1939,30.8702 C24.2089,31.2262 25.2649,31.6542 26.1079,32.3682 C27.5289,33.5732 28.2009,35.4642 28.7179,37.1432 C29.5689,39.8962 30.2599,42.7302 30.7739,45.5642 C31.0349,47.0052 31.2999,48.7062 31.2829,50.3912 C31.2559,53.0992 30.5159,55.7712 29.7989,58.3542 C29.4649,59.5582 29.1199,60.8032 28.8499,62.0392 C27.2979,69.1472 28.1439,76.7382 31.1499,83.3562 C29.3269,83.1982 27.4629,82.7092 25.7479,81.9792 C23.6029,75.9702 21.9269,69.2422 22.7409,62.4742 C23.0519,59.8952 23.7279,57.3242 24.3829,54.8382 C25.2469,51.5582 26.1399,48.1662 26.1979,44.7222 C26.2289,42.8502 26.0159,40.9812 25.5629,39.1652 C25.2629,37.9652 24.7199,36.2322 23.4649,35.0582 C22.4129,34.0742 21.0029,33.5952 19.7629,33.2222 C18.3949,32.8112 17.1519,32.7012 15.8349,32.5852 Z M20.0847,64.0285 C19.3507,67.2055 18.5977,70.4845 17.9617,73.7735 C17.7407,73.1785 17.5307,72.5785 17.3137,71.9835 C17.2777,71.0805 17.2307,70.1785 17.1827,69.2965 C17.0987,67.7735 17.0137,66.1995 17.0027,64.6485 C16.9807,61.6335 17.4137,58.6025 17.8327,55.6725 C18.1827,53.2175 18.5447,50.6785 18.6417,48.1515 C18.8347,43.0825 14.1397,37.0375 12.0247,34.5825 C12.1897,34.2825 12.3697,33.9925 12.5657,33.7105 C17.0257,34.9815 20.9747,38.8585 22.7037,43.6965 C23.0277,45.6345 23.3617,47.6385 23.0337,49.6025 C22.2697,54.5645 21.1597,59.3755 20.0847,64.0285 Z M22.5462,62.4508 C21.7352,69.1918 23.3772,75.8838 25.5012,81.8718 C23.2592,80.8778 21.2952,79.4768 20.0552,77.8728 C19.1862,76.7488 18.6022,75.4548 18.0932,74.1208 C18.7402,70.7318 19.5202,67.3488 20.2762,64.0728 C21.3512,59.4168 22.4642,54.6018 23.2272,49.6338 C23.5602,47.6378 23.2232,45.6178 22.8932,43.6468 C21.1472,38.7588 17.1782,34.8498 12.6852,33.5418 C12.9422,33.1878 13.2262,32.8488 13.5392,32.5278 L13.5652,32.5318 C14.3512,32.6518 15.0962,32.7168 15.8172,32.7808 C17.1242,32.8958 18.3572,33.0048 19.7062,33.4108 C20.9252,33.7768 22.3102,34.2468 23.3302,35.2018 C24.5482,36.3408 25.0782,38.0368 25.3712,39.2128 C25.8202,41.0118 26.0322,42.8638 26.0012,44.7188 C25.9432,48.1388 25.0532,51.5188 24.1922,54.7878 C23.5362,57.2808 22.8582,59.8578 22.5462,62.4508 Z M9.2625,57.9251 C9.3065,55.4721 8.7875,52.9931 7.7645,50.7631 C7.8335,50.5371 7.9055,50.3131 7.9755,50.0911 C8.3795,48.8151 8.7375,47.5251 9.0515,46.2241 C10.2545,50.5421 10.7315,55.0681 10.4375,59.5351 C10.0415,59.0101 9.6395,58.4721 9.2625,57.9251 Z M16.9863,69.3069 C17.0243,69.9929 17.0613,70.6899 17.0923,71.3899 C17.0923,71.3899 17.0923,71.3889 17.0923,71.3879 C16.4033,69.5729 15.5673,67.8199 14.6433,66.1139 L13.9483,51.6179 C13.8653,49.8719 13.7783,48.0649 13.5133,46.2999 C13.0383,43.1439 11.9843,40.0779 10.9373,37.2039 C11.1983,36.3519 11.5193,35.5349 11.9253,34.7679 C14.0493,37.2419 18.6333,43.1839 18.4443,48.1439 C18.3493,50.6609 17.9873,53.1949 17.6383,55.6449 C17.2183,58.5819 16.7843,61.6199 16.8053,64.6499 C16.8163,66.2049 16.9033,67.7819 16.9863,69.3069 Z M13.7519,51.628 L14.4269,65.718 C13.7219,64.441 12.9699,63.188 12.1869,61.958 C12.1579,61.911 12.1239,61.862 12.0939,61.815 C12.7659,55.089 12.0359,48.275 9.9339,41.834 C10.1819,40.362 10.4439,38.901 10.8429,37.521 C11.8569,40.314 12.8599,43.281 13.3179,46.33 C13.5829,48.084 13.6689,49.886 13.7519,51.628 Z M11.922,61.5556 C11.531,60.9806 11.08,60.3836 10.616,59.7706 C10.95,55.0916 10.443,50.3436 9.143,45.8306 C9.42,44.6456 9.662,43.4536 9.863,42.2546 C11.843,48.4856 12.539,55.0596 11.922,61.5556 Z M7.6769,51.0529 C8.5889,53.1169 9.0699,55.3849 9.0699,57.6409 C8.2209,56.3719 7.5259,55.0539 7.3489,53.7089 C7.2299,52.8159 7.4209,51.9259 7.6769,51.0529 Z M43.0739,72.8691 C43.3329,73.3321 43.6219,73.7821 43.9469,74.2061 C43.0869,75.4431 42.2529,76.5931 41.5869,77.6091 C41.5729,77.6301 41.5589,77.6511 41.5449,77.6731 C41.0809,77.1831 40.6089,76.6771 40.2159,76.1311 C38.8839,74.2841 38.3889,71.9221 37.9539,69.8381 C37.3319,66.8721 36.6899,63.8051 36.6589,60.7241 C36.6379,58.6191 36.9019,56.4681 37.1569,54.3881 C37.4319,52.1401 37.7109,49.8421 37.6339,47.5701 C38.1419,48.3241 38.6869,49.0981 39.2689,49.8841 C38.6779,56.4901 39.4779,63.2081 41.6259,69.4891 C42.0019,70.5891 42.4559,71.7671 43.0739,72.8691 Z M46.2925,69.5882 C46.3925,69.7382 46.4925,69.8872 46.5965,70.0382 C45.8285,71.4292 44.9385,72.7772 44.0655,74.0372 C43.7545,73.6252 43.4775,73.1892 43.2275,72.7412 C42.6245,71.6602 42.1805,70.5052 41.8115,69.4252 C39.6955,63.2392 38.8925,56.6262 39.4435,50.1172 C40.0965,50.9892 40.7955,51.8722 41.5405,52.7532 C40.9395,56.0052 41.4955,59.0742 42.1415,61.2212 C42.9405,63.8792 44.2715,66.5612 46.2925,69.5882 Z M34.9511,45.3799 C34.8641,44.3669 34.7491,43.4509 34.6041,42.6069 C35.3501,43.9629 36.2911,45.5539 37.4251,47.2599 C37.5411,49.6209 37.2491,52.0199 36.9611,54.3639 C36.7051,56.4509 36.4401,58.6089 36.4621,60.7259 C36.4941,63.8259 37.1381,66.9029 37.7611,69.8789 C38.2011,71.9819 38.7001,74.3649 40.0571,76.2459 C40.4661,76.8139 40.9551,77.3359 41.4331,77.8419 C40.4221,79.3789 39.3531,80.9289 37.8291,81.9519 C37.4891,82.1809 37.1281,82.3779 36.7531,82.5499 C36.3711,82.2639 36.1091,81.8199 35.8731,81.3839 C31.6641,73.5939 30.7411,64.2719 33.3401,55.8079 C33.4881,55.3239 33.6511,54.8349 33.8081,54.3609 C34.2161,53.1349 34.6371,51.8659 34.8591,50.5689 C35.1751,48.7159 35.0741,46.8219 34.9511,45.3799 Z M35.7005,81.4768 C35.9295,81.9008 36.1835,82.3308 36.5495,82.6368 C35.0115,83.2918 33.2205,83.5068 31.3735,83.3748 C28.3485,76.7708 27.4905,69.1838 29.0425,62.0818 C29.3105,60.8508 29.6555,59.6078 29.9885,58.4068 C30.7075,55.8108 31.4515,53.1268 31.4805,50.3928 C31.4965,48.6918 31.2305,46.9788 30.9675,45.5288 C30.4525,42.6868 29.7585,39.8458 28.9065,37.0848 C28.3805,35.3798 27.6965,33.4568 26.2355,32.2188 C25.3675,31.4828 24.2915,31.0468 23.2585,30.6848 C22.1255,30.2878 20.9645,29.9538 19.7915,29.6778 C20.9385,29.5988 22.0935,29.7028 23.2465,29.9158 C26.0085,30.4648 29.7425,32.0838 31.7565,36.6918 C31.9765,37.2338 32.1975,37.7598 32.4395,38.2408 C32.4405,38.2438 33.0585,39.7408 34.2975,42.0458 C34.4975,43.0448 34.6485,44.1458 34.7545,45.3958 C34.8775,46.8268 34.9785,48.7048 34.6655,50.5358 C34.4455,51.8188 34.0275,53.0798 33.6225,54.2988 C33.4645,54.7738 33.3015,55.2638 33.1525,55.7498 C30.5375,64.2638 31.4665,73.6408 35.7005,81.4768 Z M48.2156,60.6283 C48.8716,62.3063 48.8216,64.0803 48.3526,65.8593 C47.3306,64.7033 46.5706,63.2963 46.1836,61.8093 C45.9036,60.7293 45.8076,59.5973 45.7326,58.4903 C45.7236,58.3693 45.7156,58.2483 45.7086,58.1283 C45.6856,57.7853 45.6616,57.4373 45.6336,57.0873 C45.7726,57.2353 45.9166,57.3913 46.0656,57.5543 C46.2696,57.7843 46.4736,58.0153 46.6736,58.2483 C46.7046,58.2843 46.7346,58.3203 46.7666,58.3573 C46.7876,58.3833 46.8096,58.4093 46.8306,58.4343 C47.3916,59.1083 47.8976,59.8153 48.2156,60.6283 Z M48.2806,66.0743 L48.2906,66.0853 C48.0676,66.8743 47.7656,67.6643 47.4066,68.4463 C47.1896,68.9163 46.9526,69.3833 46.7016,69.8463 C46.6056,69.7043 46.5116,69.5643 46.4186,69.4233 C44.4296,66.4363 43.1186,63.7863 42.3296,61.1643 C41.7006,59.0753 41.1616,56.1043 41.7086,52.9503 C42.1866,53.5093 42.6836,54.0673 43.1986,54.6213 C43.3886,54.8293 43.5706,55.0223 43.7216,55.1763 C43.7356,55.1913 43.7516,55.2063 43.7656,55.2213 C44.1846,55.6453 44.7376,56.1583 45.3956,56.8393 C45.4026,56.8463 45.4096,56.8543 45.4166,56.8613 C45.4536,57.2903 45.4836,57.7203 45.5116,58.1413 C45.5146,58.1883 45.5186,58.2343 45.5216,58.2803 C45.6006,59.4673 45.6896,60.6893 45.9936,61.8583 C46.3976,63.4113 47.1996,64.8793 48.2806,66.0743 Z M43.0452,21.9334 C44.1652,18.5824 43.8272,14.9714 42.0162,10.9164 C42.9662,10.8564 43.9172,10.8044 44.8682,10.7374 C47.1512,15.4724 46.9632,21.4554 44.3462,27.1654 C43.9032,28.1004 43.4082,29.0394 42.9292,29.9484 C41.3232,32.9914 39.6692,36.1374 39.7242,39.6244 C39.1942,38.7024 38.7342,37.7254 38.1962,36.8184 L38.2242,36.8184 C38.2012,35.3124 38.4502,33.6354 39.0082,31.5414 C39.4972,29.7054 40.3442,27.9594 41.1652,26.2704 C41.8432,24.8734 42.5452,23.4294 43.0452,21.9334 Z M34.5017,19.3981 C35.2827,17.4441 35.6527,14.4491 35.4397,11.9461 C36.2577,11.5701 37.1467,11.3881 38.0457,11.2681 C38.1387,14.8891 36.6327,18.6631 35.4087,21.7211 C34.0857,24.8651 34.6697,28.3071 35.2337,31.6361 C35.3527,32.3401 35.4667,33.0181 35.5637,33.6871 C35.1927,33.3341 34.8177,32.9841 34.4497,32.6281 C34.2277,31.4781 33.9197,30.3771 33.6177,29.3121 C33.3027,28.2031 32.9767,27.0561 32.7627,25.8821 C32.4267,24.0331 33.1407,22.4581 33.8957,20.7901 C34.1007,20.3381 34.3127,19.8711 34.5017,19.3981 Z M31.787,28.2528 C31.984,28.9948 32.212,29.7058 32.467,30.3838 C31.333,28.8268 30.462,27.0698 30.114,25.1648 C29.601,22.3438 30.26,19.4178 31.394,16.7848 C31.954,15.4858 32.675,14.1928 33.663,13.2018 C33.706,14.8778 33.041,16.4588 32.394,17.9908 C32.083,18.7278 31.761,19.4898 31.525,20.2498 C30.637,23.0968 31.126,25.7788 31.787,28.2528 Z M52.4454,15.5447 C51.4904,14.0717 50.5104,12.5517 49.9084,10.9947 C49.9234,11.0007 49.9384,11.0047 49.9534,11.0107 C51.3974,11.5387 52.7004,12.3777 53.9604,13.2617 C53.9854,13.7307 54.0194,14.1277 54.2014,14.6727 C54.5544,15.6837 55.0254,16.6937 55.5244,17.7627 C57.1454,21.2407 58.8224,24.8377 56.1764,28.3107 C54.8404,30.0637 53.4274,31.6727 52.0614,33.2277 C49.8064,35.7927 47.6784,38.2157 45.9204,41.1927 C45.6024,41.9867 45.5094,42.7717 45.5224,43.6347 C44.5554,43.4887 43.6164,43.2377 42.7684,42.8017 C42.2064,38.5817 45.5774,34.6597 48.2984,31.4977 C48.6084,31.1367 48.9094,30.7867 49.1954,30.4467 C49.4684,30.1217 49.7574,29.7887 50.0514,29.4477 C52.8504,26.2077 56.3334,22.1757 53.8754,17.8447 C53.4494,17.0927 52.9614,16.3407 52.4454,15.5447 Z M52.9312,37.61 C51.5612,39.583 50.8682,41.737 50.9502,43.736 C49.9512,43.86 48.9282,43.863 47.9202,43.831 C47.1922,43.807 46.4502,43.762 45.7192,43.662 C45.7032,42.811 45.7912,42.043 46.0962,41.279 C47.8372,38.332 49.9612,35.916 52.2092,33.357 C53.5772,31.8 54.9932,30.189 56.3332,28.43 C59.0502,24.863 57.3482,21.211 55.7022,17.68 C55.2062,16.615 54.7372,15.609 54.3872,14.609 C54.2342,14.149 54.1912,13.796 54.1652,13.407 C54.2002,13.431 54.2342,13.455 54.2682,13.479 C56.0722,14.761 57.8282,16.109 59.5832,17.459 C59.5882,19.042 59.9792,20.441 60.3952,21.918 C60.5892,22.609 60.7902,23.323 60.9462,24.053 C61.3642,26.012 61.0212,27.929 59.9262,29.752 C58.9522,31.373 57.5722,32.7 56.2372,33.983 C55.0742,35.101 53.8712,36.257 52.9312,37.61 Z M63.5454,21.4568 C64.9034,23.9838 64.4194,27.1378 63.2514,29.7578 C61.9824,32.6048 60.2014,35.4018 58.5674,38.0678 C57.2504,40.2188 55.5314,42.2668 53.1864,43.1938 C52.5294,43.4528 51.8444,43.6138 51.1454,43.7118 C51.0704,41.7608 51.7504,39.6548 53.0924,37.7218 C54.0214,36.3848 55.2164,35.2358 56.3734,34.1248 C57.7174,32.8328 59.1074,31.4968 60.0944,29.8538 C61.2164,27.9868 61.5674,26.0208 61.1394,24.0128 C60.9814,23.2758 60.7794,22.5588 60.5844,21.8648 C60.1854,20.4498 59.8124,19.1068 59.7834,17.6128 L59.7864,17.6158 C60.1404,17.8878 60.4974,18.1638 60.8474,18.4478 C61.9084,19.3128 62.9014,20.2598 63.5454,21.4568 Z M33.4277,29.3655 C33.7047,30.3395 33.9837,31.3435 34.2007,32.3835 C33.7507,31.9375 33.3147,31.4775 32.9187,30.9785 C32.9137,30.9725 32.9097,30.9665 32.9047,30.9595 C32.5477,30.0995 32.2367,29.1775 31.9767,28.2025 C31.3237,25.7565 30.8397,23.1085 31.7117,20.3085 C31.9467,19.5575 32.2657,18.7995 32.5747,18.0675 C33.2527,16.4635 33.9507,14.8055 33.8517,13.0215 C34.2697,12.6315 34.7327,12.2945 35.2497,12.0335 C35.4477,14.4935 35.0827,17.4145 34.3187,19.3255 C34.1317,19.7935 33.9207,20.2595 33.7167,20.7095 C32.9487,22.4055 32.2227,24.0075 32.5697,25.9175 C32.7847,27.1015 33.1117,28.2525 33.4277,29.3655 Z M45.8595,30.5486 C43.4995,33.7016 41.2705,36.6796 40.3345,40.5346 L40.3235,40.5796 C40.1855,40.3806 40.0555,40.1776 39.9285,39.9696 C39.9265,39.9166 39.9235,39.8626 39.9215,39.8156 C39.8005,36.3016 41.4785,33.1176 43.1025,30.0396 C43.5835,29.1296 44.0795,28.1876 44.5245,27.2486 C47.1535,21.5126 47.3505,15.4996 45.0765,10.7226 C45.5125,10.6896 45.9295,10.6526 46.3375,10.6246 C48.2725,12.9916 50.2595,15.7326 50.6575,18.7156 C50.8855,21.4416 50.3905,23.7756 49.1455,25.8486 C48.1425,27.4976 46.9815,29.0486 45.8595,30.5486 Z M53.7052,17.9417 C56.0942,22.1527 52.6612,26.1257 49.9032,29.3187 C49.6082,29.6607 49.3192,29.9947 49.0452,30.3197 C48.7602,30.6587 48.4592,31.0087 48.1492,31.3697 C45.4332,34.5267 42.0722,38.4337 42.5552,42.6857 C42.2972,42.5407 42.0492,42.3797 41.8112,42.1957 C41.2922,41.7917 40.8622,41.3157 40.4822,40.7997 L40.5252,40.5807 C41.4522,36.7657 43.6692,33.8027 46.0162,30.6667 C47.1412,29.1627 48.3052,27.6087 49.3142,25.9507 C50.5812,23.8397 51.0842,21.4677 50.8532,18.6947 C50.4542,15.7027 48.5022,12.9727 46.5782,10.6087 C47.6052,10.5487 48.5872,10.5697 49.6682,10.9137 C50.2712,12.5427 51.2882,14.1217 52.2802,15.6517 C52.7952,16.4457 53.2812,17.1947 53.7052,17.9417 Z M41.8066,10.9301 C43.6226,14.9651 43.9686,18.5511 42.8586,21.8711 C42.3626,23.3551 41.6636,24.7941 40.9876,26.1851 C40.1636,27.8821 39.3116,29.6371 38.8176,31.4901 C38.2886,33.4781 38.0386,35.0931 38.0296,36.5471 C37.9906,36.4841 37.9516,36.4201 37.9116,36.3581 C37.7846,36.1621 37.6486,35.9731 37.5086,35.7891 C36.6876,32.1021 36.8526,27.2201 37.9876,24.1941 C39.6166,20.3261 41.2806,15.7761 40.4576,11.0251 C40.9076,10.9901 41.3576,10.9591 41.8066,10.9301 Z M38.864,11.1702 C39.329,11.1202 39.795,11.0782 40.261,11.0402 C40.263,11.0482 40.264,11.0562 40.266,11.0642 L40.265,11.0642 C41.086,15.7702 39.426,20.2702 37.805,24.1222 C36.697,27.0772 36.505,31.7762 37.24,35.4482 C36.792,34.9022 36.301,34.3972 35.794,33.9082 C35.688,33.1422 35.557,32.3642 35.428,31.6032 C34.868,28.3022 34.289,24.8882 35.592,21.7952 C36.824,18.7132 38.341,14.9102 38.242,11.2432 C38.449,11.2172 38.657,11.1922 38.864,11.1702 Z" id="Planets" fill="#FFFFFE" fill-rule="evenodd"></path>
                <path d="M69.4816,61.1718 C69.4816,62.2848 68.5796,63.1868 67.4666,63.1868 C66.3536,63.1868 65.4516,62.2848 65.4516,61.1718 L65.4516,35.1008 C65.4516,33.9878 66.3536,33.0858 67.4666,33.0858 C68.5796,33.0858 69.4816,33.9878 69.4816,35.1008 L69.4816,61.1718 Z M60.3182,59.897 L60.4412,60.843 C60.5242,61.392 60.3932,61.891 60.0512,62.344 C59.7082,62.796 59.2632,63.063 58.7152,63.146 C58.6602,63.173 58.5642,63.186 58.4272,63.186 C57.9332,63.186 57.4952,63.022 57.1112,62.693 C56.7272,62.364 56.4942,61.939 56.4122,61.418 C56.4122,61.392 56.3632,61.042 56.2682,60.37 C56.1722,59.698 56.0622,58.904 55.9392,57.985 C55.8152,57.066 55.6852,56.134 55.5482,55.188 C55.4112,54.243 55.3022,53.469 55.2192,52.865 C55.0822,52.071 54.7262,51.426 54.1502,50.933 C53.5472,50.412 52.8612,50.151 52.0942,50.151 L49.3802,50.151 C49.1602,50.151 48.9822,50.22 48.8462,50.357 C48.7082,50.494 48.6402,50.672 48.6402,50.891 L48.6402,61.131 C48.6402,61.353 48.6092,61.563 48.5492,61.759 C48.4702,61.378 48.3612,61.001 48.2152,60.628 C47.8982,59.815 47.3912,59.108 46.8312,58.435 C46.8092,58.409 46.7882,58.383 46.7662,58.358 C46.7352,58.321 46.7052,58.285 46.6742,58.249 C46.4742,58.015 46.2692,57.785 46.0652,57.554 C45.9172,57.391 45.7732,57.235 45.6332,57.087 C45.2432,56.676 44.8872,56.322 44.5692,56.011 L44.5692,35.101 C44.5692,34.553 44.7752,34.073 45.1862,33.662 C45.5692,33.278 46.0492,33.086 46.6252,33.086 L52.2172,33.086 C53.9722,33.086 55.5622,33.566 56.9882,34.525 C58.4132,35.485 59.4552,36.732 60.1132,38.267 C60.3322,38.816 60.4962,39.364 60.6062,39.912 C60.7162,40.461 60.7712,41.022 60.7712,41.598 C60.7712,43.38 60.2772,44.97 59.2902,46.368 C59.0982,46.67 58.8862,46.958 58.6532,47.231 C58.4192,47.506 58.1802,47.753 57.9332,47.972 C57.7962,48.109 57.7132,48.274 57.6862,48.465 C57.6592,48.657 57.7002,48.822 57.8102,48.959 C58.5772,49.973 59.0432,51.084 59.2082,52.29 C59.2902,52.783 59.3792,53.366 59.4752,54.037 C59.5712,54.709 59.6672,55.408 59.7632,56.134 C59.8592,56.861 59.9542,57.56 60.0512,58.232 C60.1472,58.904 60.2362,59.459 60.3182,59.897 Z M40.4191,53.9269 C40.9671,53.9269 41.4401,54.1259 41.8381,54.5229 C42.2341,54.9209 42.4331,55.3939 42.4331,55.9419 C42.4331,56.6559 42.3241,57.3539 42.1051,58.0389 C41.8851,58.7249 41.5831,59.3689 41.2001,59.9719 C40.4051,61.1789 39.3361,62.0559 37.9931,62.6039 C37.0881,62.9879 36.1561,63.1799 35.1971,63.1799 C33.7711,63.1799 32.4131,62.7679 31.1251,61.9459 C29.9471,61.1509 29.0831,60.0819 28.5351,58.7379 C28.1511,57.8339 27.9591,56.9019 27.9591,55.9419 L27.9591,40.3159 C27.9591,39.3559 28.1511,38.4249 28.5351,37.5199 C29.0831,36.1769 29.9471,35.1069 31.1251,34.3119 C32.4131,33.4899 33.7711,33.0789 35.1971,33.0789 C36.1561,33.0789 37.0881,33.2709 37.9931,33.6549 C39.3361,34.2029 40.4051,35.0799 41.2001,36.2859 C41.5831,36.8889 41.8851,37.5339 42.1051,38.2189 C42.3241,38.9039 42.4331,39.6029 42.4331,40.3159 C42.4331,40.8639 42.2341,41.3379 41.8381,41.7349 C41.4401,42.1329 40.9671,42.3309 40.4191,42.3309 C39.8431,42.3309 39.3561,42.1329 38.9591,41.7349 C38.5611,41.3379 38.3631,40.8639 38.3631,40.3159 C38.3631,39.9049 38.2801,39.4939 38.1161,39.0829 C37.8411,38.4519 37.4581,37.9859 36.9641,37.6839 C36.4431,37.3279 35.8551,37.1499 35.1971,37.1499 C34.7301,37.1499 34.3191,37.2329 33.9631,37.3959 C33.3871,37.6439 32.9211,38.0269 32.5641,38.5479 C32.1811,39.0959 31.9891,39.6849 31.9891,40.3159 L31.9891,55.9419 C31.9891,56.5729 32.1811,57.1619 32.5641,57.7099 C32.9211,58.2309 33.3871,58.6149 33.9631,58.8619 C34.3191,59.0259 34.7301,59.1079 35.1971,59.1079 C35.8551,59.1079 36.4431,58.9299 36.9641,58.5739 C37.4581,58.2719 37.8411,57.8069 38.1161,57.1759 C38.2801,56.7649 38.3631,56.3529 38.3631,55.9419 C38.3631,55.3939 38.5611,54.9209 38.9591,54.5229 C39.3561,54.1259 39.8431,53.9269 40.4191,53.9269 Z M56.3712,43.366 C56.5902,42.763 56.7002,42.174 56.7002,41.598 C56.7002,40.721 56.4532,39.885 55.9602,39.09 C55.4382,38.349 54.7812,37.815 53.9862,37.486 C53.4102,37.239 52.8202,37.116 52.2172,37.116 L49.3802,37.116 C49.1602,37.116 48.9822,37.184 48.8462,37.321 C48.7082,37.459 48.6402,37.637 48.6402,37.856 L48.6402,45.381 C48.6402,45.573 48.7082,45.738 48.8462,45.875 C48.9822,46.012 49.1602,46.08 49.3802,46.08 L52.2172,46.08 C53.1492,46.08 53.9862,45.834 54.7262,45.34 C55.4932,44.847 56.0422,44.188 56.3712,43.366 Z" id="CRI" fill="#1A1919" fill-rule="evenodd"></path>
            </g>
        </g>
    </g>
</svg>