<svg xmlns="http://www.w3.org/2000/svg" width="640" height="640" viewBox="0 0 640 640">
  <g fill="#FFF" transform="rotate(-45 304.314 173.503)">
    <path d="M0,250 L250,250 L250,500 L30,500 C13.4314575,500 2.02906125e-15,486.568542 0,470 L0,250 L0,250 Z" opacity=".95"/>
    <path d="M250,500 L250,250 L375,250 L375,250 C444.035594,250 500,305.964406 500,375 C500,444.035594 444.035594,500 375,500 L250,500 Z" opacity=".6"/>
    <path d="M0,250 L0,0 L125,0 L125,0 C194.035594,-1.26816328e-14 250,55.9644063 250,125 C250,194.035594 194.035594,250 125,250 L0,250 Z" opacity=".6" transform="rotate(-90 125 125)"/>
  </g>
</svg>
