<svg xmlns="http://www.w3.org/2000/svg" width="640" height="640" viewBox="0 0 640 640">
  <g fill="none" fill-rule="evenodd">
    <path fill="#FFF" fill-rule="nonzero" d="M596.5625,184 C609.506674,184 620,194.493326 620,207.4375 L620,460.5625 C620,473.506674 609.506674,484 596.5625,484 L320,484 L320,184 L596.5625,184 Z M466.415,200.875 L449.3375,200.875 C445.197479,200.875 443.1275,202.85873 443.1275,206.82625 L443.1275,206.82625 L443.1275,216.14125 C443.1275,230.631322 451.14867,241.84371 467.19125,249.77875 C475.913673,254.063449 481.242331,256.651267 483.177342,257.54226 L483.177342,257.54226 L483.75125,257.8 C485.045006,258.375 486.758013,259.189579 488.890308,260.243748 L488.890308,260.243748 L490.524032,261.056369 C491.416722,261.498833 492.134747,261.836499 492.678125,262.069375 C493.152502,262.27268 493.839857,262.635719 494.740202,263.1585 L494.740202,263.1585 L495.524375,263.621875 C496.818131,264.398129 497.465,265.82124 497.465,267.89125 C497.465,269.788759 496.43001,270.7375 494.36,270.7375 L494.36,270.7375 L401.21,270.7375 C397.069979,270.7375 395,272.807479 395,276.9475 L395,276.9475 L395,291.69625 C395,295.66377 397.069979,297.6475 401.21,297.6475 L401.21,297.6475 L414.92375,297.6475 C417.166261,297.6475 418.2875,298.768739 418.2875,301.01125 L418.2875,301.01125 L418.2875,374.2375 C418.2875,388.900073 422.858704,400.974953 432.00125,410.4625 C441.143796,419.950047 453.822419,424.69375 470.0375,424.69375 L470.0375,424.69375 L509.62625,424.69375 C513.766271,424.348748 515.83625,422.19252 515.83625,418.225 L515.83625,418.225 L515.83625,403.47625 C515.83625,399.336229 513.766271,397.26625 509.62625,397.26625 L509.62625,397.26625 L476.50625,397.26625 C457.531155,397.26625 448.04375,389.158831 448.04375,372.94375 L448.04375,372.94375 L448.04375,301.01125 C448.04375,298.768739 449.164989,297.6475 451.4075,297.6475 L451.4075,297.6475 L491.7725,297.6475 C494.015011,297.6475 495.13625,298.768739 495.13625,301.01125 L495.13625,301.01125 L495.13625,323.005 C495.13625,329.04253 493.62689,333.225613 490.608125,335.554375 C487.58936,337.883137 482.802533,339.0475 476.2475,339.0475 L476.2475,339.0475 L472.1075,339.0475 C467.967479,339.0475 465.8975,341.03123 465.8975,344.99875 L465.8975,344.99875 L465.8975,359.23 C465.8975,363.370021 467.967479,365.44 472.1075,365.44 L472.1075,365.44 L480.64625,365.44 C494.791321,365.44 505.701837,361.817536 513.378125,354.5725 C521.054413,347.327464 524.8925,336.805069 524.8925,323.005 L524.8925,323.005 L524.8925,301.01125 C524.8925,298.768739 526.013739,297.6475 528.25625,297.6475 L528.25625,297.6475 L538.865,297.6475 C543.005021,297.6475 545.075,295.66377 545.075,291.69625 L545.075,291.69625 L545.075,276.9475 C545.075,272.807479 543.005021,270.7375 538.865,270.7375 L538.865,270.7375 L530.84375,270.7375 C528.77374,270.7375 527.73875,269.530012 527.73875,267.115 L527.73875,267.115 L527.735999,266.619149 C527.638806,257.903008 524.965998,251.513354 519.7175,247.45 C516.784985,245.034988 514.068138,243.094382 511.566875,241.628125 C509.427637,240.374089 502.966824,237.258941 492.184278,232.282606 L492.184278,232.282606 L486.33875,229.59625 C481.508726,227.353739 478.015636,225.111261 475.859375,222.86875 C473.703114,220.626239 472.625,217.52127 472.625,213.55375 L472.625,213.55375 L472.625,206.82625 C472.625,202.85873 470.555021,200.875 466.415,200.875 L466.415,200.875 Z" opacity=".95"/>
    <path fill="#FFF" fill-rule="nonzero" d="M530.84375 270.7375L538.865 270.7375C543.005021 270.7375 545.075 272.807479 545.075 276.9475L545.075 291.69625C545.075 295.66377 543.005021 297.6475 538.865 297.6475L528.25625 297.6475C526.013739 297.6475 524.8925 298.768739 524.8925 301.01125L524.8925 323.005C524.8925 336.805069 521.054413 347.327464 513.378125 354.5725 505.701837 361.817536 494.791321 365.44 480.64625 365.44L472.1075 365.44C467.967479 365.44 465.8975 363.370021 465.8975 359.23L465.8975 344.99875C465.8975 341.03123 467.967479 339.0475 472.1075 339.0475L476.2475 339.0475C482.802533 339.0475 487.58936 337.883137 490.608125 335.554375 493.62689 333.225613 495.13625 329.04253 495.13625 323.005L495.13625 301.01125C495.13625 298.768739 494.015011 297.6475 491.7725 297.6475L451.4075 297.6475C449.164989 297.6475 448.04375 298.768739 448.04375 301.01125L448.04375 372.94375C448.04375 389.158831 457.531155 397.26625 476.50625 397.26625L509.62625 397.26625C513.766271 397.26625 515.83625 399.336229 515.83625 403.47625L515.83625 418.225C515.83625 422.19252 513.766271 424.348748 509.62625 424.69375L470.0375 424.69375C453.822419 424.69375 441.143796 419.950047 432.00125 410.4625 422.858704 400.974953 418.2875 388.900073 418.2875 374.2375L418.2875 301.01125C418.2875 298.768739 417.166261 297.6475 414.92375 297.6475L401.21 297.6475C397.069979 297.6475 395 295.66377 395 291.69625L395 276.9475C395 272.807479 397.069979 270.7375 401.21 270.7375L494.36 270.7375C496.43001 270.7375 497.465 269.788759 497.465 267.89125 497.465 265.82124 496.818131 264.398129 495.524375 263.621875L494.740202 263.1585C493.839857 262.635719 493.152502 262.27268 492.678125 262.069375 492.134747 261.836499 491.416722 261.498833 490.524032 261.056369L488.890308 260.243748C486.758013 259.189579 485.045006 258.375 483.75125 257.8L483.177342 257.54226C481.242331 256.651267 475.913673 254.063449 467.19125 249.77875 451.14867 241.84371 443.1275 230.631322 443.1275 216.14125L443.1275 206.82625C443.1275 202.85873 445.197479 200.875 449.3375 200.875L466.415 200.875C470.555021 200.875 472.625 202.85873 472.625 206.82625L472.625 213.55375C472.625 217.52127 473.703114 220.626239 475.859375 222.86875 478.015636 225.111261 481.508726 227.353739 486.33875 229.59625L492.184278 232.282606C502.966824 237.258941 509.427637 240.374089 511.566875 241.628125 514.068138 243.094382 516.784985 245.034988 519.7175 247.45 524.965998 251.513354 527.638806 257.903008 527.735999 266.619149L527.73875 267.115C527.73875 269.530012 528.77374 270.7375 530.84375 270.7375zM320 184L320 484 43.4375 484C30.4933262 484 20 473.506674 20 460.5625L20 460.5625 20 207.4375C20 194.493326 30.4933262 184 43.4375 184L43.4375 184 320 184zM197.69 243.8125L165.34625 243.8125C163.621241 243.8125 162.500003 244.674991 161.9825 246.4L161.9825 246.4 105.83375 421.315C105.488748 422.522506 105.574997 423.428122 106.0925 424.031875 106.610003 424.635628 107.386245 424.9375 108.42125 424.9375L108.42125 424.9375 134.29625 424.9375C136.021259 424.9375 137.142497 424.075009 137.66 422.35L137.66 422.35 146.19875 394.66375C146.543752 393.973747 146.974997 393.62875 147.4925 393.62875L147.4925 393.62875 215.8025 393.62875C216.320003 393.62875 216.751248 393.973747 217.09625 394.66375L217.09625 394.66375 225.635 422.35C226.152503 424.075009 227.273741 424.9375 228.99875 424.9375L228.99875 424.9375 254.87375 424.9375C256.771259 424.9375 257.72 424.161258 257.72 422.60875 257.72 422.091247 257.633751 421.660002 257.46125 421.315L257.46125 421.315 200.985918 246.188866C200.441763 244.604614 199.343133 243.8125 197.69 243.8125L197.69 243.8125zM181.38875 280.81375C181.733752 280.81375 181.992499 281.158747 182.165 281.84875L182.165 281.84875 208.81625 368.53 208.862825 368.681369C209.125027 369.615461 208.764505 370.0825 207.78125 370.0825L207.78125 370.0825 155.255 370.0825 155.116041 370.077708C154.35576 370.023403 154.057083 369.507505 154.22 368.53L154.22 368.53 180.6125 281.84875 180.657422 281.683437C180.828724 281.103643 181.072498 280.81375 181.38875 280.81375z" opacity=".404"/>
    <path fill="#FFF" fill-rule="nonzero" d="M197.69,243.8125 C199.343133,243.8125 200.441763,244.604614 200.985918,246.188866 L257.46125,421.315 C257.633751,421.660002 257.72,422.091247 257.72,422.60875 C257.72,424.161258 256.771259,424.9375 254.87375,424.9375 L228.99875,424.9375 C227.273741,424.9375 226.152503,424.075009 225.635,422.35 L217.09625,394.66375 C216.751248,393.973747 216.320003,393.62875 215.8025,393.62875 L147.4925,393.62875 C146.974997,393.62875 146.543752,393.973747 146.19875,394.66375 L137.66,422.35 C137.142497,424.075009 136.021259,424.9375 134.29625,424.9375 L108.42125,424.9375 C107.386245,424.9375 106.610003,424.635628 106.0925,424.031875 C105.574997,423.428122 105.488748,422.522506 105.83375,421.315 L161.9825,246.4 C162.500003,244.674991 163.621241,243.8125 165.34625,243.8125 L197.69,243.8125 Z M181.38875,280.81375 C181.043748,280.81375 180.785001,281.158747 180.6125,281.84875 L180.6125,281.84875 L154.22,368.53 C154.047499,369.565005 154.392496,370.0825 155.255,370.0825 L155.255,370.0825 L207.78125,370.0825 C208.816255,370.0825 209.161252,369.565005 208.81625,368.53 L208.81625,368.53 L182.165,281.84875 C181.992499,281.158747 181.733752,280.81375 181.38875,280.81375 Z" opacity=".95"/>
  </g>
</svg>
