<svg xmlns="http://www.w3.org/2000/svg" width="640" height="640" viewBox="0 0 640 640">
  <g fill="none" fill-rule="evenodd">
    <path fill="#FFF" fill-rule="nonzero" d="M287.98,64 L352.02,64 C360.754762,64 367.859049,70.9905385 368.026961,79.6850092 L368.03,80 L368.03,236.85 L368.100285,236.808 L368,237 L368,281.30305 C368,288.528517 371.897236,295.192195 378.194775,298.734561 L416,320 L416,320 L416.071285,320.007 L551.99,398.43 C559.551795,402.793333 562.201992,412.380112 558.016533,419.984735 L557.85,420.28 L525.83,475.71 C521.466667,483.271795 511.870143,485.921992 504.25565,481.736533 L503.96,481.57 L368.222285,403.251 L368,403 L330.077421,380.878495 C323.85017,377.245933 316.14983,377.245933 309.922579,380.878495 L272,403 L272,403 L271.754285,403.274 L136.04,481.58 C128.478205,485.933462 118.840676,483.436024 114.342632,476.011746 L114.17,475.72 L82.15,420.29 C77.7866667,412.738077 80.2839776,403.100674 87.717874,398.602632 L88.01,398.43 L223.94,320 L223.765285,319.9 L261.741331,298.721154 C268.07469,295.189105 272,288.505532 272,281.253856 L272,237 L272,237 L271.969285,236.782 L271.97,80 C271.97,71.2652381 278.970302,64.1707143 287.665005,64 L287.98,64 L352.02,64 L287.98,64 Z" opacity=".95"/>
    <path fill="#FFF" fill-rule="nonzero" d="M368.027715,559.72109 L368.024676,560.036081 C367.856764,568.730551 360.752477,575.72109 352.017715,575.72109 L352.017715,575.72109 L287.66272,575.72109 C278.968017,575.550376 271.967715,568.455852 271.967715,559.72109 L271.967715,559.72109 L271.967,403.036 L272,403 L309.922579,380.878495 C316.14983,377.245933 323.85017,377.245933 330.077421,380.878495 L330.077421,380.878495 L368,403 L368.027,403.032 L368.027715,559.72109 Z M504.253365,157.984557 C511.867858,153.799098 521.464381,156.449295 525.827715,164.01109 L525.827715,164.01109 L557.847715,219.44109 L558.014248,219.736355 C562.199707,227.340978 559.54951,236.927757 551.987715,241.29109 L551.987715,241.29109 L416.069,319.71409 L415.997715,319.72109 L378.19249,340.986529 L378.19249,340.986529 L415.75,319.86 L378.194775,298.734561 C371.897236,295.192195 368,288.528517 368,281.30305 L368,281.30305 L368,237 L368.100285,236.808 L368.03,236.85 L368.029,236.685 L368.22,236.47009 L503.957715,158.15109 Z M223.763,319.82109 L223.937715,319.72109 L88.0077147,241.29109 L87.7155887,241.118458 C80.2816923,236.620416 77.7843814,226.983013 82.1477147,219.43109 L82.1477147,219.43109 L114.167715,164.00109 L114.340347,163.709344 C118.83839,156.285066 128.47592,153.787628 136.037715,158.14109 L136.037715,158.14109 L271.752,236.44709 L271.969,236.69 L271.969285,236.782 L272,237 L272,281.253856 C272,288.505532 268.07469,295.189105 261.741331,298.721154 L261.741331,298.721154 L223.835,319.861 L261.739045,340.999936 L223.763,319.82109 Z" opacity=".6"/>
  </g>
</svg>
