<svg xmlns="http://www.w3.org/2000/svg" width="640" height="640" viewBox="0 0 640 640">
  <g fill="none" fill-rule="evenodd">
    <path fill="#FFF" fill-rule="nonzero" d="M320,72 C456.967,72 568,183.033 568,320 C568,456.967 456.967,568 320,568 C183.033,568 72,456.967 72,320 C72,183.033 183.033,72 320,72 Z M320,112 C205.029,112 112,205.047 112,320 C112,434.971 205.047,528 320,528 C434.971,528 528,434.953 528,320 C528,205.029 434.953,112 320,112 Z M320,128 C426.039,128 512,213.961 512,320 C512,426.039 426.039,512 320,512 C213.961,512 128,426.039 128,320 C128,213.961 213.961,128 320,128 Z M449.638,250.774 C447.607,242.173 438.988,236.849 430.389,238.879 C333.897,261.662 306.3,261.708 209.614,238.879 C201.012,236.848 192.396,242.173 190.365,250.774 C188.334,259.375 193.66,267.992 202.26,270.023 C230.973,276.803 257.772,282.772 284.401,285.83 C283.549,386.91 272.077,408.91 259.364,441.451 C255.747,450.71 260.321,461.149 269.581,464.766 C278.846,468.385 289.281,463.804 292.896,454.549 C301.624,432.208 309.991,413.851 315.158,376 L315.158,376 L324.844,376 C330.019,413.913 338.4,432.241 347.105,454.549 C350.722,463.809 361.16,468.383 370.421,464.766 C379.681,461.149 384.255,450.711 380.638,441.451 C367.907,408.882 356.452,386.853 355.601,285.83 C382.23,282.771 409.029,276.802 437.741,270.023 C446.341,267.993 451.667,259.375 449.638,250.774 Z M320,172 C300.118,172 284,188.118 284,208 C284,227.882 300.118,244 320,244 C339.882,244 356,227.882 356,208 C356,188.118 339.882,172 320,172 Z" opacity=".404"/>
    <path fill="#FFF" fill-rule="nonzero" d="M449.638,250.774 C451.667,259.375 446.341,267.993 437.741,270.023 C409.029,276.802 382.23,282.771 355.601,285.83 C356.452,386.853 367.907,408.882 380.638,441.451 C384.255,450.711 379.681,461.149 370.421,464.766 C361.16,468.383 350.722,463.809 347.105,454.549 C338.4,432.241 330.019,413.913 324.844,376 L315.158,376 C309.991,413.851 301.624,432.208 292.896,454.549 C289.281,463.804 278.846,468.385 269.581,464.766 C260.321,461.149 255.747,450.71 259.364,441.451 C272.077,408.91 283.549,386.91 284.401,285.83 C257.772,282.772 230.973,276.803 202.26,270.023 C193.66,267.992 188.334,259.375 190.365,250.774 C192.396,242.173 201.012,236.848 209.614,238.879 C306.3,261.708 333.897,261.662 430.389,238.879 C438.988,236.849 447.607,242.173 449.638,250.774 Z M320,172 C339.882,172 356,188.118 356,208 C356,227.882 339.882,244 320,244 C300.118,244 284,227.882 284,208 C284,188.118 300.118,172 320,172 Z" opacity=".95"/>
  </g>
</svg>
