<?xml version="1.0" encoding="UTF-8"?>
<svg width="210px" height="238px" viewBox="0 0 210 238" version="1.1" xmlns="http://www.w3.org/2000/svg" xmlns:xlink="http://www.w3.org/1999/xlink">
    <!-- Generator: Sketch 52.5 (67469) - http://www.bohemiancoding.com/sketch -->
    <title>learning</title>
    <desc>Created with Sketch.</desc>
    <defs>
        <rect id="path-1" x="0" y="0" width="206" height="141.439252" rx="10.5"></rect>
        <linearGradient x1="50%" y1="100%" x2="50%" y2="3.061617e-15%" id="linearGradient-3">
            <stop stop-color="#93BBC8" offset="0%"></stop>
            <stop stop-color="#F5F5F5" offset="100%"></stop>
        </linearGradient>
        <path d="M0,0 L139.839416,0 L139.839416,115.873832 C139.839416,118.359113 137.824697,120.373832 135.339416,120.373832 L4.5,120.373832 C2.01471863,120.373832 7.14198726e-15,118.359113 -8.8817842e-16,115.873832 L0,0 Z" id="path-4"></path>
    </defs>
    <g id="learning" stroke="none" stroke-width="1" fill="none" fill-rule="evenodd">
        <g id="Tablet" transform="translate(2.000000, 94.560748)">
            <g id="Rectangle">
                <mask id="mask-2" fill="white">
                    <use xlink:href="#path-1"></use>
                </mask>
                <g id="Mask" stroke="#000000">
                    <rect stroke-width="1.5" fill="#334350" fill-rule="evenodd" x="-0.75" y="-0.75" width="207.5" height="142.939252" rx="10.5"></rect>
                    <rect stroke-width="1" x="-0.5" y="-0.5" width="207" height="142.439252" rx="10.5"></rect>
                </g>
                <rect fill="url(#linearGradient-3)" mask="url(#mask-2)" x="13.5328467" y="-6.01869159" width="168.408759" height="153.476636"></rect>
            </g>
            <rect id="Rectangle" fill="#10171F" x="189.459854" y="45.1401869" width="6.01459854" height="52.6635514" rx="1.5"></rect>
        </g>
        <g id="Book" transform="translate(26.058394, 75.000000)">
            <path d="M0,0 L151.868613,0 L151.868613,121.897196 C151.868613,125.210905 149.182322,127.897196 145.868613,127.897196 L6,127.897196 C2.6862915,127.897196 6.87554478e-15,125.210905 -8.8817842e-16,121.897196 L0,0 Z" fill="#292929"></path>
            <g id="problem-solving-integration" transform="translate(6.014599, 1.504673)">
                <mask id="mask-5" fill="white">
                    <use xlink:href="#path-4"></use>
                </mask>
                <path stroke="#000000" stroke-width="1.5" d="M-0.75,-0.75 L140.589416,-0.75 L140.589416,115.873832 C140.589416,118.773327 138.238911,121.123832 135.339416,121.123832 L4.5,121.123832 C1.60050506,121.123832 -0.75,118.773327 -0.75,115.873832 L-0.75,-0.75 Z"></path>
                <path d="M69.919708,0 L69.919708,120.373832" id="Line" stroke="#000000" stroke-width="1.5" stroke-linecap="square" mask="url(#mask-5)"></path>
                <g id="blocks" mask="url(#mask-5)">
                    <g transform="translate(110.683290, 29.575131) rotate(-30.000000) translate(-110.683290, -29.575131) translate(79.183290, -1.924869)">
                        <g id="block-3" transform="translate(27.000000, 2.000000)">
                            <path d="M5.11920423,15.9018157 C5.49374832,15.7346616 5.73445255,15.3629773 5.73445255,14.9528787 L5.73445255,5.83934579 L15.879306,5.83934579 C16.2891257,5.83934579 16.6605572,5.59847776 16.8275977,5.22367879 C16.9946381,4.84887981 16.9251244,4.41178738 16.6512196,4.10654944 C16.4042902,3.83142 16.109635,3.36941019 16.109635,2.7246729 C16.109635,1.5795115 17.0402889,0.648224299 18.1846715,0.648224299 C19.3290542,0.648224299 20.259708,1.5795115 20.259708,2.7246729 C20.259708,3.36941019 19.9650528,3.83142 19.719161,4.10654944 C19.4452562,4.41074916 19.3757425,4.84887981 19.5427829,5.22367879 C19.7098234,5.59847776 20.0802174,5.83934579 20.4900371,5.83934579 L28.559854,5.83934579 L28.559854,13.241885 C28.2226606,13.1525978 27.8740545,13.1069159 27.5223358,13.1069159 C25.2335705,13.1069159 23.3722628,14.9694903 23.3722628,17.2598131 C23.3722628,19.5501359 25.2335705,21.4127103 27.5223358,21.4127103 C27.8740545,21.4127103 28.2226606,21.3670284 28.559854,21.2777411 L28.559854,28.6802804 L20.4900371,28.6802804 C20.0802174,28.6802804 19.7087858,28.9211484 19.5417454,29.2959474 C19.374705,29.6707464 19.4442187,30.1078388 19.7181235,30.4130767 C19.9650528,30.6882062 20.259708,31.150216 20.259708,31.7949533 C20.259708,32.9401147 19.3290542,33.8714019 18.1846715,33.8714019 C17.0402889,33.8714019 16.109635,32.9401147 16.109635,31.7949533 C16.109635,31.150216 16.4042902,30.6882062 16.650182,30.4130767 C16.9240869,30.108877 16.9936006,29.6707464 16.8265601,29.2959474 C16.6595197,28.9211484 16.2891257,28.6802804 15.879306,28.6802804 L5.73445255,28.6802804 L5.73445255,19.5667475 C5.73445255,19.1566489 5.49374832,18.7849646 5.11920423,18.6178105 C4.7477727,18.4527328 4.30890248,18.5202174 4.0028346,18.7943086 C3.72789226,19.041406 3.26619664,19.3362617 2.62189781,19.3362617 C1.47751518,19.3362617 0.546861314,18.4049745 0.546861314,17.2598131 C0.546861314,16.1146517 1.47751518,15.1833645 2.62189781,15.1833645 C3.26619664,15.1833645 3.72789226,15.4782202 4.0028346,15.7242793 C4.30786496,16.000447 4.74673518,16.0689698 5.11920423,15.9018157 Z" id="Path" fill="#52B498" fill-rule="nonzero"></path>
                            <g id="Dots" transform="translate(7.000000, 16.000000)" fill="#151518">
                                <rect id="Rectangle" x="0.809489051" y="0.221588785" width="2.0750365" height="2.0764486" rx="1"></rect>
                                <rect id="Rectangle" x="0.809489051" y="4.37448598" width="2.0750365" height="2.0764486" rx="1"></rect>
                                <rect id="Rectangle" x="4.95956204" y="4.37448598" width="2.0750365" height="2.0764486" rx="1"></rect>
                                <rect id="Rectangle" x="0.809489051" y="8.52738318" width="2.0750365" height="2.0764486" rx="1"></rect>
                                <rect id="Rectangle" x="4.95956204" y="8.52738318" width="2.0750365" height="2.0764486" rx="1"></rect>
                                <rect id="Rectangle" x="9.10963504" y="8.52738318" width="2.0750365" height="2.0764486" rx="1"></rect>
                            </g>
                        </g>
                        <g id="block-4" transform="translate(7.000000, 7.000000)">
                            <path d="M0.834014599,0.839345794 L23.6594161,0.839345794 L23.6594161,8.24188505 C23.3222226,8.15259776 22.9736165,8.10691589 22.6218978,8.10691589 C20.3331326,8.10691589 18.4718248,9.96949028 18.4718248,12.2598131 C18.4718248,14.5501359 20.3331326,16.4127103 22.6218978,16.4127103 C22.9736165,16.4127103 23.3222226,16.3670284 23.6594161,16.2777411 L23.6594161,23.6802804 L16.2619109,23.6802804 C16.3511375,23.3428575 16.3967883,22.9940141 16.3967883,22.6420561 C16.3967883,20.3517333 14.5354806,18.4891589 12.2467153,18.4891589 C9.95795007,18.4891589 8.09664234,20.3517333 8.09664234,22.6420561 C8.09664234,22.9940141 8.14229314,23.3428575 8.23151971,23.6802804 L0.834014599,23.6802804 L0.834014599,0.839345794 Z" id="Path" fill="#DF7F2F" fill-rule="nonzero"></path>
                            <g id="Dots" transform="translate(2.000000, 2.000000)" fill="#151518">
                                <rect id="Rectangle" x="0.909051095" y="0.915794393" width="2.0750365" height="2.0764486" rx="1.037518"></rect>
                                <rect id="Rectangle" x="5.05912409" y="0.915794393" width="2.0750365" height="2.0764486" rx="1.037518"></rect>
                                <rect id="Rectangle" x="9.20919708" y="0.915794393" width="2.0750365" height="2.0764486" rx="1.037518"></rect>
                                <rect id="Rectangle" x="0.909051095" y="5.06869159" width="2.0750365" height="2.0764486" rx="1.037518"></rect>
                                <rect id="Rectangle" x="5.05912409" y="5.06869159" width="2.0750365" height="2.0764486" rx="1.037518"></rect>
                                <rect id="Rectangle" x="9.20919708" y="5.06869159" width="2.0750365" height="2.0764486" rx="1.037518"></rect>
                                <rect id="Rectangle" x="0.909051095" y="9.22158879" width="2.0750365" height="2.0764486" rx="1.037518"></rect>
                                <rect id="Rectangle" x="5.05912409" y="9.22158879" width="2.0750365" height="2.0764486" rx="1.037518"></rect>
                                <rect id="Rectangle" x="9.20919708" y="9.22158879" width="2.0750365" height="2.0764486" rx="1.037518"></rect>
                            </g>
                        </g>
                        <g id="block-2" transform="translate(2.000000, 27.000000)">
                            <path d="M29.2746644,18.5351936 C28.9001203,18.7023478 28.6594161,19.0740321 28.6594161,19.4841307 L28.6594161,28.5976636 L19.5520809,28.5976636 C19.1422612,28.5976636 18.7708296,28.8385316 18.6037892,29.2133306 C18.4367488,29.5881295 18.5062625,30.025222 18.7801673,30.3304599 C19.0270966,30.6055893 19.3217518,31.0675992 19.3217518,31.7123364 C19.3217518,32.8574979 18.391098,33.788785 17.2467153,33.788785 C16.1023327,33.788785 15.1716788,32.8574979 15.1716788,31.7123364 C15.1716788,31.0675992 15.466334,30.6055893 15.7122258,30.3304599 C15.9861307,30.0262602 16.0556444,29.5881295 15.8886039,29.2133306 C15.7215635,28.8385316 15.3511695,28.5976636 14.9413498,28.5976636 L5.8340146,28.5976636 L5.8340146,19.4841307 C5.8340146,19.0740321 5.59331036,18.7023478 5.21876628,18.5351936 C4.84733474,18.370116 4.40846453,18.4376006 4.10239664,18.7116918 C3.82745431,18.9587892 3.36575869,19.2536449 2.72145985,19.2536449 C1.57707723,19.2536449 0.646423358,18.3223577 0.646423358,17.1771963 C0.646423358,16.0320349 1.57707723,15.1007477 2.72145985,15.1007477 C3.36575869,15.1007477 3.82745431,15.3956034 4.10239664,15.6416625 C4.40742701,15.916792 4.84629723,15.9853148 5.21876628,15.8181607 C5.59331036,15.6520448 5.8340146,15.2803605 5.8340146,14.8702619 L5.8340146,5.75672897 L14.9413498,5.75672897 C15.3511695,5.75672897 15.722601,5.51586093 15.8896415,5.14106196 C16.0566819,4.76626299 15.9871682,4.32917056 15.7132634,4.02393262 C15.466334,3.74880318 15.1716788,3.28679336 15.1716788,2.64205607 C15.1716788,1.49689467 16.1023327,0.565607477 17.2467153,0.565607477 C18.391098,0.565607477 19.3217518,1.49689467 19.3217518,2.64205607 C19.3217518,3.28679336 19.0270966,3.74880318 18.7812048,4.02393262 C18.5073,4.32813234 18.4377863,4.76626299 18.6048267,5.14106196 C18.7718672,5.51586093 19.1422612,5.75672897 19.5520809,5.75672897 L28.6594161,5.75672897 L28.6594161,14.8702619 C28.6594161,15.2803605 28.9001203,15.6520448 29.2746644,15.8191989 C29.6492085,15.9873912 30.0860036,15.9178302 30.391034,15.6427007 C30.6659764,15.3956034 31.127672,15.1007477 31.7719708,15.1007477 C32.9163534,15.1007477 33.8470073,16.0320349 33.8470073,17.1771963 C33.8470073,18.3223577 32.9163534,19.2536449 31.7719708,19.2536449 C31.127672,19.2536449 30.6659764,18.9587892 30.391034,18.71273 C30.0860036,18.4376006 29.6481709,18.3690778 29.2746644,18.5351936 Z" id="Path" fill="#856ACD" fill-rule="nonzero"></path>
                            <g id="Dots" transform="translate(7.000000, 7.000000)" fill="#151518">
                                <rect id="Rectangle" x="5.05912409" y="4.98607477" width="2.0750365" height="2.0764486" rx="1.037518"></rect>
                                <rect id="Rectangle" x="9.20919708" y="4.98607477" width="2.0750365" height="2.0764486" rx="1.037518"></rect>
                                <rect id="Rectangle" x="13.3592701" y="4.98607477" width="2.0750365" height="2.0764486" rx="1.037518"></rect>
                                <rect id="Rectangle" x="5.05912409" y="9.13897196" width="2.0750365" height="2.0764486" rx="1.037518"></rect>
                                <rect id="Rectangle" x="9.20919708" y="9.13897196" width="2.0750365" height="2.0764486" rx="1.037518"></rect>
                                <rect id="Rectangle" x="13.3592701" y="9.13897196" width="2.0750365" height="2.0764486" rx="1.037518"></rect>
                                <rect id="Rectangle" x="5.05912409" y="13.2918692" width="2.0750365" height="2.0764486" rx="1.037518"></rect>
                                <rect id="Rectangle" x="9.20919708" y="13.2918692" width="2.0750365" height="2.0764486" rx="1.037518"></rect>
                                <rect id="Rectangle" x="13.3592701" y="13.2918692" width="2.0750365" height="2.0764486" rx="1.037518"></rect>
                                <rect id="Rectangle" x="9.20919708" y="0.83317757" width="2.0750365" height="2.0764486" rx="1.037518"></rect>
                                <rect id="Rectangle" x="17.5093431" y="9.13897196" width="2.0750365" height="2.0764486" rx="1.037518"></rect>
                                <rect id="Rectangle" x="9.20919708" y="17.4447664" width="2.0750365" height="2.0764486" rx="1.037518"></rect>
                                <rect id="Rectangle" x="0.909051095" y="9.13897196" width="2.0750365" height="2.0764486" rx="1.037518"></rect>
                            </g>
                        </g>
                        <g id="block-1" transform="translate(32.000000, 32.000000)">
                            <path d="M26.6724088,14.2536449 C26.0281099,14.2536449 25.5664143,13.9587892 25.291472,13.71273 C24.9864416,13.4376006 24.5486089,13.370116 24.1751023,13.5362319 C23.8005582,13.7023478 23.559854,14.0740321 23.559854,14.4841307 L23.559854,23.5976636 L17.1998672,23.5976636 C17.2890937,23.2602407 17.3347445,22.9113973 17.3347445,22.5594393 C17.3347445,20.2691164 15.4734368,18.4065421 13.1846715,18.4065421 C10.8959063,18.4065421 9.03459854,20.2691164 9.03459854,22.5594393 C9.03459854,22.9113973 9.08024934,23.2602407 9.16947591,23.5976636 L0.734452555,23.5976636 L0.734452555,16.1951243 C1.07164599,16.2844116 1.42025212,16.3300935 1.7719708,16.3300935 C4.06073606,16.3300935 5.9220438,14.4675191 5.9220438,12.1771963 C5.9220438,9.88687346 4.06073606,8.02429907 1.7719708,8.02429907 C1.42025212,8.02429907 1.07164599,8.06998093 0.734452555,8.15926822 L0.734452555,0.756728972 L9.16947591,0.756728972 C9.08024934,1.09415187 9.03459854,1.44299523 9.03459854,1.79495327 C9.03459854,4.08527607 10.8959063,5.94785047 13.1846715,5.94785047 C15.4734368,5.94785047 17.3347445,4.08527607 17.3347445,1.79495327 C17.3347445,1.44299523 17.2890937,1.09415187 17.1998672,0.756728972 L23.559854,0.756728972 L23.559854,9.87026187 C23.559854,10.2803605 23.8005582,10.6520448 24.1751023,10.8191989 C24.5496464,10.9873912 24.9864416,10.9178302 25.291472,10.6427007 C25.5664143,10.3956034 26.0281099,10.1007477 26.6724088,10.1007477 C27.8167914,10.1007477 28.7474453,11.0320349 28.7474453,12.1771963 C28.7474453,13.3223577 27.8167914,14.2536449 26.6724088,14.2536449 Z" id="Path" fill="#4EACD7" fill-rule="nonzero"></path>
                            <g id="Dots" transform="translate(11.000000, 2.000000)" fill="#151518">
                                <rect id="Rectangle" x="8.40978102" y="4.98607477" width="2.0750365" height="2.0764486" rx="1.037518"></rect>
                                <rect id="Rectangle" x="0.109635036" y="9.13897196" width="2.0750365" height="2.0764486" rx="1.037518"></rect>
                                <rect id="Rectangle" x="4.25970803" y="7.06252336" width="2.0750365" height="2.0764486" rx="1.037518"></rect>
                                <rect id="Rectangle" x="8.40978102" y="9.13897196" width="2.0750365" height="2.0764486" rx="1.037518"></rect>
                                <rect id="Rectangle" x="4.25970803" y="11.2154206" width="2.0750365" height="2.0764486" rx="1.037518"></rect>
                                <rect id="Rectangle" x="8.40978102" y="13.2918692" width="2.0750365" height="2.0764486" rx="1.037518"></rect>
                                <rect id="Rectangle" x="8.40978102" y="0.83317757" width="2.0750365" height="2.0764486" rx="1.037518"></rect>
                                <rect id="Rectangle" x="8.40978102" y="17.4447664" width="2.0750365" height="2.0764486" rx="1.037518"></rect>
                            </g>
                        </g>
                    </g>
                </g>
                <rect id="fig-1" fill="#29A772" mask="url(#mask-5)" x="10.5255474" y="7.52336449" width="51.1240876" height="37.6168224" rx="1.5"></rect>
                <path d="M10.4806624,55.0815083 C10.4806624,54.1760818 11.2137534,53.4420886 12.1201052,53.4420886 L48.1605354,53.4420886 C49.0659746,53.4420886 49.7999782,54.1697694 49.7999782,55.0815083 C49.7999782,55.9869349 49.0668872,56.7209281 48.1605354,56.7209281 L12.1201052,56.7209281 C11.2146659,56.7209281 10.4806624,55.9932473 10.4806624,55.0815083 Z M10.4806624,60.5462408 C10.4806624,59.6408142 11.2137534,58.906821 12.1201052,58.906821 L48.1605354,58.906821 C49.0659746,58.906821 49.7999782,59.6345018 49.7999782,60.5462408 C49.7999782,61.4516673 49.0668872,62.1856605 48.1605354,62.1856605 L12.1201052,62.1856605 C11.2146659,62.1856605 10.4806624,61.4579797 10.4806624,60.5462408 Z M10.4806624,66.0109732 C10.4806624,65.1055467 11.2137534,64.3715534 12.1201052,64.3715534 L48.1605354,64.3715534 C49.0659746,64.3715534 49.7999782,65.0992342 49.7999782,66.0109732 C49.7999782,66.9163997 49.0668872,67.6503929 48.1605354,67.6503929 L12.1201052,67.6503929 C11.2146659,67.6503929 10.4806624,66.9227122 10.4806624,66.0109732 Z M10.4806624,71.4757056 C10.4806624,70.5702791 11.20962,69.8362859 12.1293344,69.8362859 L38.3214773,69.8362859 C39.2320137,69.8362859 39.9701493,70.5639666 39.9701493,71.4757056 C39.9701493,72.3811321 39.2411916,73.1151253 38.3214773,73.1151253 L12.1293344,73.1151253 C11.218798,73.1151253 10.4806624,72.3874446 10.4806624,71.4757056 Z M10.4806624,78.5798577 C10.4806624,77.6744312 11.2137534,76.940438 12.1201052,76.940438 L48.1605354,76.940438 C49.0659746,76.940438 49.7999782,77.6681187 49.7999782,78.5798577 C49.7999782,79.4852842 49.0668872,80.2192774 48.1605354,80.2192774 L12.1201052,80.2192774 C11.2146659,80.2192774 10.4806624,79.4915967 10.4806624,78.5798577 Z M10.4806624,84.0445901 C10.4806624,83.1391636 11.2137534,82.4051704 12.1201052,82.4051704 L48.1605354,82.4051704 C49.0659746,82.4051704 49.7999782,83.1328512 49.7999782,84.0445901 C49.7999782,84.9500166 49.0668872,85.6840099 48.1605354,85.6840099 L12.1201052,85.6840099 C11.2146659,85.6840099 10.4806624,84.9563291 10.4806624,84.0445901 Z M10.4806624,89.5093225 C10.4806624,88.603896 11.2137534,87.8699028 12.1201052,87.8699028 L48.1605354,87.8699028 C49.0659746,87.8699028 49.7999782,88.5975836 49.7999782,89.5093225 C49.7999782,90.4147491 49.0668872,91.1487423 48.1605354,91.1487423 L12.1201052,91.1487423 C11.2146659,91.1487423 10.4806624,90.4210615 10.4806624,89.5093225 Z M10.4806624,94.974055 C10.4806624,94.0686284 11.20962,93.3346352 12.1293344,93.3346352 L38.3214773,93.3346352 C39.2320137,93.3346352 39.9701493,94.062316 39.9701493,94.974055 C39.9701493,95.8794815 39.2411916,96.6134747 38.3214773,96.6134747 L12.1293344,96.6134747 C11.218798,96.6134747 10.4806624,95.8857939 10.4806624,94.974055 Z M10.4806624,102.62468 C10.4806624,101.719254 11.2137534,100.985261 12.1201052,100.985261 L48.1605354,100.985261 C49.0659746,100.985261 49.7999782,101.712941 49.7999782,102.62468 C49.7999782,103.530107 49.0668872,104.2641 48.1605354,104.2641 L12.1201052,104.2641 C11.2146659,104.2641 10.4806624,103.536419 10.4806624,102.62468 Z M10.4806624,108.089413 C10.4806624,107.183986 11.2137534,106.449993 12.1201052,106.449993 L48.1605354,106.449993 C49.0659746,106.449993 49.7999782,107.177674 49.7999782,108.089413 C49.7999782,108.994839 49.0668872,109.728832 48.1605354,109.728832 L12.1201052,109.728832 C11.2146659,109.728832 10.4806624,109.001152 10.4806624,108.089413 Z" id="text-1" fill="#637380" mask="url(#mask-5)"></path>
                <path d="M79.6485456,79.1562747 C79.6485456,78.2508482 80.3816366,77.516855 81.2879884,77.516855 L117.328419,77.516855 C118.233858,77.516855 118.967861,78.2445357 118.967861,79.1562747 C118.967861,80.0617012 118.23477,80.7956944 117.328419,80.7956944 L81.2879884,80.7956944 C80.3825492,80.7956944 79.6485456,80.0680137 79.6485456,79.1562747 Z M79.6485456,84.6210071 C79.6485456,83.7155806 80.3816366,82.9815874 81.2879884,82.9815874 L117.328419,82.9815874 C118.233858,82.9815874 118.967861,83.7092681 118.967861,84.6210071 C118.967861,85.5264336 118.23477,86.2604268 117.328419,86.2604268 L81.2879884,86.2604268 C80.3825492,86.2604268 79.6485456,85.5327461 79.6485456,84.6210071 Z M79.6485456,90.0857395 C79.6485456,89.180313 80.3816366,88.4463198 81.2879884,88.4463198 L117.328419,88.4463198 C118.233858,88.4463198 118.967861,89.1740005 118.967861,90.0857395 C118.967861,90.991166 118.23477,91.7251593 117.328419,91.7251593 L81.2879884,91.7251593 C80.3825492,91.7251593 79.6485456,90.9974785 79.6485456,90.0857395 Z M79.6485456,95.5504719 C79.6485456,94.6450454 80.3775032,93.9110522 81.2972176,93.9110522 L107.48936,93.9110522 C108.399897,93.9110522 109.138032,94.638733 109.138032,95.5504719 C109.138032,96.4558985 108.409075,97.1898917 107.48936,97.1898917 L81.2972176,97.1898917 C80.3866812,97.1898917 79.6485456,96.4622109 79.6485456,95.5504719 Z M79.6485456,102.654624 C79.6485456,101.749198 80.3816366,101.015204 81.2879884,101.015204 L117.328419,101.015204 C118.233858,101.015204 118.967861,101.742885 118.967861,102.654624 C118.967861,103.560051 118.23477,104.294044 117.328419,104.294044 L81.2879884,104.294044 C80.3825492,104.294044 79.6485456,103.566363 79.6485456,102.654624 Z M79.6485456,108.119356 C79.6485456,107.21393 80.3816366,106.479937 81.2879884,106.479937 L117.328419,106.479937 C118.233858,106.479937 118.967861,107.207618 118.967861,108.119356 C118.967861,109.024783 118.23477,109.758776 117.328419,109.758776 L81.2879884,109.758776 C80.3825492,109.758776 79.6485456,109.031095 79.6485456,108.119356 Z" id="text-2" fill="#637380" mask="url(#mask-5)"></path>
            </g>
        </g>
        <g id="knowledge" transform="translate(51.000000, 0.000000)">
            <g id="pencil" transform="translate(0.000000, 33.000000)">
                <polygon id="Path-4" fill="#D5DEE1" points="106.127296 2.45154639 106.127296 10.303312 112.2623 10.303312 112.2623 2.45154639"></polygon>
                <polygon id="Path-6" fill="#D5DEE1" opacity="0.656645275" points="5 7 15 3 14 11"></polygon>
                <polygon id="Path-3" fill="#F5A623" points="106.127296 2.45154639 15.3597015 2.45154639 15.3597015 13.1124603 106.127296 13.1124603"></polygon>
                <path d="M73.6081749,10.105675 C72.7349109,10.105675 72.0279829,10.809475 72.0279829,11.678875 C72.0279829,12.548275 72.7349109,13.252075 73.6081749,13.252075 L105.96919,13.252075 C105.979586,13.252075 105.989982,13.255525 106.002111,13.255525 L111.281546,13.255525 C112.15481,13.255525 112.861738,12.551725 112.861738,11.682325 L112.861738,1.8136 C112.861738,0.945925 112.15481,0.2404 111.281546,0.2404 L106.104338,0.2404 C106.071418,0.238675 106.036764,0.23695 106.002111,0.23695 L73.6203036,0.23695 C72.7470396,0.23695 72.0401116,0.94075 72.0401116,1.81015 C72.0401116,2.67955 72.7470396,3.38335 73.6203036,3.38335 L104.421919,3.38335 L104.420186,5.175625 L73.6116402,5.175625 C72.7383762,5.175625 72.0314482,5.879425 72.0314482,6.748825 C72.0314482,7.618225 72.7383762,8.322025 73.6116402,8.322025 L104.418454,8.322025 L104.418454,10.109125 L73.6081749,10.105675 Z M107.578838,3.385075 L109.699622,3.385075 L109.699622,10.109125 L107.578838,10.109125 L107.577105,6.748825 L107.578838,3.385075 Z" id="Shape" fill="#1A1A1A" fill-rule="nonzero"></path>
                <path d="M1.81339889,8.197825 L13.6579082,13.127875 C13.6596409,13.1296 13.6631062,13.1296 13.6648389,13.131325 L13.6665716,13.131325 C13.6787002,13.1365 13.6908289,13.138225 13.7012249,13.141675 C13.7861256,13.17445 13.8727589,13.203775 13.9628576,13.221025 C14.0650849,13.241725 14.1707776,13.252075 14.2764702,13.252075 L29.6781442,13.252075 C30.5496756,13.252075 31.2583362,12.548275 31.2583362,11.678875 C31.2583362,10.809475 30.5514082,10.105675 29.6781442,10.105675 L15.8566622,10.105675 L15.8566622,8.31685 L29.7110649,8.31685 C30.5825962,8.31685 31.2912569,7.61305 31.2912569,6.74365 C31.2912569,5.87425 30.5843289,5.17045 29.7110649,5.17045 L15.8566622,5.17045 L15.8566622,3.381625 L29.7474509,3.381625 C30.6189822,3.381625 31.3276429,2.677825 31.3276429,1.808425 C31.3276429,0.939025 30.6207149,0.235225 29.7474509,0.235225 L14.2782029,0.235225 C14.2730049,0.235225 14.2695396,0.23695 14.2643416,0.23695 C14.1725102,0.23695 14.0789462,0.2473 13.9871149,0.26455 C13.9663229,0.268 13.9455309,0.273175 13.9247389,0.27835 C13.8381056,0.297325 13.7514722,0.3232 13.6665716,0.3577 L13.6648389,0.3577 C13.6631062,0.359425 13.6596409,0.359425 13.6579082,0.36115 L1.81339889,5.292925 C1.22602489,5.537875 0.843105556,6.10885 0.843105556,6.74365 C0.843105556,7.3819 1.22602489,7.952875 1.81339889,8.197825 Z M12.6962782,4.175125 L12.6962782,6.7471 L12.6962782,9.319075 L6.51758889,6.7471 L12.6962782,4.175125 Z" id="Shape" fill="#1A1A1A" fill-rule="nonzero"></path>
            </g>
            <g id="hand" transform="translate(31.000000, 21.000000)">
                <polygon id="Path-5" fill="#4A90E2" points="5.5 39.993946 3 46.2618261 5.5 49.282061 35.9918033 49.282061 38.254025 45.2440476 34.7377049 39.993946"></polygon>
                <polygon id="Path-2" fill="#E6C2A5" points="6.5 1.5 3 6.91237113 3 39.993946 35.4187664 39.993946 47.877458 28.5084412 46 25.1124603 39 25.1124603 38.254025 22.303312 38.254025 4 34.8599378 1.5 29.7213115 4 23.1557377 1.5 20.7965131 4 16 1.5 12.0711678 4"></polygon>
                <path d="M0.805858889,45.59155 C0.823185556,48.631 3.32169089,51.10465 6.37464956,51.10465 C6.37811489,51.10465 6.40410489,51.10465 6.40757022,51.10465 L34.1804842,50.947675 C37.2507696,50.930425 39.7354136,48.42745 39.7180869,45.37075 C39.7094236,43.733725 38.9765056,42.26575 37.8294802,41.2549 L39.9519969,39.00205 C40.5393709,38.44315 46.8393469,32.390125 48.4697862,27.925825 C48.7678049,27.1099 48.3450342,26.207725 47.5237502,25.911025 C46.7059316,25.614325 45.7980142,26.035225 45.4999956,26.852875 C44.3217822,30.078625 39.5015036,35.0932 37.7428469,36.754375 C37.7203222,36.775075 37.6977976,36.7975 37.6770056,36.819925 L34.7782542,39.897325 C34.5720669,39.8749 34.3624142,39.859375 34.1510289,39.859375 C34.1475636,39.859375 34.1198409,39.859375 34.1181082,39.859375 L6.34346156,40.01635 C6.21870956,40.01635 6.09742289,40.028425 5.97440356,40.03705 C4.98678356,38.979625 4.35089489,37.4323 4.38554822,36.057475 L4.56921089,25.990375 L4.66450756,9.537325 L4.66450756,9.516625 L4.72861622,6.487525 C4.74767556,5.73715 5.05262489,5.045425 5.58801889,4.538275 C6.09742289,4.057 6.75063822,3.79825 7.44543756,3.81895 C8.90780822,3.8569 10.0669622,5.11615 10.0305762,6.62725 C10.0305762,6.64105 10.0305762,6.653125 10.0305762,6.666925 L10.0323089,9.38725 L10.0323089,9.40795 C10.0323089,9.409675 10.0323089,9.409675 10.0323089,9.409675 L10.0323089,9.53905 C10.0323089,10.406725 10.7392369,11.110525 11.6125009,11.110525 C11.6125009,11.110525 11.6125009,11.110525 11.6142336,11.110525 C12.4874976,11.110525 13.1926929,10.405 13.1926929,9.537325 L13.1926929,9.42865 L13.2585342,6.315025 C13.2775936,5.5612 13.5894736,4.86085 14.1387289,4.341625 C14.6879842,3.8224 15.4053082,3.5464 16.1624836,3.565375 C16.9196589,3.58435 17.6248542,3.896575 18.1463869,4.441675 C18.6679196,4.9885 18.9451462,5.70265 18.9260869,6.456475 C18.9260869,6.470275 18.9260869,6.484075 18.9260869,6.497875 L18.9278196,9.426925 C18.9278196,9.48385 18.9382156,9.537325 18.9451462,9.592525 C18.9503442,9.6391 18.9503442,9.6874 18.9590076,9.733975 C18.9711362,9.7978 18.9936609,9.858175 19.0144529,9.920275 C19.0265816,9.9565 19.0335122,9.99445 19.0491062,10.02895 C19.0768289,10.096225 19.1132149,10.1566 19.1496009,10.2187 C19.1651949,10.244575 19.1755909,10.272175 19.1911849,10.296325 C19.2345016,10.36015 19.2847489,10.4188 19.3367289,10.475725 C19.3523229,10.492975 19.3644516,10.513675 19.3817782,10.5292 C19.4389562,10.58785 19.5030649,10.637875 19.5689062,10.686175 C19.5845002,10.69825 19.5966289,10.71205 19.6122229,10.7224 C19.6832622,10.7707 19.7612322,10.8121 19.8409349,10.848325 C19.8530636,10.8535 19.8651922,10.86385 19.8790536,10.869025 C19.9639542,10.90525 20.0523202,10.93285 20.1441516,10.95355 C20.1545476,10.955275 20.1632109,10.96045 20.1753396,10.962175 C20.2706362,10.982875 20.3676656,10.9915 20.4681602,10.99495 C20.4768236,10.99495 20.4837542,10.996675 20.4924176,10.996675 C20.4941502,10.996675 20.4941502,10.996675 20.4941502,10.996675 C20.4993482,10.996675 20.5028136,10.9984 20.5080116,10.9984 C20.5080116,10.9984 20.5080116,10.9984 20.5080116,10.9984 C21.0382076,10.9984 21.5025622,10.7362 21.7901849,10.337725 C21.7971156,10.3291 21.8057789,10.320475 21.8127096,10.31185 C21.8542936,10.24975 21.8889469,10.182475 21.9218676,10.1152 C21.9339962,10.09105 21.9495902,10.07035 21.9599862,10.044475 C21.9859762,9.985825 22.0015702,9.922 22.0188969,9.8599 C22.0292929,9.82195 22.0448869,9.78745 22.0535502,9.7495 C22.0656789,9.6943 22.0674116,9.637375 22.0726096,9.58045 C22.0778076,9.533875 22.0882036,9.489025 22.0882036,9.440725 L22.1557776,6.315025 C22.1748369,5.5612 22.4884496,4.86085 23.0359722,4.341625 C23.5852276,3.8224 24.3008189,3.5464 25.0597269,3.565375 C26.6225922,3.60505 27.8631816,4.90225 27.8233302,6.4582 C27.8233302,6.472 27.8233302,6.484075 27.8233302,6.497875 L27.8250629,9.35275 L27.8250629,9.40795 C27.8250629,9.409675 27.8250629,9.413125 27.8250629,9.41485 L27.8250629,9.426925 C27.8250629,9.4597 27.8319936,9.489025 27.8337262,9.5218 C27.8389242,9.59425 27.8423896,9.668425 27.8562509,9.737425 C27.8649142,9.7771 27.8805082,9.81505 27.8909042,9.854725 C27.9082309,9.9151 27.9220922,9.975475 27.9463496,10.0324 C27.9654089,10.07725 27.9913989,10.116925 28.0139236,10.16005 C28.0381809,10.206625 28.0607056,10.254925 28.0901609,10.29805 C28.1213489,10.344625 28.1594676,10.3843 28.1941209,10.427425 C28.2235762,10.461925 28.2495662,10.499875 28.2807542,10.530925 C28.3240709,10.575775 28.3743182,10.612 28.4228329,10.64995 C28.4522882,10.6741 28.4800109,10.7017 28.5111989,10.7224 C28.5683769,10.76035 28.6290202,10.7914 28.6913962,10.82245 C28.7208516,10.837975 28.7468416,10.85695 28.7780296,10.869025 C28.8473362,10.900075 28.9218409,10.91905 28.9963456,10.93975 C29.0223356,10.94665 29.0448602,10.957 29.0725829,10.962175 C29.1540182,10.979425 29.2406516,10.986325 29.3255522,10.989775 C29.3463442,10.9915 29.3654036,10.996675 29.3861956,10.996675 C29.3879282,10.996675 29.3913936,10.996675 29.3931262,10.996675 C29.3965916,10.996675 29.4000569,10.9984 29.4035222,10.9984 C29.4035222,10.9984 29.4035222,10.9984 29.4035222,10.9984 C30.0428762,10.9984 30.5903989,10.6189 30.8381702,10.075525 C30.8433682,10.0669 30.8485662,10.058275 30.8537642,10.047925 C30.8866849,9.97375 30.9074769,9.8944 30.9282689,9.81505 C30.9334669,9.79435 30.9421302,9.775375 30.9473282,9.75295 C30.9629222,9.68395 30.9663876,9.609775 30.9715856,9.537325 C30.9733182,9.50455 30.9819816,9.475225 30.9819816,9.44245 L30.9819816,9.430375 C30.9819816,9.42865 30.9819816,9.42865 30.9819816,9.426925 L30.9819816,9.41485 L31.0478229,6.318475 C31.0668822,5.56465 31.3804949,4.8643 31.9280176,4.345075 C32.4772729,3.82585 33.1893989,3.5533 33.9517722,3.568825 C34.7089476,3.5878 35.4124102,3.900025 35.9356756,4.445125 C36.4572082,4.99195 36.7344349,5.7061 36.7153756,6.459925 C36.7153756,6.473725 36.7153756,6.487525 36.7153756,6.501325 L36.7171082,9.430375 C36.7171082,9.4321 36.7171082,9.4321 36.7171082,9.433825 L36.6963162,30.458125 C36.6945836,31.3258 37.4015116,32.031325 38.2747756,32.03305 C38.2747756,32.03305 38.2765082,32.03305 38.2765082,32.03305 C39.1480396,32.03305 39.8549676,31.330975 39.8567002,30.461575 L39.8774922,9.4321 C39.8774922,9.430375 39.8774922,9.430375 39.8774922,9.42865 L39.8757596,6.5203 C39.9104129,4.935025 39.3265042,3.430825 38.2279936,2.28025 C37.1242849,1.1245 35.6359242,0.46555 34.0349402,0.425875 C32.4200949,0.387925 30.9144076,0.96925 29.7535209,2.068075 C29.6408976,2.175025 29.5369376,2.28715 29.4347102,2.401 C28.3708529,1.228 26.8495716,0.469 25.1411622,0.425875 C23.5453762,0.3862 22.0206296,0.96925 20.8597429,2.068075 C20.7471196,2.1733 20.6448922,2.28715 20.5426649,2.399275 C20.5080116,2.3596 20.4768236,2.3182 20.4387049,2.28025 C19.3349962,1.1245 17.8466356,0.46555 16.2439189,0.425875 C14.6498656,0.384475 13.1233862,0.96925 11.9624996,2.068075 C11.8221536,2.2009 11.6887382,2.340625 11.5639862,2.485525 C10.5399802,1.409125 9.11746089,0.722575 7.52860556,0.6829 C5.99519556,0.6415 4.53455756,1.205575 3.41352222,2.26645 C2.26476422,3.3532 1.61154889,4.828075 1.57169756,6.4168 L1.51451956,8.654125 C1.51451956,8.66275 1.51451956,8.681725 1.51451956,8.69035 L1.50758889,9.4252 C1.50758889,9.426925 1.50758889,9.42865 1.50758889,9.430375 L1.41229222,25.96105 L1.22862956,35.998825 C1.18358022,37.813525 1.80907289,39.707575 2.89545489,41.246275 C2.72911889,41.3791 2.56798089,41.52055 2.41550622,41.674075 C1.36897556,42.715975 0.797195556,44.1115 0.805858889,45.59155 Z M4.66104222,43.87345 C5.11326822,43.41805 5.71796889,43.164475 6.36252089,43.161025 L34.1510289,43.00405 C35.4713209,43.00405 36.5507722,44.07355 36.5594356,45.389725 C36.5663662,46.7128 35.4921129,47.794375 34.1631576,47.803 L6.39024356,47.959975 L6.37638222,49.533175 L6.37638222,47.959975 C5.05609022,47.959975 3.97490622,46.890475 3.96797556,45.572575 C3.96104489,44.9326 4.20881622,44.32885 4.66104222,43.87345 Z" id="Shape" fill="#1A1A1A" fill-rule="nonzero"></path>
            </g>
            <g id="links" transform="translate(19.000000, 80.000000)" fill="#1A1A1A" stroke="#FFFFFF" stroke-width="2">
                <path d="M20.9632857,20.4261732 C20.9564715,20.5325297 20.9502283,20.5940686 20.934977,20.6773651 C20.9202013,20.762685 20.9009089,20.8430697 20.8786793,20.9203768 C20.85664,20.9999157 20.8364296,21.0656049 20.804415,21.1542811 C20.7795393,21.2195722 20.7561335,21.2716597 20.7229802,21.3402364 C20.7134747,21.3598366 20.7134747,21.3598366 20.6994637,21.3885016 C20.6618344,21.4634271 20.6299267,21.5228423 20.5759762,21.61155 C20.5315294,21.6806909 20.4860018,21.7433476 20.4451471,21.7949776 C20.3846944,21.8752246 20.334235,21.9368475 20.2861181,21.9866047 C20.235913,22.041586 20.1950503,22.0805303 20.1338062,22.1355804 C20.1185915,22.149233 20.1185915,22.149233 20.1071354,22.15956 L20.0887328,22.1757796 C20.0776429,22.1853518 20.0776429,22.1853518 20.062169,22.1987481 C20.0014619,22.2511976 19.9572338,22.2871512 19.9142085,22.3172171 C19.8439455,22.3690334 19.7917832,22.4013529 19.7041736,22.4520213 C19.6979526,22.4556164 19.6942837,22.4577367 19.6914377,22.4593833 C19.646681,22.4901413 19.5889704,22.5253076 19.5293708,22.5531184 L8.36008756,27.9857727 L8.36008756,32.4390979 C10.4886746,33.4237756 11.9103216,35.5647903 11.9103216,37.9758 C11.9103216,41.3442799 9.16063469,44.0818 5.78162822,44.0818 C2.40262175,44.0818 -0.347065111,41.3442799 -0.347065111,37.9758 C-0.347065111,35.5655199 1.07529761,33.4242571 3.20316889,32.4392812 L3.20316889,26.378625 C3.20928271,26.2480271 3.20962395,26.2407378 3.21724941,26.1918018 C3.22406366,26.0854453 3.23030686,26.0239064 3.24555813,25.9406099 C3.26033384,25.85529 3.27962617,25.7749053 3.30185579,25.6975982 C3.32389507,25.6180593 3.3441055,25.5523701 3.3761201,25.4636939 C3.40099579,25.3984028 3.42440162,25.3463153 3.45755488,25.2777386 C3.4670604,25.2581384 3.4670604,25.2581384 3.4802757,25.2310614 L3.48107145,25.2294734 C3.5187007,25.1545479 3.55060846,25.0951327 3.58925857,25.0310009 C3.63733856,24.9512221 3.68579376,24.883541 3.73365532,24.8229974 C3.79410806,24.7427504 3.84456744,24.6811275 3.89268436,24.6313703 C3.94288947,24.576389 3.98375214,24.5374447 4.04499628,24.4823946 C4.06021095,24.468742 4.06021095,24.468742 4.07199891,24.4581154 L4.09006961,24.4421954 C4.10115957,24.4326232 4.10115957,24.4326232 4.11663349,24.4192269 C4.17734055,24.3667774 4.22156868,24.3308238 4.26459397,24.3007579 C4.33485695,24.2489416 4.38701926,24.2166221 4.47462885,24.1659537 C4.48021533,24.1627253 4.4837438,24.1606862 4.48732176,24.1586212 C4.53208456,24.1278562 4.58981299,24.0926763 4.6494316,24.0648566 L15.8187149,18.6322023 L15.8187149,1.673175 C15.8187149,0.25092014 16.9756511,-0.900025 18.3989069,-0.900025 C19.8224972,-0.900025 20.9802034,0.251685406 20.9773662,1.67145 L20.9773662,20.23935 C20.9712524,20.3699479 20.9709112,20.3772372 20.9632857,20.4261732 Z M6.74993756,37.974075 C6.74993756,37.4457799 6.31498308,37.01275 5.77989556,37.01275 C5.24480803,37.01275 4.80985356,37.4457799 4.80985356,37.974075 C4.80985356,38.5023701 5.24480803,38.9354 5.77989556,38.9354 C6.31498308,38.9354 6.74993756,38.5023701 6.74993756,37.974075 Z" id="link-1" fill-rule="nonzero"></path>
                <path d="M48.4228062,18.6287545 L59.6003207,24.065457 C59.7077064,24.1243503 59.7087068,24.1248989 59.75539,24.1565771 C59.7584196,24.158331 59.7621324,24.1604767 59.7686249,24.1642287 C59.8562345,24.2148971 59.9083968,24.2472166 59.9614474,24.2866192 C60.0216851,24.3290988 60.0659132,24.3650524 60.1266203,24.4175019 C60.1420942,24.4308982 60.1420942,24.4308982 60.1722638,24.4573023 C60.1830428,24.467017 60.1830428,24.467017 60.1982575,24.4806696 C60.2595016,24.5357197 60.3003643,24.574664 60.3339405,24.6118736 C60.3986863,24.6794025 60.4491457,24.7410254 60.4970542,24.8049723 C60.5504531,24.8729024 60.5959807,24.9355591 60.6557279,25.0292759 C60.694378,25.0934077 60.7262857,25.1528229 60.7705309,25.2411711 C60.8151324,25.3333951 60.8365401,25.3798574 60.87566,25.4803389 C60.899805,25.5476458 60.913923,25.5939464 60.94933,25.7193502 C60.9522248,25.730746 60.9522248,25.730746 60.9566949,25.7479713 C60.9748519,25.8170444 60.9878201,25.871855 60.9978246,25.9298701 C61.0142157,26.0196221 61.0206545,26.0811706 61.0276595,26.1895795 C61.0353603,26.238965 61.0356831,26.245861 61.0418176,26.3769 L61.0418176,32.4373729 C63.1704046,33.4220506 64.5920516,35.5630653 64.5920516,37.974075 C64.5920516,41.3425549 61.8423647,44.080075 58.4633582,44.080075 C55.0843517,44.080075 52.3346649,41.3425549 52.3346649,37.974075 C52.3346649,35.5637949 53.7570276,33.4225321 55.8848989,32.4375562 L55.8848989,27.9840455 L44.7073845,22.547343 C44.5979484,22.4868625 44.5931994,22.484238 44.5529133,22.4564973 C44.4782309,22.4143196 44.4118406,22.3729489 44.3394554,22.3210349 C44.2658213,22.2674634 44.1964923,22.210541 44.1338717,22.1535917 C44.1248879,22.145579 44.124844,22.1455401 44.1108812,22.1331479 C44.0505965,22.0795471 44.0097421,22.0407914 43.9796781,22.0068468 C43.9145545,21.9390643 43.8762038,21.8920365 43.799228,21.7923933 C43.7463353,21.7232788 43.7127275,21.6769937 43.6616277,21.5966354 C43.6158892,21.5216348 43.5746071,21.4454998 43.5420574,21.3781516 C43.5057741,21.3059059 43.4781636,21.2465562 43.4464836,21.1675382 C43.4142154,21.0845474 43.3967235,21.0281352 43.3655308,20.9178638 C43.3365153,20.8186191 43.3224161,20.763652 43.3083501,20.6761142 C43.2938207,20.5869131 43.2851917,20.5017022 43.279845,20.4131578 C43.273378,20.369868 43.2729353,20.3599642 43.2676202,20.241075 L43.2676202,1.673175 C43.2676202,0.250495105 44.4232537,-0.900025 45.8478122,-0.900025 C47.2733806,-0.900025 48.4313362,0.2528069 48.4228062,1.668 L48.4228062,18.6287545 Z M58.4668236,37.01275 C57.931736,37.01275 57.4967816,37.4457799 57.4967816,37.974075 C57.4967816,38.5023701 57.931736,38.9354 58.4668236,38.9354 C59.0019111,38.9354 59.4368656,38.5023701 59.4368656,37.974075 C59.4368656,37.4457799 59.0019111,37.01275 58.4668236,37.01275 Z" id="link-5" fill-rule="nonzero"></path>
                <path d="M23.9263649,44.0274407 C26.0296617,45.0223372 27.4298169,47.1490268 27.4298169,49.5402 C27.4298169,52.9086799 24.68013,55.6462 21.3011236,55.6462 C17.9221171,55.6462 15.1724302,52.9086799 15.1724302,49.5402 C15.1724302,47.1100718 16.6163169,44.9545405 18.7694462,43.9798074 L18.7694462,28.176075 C18.7694462,26.7538201 19.9263825,25.602875 21.3496382,25.602875 C22.7736711,25.602875 23.9291989,26.7550356 23.9263649,28.176075 L23.9263649,44.0274407 Z M22.2728982,49.5402 C22.2728982,49.0119049 21.8379437,48.578875 21.3028562,48.578875 C20.7677687,48.578875 20.3328142,49.0119049 20.3328142,49.5402 C20.3328142,50.0684951 20.7677687,50.501525 21.3028562,50.501525 C21.8379437,50.501525 22.2728982,50.0684951 22.2728982,49.5402 Z" id="link-2" fill-rule="nonzero"></path>
                <path d="M34.8421649,44.3997 C34.8421649,45.8223799 33.6865314,46.9729 32.2619729,46.9729 C30.8374144,46.9729 29.6817809,45.8223799 29.6817809,44.3997 L29.6817809,4.402125 C29.6817809,2.9794451 30.8374144,1.828925 32.2619729,1.828925 C33.686102,1.828925 34.8421649,2.98074448 34.8421649,4.402125 L34.8421649,44.3997 Z" id="link-3"></path>
                <path d="M45.7527669,44.0034979 C47.8813539,44.9881756 49.3030009,47.1291903 49.3030009,49.5402 C49.3030009,52.9086799 46.553314,55.6462 43.1743076,55.6462 C39.7953011,55.6462 37.0456142,52.9086799 37.0456142,49.5402 C37.0456142,47.1299199 38.4679769,44.9886571 40.5958482,44.0036812 L40.5958482,28.176075 C40.5958482,26.753416 41.7480008,25.602875 43.1725749,25.602875 C44.5971334,25.602875 45.7527669,26.7533951 45.7527669,28.176075 L45.7527669,44.0034979 Z M44.1460822,49.5402 C44.1460822,49.0119049 43.7111277,48.578875 43.1760402,48.578875 C42.6409527,48.578875 42.2059982,49.0119049 42.2059982,49.5402 C42.2059982,50.0684951 42.6409527,50.501525 43.1760402,50.501525 C43.7111277,50.501525 44.1460822,50.0684951 44.1460822,49.5402 Z" id="link-4" fill-rule="nonzero"></path>
            </g>
            <g id="boops" transform="translate(20.000000, 0.000000)" fill="#1A1A1A">
                <path d="M31.5062789,8.864425 C32.3778102,8.864425 33.0864709,8.160625 33.0864709,7.291225 L33.0864709,1.87645 C33.0864709,1.008775 32.3795429,0.30325 31.5062789,0.30325 C30.6330149,0.30325 29.9260869,1.00705 29.9260869,1.87645 L29.9260869,7.291225 C29.9260869,8.160625 30.6330149,8.864425 31.5062789,8.864425 Z" id="boop-3"></path>
                <path d="M15.9417342,11.8642 C16.2345549,12.3679 16.7647509,12.6508 17.3105409,12.6508 C17.5791042,12.6508 17.8494002,12.583525 18.0989042,12.44035 C18.8543469,12.00565 19.1125142,11.044825 18.6776149,10.292725 L15.9590609,5.604175 C15.5224289,4.852075 14.5556009,4.593325 13.8018909,5.028025 C13.0464482,5.462725 12.7882809,6.42355 13.2231802,7.17565 L15.9417342,11.8642 Z" id="boop-2"></path>
                <path d="M1.41852222,20.07865 L6.12791022,22.785175 C6.37568156,22.92835 6.64771022,22.995625 6.91627356,22.995625 C7.46206356,22.995625 7.99399222,22.712725 8.28508022,22.209025 C8.72171222,21.456925 8.46181222,20.4961 7.70636956,20.0614 L2.99698156,17.354875 C2.24153889,16.920175 1.27471089,17.178925 0.839811556,17.931025 C0.403179556,18.683125 0.663079556,19.645675 1.41852222,20.07865 Z" id="boop-1"></path>
                <path d="M56.0945516,22.99735 C56.3631149,22.99735 56.6334109,22.930075 56.8829149,22.7869 L61.5940356,20.080375 C62.3494782,19.645675 62.6076456,18.68485 62.1727462,17.93275 C61.7361142,17.18065 60.7710189,16.9219 60.0155762,17.3566 L55.3044556,20.063125 C54.5490129,20.497825 54.2908456,21.45865 54.7257449,22.21075 C55.0168329,22.71445 55.5487616,22.99735 56.0945516,22.99735 Z" id="boop-5"></path>
                <path d="M44.9101882,12.44035 C45.1596922,12.583525 45.4299882,12.6508 45.6985516,12.6508 C46.2443416,12.6508 46.7745376,12.369625 47.0673582,11.8642 L49.7876449,7.17565 C50.2242769,6.42355 49.9643769,5.461 49.2106669,5.028025 C48.4552242,4.593325 47.4901289,4.852075 47.0534969,5.60245 L44.3332102,10.291 C43.8965782,11.044825 44.1547456,12.00565 44.9101882,12.44035 Z" id="boop-4"></path>
            </g>
        </g>
    </g>
</svg>