<?xml version="1.0" encoding="UTF-8"?>
<svg width="510px" height="278px" viewBox="0 0 510 278" version="1.1" xmlns="http://www.w3.org/2000/svg" xmlns:xlink="http://www.w3.org/1999/xlink">
    <!-- Generator: Sketch 52.5 (67469) - http://www.bohemiancoding.com/sketch -->
    <title>people</title>
    <desc>Created with Sketch.</desc>
    <g id="people" stroke="none" stroke-width="1" fill="none" fill-rule="evenodd">
        <g id="Group" transform="translate(25.000000, 43.000000)" stroke="#000000" stroke-dasharray="4,7.2,1.6,1.6" stroke-linecap="round" stroke-linejoin="bevel" stroke-width="1.8">
            <path d="M251.269198,4.11246032 L270.833381,64.6919374 L353.796708,115.44296 L460.516008,145.758791 L399.860009,198.264682 L294.951514,174.430085 L209.225586,210.893172 L139.834321,144.03076 L85.8169442,190.969381 L0.610312959,184.72372" id="edge-4"></path>
            <path d="M87.2566094,192.048841 L208.552146,210.511484 L211.346174,117.961204 L269.239572,66.5631009 L296.539336,171.612157 L215.802851,118.342891 L142.0881,25.2618261 L139.991457,138.913762 L208.083731,116.819123" id="edge-3"></path>
            <path d="M142.604404,27.4684572 L250.938464,0.552031305" id="edge-2"></path>
            <path d="M295.627947,173.340188 L353.606648,114.002686 L396.076772,199.376943" id="edge-1"></path>
        </g>
        <g id="person-12" transform="translate(154.000000, 48.000000)">
            <path d="M37.5478261,7.31385679 C34.2217391,3.24719013 30.7478261,2.73885679 27.126087,2.73885679 C26.9043478,2.66623775 26.6086957,2.66623775 26.3869565,2.5936187 C16.8521739,0.269809174 10.4956522,1.43171394 8.05652174,6.66028536 C7.09565217,8.5483806 6.50434783,11.2352854 6.2826087,15.0840949 L0,27.9376663 L6.06086957,27.9376663 C6.20869565,35.7079044 7.09565217,41.3721901 11.6782609,42.2436187 C12.8608696,42.4614758 14.1173913,42.6067139 15.5956522,42.6067139 C16.0932768,42.6067139 16.1528797,53.5441668 16.7043478,53.4995711 C18.8214875,53.3283638 26.6501012,56.372551 30.0086957,52.7733806 C30.5830946,52.1578375 27.7821346,41.4146101 28.3826087,41.154333 C28.9,40.9364758 27.8652174,39.3388568 28.3826087,39.1209996 C33.2608696,36.579333 36.8086957,32.5126663 38.6565217,27.5745711 C41.6130435,21.329333 42.8695652,13.776952 37.5478261,7.31385679 Z" id="Path" fill="#A1847C"></path>
            <g id="lady-(2)" transform="translate(0.739130, 0.000000)" fill-rule="nonzero">
                <path d="M11.4565217,22.7297619 C10.4956522,22.7297619 9.6826087,21.9309524 9.6826087,20.9869048 C9.6826087,20.0428571 10.4956522,19.2440476 11.4565217,19.2440476 C12.4173913,19.2440476 13.2304348,20.0428571 13.2304348,20.9869048 C13.2304348,21.9309524 12.4173913,22.7297619 11.4565217,22.7297619 Z M11.4565217,20.4785714 C11.1608696,20.4785714 10.9391304,20.6964286 10.9391304,20.9869048 C10.9391304,21.277381 11.1608696,21.4952381 11.4565217,21.4952381 C11.7521739,21.4952381 11.973913,21.277381 11.973913,20.9869048 C12.0478261,20.7690476 11.7521739,20.4785714 11.4565217,20.4785714 Z" id="Shape" fill="#000000"></path>
                <path d="M44.126087,60.4916667 C43.0173913,56.0619048 39.9869565,49.8166667 32.226087,49.9619048 L28.826087,49.9619048 C28.7521739,48.2916667 28.6043478,46.8392857 28.4565217,45.0964286 C28.3086957,43.2809524 28.0869565,41.175 27.8652174,38.197619 C27.4956522,38.4154762 27.126087,38.5607143 26.6826087,38.7785714 C26.9043478,41.5380952 27.0521739,43.5714286 27.273913,45.3142857 C27.4217391,46.9845238 27.5695652,48.4369048 27.6434783,50.0345238 L24.7608696,50.0345238 L23.9478261,50.0345238 L21.4347826,50.0345238 L20.6217391,50.0345238 L16.1869565,50.0345238 C16.1130435,49.4535714 16.0391304,48.8 16.0391304,48.1464286 C15.8913043,46.3309524 15.6695652,44.225 15.4478261,41.247619 C15.0782609,41.4654762 14.7086957,41.6107143 14.2652174,41.8285714 C14.4869565,44.5880952 14.6347826,46.6214286 14.8565217,48.3642857 C14.9304348,49.0178571 15.0043478,49.5988095 15.0043478,50.1797619 L13.0826087,50.1797619 C5.32173913,50.0345238 2.36521739,56.2797619 1.1826087,60.7095238 L44.126087,60.7095238 L44.126087,60.4916667 Z" id="Shape" fill="#000000"></path>
                <path d="M1.09306111,12.8061216 C1.08777039,12.8202789 1.08349819,12.8341255 1.07964849,12.8480384 C1.08568635,12.8272758 1.09181886,12.8065987 1.09804628,12.7860064 Z M2.63368876,10.3710432 C3.46909898,9.62068017 4.60507773,9.02158166 6.07715504,8.47298297 L7.42800588,7.96956171 L7.14044442,9.38219732 C6.73500181,11.3739199 6.50122952,13.9332074 6.34281607,17.8242099 L6.33545473,18.0050217 L1.69634787,26.7952381 L6.32033486,26.7952381 L6.34313368,27.5717601 C6.60005099,36.3223014 7.85752191,40.0848276 11.3058048,40.7513337 C12.5689695,40.9840306 13.7614447,41.1011905 15.0782609,41.1011905 C18.155982,41.1011905 21.5690108,40.3260611 25.9929032,38.4085158 C27.2689615,37.8513076 28.4096736,37.2230131 29.5609061,36.445397 L30.2336381,35.9909908 L30.6781284,36.6703153 C31.234233,37.5202225 32.1462225,38.0861319 33.2169549,38.2032058 C35.0554929,38.4440525 36.8114043,37.2939388 37.2931504,35.5190182 L37.7389228,33.8766371 L38.719173,35.2677656 C39.2836945,36.0689099 40.2072628,36.6360345 41.2100517,36.7522694 C43.285066,37.0520763 45.1583237,35.6165155 45.4013266,33.5275038 C45.5242932,32.5005867 45.2853126,31.5457466 44.746711,30.8401835 L43.7654662,29.5547619 L45.3826087,29.5547619 C47.2233926,29.5547619 48.8721557,28.153277 49.172484,26.3257521 C49.4134612,24.5500638 48.334951,22.8723183 46.6199563,22.3307207 L45.2100958,21.8854849 L46.3540709,20.9488619 C47.0999277,20.338196 47.5740715,19.4996787 47.6957703,18.5446711 C47.9977427,16.5272073 46.5452164,14.611893 44.5459616,14.3737962 C44.0949442,14.318406 43.536447,14.3668225 42.9864787,14.5019075 L41.9956522,14.7452775 L41.9956522,13.725 C41.9956522,13.5749161 42.0129964,13.484033 42.0573141,13.3098655 C42.0684312,13.2661758 42.0695652,13.2602335 42.0695652,13.2892857 L42.0783789,13.1708615 C42.3803514,11.1533978 40.9278251,9.23808349 38.93927,9.00122769 C38.4237665,8.9449523 37.9381281,8.98832833 37.3690874,9.12809796 L36.7530089,9.27942116 L36.4652781,8.71403417 C35.8602866,7.52523439 34.9104563,6.45871821 33.62069,5.52470973 L33.6172793,5.52235183 C29.5600051,2.70189655 26.1108563,2.15029241 19.7646557,2.39323861 C16.558955,2.51595973 15.4883588,2.48464861 14.2342933,2.06619574 C8.77335299,0.248431772 5.45289209,2.06964504 3.66858504,6.40450702 C3.1575938,7.64592816 2.81431715,9.02818702 2.63368876,10.3710432 Z M4.66956522,25.7059524 L6.34347826,25.7059524 L6.34347826,26.5059524 C6.34347826,26.7331172 6.3061822,26.9163328 6.182548,27.1592723 L4.66956522,30.1322623 L4.66956522,26.7964286 C4.66956522,26.2157969 4.66956522,26.0478309 4.66956522,25.7059524 Z M5.54347826,26.7964286 L5.46956522,26.7964286 L4.89878357,26.5059524 L5.54347826,26.5059524 L5.54347826,26.7964286 Z M4.89878357,26.5059524 L4.75658243,26.4335849 C4.75613664,26.4344608 4.74347826,26.4966447 4.74347826,26.5059524 L4.89878357,26.5059524 Z M5.54347826,26.7964286 L5.54347826,27.3059524 L0.972407961,27.3059524 L6.26956522,17.1391786 L6.26956522,20.4059524 C6.26956522,21.9309524 6.26956522,21.9309524 6.26956522,23.5285714 C6.26956522,24.3455357 6.26956522,24.3455357 6.26956522,25.1625 C6.26956522,25.9794643 6.26956522,25.9794643 6.26956522,26.7964286 L5.54347826,26.7964286 Z M26.1770512,38.7183516 C19.6936626,41.4924416 15.86986,41.9178159 11.2360632,41.0900347 C6.92636478,40.2869875 5.92608696,35.4887773 5.92608696,23.4559524 C5.92608696,15.7293086 6.2033232,11.4512985 6.98786333,8.50822418 L7.09960634,8.0890385 L7.51188385,7.95401858 C7.67779308,7.8996837 7.84337481,7.84607776 8.0828599,7.76898672 C8.35117855,7.68268897 8.48502001,7.63960602 8.61843637,7.59643933 C12.3629387,6.3849105 13.9375558,5.43258955 14.7348433,3.34072773 C14.7443044,3.32213684 14.7477716,3.31327981 14.7641532,3.26499538 C14.8032064,3.14988695 14.8305363,3.08007335 14.8826694,2.97763249 L15.3130007,2.13203746 L16.0737368,2.69904415 C17.1487415,3.5002876 18.1372552,5.07084428 19.3644653,7.60286763 C19.6826169,8.2592892 20.7064284,10.4659722 20.6434072,10.3320653 C21.0764945,11.2522846 21.360796,11.7988516 21.5793798,12.1139056 C22.2267992,13.0680332 23.163186,14.0221006 24.3730114,14.9878746 L25.3082458,15.7344494 L24.2608731,16.3132823 C23.3132192,16.8370054 22.632805,17.8479111 22.4471752,19.002883 C22.1451043,20.9616481 23.4735833,22.8183715 25.4231961,23.1775241 L27.2994877,23.5231698 L25.737813,24.619123 C24.8386034,25.2501709 24.2670186,26.1549355 24.147708,27.2053289 C23.8457355,29.2227927 25.2982619,31.138107 27.2975166,31.3762038 C28.2677591,31.4953608 29.1739743,31.2650979 29.9036901,30.7273924 L30.9714995,31.9081482 C30.4870478,32.4436149 30.1841564,33.0983099 30.0654533,33.8488641 C30.0024548,34.4678203 30.0661774,35.0782388 30.2488902,35.6167811 L30.4233257,36.1309258 L30.0099512,36.4829117 C28.9306682,37.4019146 27.6814828,38.1090602 26.1770512,38.7183516 Z" id="Shape" stroke="#000000" stroke-width="1.6" fill="#01B1C9"></path>
            </g>
        </g>
        <g id="person-11" transform="translate(268.000000, 82.000000)">
            <path d="M37.4754098,8.11054711 C34.1557377,4.00822153 30.6885246,3.49543083 27.0737705,3.49543083 C26.852459,3.42217502 26.557377,3.42217502 26.3360656,3.3489192 C16.8196721,1.00473316 10.4754098,2.17682618 8.04098361,7.45124479 C7.08196721,9.35589595 6.49180328,12.0663611 6.2704918,15.9489192 L0,28.9151983 L6.04918033,28.9151983 C6.19672131,36.7535704 7.08196721,42.4675239 11.6557377,43.3465936 C12.8360656,43.5663611 14.0901639,43.7128727 15.5655738,43.7128727 C16.0622387,43.7128727 16.1217266,54.7462315 16.6721311,54.7012448 C18.7851877,54.5285363 26.5987028,57.5994167 29.9508197,53.9686866 C30.5241108,53.3477461 27.7285529,42.5103158 28.3278689,42.2477564 C28.8442623,42.027989 27.8114754,40.4163611 28.3278689,40.1965936 C33.1967213,37.6326401 36.7377049,33.5303146 38.5819672,28.5489192 C41.5327869,22.2489192 42.7868852,14.6303146 37.4754098,8.11054711 Z" id="Path" fill="#CC9159"></path>
            <g id="lady-(1)" transform="translate(0.737705, 0.000000)" fill-rule="nonzero">
                <path d="M40.1774591,22.6499023 C39.6952835,21.1199138 39.6762353,19.8807596 39.9665791,18.2029562 C40.0056109,17.977404 40.0172688,17.915112 40.1216762,17.3656565 C40.49805,15.3849477 40.5599491,14.312299 40.2304781,12.6762001 C38.98188,6.11043519 35.0253361,2.70596834 29.1058708,1.6889863 C26.0539838,1.16466288 22.7636958,1.32668003 19.5955977,1.9173214 C18.9618767,2.03546857 18.3867113,2.16188022 17.8814947,2.28795278 C17.5818899,2.36271662 17.3746584,2.41996634 17.2711295,2.45106442 L17.1585414,2.48488372 L17.0409836,2.48488372 C10.5708541,2.48488372 7.12661338,5.17626665 5.9667537,9.72107946 C5.53244425,11.4228846 5.4555012,13.3038673 5.66699348,15.1291037 C5.8240926,16.4849124 6.15172546,17.7199032 6.34968255,18.0223278 L6.48032787,18.2219183 L6.48032787,18.4604651 C6.48032787,18.5795058 6.48032787,18.5795058 6.48032787,18.7168605 C6.48032787,18.8542151 6.48032787,18.8542151 6.48032787,18.9732558 L6.48032787,19.1695461 L1.8366179,28.0627907 L6.45742628,28.0627907 L6.47999055,28.8395614 C6.73646722,37.668721 7.99320937,41.4693697 11.4333221,42.1414235 C12.6934976,42.3760579 13.8830782,42.494186 15.1967213,42.494186 C18.26712,42.494186 21.6723837,41.7125314 26.0868215,39.7785761 C28.0966689,38.8915426 29.8477099,37.8201457 31.3480555,36.5334329 L31.6911517,36.2391898 L32.1202445,36.3812228 C32.5478684,36.5227697 33.000397,36.6151062 33.4452481,36.6664722 C33.7099965,36.6970422 33.9080833,36.7069767 34.0081967,36.7069767 L34.1805867,36.7257715 C34.3417818,36.7613427 34.6231122,36.8239787 34.984618,36.9054148 C35.5871786,37.0411531 36.1898138,37.1791246 36.7527723,37.3111181 C36.8815639,37.3413545 36.8815639,37.3413545 37.0100422,37.371686 C37.2732817,37.4339248 37.5143591,37.4915735 37.7340657,37.5450163 C37.4208997,36.0200564 37.6240182,33.9290844 38.5496955,31.209636 C38.5742444,31.122573 38.6026789,31.0354092 38.6349615,30.9476018 C38.7449792,30.6483578 38.8920972,30.3559569 39.1073902,29.986068 C39.1824778,29.8570619 39.5512775,29.2472477 39.6523161,29.072598 C40.7447292,27.1843146 41.0148691,25.4890658 40.1774591,22.6499023 Z M4.73278689,27.0372093 L6.40655738,27.0372093 L6.40655738,27.8372093 C6.40655738,28.0642024 6.36978135,28.2467997 6.24732179,28.4900101 L4.73278689,31.4979469 L4.73278689,28.1302326 C4.73278689,27.5484945 4.73278689,27.3773956 4.73278689,27.0372093 Z M5.60655738,28.1302326 L5.53278689,28.1302326 L4.95082907,27.8372093 L5.60655738,27.8372093 L5.60655738,28.1302326 Z M4.95082907,27.8372093 L4.81825198,27.770455 C4.81874324,27.7694794 4.80655738,27.8299836 4.80655738,27.8372093 L4.95082907,27.8372093 Z M5.60655738,28.1302326 L5.60655738,28.6372093 L1.04821326,28.6372093 L6.33278689,18.3858796 L6.33278689,21.6837209 C6.33278689,23.222093 6.33278689,23.222093 6.33278689,24.8337209 C6.33278689,25.6578488 6.33278689,25.6578488 6.33278689,26.4819767 C6.33278689,27.3061047 6.33278689,27.3061047 6.33278689,28.1302326 L5.60655738,28.1302326 Z M26.2052097,40.1484058 C19.7320355,42.9479899 15.9134542,43.3774357 11.2863636,42.541993 C6.98394325,41.7317096 5.98688525,36.8976832 5.98688525,24.7604651 C5.98688525,20.0887523 6.07408535,16.7982665 6.28462069,14.2197798 L6.29613033,14.0788179 L6.35527273,13.9503465 C7.47840142,11.5106433 9.09484894,9.54016202 11.2736349,7.68292992 C12.2992281,6.80869781 15.4546245,4.49272075 15.861576,4.14983761 L19.2695772,1.27837445 L17.073131,5.15592485 C16.0856987,6.89911285 16.2845904,8.03097866 17.4813622,10.0885685 C17.948231,10.8912483 18.1233441,11.1962515 18.2559395,11.4820569 L24.872574,9.56259321 L25.7215382,12.2603251 L18.5761905,14.3426991 C18.4916237,14.6026224 18.3942842,14.8128328 18.2313834,15.0821099 C17.3228024,16.5031412 17.4390745,17.1895162 18.4429183,18.5745838 C18.4899901,18.6395318 18.5379013,18.7050794 18.6362811,18.8394947 C20.3148592,21.1362278 20.5428555,22.7743342 18.6618005,25.5762106 C18.1771951,26.2897504 18.2839105,26.9112112 19.029387,28.5843449 C19.2688069,29.1216943 19.3751581,29.3723269 19.4899157,29.6892699 C20.1591939,31.5377129 19.8484392,33.0231108 18.200665,34.2956466 L24.1229508,35.022093 C25.4684948,35.022093 26.5800142,34.4171558 27.5046192,33.3751832 C27.8838438,32.9478206 28.1901816,32.4948331 28.4523362,32.0218875 C28.5156889,31.9075946 28.6533057,31.6444732 28.6541791,31.6428829 C28.6750714,31.6041229 28.6750714,31.6041229 28.7320242,31.5192787 C28.7721351,31.4476726 28.7721351,31.4476726 29.093998,31.243198 C29.5315122,31.1533784 29.5315122,31.1533784 29.9959188,31.4784775 C30.1683971,31.7828298 30.1683971,31.7828298 30.1786707,31.9196897 C30.1932259,32.0780997 30.1973823,32.0601824 30.1378317,32.2757765 C29.6912331,34.1051433 30.1011936,35.2828263 31.0775889,35.9753858 L31.9523217,36.5958358 L31.1083304,37.2574961 C29.5749725,38.4595962 27.9625027,39.420651 26.2052097,40.148405 Z" id="Shape" stroke="#000000" stroke-width="1.6" fill="#197C5D"></path>
                <path d="M11.5819672,24.027907 C10.6229508,24.027907 9.81147541,23.222093 9.81147541,22.2697674 C9.81147541,21.3174419 10.6229508,20.5116279 11.5819672,20.5116279 C12.5409836,20.5116279 13.352459,21.3174419 13.352459,22.2697674 C13.352459,23.222093 12.5409836,24.027907 11.5819672,24.027907 Z M11.5819672,21.7569767 C11.2868852,21.7569767 11.0655738,21.9767442 11.0655738,22.2697674 C11.0655738,22.5627907 11.2868852,22.7825581 11.5819672,22.7825581 C11.8770492,22.7825581 12.0983607,22.5627907 12.0983607,22.2697674 C12.0983607,22.05 11.8770492,21.7569767 11.5819672,21.7569767 Z" id="Shape" fill="#000000"></path>
                <path d="M44.1147541,62.1209302 C43.0081967,57.6523256 39.9836066,51.3523256 32.2377049,51.4988372 L28.8442623,51.4988372 C28.7704918,49.8139535 28.6229508,48.3488372 28.4754098,46.5906977 C28.3278689,44.7593023 28.1065574,42.6348837 27.8852459,39.6313953 C27.5163934,39.8511628 27.147541,39.9976744 26.704918,40.2174419 C26.9262295,43.0011628 27.0737705,45.0523256 27.295082,46.8104651 C27.442623,48.4953488 27.5901639,49.9604651 27.6639344,51.572093 L24.7868852,51.572093 L23.9754098,51.572093 L21.3934426,51.572093 L20.6557377,51.572093 L16.2295082,51.572093 C16.1557377,50.9860465 16.0819672,50.3267442 16.0819672,49.6674419 C15.9344262,47.8360465 15.7131148,45.7116279 15.4918033,42.7081395 C15.1229508,42.927907 14.7540984,43.0744186 14.3114754,43.294186 C14.5327869,46.077907 14.6803279,48.1290698 14.9016393,49.8872093 C14.9754098,50.5465116 15.0491803,51.1325581 15.0491803,51.7186047 L13.1311475,51.7186047 C5.3852459,51.572093 2.43442623,57.872093 1.25409836,62.3406977 L44.1147541,62.3406977 L44.1147541,62.1209302 Z" id="Shape" fill="#000000"></path>
            </g>
        </g>
        <g id="person-10" transform="translate(250.000000, 0.000000)">
            <path d="M37.4754098,16.8874162 C34.1557377,12.7884472 30.6885246,12.276076 27.0737705,12.276076 C26.852459,12.2028802 26.557377,12.2028802 26.3360656,12.1296843 C16.8196721,9.78741624 10.4754098,10.9585503 8.04098361,16.2286534 C7.08196721,18.1317461 6.49180328,20.8399936 6.2704918,24.719375 L0,37.6750451 L6.04918033,37.6750451 C6.19672131,45.5070039 7.08196721,51.2162822 11.6557377,52.0946327 C12.8360656,52.3142204 14.0901639,52.4606121 15.5655738,52.4606121 C16.0622387,52.4606121 16.1217266,63.4849435 16.6721311,63.4399936 C18.7851877,63.2674263 26.5987028,66.3357942 29.9508197,62.7080348 C30.5241108,62.0876023 27.7285529,51.2590392 28.3278689,50.9966946 C28.8442623,50.777107 27.8114754,49.1667977 28.3278689,48.9472101 C33.1967213,46.3853544 36.7377049,42.2863853 38.5819672,37.3090657 C41.5327869,31.0142204 42.7868852,23.4018492 37.4754098,16.8874162 Z" id="Path" fill="#FEECE0"></path>
            <g id="lady" transform="translate(0.737705, 0.000000)" fill-rule="nonzero">
                <path d="M35.2823165,15.5663477 C32.7838496,13.029864 28.1726549,11.9031481 22.1051361,11.7057626 L20.1828944,11.6432292 L21.5824164,10.3240394 C22.9028419,9.07940601 23.4821111,7.23321656 23.0489773,5.45266266 C22.4139638,2.7433735 19.6037412,1.02291263 16.8520021,1.65786732 C14.1015868,2.29251654 12.397179,5.08485036 13.0980841,7.86695279 C13.3472749,8.91776421 13.9032736,9.80043293 14.7521016,10.5130774 L16.1365976,11.675449 L14.3452688,11.918509 C5.37212613,13.1360473 1.02573369,20.0235463 5.70294595,27.8429434 L5.93231094,28.2263974 L1.61298957,36.5298969 L6.23609632,36.5298969 L6.25867852,37.3066486 C6.5151494,46.1283852 7.77174771,49.9254895 11.2118948,50.5970001 C12.4721061,50.8314492 13.6617254,50.9494845 14.9754098,50.9494845 C18.0458983,50.9494845 21.4512372,50.1684522 25.8634065,48.2370842 C29.9818331,46.4052734 33.3303099,43.5186025 35.5619766,39.8778522 C41.6636768,30.998399 42.544397,22.9491969 35.2823165,15.5663477 Z M6.03621763,36.0941431 C6.04926164,36.1673688 6.05614754,36.2253693 6.05614754,36.3051546 C6.05614754,36.6598996 5.87318245,36.9927228 5.51947068,37.1682011 L4.36393443,37.7414689 L4.36393443,36.4515464 C4.36393443,35.9766851 4.36393443,35.638743 4.36393443,35.3587629 L6.03770492,35.3587629 L6.03770492,36.1587629 C6.03770492,36.1207259 6.0341436,36.0849319 6.03297225,36.0743797 Z M5.23770492,36.4515464 L5.16393443,36.4515464 L5.01868295,36.1587629 L5.23770492,36.1587629 L5.23770492,36.4515464 Z M5.01868295,36.1587629 L4.80839817,35.7348917 C4.63447792,35.8211745 4.51709038,35.9846276 4.47422867,36.1587629 L5.01868295,36.1587629 Z M4.47422867,36.1587629 C4.46230375,36.2072106 4.45614754,36.2564851 4.45614754,36.3051546 C4.45614754,36.3431779 4.45827869,36.3597419 4.46002873,36.3692921 C4.45042208,36.327904 4.43770492,36.2458863 4.43770492,36.1587629 L4.47422867,36.1587629 Z M5.23770492,36.4515464 L5.23770492,36.9587629 L0.678868319,36.9587629 L5.96393443,26.7148662 L5.96393443,30.0103093 C5.96393443,31.5474227 5.96393443,31.5474227 5.96393443,33.157732 C5.96393443,34.8046392 5.96393443,34.8046392 5.96393443,36.4515464 L5.23770492,36.4515464 Z M25.6625645,33.4379633 L26.1593254,24.565917 L27.5049474,27.4789512 C27.5524686,27.5818262 27.64344,27.7765556 27.7728131,28.0499829 C27.9889061,28.5066913 28.2333287,29.0158424 28.5010202,29.5642605 C29.2655837,31.1306174 30.0628199,32.6967021 30.8517857,34.1564402 C31.2393602,34.8735274 31.6159449,35.5479065 31.9785995,36.1721286 C33.1236395,38.1430377 34.091611,39.5455994 34.776043,40.1858945 L35.2874086,40.6642837 L34.8809309,41.2344827 C32.6368611,44.3824206 29.5599427,46.8750203 25.8501342,48.5276747 L25.8420064,48.5312416 C19.3653596,51.3307737 15.5459945,51.7603657 10.9176281,50.9253763 C6.61519459,50.1157534 5.61803279,45.2851794 5.61803279,33.157732 C5.61803279,29.6698824 5.62983676,28.2995754 5.69240365,26.6855073 L5.69713466,26.563459 L5.73806873,26.4483825 C6.58779707,24.0595719 7.46822586,23.0631021 9.40902006,21.7218714 C9.53646319,21.6338267 9.59391436,21.5940512 9.66169915,21.5467724 C11.7301642,20.1040504 12.6845103,18.6120188 13.53777,14.2893628 C13.5558785,14.2220931 13.5558785,14.2220931 13.5835975,14.1404673 C13.5986398,14.0436285 13.5986398,14.0436285 13.9629612,13.6887915 C14.5927335,13.5577068 14.5927335,13.5577068 14.9850964,13.8961588 C15.1148157,14.1130091 15.1148157,14.1130091 15.1373504,14.2094045 C15.1617412,14.3375663 15.1617412,14.3375663 15.1661997,14.4076351 C15.1735232,14.5224082 15.1734213,14.5680669 15.1687312,15.0739809 C15.1378391,18.4062981 15.3973468,21.2406135 16.3722483,24.2746637 C17.9204467,29.0929058 20.8778455,32.3347131 25.6625645,33.4379633 Z" id="Shape" stroke="#000000" stroke-width="1.6" fill="#B85F57"></path>
                <path d="M11.2131148,32.4257732 C10.2540984,32.4257732 9.44262295,31.6206186 9.44262295,30.6690722 C9.44262295,29.7175258 10.2540984,28.9123711 11.2131148,28.9123711 C12.1721311,28.9123711 12.9836066,29.7175258 12.9836066,30.6690722 C12.9836066,31.6206186 12.1721311,32.4257732 11.2131148,32.4257732 Z M11.2131148,30.156701 C10.9180328,30.156701 10.6967213,30.3762887 10.6967213,30.6690722 C10.6967213,30.9618557 10.9180328,31.1814433 11.2131148,31.1814433 C11.5081967,31.1814433 11.7295082,30.9618557 11.7295082,30.6690722 C11.7295082,30.3762887 11.5081967,30.156701 11.2131148,30.156701 Z" id="Shape" fill="#000000"></path>
                <path d="M43.7459016,70.4876289 C42.6393443,66.0226804 39.6147541,59.7278351 31.8688525,59.8742268 L28.4754098,59.8742268 C28.4016393,58.1907216 28.2540984,56.7268041 28.1065574,54.9701031 C27.9590164,53.1402062 27.7377049,51.0175258 27.5163934,48.0164948 C27.147541,48.2360825 26.7786885,48.3824742 26.3360656,48.6020619 C26.557377,51.3835052 26.704918,53.4329897 26.9262295,55.1896907 C27.0737705,56.8731959 27.2213115,58.3371134 27.295082,59.9474227 L24.4180328,59.9474227 L23.6065574,59.9474227 L21.0983607,59.9474227 L20.2868852,59.9474227 L15.8606557,59.9474227 C15.7868852,59.3618557 15.7131148,58.7030928 15.7131148,58.0443299 C15.5655738,56.214433 15.3442623,54.0917526 15.1229508,51.0907216 C14.7540984,51.3103093 14.3852459,51.456701 13.942623,51.6762887 C14.1639344,54.457732 14.3114754,56.5072165 14.5327869,58.2639175 C14.6065574,58.9226804 14.6803279,59.5082474 14.6803279,60.0938144 L12.7622951,60.0938144 C5.01639344,59.9474227 2.06557377,66.242268 0.885245902,70.7072165 L43.7459016,70.7072165 L43.7459016,70.4876289 Z" id="Shape" fill="#000000"></path>
            </g>
        </g>
        <g id="person-9" transform="translate(406.000000, 224.000000)">
            <path d="M50.1985714,12.2594595 C49.6157143,10.2891892 47.5757143,9.12162162 45.5357143,9.70540541 C45.2442857,9.77837838 44.9528571,9.92432432 44.7342857,10.0702703 C44.7342857,9.77837838 44.6614286,9.41351351 44.5885714,9.12162162 C44.0057143,7.15135135 41.9657143,5.98378378 39.9257143,6.56756757 C38.76,6.93243243 37.8857143,7.73513514 37.5214286,8.82972973 C36.72,7.51621622 35.7728571,6.05675676 34.4614286,4.52432432 C32.9314286,2.7 30.1628571,1.75135135 27.3214286,1.38648649 C27.9771429,0.510810811 14.1342857,0.72972973 14.28,1.02162162 C12.1671429,1.24054054 10.4914286,1.60540541 9.18,2.40810811 C3.71571429,4.5972973 0.874285714,9.48648649 4.88142857,15.3972973 C4.88142857,15.6162162 4.88142857,15.9081081 4.80857143,16.127027 L0.218571429,25.2486486 L4.66285714,25.2486486 C5.24571429,31.1594595 7.86857143,34.2243243 10.2,35.8297297 C11.5408615,36.7657553 12.3512173,36.8724798 13.8428571,37.2162162 C15.0258622,37.4888302 13.2943409,47.4324324 14.486665,47.4324324 C17.1095221,47.4324324 27.1757143,48.2351351 29.1428571,47.4324324 C30.0403472,47.0622902 26.8924394,35.9206744 27.7109799,35.4647488 C32.5405289,32.7746986 35.953409,28.6456171 37.4485714,23.7162162 C38.1042857,22.4027027 38.6142857,21.1621622 38.9785714,19.8486486 C39.9257143,20.5783784 41.0914286,20.7972973 42.33,20.5054054 C44.0785714,19.9945946 45.1714286,18.3891892 45.0257143,16.6378378 C45.8271429,17.0027027 46.7014286,17.0756757 47.6485714,16.8567568 C49.6157143,16.272973 50.7814286,14.2297297 50.1985714,12.2594595 Z" id="Path" fill="#E4BCC4"></path>
            <g id="girl-(1)" fill-rule="nonzero">
                <path d="M9.98142857,21.6 C9.03428571,21.6 8.23285714,20.7972973 8.23285714,19.8486486 C8.23285714,18.9 9.03428571,18.0972973 9.98142857,18.0972973 C10.9285714,18.0972973 11.73,18.9 11.73,19.8486486 C11.73,20.7972973 10.9285714,21.6 9.98142857,21.6 Z M9.98142857,19.3378378 C9.69,19.3378378 9.47142857,19.5567568 9.47142857,19.8486486 C9.47142857,20.1405405 9.69,20.3594595 9.98142857,20.3594595 C10.2728571,20.3594595 10.4914286,20.1405405 10.4914286,19.8486486 C10.4914286,19.5567568 10.2728571,19.3378378 9.98142857,19.3378378 Z" id="Shape" fill="#000000"></path>
                <g id="Group">
                    <ellipse id="Oval" fill="#000000" cx="16.0285714" cy="27.2189189" rx="1" ry="1"></ellipse>
                    <ellipse id="Oval" fill="#000000" cx="15.3" cy="24.0810811" rx="1" ry="1"></ellipse>
                    <ellipse id="Oval" fill="#000000" cx="18.4328571" cy="25.2486486" rx="1" ry="1"></ellipse>
                    <path d="M1.28889116,24.1567568 L5.16927884,24.1567568 L5.24042438,24.8782506 C5.7219797,29.7617498 7.62472766,32.94371 10.4393518,34.8818605 C12.5159512,36.3314883 15.0146123,37 17.85,37 C20.1910139,37 22.5617752,36.510593 24.6126394,35.6737313 C29.6400522,33.6043866 33.4777481,29.8704123 35.5502535,25.1461769 L35.6105964,25.0086265 L35.7049101,24.9141629 C36.1045639,24.1482959 36.4332237,23.2621709 36.7718437,22.1050424 C36.8537773,21.8250599 36.9354606,21.5330555 37.0340599,21.1704661 C37.0782794,21.007853 37.2457133,20.3859528 37.2856596,20.2389693 C37.4204105,19.7431503 37.5242378,19.3774213 37.6309862,19.0299374 L37.9698563,17.9268584 L38.8839697,18.6311404 C39.6291784,19.2052893 40.545433,19.3829108 41.5228147,19.1537174 C42.8960598,18.7525508 43.760689,17.503507 43.6456118,16.1203857 L43.5324745,14.7605795 L44.7743355,15.3259592 C45.4110226,15.6158226 46.105608,15.6737967 46.8574273,15.5005634 C48.3234967,15.1052249 49.2293034,13.4358908 48.7757205,11.9026146 C48.3107675,10.3309035 46.6956606,9.43414917 45.0743188,9.89766299 C44.9002075,9.94126001 44.6932824,10.0379786 44.5228197,10.1518011 L43.2785714,10.9826187 L43.2785714,9.48648649 C43.2785714,9.31078456 43.2332285,9.03829424 43.1657205,8.76477681 C42.7007675,7.19306571 41.0856606,6.29631133 39.5089655,6.7472597 C38.5702466,7.04107573 37.9019151,7.6658435 37.6247813,8.49856667 L37.0805161,10.1339583 L36.1827942,8.66262353 C35.1599739,6.98625662 34.2980232,5.74621367 33.1925328,4.45435811 C31.7485764,2.73116418 28.993693,1.76527437 25.1944848,1.41938642 C23.1808214,1.23605825 21.2634196,1.23359974 18.5051274,1.33923526 C18.4300565,1.34211028 17.5901153,1.37520466 17.34,1.38378378 C17.2307143,1.38378378 17.2307143,1.38378378 17.1214286,1.38378378 C17.0121429,1.38378378 17.0121429,1.38378378 16.9028571,1.38378378 C16.8664286,1.38378378 16.8664286,1.38378378 16.83,1.38378378 C16.7571429,1.38378378 16.7571429,1.38378378 16.6489699,1.3830039 C6.32128216,0.92664624 0.0976655779,7.31655362 5.24468556,14.6456372 L5.39,14.8525572 L5.39,15.1054054 C5.39,15.2973602 5.38816049,15.3968515 5.37886624,15.5271779 C5.36427099,15.7318362 5.33388053,15.9144689 5.2762099,16.0877559 L5.23405217,16.1901577 L1.28889116,24.1567568 Z M0.592389218,24.5891892 L5.24428571,15.4037274 L5.24428571,18.7540541 C5.24428571,19.1320821 5.2355628,19.4131154 5.20719369,20.1092634 C5.18080636,20.7567809 5.17142857,21.0714362 5.17142857,21.4540541 C5.17142857,22.6581081 5.17142857,22.6581081 5.17142857,23.7891892 L5.17142857,24.5891892 L0.592389218,24.5891892 Z M24.7147557,36.0574187 C19.9746457,38.050546 14.2090874,38.0500362 10.1897741,35.2524095 C6.37104185,32.6765215 4.50952106,27.8963114 4.73768925,21.4974646 C4.8073173,19.6145184 4.87953055,17.8605631 4.95571429,16.2 C4.95571429,15.6133357 4.99376401,15.1560131 5.10632158,14.1413845 L5.1063062,14.141523 L5.14520077,13.9687326 C5.97159422,11.5742937 6.88112966,10.6150691 8.88960729,9.41092844 C9.04034633,9.32060073 9.10801765,9.27991671 9.18777427,9.23141923 C11.0905795,8.07438368 11.986288,6.84592428 12.768536,3.41111781 C12.784366,3.33580591 12.8025011,3.26905568 12.8280751,3.20218723 C12.891256,3.03698766 12.9773484,2.8995395 13.1619838,2.77846734 C13.5096765,2.55047259 13.9125108,2.62599808 14.1712075,2.86465323 C14.2708491,2.95657551 14.3292117,3.04686596 14.3807766,3.15335034 C14.4519178,3.30026104 14.4914303,3.42914526 14.6220404,3.89452818 C14.9449264,5.04501757 15.1537328,5.71326534 15.5323861,6.69803815 C16.7783585,9.93846915 18.6969604,13.0977212 21.5818231,16.0765697 C22.3950686,16.9163099 23.2732861,17.7262254 24.2194754,18.5035444 L24.6221981,12.4531001 L25.9115912,14.1017507 C25.9782135,14.1869357 26.1052427,14.3480804 26.2851801,14.574308 C26.5856924,14.9521293 26.9241482,15.3733239 27.2930357,15.8270015 C28.346715,17.122873 29.4323939,18.4185614 30.4894919,19.6264877 C30.8262647,20.0113117 31.1553874,20.3816916 31.4756396,20.7358801 C33.232746,22.6791825 34.6521519,24.0565725 35.5576229,24.6538063 L36.1337997,25.033843 L35.8422951,25.6594888 C33.6839305,30.2919087 29.7758485,33.9694192 24.7147557,36.0574187 Z" id="Shape" stroke="#000000" stroke-width="1.6" fill="#3C474D"></path>
                </g>
                <path d="M29.7257143,44.2216216 C29.6528571,42.3972973 29.4342857,40.8648649 29.2157143,38.9675676 C29.07,37.5810811 28.8514286,36.0486486 28.7057143,34.0783784 C28.3414286,34.3702703 27.9042857,34.5891892 27.4671429,34.8810811 C27.4671429,34.9540541 27.4671429,34.9540541 27.4671429,35.027027 C27.4671429,35.1 27.8314286,37.9459459 27.9771429,39.1864865 C28.1957143,41.0108108 28.3414286,42.5432432 28.4871429,44.2216216 C28.3414286,44.2216216 28.1957143,44.2216216 28.05,44.2216216 C22.44,44.4405405 18.4328571,44.5864865 15.4457143,44.8783784 C15.3728571,44.8054054 15.3,44.8054054 15.3,44.7324324 L14.79,37.5810811 C14.79,37.2891892 14.79,37.0702703 14.7171429,36.8513514 C14.28,36.7783784 13.9157143,36.7054054 13.4785714,36.6324324 L14.0614286,45.0243243 C8.52428571,45.9 7.14,47.8702703 4.73571429,53.7081081 L38.6871429,53.7081081 C38.0314286,48.3810811 36.21,44.5135135 29.7257143,44.2216216 Z" id="Shape" fill="#000000"></path>
            </g>
        </g>
        <g id="person-8" transform="translate(206.000000, 211.000000)">
            <path d="M37.4447761,6.17349398 C34.1537313,2.05783133 30.7164179,1.54337349 27.1328358,1.54337349 C26.9134328,1.46987952 26.6208955,1.46987952 26.4014925,1.39638554 C16.9671642,-0.955421687 10.6776119,0.220481928 8.2641791,5.51204819 C7.31343284,7.42289157 6.72835821,10.1421687 6.50895522,14.0373494 L0.292537313,27.0457831 L6.28955224,27.0457831 C6.4358209,34.9096386 7.31343284,40.6421687 11.8477612,41.5240964 C13.0179104,41.7445783 14.261194,41.8915663 15.7238806,41.8915663 C16.2162625,41.8915663 16.2752374,52.9607957 16.8208955,52.9156627 C18.91573,52.7423926 26.6618649,55.8232568 29.9850746,52.1807229 C30.5534219,51.5577636 27.7819717,40.6850998 28.3761194,40.4216867 C28.8880597,40.2012048 27.8641791,38.5843373 28.3761194,38.3638554 C33.2029851,35.7915663 36.7134328,31.6759036 38.541791,26.6783133 C41.4671642,20.3578313 42.7104478,12.7144578 37.4447761,6.17349398 Z" id="Path" fill="#F3EAD9"></path>
            <path d="M12.8716418,23.5180723 C11.9208955,23.5180723 11.1164179,22.7096386 11.1164179,21.7542169 C11.1164179,20.7987952 11.9208955,19.9903614 12.8716418,19.9903614 C13.8223881,19.9903614 14.6268657,20.7987952 14.6268657,21.7542169 C14.6268657,22.7096386 13.8223881,23.5180723 12.8716418,23.5180723 Z M12.8716418,21.239759 C12.5791045,21.239759 12.3597015,21.460241 12.3597015,21.7542169 C12.3597015,22.0481928 12.5791045,22.2686747 12.8716418,22.2686747 C13.1641791,22.2686747 13.3835821,22.0481928 13.3835821,21.7542169 C13.3835821,21.460241 13.1641791,21.239759 12.8716418,21.239759 Z" id="Shape" fill="#000000" fill-rule="nonzero"></path>
            <g id="Group" transform="translate(0.000000, 37.481928)" fill="#000000" fill-rule="nonzero">
                <path d="M15.7970149,12.7879518 L16.9671642,12.7879518 C16.8940299,12.2 16.8208955,11.5385542 16.8208955,10.8771084 C16.6746269,9.03975904 16.4552239,6.90843373 16.2358209,3.89518072 C15.8701493,4.11566265 15.5044776,4.2626506 15.0656716,4.48313253 C15.2850746,7.27590361 15.4313433,9.33373494 15.6507463,11.0975904 C15.6507463,11.6120482 15.7238806,12.2 15.7970149,12.7879518 Z" id="Shape"></path>
                <path d="M37.7373134,12.7879518 L34.5925373,12.7879518 L30.5701493,12.7879518 C30.3507463,10.0686747 30.2044776,8.67228916 29.9850746,7.05542169 C29.838806,5.21807229 29.619403,3.08674699 29.4,0.0734939759 C29.0343284,0.293975904 28.6686567,0.440963855 28.2298507,0.661445783 C28.4492537,3.45421687 28.5955224,5.51204819 28.8149254,7.27590361 C28.961194,8.67228916 29.2537313,11.0975904 29.4,12.8614458 L29.0343284,12.8614458 C28.8880597,12.8614458 28.6686567,12.8614458 28.5223881,12.8614458 L25.3776119,12.8614458 L21.8671642,12.8614458 L20.1119403,12.8614458 C19.9656716,12.8614458 19.7462687,12.8614458 19.6,12.8614458 L12.6522388,12.8614458 L10.8970149,12.8614458 C3.80298507,12.7144578 1.0238806,19.0349398 -1.42108547e-14,23.5180723 L48.8537313,23.5180723 C47.6835821,18.8879518 44.9044776,12.5674699 37.7373134,12.7879518 Z" id="Shape"></path>
            </g>
            <path d="M2.21746243,26.2457831 L7.2942135,26.2457831 L7.30881687,27.0309056 C7.47743673,36.0964309 8.74021286,40.0620121 12.2152952,40.7379302 C13.4636785,40.9731532 14.6420146,41.0915663 15.9432836,41.0915663 C18.9848893,41.0915663 22.35876,40.3078414 26.7432583,38.364041 C26.9371993,38.2805147 27.0986755,38.2022773 27.4684356,38.016488 C27.8665859,37.8164339 28.0464033,37.7293099 28.217196,37.658966 C34.4169382,34.3314567 38.430447,28.3196374 39.1343216,21.3177799 C39.7080541,14.6874098 38.4786797,9.72808097 35.4698706,6.49832072 L35.4686051,6.49695914 C32.6313855,3.43716478 28.2327955,1.90505644 22.3206738,1.97576848 C9.5285968,2.21092062 7.96965863,3.42397232 7.38110115,15.2530081 L7.37315647,15.4126831 L2.21746243,26.2457831 Z M1.58266582,26.7433735 L7.30895522,14.7741192 L7.30895522,18.3 C7.30895522,18.9433886 7.30161912,19.3771183 7.27220494,20.7516041 C7.24609743,21.9715731 7.2358209,22.6479964 7.2358209,23.4445783 C7.2358209,24.7307229 7.2358209,24.7307229 7.2358209,25.9433735 L7.2358209,26.7433735 L1.58266582,26.7433735 Z M33.1298507,5.28941366 L33.1298507,4.92409639 L32.5627795,5.48839261 C32.6677882,5.59391763 32.7498685,5.64635981 32.871892,5.70814856 C32.8488198,5.69403188 32.8192572,5.67263755 32.7821825,5.63538056 L33.1298507,5.28941366 Z M32.871892,5.70814856 C32.8746986,5.70956973 32.8775263,5.71099585 32.8803759,5.71242767 C32.8769278,5.71069512 32.8727579,5.70842164 32.8679146,5.70551019 Z M33.2929006,4.12409639 L33.4623716,4.12409639 L33.696922,4.35980016 C33.658583,4.32127262 33.628277,4.29970808 33.609273,4.28853058 C33.7356747,4.35299319 33.8154127,4.40537958 33.916325,4.50678811 L34.4033655,4.99622375 L33.9903814,5.54957706 C33.9073424,5.66084024 33.2865019,6.41475914 33.0631126,6.70058252 C32.5672304,7.33505649 32.118861,7.97483994 31.6945143,8.68039352 C30.5288574,10.61851 29.7400564,12.736655 29.4630132,15.0876274 C29.2185641,17.1347214 30.3295421,18.3650929 32.5137379,19.0659146 C33.1969802,19.2851398 33.9341163,19.4315036 34.7015061,19.5222396 C35.1426018,19.5743947 36.0273283,19.635725 35.9675713,19.6288778 C36.0066984,19.6333849 36.0066984,19.6333849 36.0813226,19.6480344 C36.1354126,19.6605526 36.1354126,19.6605526 36.2510056,19.7071054 C36.4610236,19.7854391 36.4610236,19.7854391 36.7082389,20.4651709 C36.6088934,22.8112725 37.2763882,23.4700717 38.1902397,23.3170141 L39.3895725,23.1161423 L39.0992547,24.2970166 C37.4989154,30.8064349 33.0743737,36.0648445 26.8706776,38.8018119 L26.8685921,38.8027284 C20.445172,41.6148111 16.6554032,42.0465332 12.0636585,41.2075415 C7.79322405,40.3936487 6.80597015,35.5498231 6.80597015,23.3710843 C6.80597015,11.900805 7.36743284,7.35309011 9.44243244,4.6814229 C11.4416301,2.10735446 13.6942474,1.69754764 22.3059701,1.55180723 C22.4248134,1.55180723 22.4248134,1.55180723 22.5619403,1.55180723 C22.6990672,1.55180723 22.6990672,1.55180723 22.8179104,1.55180723 C27.0704571,1.55180723 30.5988893,2.41625972 33.2929006,4.12409639 Z" id="Shape" stroke="#000000" stroke-width="1.6" fill="#E2E3E5" fill-rule="nonzero"></path>
        </g>
        <g id="person-7" transform="translate(290.000000, 183.000000)">
            <path d="M38.9074627,12.0747253 C35.6164179,7.95164835 32.1791045,7.43626374 28.5955224,7.43626374 C28.3761194,7.36263736 28.0835821,7.36263736 27.8641791,7.28901099 C18.4298507,4.93296703 12.1402985,6.11098901 9.72686567,11.4120879 C8.7761194,13.3263736 8.19104478,16.0505495 7.97164179,19.9527473 L1.75522388,32.9846154 L7.75223881,32.9846154 C7.89850746,40.8626374 8.7761194,46.6054945 13.3104478,47.489011 C14.480597,47.7098901 15.7238806,47.8571429 17.1865672,47.8571429 C17.6789491,47.8571429 17.737924,58.9463132 18.2835821,58.9010989 C20.3784166,58.7275167 28.1245515,61.813931 31.4477612,58.1648352 C32.0161085,57.5407536 29.2446582,46.6485029 29.838806,46.3846154 C30.3507463,46.1637363 29.3268657,44.543956 29.838806,44.3230769 C34.6656716,41.7461538 38.1761194,37.6230769 40.0044776,32.6164835 C42.9298507,26.2846154 44.1731343,18.6274725 38.9074627,12.0747253 Z" id="Path" fill="#FEF1E1"></path>
            <path d="M13.0179104,29.4505495 C12.0671642,29.4505495 11.2626866,28.6406593 11.2626866,27.6835165 C11.2626866,26.7263736 12.0671642,25.9164835 13.0179104,25.9164835 C13.9686567,25.9164835 14.7731343,26.7263736 14.7731343,27.6835165 C14.7731343,28.6406593 13.9686567,29.4505495 13.0179104,29.4505495 Z M13.0179104,27.1681319 C12.7253731,27.1681319 12.5059701,27.389011 12.5059701,27.6835165 C12.5059701,27.978022 12.7253731,28.1989011 13.0179104,28.1989011 C13.3104478,28.1989011 13.5298507,27.978022 13.5298507,27.6835165 C13.5298507,27.389011 13.3104478,27.1681319 13.0179104,27.1681319 Z" id="Shape" fill="#000000" fill-rule="nonzero"></path>
            <g id="Group" transform="translate(0.000000, 43.439560)" fill="#000000" fill-rule="nonzero">
                <path d="M15.9432836,12.810989 L17.1134328,12.810989 C17.0402985,12.221978 16.9671642,11.5593407 16.9671642,10.8967033 C16.8208955,9.05604396 16.6014925,6.92087912 16.3820896,3.9021978 C16.0164179,4.12307692 15.6507463,4.27032967 15.2119403,4.49120879 C15.4313433,7.28901099 15.5776119,9.35054945 15.7970149,11.1175824 C15.7970149,11.632967 15.8701493,12.221978 15.9432836,12.810989 Z" id="Shape"></path>
                <path d="M37.9567164,12.810989 L34.8119403,12.810989 L30.7164179,12.810989 C30.4970149,10.0868132 30.3507463,8.68791209 30.1313433,7.06813187 C29.9850746,5.22747253 29.7656716,3.09230769 29.5462687,0.0736263736 C29.180597,0.294505495 28.8149254,0.441758242 28.3761194,0.662637363 C28.5955224,3.46043956 28.741791,5.52197802 28.961194,7.28901099 C29.1074627,8.68791209 29.4,11.1175824 29.5462687,12.8846154 L29.180597,12.8846154 C29.0343284,12.8846154 28.8149254,12.8846154 28.6686567,12.8846154 L25.5238806,12.8846154 L22.0134328,12.8846154 L20.258209,12.8846154 C20.1119403,12.8846154 19.8925373,12.8846154 19.7462687,12.8846154 L12.7985075,12.8846154 L10.9701493,12.8846154 C3.8761194,12.7373626 1.09701493,19.0692308 0.0731343284,23.5604396 L48.9268657,23.5604396 C47.8298507,18.921978 45.0507463,12.5901099 37.9567164,12.810989 Z" id="Shape"></path>
            </g>
            <path d="M2.43588676,32.2582418 L1.17014925,32.2582418 L1.89275315,33.4015253 L2.43588676,32.2582418 Z M8.10969369,13.8516484 L7.45970149,13.8516484 L7.45970149,14.6516484 L8.23732497,14.4637608 C8.2215299,14.3983886 8.19204084,14.2660484 8.1533718,14.074516 C8.13880647,14.0023722 8.12423025,13.9280542 8.10969276,13.8516484 Z M15.4358209,1.27303459 C15.6503344,1.30169738 15.8698989,1.33614546 16.094587,1.37644542 L15.4358209,0.589010989 L15.4358209,1.27303459 Z M21.8546107,7.72087912 L21.8671642,7.72087912 L21.84204,7.72048451 C21.8462783,7.72061756 21.8504682,7.72074908 21.8546107,7.72087912 Z M7.45522388,29.3769231 C7.45522388,30.6653846 7.45522388,30.6653846 7.45522388,31.8802198 L7.45522388,32.6802198 L1.80305385,32.6802198 L7.71476374,20.3011337 L7.52746476,24.2608753 C7.46682819,25.5428104 7.45522388,26.6292722 7.45522388,29.3769231 Z M27.012329,44.7625308 C20.5905446,47.5785771 16.8009643,48.0108418 12.2096668,47.1704204 C7.93926766,46.3550682 6.95223881,41.5036227 6.95223881,29.3032967 C6.95223881,21.6773374 7.21439828,17.3226033 7.92446186,14.3202717 L8.05936893,13.7498499 L8.64392737,13.7065785 C12.8998978,13.391534 17.5601501,13.3437823 21.2438338,13.8025618 C23.7858928,14.1191591 25.7096798,14.6614558 26.9212,15.5042691 C28.5044456,16.605679 28.8432393,18.228299 27.7480095,20.0659575 C26.2266817,22.6342712 25.9314901,24.3765701 26.528024,25.536225 C26.9921744,26.4385278 27.9857708,27.0636974 29.7493332,27.6957873 C30.0954084,27.8198263 31.2916741,28.2207321 31.3043044,28.225072 C31.847115,28.4115854 32.2405261,28.5623067 32.5947493,28.7275788 C34.980569,29.8578712 36.2241713,32.6041262 36.7010203,35.9645271 L36.7414638,36.2495361 L36.5910379,36.49497 C34.3434363,40.1621424 31.0419445,43.0339367 27.0123291,44.7625306 Z" id="Shape" stroke="#000000" stroke-width="1.6" fill="#C1CCD2" fill-rule="nonzero"></path>
        </g>
        <g id="person-6" transform="translate(213.000000, 129.000000)">
            <path d="M38.1761194,6.82619048 C34.8850746,2.75952381 31.4477612,2.25119048 27.8641791,2.25119048 C27.6447761,2.17857143 27.3522388,2.17857143 27.1328358,2.10595238 C17.6985075,-0.217857143 11.4089552,0.944047619 8.99552239,6.17261905 C8.04477612,8.06071429 7.45970149,10.747619 7.24029851,14.5964286 L1.0238806,27.45 L7.02089552,27.45 C7.16716418,35.2202381 8.04477612,40.8845238 12.5791045,41.7559524 C13.7492537,41.9738095 14.9925373,42.1190476 16.4552239,42.1190476 C16.9476058,42.1190476 17.0065807,53.0565005 17.5522388,53.0119048 C19.6470733,52.8406975 27.3932082,55.8848847 30.7164179,52.2857143 C31.2847652,51.6701712 28.513315,40.9269438 29.1074627,40.6666667 C29.619403,40.4488095 28.5955224,38.8511905 29.1074627,38.6333333 C33.9343284,36.0916667 37.4447761,32.025 39.2731343,27.0869048 C42.1985075,20.8416667 43.441791,13.2892857 38.1761194,6.82619048 Z" id="Path" fill="#F3D2B1"></path>
            <path d="M13.0910448,23.9642857 C12.1402985,23.9642857 11.3358209,23.1654762 11.3358209,22.2214286 C11.3358209,21.277381 12.1402985,20.4785714 13.0910448,20.4785714 C14.041791,20.4785714 14.8462687,21.277381 14.8462687,22.2214286 C14.8462687,23.1654762 14.041791,23.9642857 13.0910448,23.9642857 Z M13.0910448,21.7130952 C12.7985075,21.7130952 12.5791045,21.9309524 12.5791045,22.2214286 C12.5791045,22.5119048 12.7985075,22.7297619 13.0910448,22.7297619 C13.3835821,22.7297619 13.6029851,22.5119048 13.6029851,22.2214286 C13.6029851,21.9309524 13.3835821,21.7130952 13.0910448,21.7130952 Z" id="Shape" fill="#000000" fill-rule="nonzero"></path>
            <g id="Group" transform="translate(0.000000, 37.761905)" fill="#000000" fill-rule="nonzero">
                <path d="M15.9432836,12.6357143 L17.1134328,12.6357143 C17.0402985,12.0547619 16.9671642,11.4011905 16.9671642,10.747619 C16.8208955,8.93214286 16.6014925,6.82619048 16.3820896,3.84880952 C16.0164179,4.06666667 15.6507463,4.21190476 15.2119403,4.4297619 C15.4313433,7.18928571 15.5776119,9.22261905 15.7970149,10.9654762 C15.8701493,11.4738095 15.9432836,12.0547619 15.9432836,12.6357143 Z" id="Shape"></path>
                <path d="M37.9567164,12.6357143 L34.8119403,12.6357143 L30.7895522,12.6357143 C30.5701493,9.94880952 30.4238806,8.56904762 30.2044776,6.97142857 C30.058209,5.15595238 29.838806,3.05 29.619403,0.0726190476 C29.2537313,0.29047619 28.8880597,0.435714286 28.4492537,0.653571429 C28.6686567,3.41309524 28.8149254,5.44642857 29.0343284,7.18928571 C29.180597,8.56904762 29.4731343,10.9654762 29.619403,12.7083333 L29.2537313,12.7083333 C29.1074627,12.7083333 28.8880597,12.7083333 28.741791,12.7083333 L25.5970149,12.7083333 L22.0865672,12.7083333 L20.3313433,12.7083333 C20.1850746,12.7083333 19.9656716,12.7083333 19.819403,12.7083333 L12.8716418,12.7083333 L10.9701493,12.7083333 C3.8761194,12.5630952 1.09701493,18.8083333 0.0731343284,23.2380952 L48.9268657,23.2380952 C47.9029851,18.6630952 45.1238806,12.4178571 37.9567164,12.6357143 Z" id="Shape"></path>
            </g>
            <path d="M37.7732995,6.23974059 C35.0120271,2.84308758 32.2580357,1.86063862 27.8959286,2.03389354 L27.7796073,2.03851361 L27.6667933,2.00979076 C20.0562139,0.0721092934 14.576976,1.18102812 10.9035836,4.74850524 C10.3434195,5.22526301 9.96236243,5.6472936 9.69367668,6.12752041 L9.63122401,6.2225831 C6.95239357,9.7288891 5.7835222,14.9324066 6.13632195,19.3989107 L6.15344642,19.6157093 L2.66732582,26.7952381 L7.51344056,26.7952381 L7.52821651,27.5801814 C7.69678114,36.5348498 8.95747135,40.4467491 12.4329942,41.1147052 C13.6819035,41.3472258 14.860809,41.4642857 16.1626866,41.4642857 C19.2056134,41.4642857 22.5805872,40.6896377 26.9658479,38.7686435 C27.0727554,38.7231488 27.1867131,38.6711178 27.3176105,38.6084512 C27.4196636,38.5595937 27.5027179,38.5187273 27.6912649,38.425118 C28.0893364,38.2274846 28.2691088,38.1414194 28.4421892,38.0707101 C33.0462625,35.6463584 36.4514822,31.7588507 38.2628747,26.8787666 C42.1038049,19.0776725 42.3677361,11.9590375 37.7732996,6.23974074 Z M37.7732996,6.23974074 C37.7728344,6.23916161 37.7723691,6.23858249 37.7719038,6.23800338 L37.7747053,6.24147005 C37.7742367,6.2408935 37.7737681,6.24031701 37.7732995,6.23974059 Z M6.81854386,20.7097048 L6.93646702,20.4640965 L6.93457314,20.4602819 L6.21641791,20.1154762 L6.57216793,20.8320248 L6.81854386,20.7097048 Z M1.9463777,27.1607143 L5.61429196,19.5212476 L5.86066789,19.3989276 C5.97036938,19.3444633 5.97036938,19.3444633 6.08007087,19.289999 C6.18977236,19.2355347 6.18977236,19.2355347 6.29947386,19.1810704 L7.45522388,18.6072669 L7.45522388,19.897619 C7.45522388,21.7857143 7.45522388,21.7857143 7.45522388,23.8916667 C7.45522388,25.1625 7.45522388,25.1625 7.45522388,26.3607143 L7.45522388,27.1607143 L1.9463777,27.1607143 Z M27.0845163,39.0772193 C20.662548,41.8551635 16.8746669,42.2815151 12.2847831,41.4528476 C8.01413558,40.6486038 7.02537313,35.8551295 7.02537313,23.8190476 C7.02537313,21.4589286 7.02537313,21.4589286 7.02537313,19.3892857 L7.02537313,18.8275925 L7.55368207,18.6368337 C9.02948301,18.10396 10.4613349,17.755019 12.8120598,17.2958396 C13.0097855,17.2572168 13.1748899,17.2252401 13.5363032,17.1554243 C20.3710087,15.8347743 23.0670714,14.6061054 25.4992363,10.6213082 L28.9544951,4.96029988 L26.9444636,11.2805532 C25.7500129,15.0363304 26.8455909,18.6130787 31.6203286,21.3787959 C35.1163842,23.3437526 37.1668514,25.2645265 38.0861667,27.0902025 L38.2438175,27.4032827 L38.1205124,27.7314121 C36.2107413,32.8135377 32.3166698,36.8183194 27.0845163,39.0772193 Z" id="Shape" stroke="#000000" stroke-width="1.6" fill="#4A2C22" fill-rule="nonzero"></path>
        </g>
        <g id="person-5" transform="translate(0.000000, 193.000000)">
            <path d="M38.3823529,6.17349398 C35.0735294,2.05783133 31.6176471,1.54337349 28.0147059,1.54337349 C27.7941176,1.46987952 27.5,1.46987952 27.2794118,1.39638554 C17.7941176,-0.955421687 11.4705882,0.220481928 9.04411765,5.51204819 C8.08823529,7.42289157 7.5,10.1421687 7.27941176,14.0373494 L1.02941176,27.0457831 L7.05882353,27.0457831 C7.20588235,34.9096386 8.08823529,40.6421687 12.6470588,41.5240964 C13.8235294,41.7445783 15.0735294,41.8915663 16.5441176,41.8915663 C17.0391595,41.8915663 17.098453,52.9607957 17.6470588,52.9156627 C19.7532099,52.7423926 27.5411907,55.8232568 30.8823529,52.1807229 C31.4537706,51.5577636 28.6673485,40.6850998 29.2647059,40.4216867 C29.7794118,40.2012048 28.75,38.5843373 29.2647059,38.3638554 C34.1176471,35.7915663 37.6470588,31.6759036 39.4852941,26.6783133 C42.4264706,20.3578313 43.6764706,12.7144578 38.3823529,6.17349398 Z" id="Path" fill="#CC816A"></path>
            <path d="M13.4558824,23.5180723 C12.5,23.5180723 11.6911765,22.7096386 11.6911765,21.7542169 C11.6911765,20.7987952 12.5,19.9903614 13.4558824,19.9903614 C14.4117647,19.9903614 15.2205882,20.7987952 15.2205882,21.7542169 C15.2205882,22.7096386 14.4852941,23.5180723 13.4558824,23.5180723 Z M13.4558824,21.239759 C13.1617647,21.239759 12.9411765,21.460241 12.9411765,21.7542169 C12.9411765,22.0481928 13.1617647,22.2686747 13.4558824,22.2686747 C13.75,22.2686747 13.9705882,22.0481928 13.9705882,21.7542169 C13.9705882,21.460241 13.8235294,21.239759 13.4558824,21.239759 Z" id="Shape" fill="#000000" fill-rule="nonzero"></path>
            <g id="Group" transform="translate(0.000000, 37.481928)" fill="#000000" fill-rule="nonzero">
                <path d="M16.3970588,12.7879518 L17.5735294,12.7879518 C17.5,12.2 17.4264706,11.5385542 17.4264706,10.8771084 C17.2794118,9.03975904 17.0588235,6.90843373 16.8382353,3.89518072 C16.4705882,4.11566265 16.1029412,4.2626506 15.6617647,4.48313253 C15.8823529,7.27590361 16.0294118,9.33373494 16.25,11.0975904 C16.3235294,11.6120482 16.3970588,12.2 16.3970588,12.7879518 Z" id="Shape"></path>
                <path d="M38.5294118,12.7879518 L35.3676471,12.7879518 L31.3235294,12.7879518 C31.1029412,10.0686747 30.9558824,8.67228916 30.7352941,7.05542169 C30.5882353,5.21807229 30.3676471,3.08674699 30.1470588,0.0734939759 C29.7794118,0.293975904 29.4117647,0.440963855 28.9705882,0.661445783 C29.1911765,3.45421687 29.3382353,5.51204819 29.5588235,7.27590361 C29.7058824,8.67228916 30,11.0975904 30.1470588,12.8614458 L29.7794118,12.8614458 C29.6323529,12.8614458 29.4117647,12.8614458 29.2647059,12.8614458 L26.1029412,12.8614458 L22.5735294,12.8614458 L20.8088235,12.8614458 C20.6617647,12.8614458 20.4411765,12.8614458 20.2941176,12.8614458 L13.3088235,12.8614458 L11.5441176,12.8614458 C4.41176471,12.7144578 1.61764706,19.0349398 0.588235294,23.5180723 L49.7058824,23.5180723 C48.4558824,18.8879518 45.7352941,12.5674699 38.5294118,12.7879518 Z" id="Shape"></path>
            </g>
            <path d="M2.30132342,26.2457831 L7.84400292,26.2457831 L7.85868368,27.0308253 C8.0282278,36.0970645 9.29737922,40.0612513 12.794421,40.7377858 C14.0500402,40.9731009 15.235265,41.0915663 16.5441176,41.0915663 C19.6033852,41.0915663 22.9965682,40.3075904 27.4055811,38.3634242 C27.6007264,38.2798308 27.7631445,38.2015598 28.1350141,38.0157146 C28.5352033,37.8157164 28.7159224,37.728626 28.8900448,37.657011 C33.5201159,35.2028536 36.9450751,31.2669639 38.7599794,26.3407949 C42.1965296,18.9557729 42.2318187,12.2011651 37.760513,6.67679809 L37.7588638,6.67475364 C35.0639515,3.32270122 32.4324888,2.34337349 28.0147059,2.34337349 L27.8849431,2.34337349 L27.7618334,2.3023567 C27.7321525,2.29246783 27.6772289,2.2823017 27.5339752,2.26184674 C27.2911995,2.22718122 27.1806819,2.20672486 27.0868873,2.172874 C17.7281574,-0.147552592 11.9483968,1.09778336 9.75959039,5.86995705 C8.84387765,7.70049991 8.28952895,10.3497023 8.07813201,14.0825818 L8.06916712,14.2408851 L2.30132342,26.2457831 Z M1.67068022,26.7433735 L8.08677835,13.354817 L7.93171309,17.2295802 C7.87046948,18.7599327 7.85882353,20.0752904 7.85882353,23.4445783 C7.85882353,24.7307229 7.85882353,24.7307229 7.85882353,25.9433735 L7.85882353,26.7433735 L1.67068022,26.7433735 Z M27.5985288,38.8034764 C21.1419429,41.6148573 17.3334496,42.0463626 12.7186495,41.2076891 C8.42838162,40.3944098 7.43529412,35.5481428 7.43529412,23.3710843 C7.43529412,17.4686169 7.54511221,14.1443005 7.88297144,11.5102685 L7.94728015,11.0089023 L25.5600886,5.24605308 L25.8251264,5.97294054 C25.871905,6.10123472 25.9599038,6.34224956 26.0832769,6.67962358 C26.2889366,7.24201732 26.5185208,7.86871013 26.7662854,8.5436194 C27.4741547,10.471851 28.1858484,12.4000466 28.8553789,14.1994545 C28.9033498,14.3283616 28.9033498,14.3283616 28.951333,14.4572281 C29.7943324,16.7209074 30.5029331,18.5979207 31.0329329,19.9646494 C31.3181706,20.7002018 31.5478926,21.2780756 31.7164038,21.6828207 C34.2951538,20.7032716 36.2074751,20.9116796 37.4402798,22.2268275 C38.4397927,23.2931011 38.8362978,24.8857882 38.8879852,26.9522858 L38.8919916,27.1124641 L38.8340007,27.2618302 C36.8341448,32.4128213 32.8397781,36.5256903 27.5985288,38.8034764 Z" id="Shape" stroke="#000000" stroke-width="1.6" fill="#312F30" fill-rule="nonzero"></path>
        </g>
        <g id="person-4" transform="translate(356.000000, 116.000000)">
            <path d="M38.3823529,8.35116279 C35.0735294,4.24883721 31.6176471,3.73604651 28.0147059,3.73604651 C27.7941176,3.6627907 27.5,3.6627907 27.2794118,3.58953488 C17.7941176,1.24534884 11.4705882,2.41744186 9.04411765,7.69186047 C8.08823529,9.59651163 7.5,12.3069767 7.27941176,16.1895349 L1.02941176,29.155814 L7.05882353,29.155814 C7.20588235,36.994186 8.08823529,42.7081395 12.6470588,43.5872093 C13.8235294,43.8069767 15.0735294,43.9534884 16.5441176,43.9534884 C17.0391595,43.9534884 17.098453,54.9868472 17.6470588,54.9418605 C19.7532099,54.7691519 27.5411907,57.8400324 30.8823529,54.2093023 C31.4537706,53.5883618 28.6673485,42.7509315 29.2647059,42.4883721 C29.7794118,42.2686047 28.75,40.6569767 29.2647059,40.4372093 C34.1176471,37.8732558 37.6470588,33.7709302 39.4852941,28.7895349 C42.4264706,22.4895349 43.6764706,14.8709302 38.3823529,8.35116279 Z" id="Path" fill="#FAC1B6"></path>
            <path d="M13.3823529,25.6395349 C12.4264706,25.6395349 11.6176471,24.8337209 11.6176471,23.8813953 C11.6176471,22.9290698 12.4264706,22.1232558 13.3823529,22.1232558 C14.3382353,22.1232558 15.1470588,22.9290698 15.1470588,23.8813953 C15.1470588,24.8337209 14.4117647,25.6395349 13.3823529,25.6395349 Z M13.3823529,23.3686047 C13.0882353,23.3686047 12.8676471,23.5883721 12.8676471,23.8813953 C12.8676471,24.1744186 13.0882353,24.394186 13.3823529,24.394186 C13.6764706,24.394186 13.8970588,24.1744186 13.8970588,23.8813953 C13.8970588,23.5883721 13.75,23.3686047 13.3823529,23.3686047 Z" id="Shape" fill="#000000" fill-rule="nonzero"></path>
            <g id="Group" transform="translate(0.000000, 39.558140)" fill="#000000" fill-rule="nonzero">
                <path d="M16.3235294,12.7465116 L17.5,12.7465116 C17.4264706,12.1604651 17.3529412,11.5011628 17.3529412,10.8418605 C17.2058824,9.01046512 16.9852941,6.88604651 16.7647059,3.88255814 C16.3970588,4.10232558 16.0294118,4.24883721 15.5882353,4.46860465 C15.8088235,7.25232558 15.9558824,9.30348837 16.1764706,11.0616279 C16.25,11.5744186 16.3235294,12.1604651 16.3235294,12.7465116 Z" id="Shape"></path>
                <path d="M38.4558824,12.7465116 L35.2941176,12.7465116 L31.25,12.7465116 C31.0294118,10.0360465 30.8823529,8.64418605 30.6617647,7.03255814 C30.5147059,5.20116279 30.2941176,3.07674419 30.0735294,0.073255814 C29.7058824,0.293023256 29.3382353,0.439534884 28.8970588,0.659302326 C29.1176471,3.44302326 29.2647059,5.49418605 29.4852941,7.25232558 C29.6323529,8.64418605 29.9264706,11.0616279 30.0735294,12.8197674 L29.7058824,12.8197674 C29.5588235,12.8197674 29.3382353,12.8197674 29.1911765,12.8197674 L26.0294118,12.8197674 L22.5,12.8197674 L20.7352941,12.8197674 C20.5882353,12.8197674 20.3676471,12.8197674 20.2205882,12.8197674 L13.2352941,12.8197674 L11.4705882,12.8197674 C4.33823529,12.6732558 1.54411765,18.9732558 0.514705882,23.4418605 L49.6323529,23.4418605 C48.3823529,18.8267442 45.6617647,12.5267442 38.4558824,12.7465116 Z" id="Shape"></path>
            </g>
            <path d="M2.52144115,28.5023256 L7.62336696,28.5023256 L7.63809454,29.2873191 C7.80762367,38.3233796 9.07620932,42.2729587 12.5733714,42.947324 C13.829133,43.1819032 15.0145119,43.3 16.3235294,43.3 C19.3831547,43.3 22.7766365,42.5184958 27.1858561,40.5805389 C27.3810328,40.497203 27.5434631,40.4191798 27.9153541,40.2339261 C27.992832,40.1953312 27.992832,40.1953312 28.0714018,40.1563415 C28.3411164,40.0227537 28.5330162,39.9320771 28.6683234,39.8774783 C34.9021604,36.5604312 38.9367576,30.5689747 39.6457629,23.5760867 C39.8507514,21.6699801 39.8685974,19.8209007 39.7174898,18.0143572 L39.6700149,17.4467782 L40.1908056,17.2161769 C41.2386096,16.7522191 41.8470588,15.8580958 41.8470588,14.7976744 C41.8470588,13.8576331 41.3551441,13.0153006 40.5600861,12.5626723 L39.4309883,11.9198743 L40.5132673,11.2010396 C41.1996773,10.7451357 41.6264706,9.95546891 41.6264706,9.08372093 C41.6264706,7.67537722 40.495508,6.51395349 39.1176471,6.51395349 C39.1084559,6.51395349 39.1084559,6.51395349 39.0808824,6.51395349 C39.0533088,6.51395349 39.0533088,6.51395349 39.0441176,6.51395349 L37.1076442,6.51395349 L38.4794876,5.14721465 C38.92188,4.70646837 39.2,4.02914913 39.2,3.36976744 C39.2,1.96142373 38.0690374,0.8 36.6911765,0.8 C35.7372282,0.8 34.869446,1.37122266 34.3817687,2.28221507 L33.6287779,3.68881955 L32.9520087,2.24399606 C32.552854,1.39184725 31.6376841,0.8 30.6617647,0.8 C29.7078164,0.8 28.8400342,1.37122266 28.352357,2.28221507 L27.5993661,3.68881955 L26.9225969,2.24399606 C26.5234423,1.39184725 25.6082723,0.8 24.6323529,0.8 C23.6784046,0.8 22.8106225,1.37122266 22.3229452,2.28221507 L21.5699543,3.68881955 L20.8931852,2.24399606 C20.4940305,1.39184725 19.5788605,0.8 18.6029412,0.8 C17.6489929,0.8 16.7812107,1.37122266 16.2935335,2.28221507 L15.5405426,3.68881955 L14.8637734,2.24399606 C14.4646187,1.39184725 13.5494488,0.8 12.5735294,0.8 C11.6195811,0.8 10.7517989,1.37122266 10.2641217,2.28221507 L9.51113081,3.68881955 L8.83436163,2.24399606 C8.43520696,1.39184725 7.52003699,0.8 6.54411765,0.8 C5.16625672,0.8 4.03529412,1.96142373 4.03529412,3.36976744 C4.03529412,4.53458388 4.7411584,5.4878618 5.82832487,5.82990007 L7.17736489,6.25432754 L6.11861889,7.1919333 C5.61156324,7.64097235 5.28529412,8.38395543 5.28529412,9.15697674 C5.28529412,10.4445266 6.24256784,11.568544 7.46063684,11.7340263 L8.2711089,11.844134 L8.14307964,12.6519688 C7.92973759,13.9981075 7.78418821,15.6475713 7.71116923,17.5390007 L7.70476909,17.704785 L2.52144115,28.5023256 Z M2.10802408,28.8569767 L7.85882353,16.9398224 L7.85882353,20.4383721 C7.85882353,21.0797707 7.85144723,21.5121282 7.82187251,22.8822355 C7.79562535,24.098187 7.78529412,24.7723649 7.78529412,25.5662791 C7.78529412,26.8482558 7.78529412,26.8482558 7.78529412,28.0569767 L7.78529412,28.8569767 L2.10802408,28.8569767 Z M31.3669114,24.2921857 C31.4232841,24.2638276 31.4810018,24.2354 31.5400149,24.2069858 C32.67098,23.6624381 33.82062,23.3566544 34.9349329,23.4253319 C35.7835831,23.4776359 36.5670108,23.750639 37.2533027,24.2735155 C38.4788087,25.218764 39.0025578,26.5693057 38.9893083,28.1005267 C38.9810004,29.0606573 38.7358003,30.0885694 38.5042987,30.5496926 C36.093332,35.1987164 32.3101318,38.7920775 27.5255351,40.8775496 L27.5243941,40.8780459 C21.0679971,43.6802679 17.2599628,44.1103416 12.6455862,43.2744627 C8.3552615,42.4638081 7.36176471,37.6312548 7.36176471,25.4930233 C7.36176471,19.0077815 7.54329333,15.1112177 8.03449406,12.1749797 L8.12106297,11.6574989 L8.63018063,11.5306931 C9.52025523,11.3090025 10.2519218,10.5800584 10.4740568,9.69482457 L11.25,6.60260058 L12.0259432,9.69482457 C12.311009,10.8308447 13.334897,11.6534884 14.4852941,11.6534884 C15.6356913,11.6534884 16.6595793,10.8308447 16.944645,9.69482457 L17.7205882,6.60260058 L18.4965315,9.69482457 C18.7815972,10.8308447 19.8054852,11.6534884 20.9558824,11.6534884 C22.1062795,11.6534884 23.1301675,10.8308447 23.4152332,9.69482457 L24.1911765,6.60260058 L24.9671197,9.69482457 C25.2521854,10.8308447 26.2760734,11.6534884 27.4264706,11.6534884 C28.3689642,11.6534884 29.2614156,11.0977817 29.6431852,10.2827481 L30.9512779,7.4901223 L31.1657107,10.566465 C31.2665519,12.0131756 31.3188093,13.6860395 31.3372137,15.7025557 C31.3475928,16.8397631 31.3474309,17.7947689 31.3407724,19.7005348 C31.3326588,22.0227505 31.3363084,23.3875483 31.3669114,24.2921857 Z" id="Shape" stroke="#000000" stroke-width="1.6" fill="#A20505" fill-rule="nonzero"></path>
        </g>
        <g id="person-3" transform="translate(460.000000, 151.000000)">
            <path d="M38.3823529,16.3958763 C35.0735294,12.2969072 31.6176471,11.7845361 28.0147059,11.7845361 C27.7941176,11.7113402 27.5,11.7113402 27.2794118,11.6381443 C17.7941176,9.29587629 11.4705882,10.4670103 9.04411765,15.7371134 C8.08823529,17.6402062 7.5,20.3484536 7.27941176,24.2278351 L1.02941176,37.1835052 L7.05882353,37.1835052 C7.20588235,45.0154639 8.08823529,50.7247423 12.6470588,51.6030928 C13.8235294,51.8226804 15.0735294,51.9690722 16.5441176,51.9690722 C17.0391595,51.9690722 17.098453,62.9934036 17.6470588,62.9484536 C19.7532099,62.7758864 27.5411907,65.8442542 30.8823529,62.2164948 C31.4537706,61.5960623 28.6673485,50.7674992 29.2647059,50.5051546 C29.7794118,50.285567 28.75,48.6752577 29.2647059,48.4556701 C34.1176471,45.8938144 37.6470588,41.7948454 39.4852941,36.8175258 C42.4264706,30.5226804 43.6764706,22.9103093 38.3823529,16.3958763 Z" id="Path" fill="#9A7F6C"></path>
            <path d="M13.4558824,33.6701031 C12.5,33.6701031 11.6911765,32.8649485 11.6911765,31.9134021 C11.6911765,30.9618557 12.5,30.156701 13.4558824,30.156701 C14.4117647,30.156701 15.2205882,30.9618557 15.2205882,31.9134021 C15.2205882,32.8649485 14.4117647,33.6701031 13.4558824,33.6701031 Z M13.4558824,31.4010309 C13.1617647,31.4010309 12.9411765,31.6206186 12.9411765,31.9134021 C12.9411765,32.2061856 13.1617647,32.4257732 13.4558824,32.4257732 C13.75,32.4257732 13.9705882,32.2061856 13.9705882,31.9134021 C13.9705882,31.6206186 13.75,31.4010309 13.4558824,31.4010309 Z" id="Shape" fill="#000000" fill-rule="nonzero"></path>
            <path d="M1.3936787,70.1268041 L48.4592598,70.1268041 C46.9338131,64.5520656 43.7614928,61.0061728 38.5294118,61.1134021 L30.5125111,61.1134021 L30.4526405,60.3783474 C30.2387353,57.75215 30.09375,56.3521715 29.8645532,54.6708607 C29.8504136,54.5019552 29.4207851,49.9529982 29.2759073,48.07813 L29.2374814,47.5808605 L29.6670591,47.3274507 C35.4602603,43.910015 39.1605633,38.1780096 39.7882353,31.6206186 C39.7882353,31.2335388 39.8034072,31.0270987 39.8851088,30.7637644 C41.0733795,24.5106365 41.2562182,19.0002277 40.3544933,18.371873 C34.7986857,14.53849 31.3088264,10.8756045 29.5068176,7.45333837 C28.3923477,5.33680426 28.0286899,3.54372303 28.1382016,2.14886093 C27.6718916,2.04895702 27.1497436,1.94928601 26.581329,1.85572432 C23.9350425,1.42014261 21.2170778,1.25654295 18.6972951,1.52158593 C13.3802725,2.0808562 9.98265575,4.41141645 9.18039537,8.98582799 C9.17038897,9.12860246 9.15278434,9.39153366 9.13011515,9.75026722 C9.09229673,10.3487329 9.05447216,10.9943922 9.01917509,11.662831 C8.97518819,12.4958336 8.9383035,13.3050321 8.91084901,14.0677741 C8.85180374,15.7081734 8.84016391,17.025999 8.88705848,17.8896133 L8.89402262,18.0178653 L8.86048956,18.1418517 C8.38900848,19.8851235 8.08862559,22.1443882 7.85695362,25.5268309 L7.84645467,25.6801169 L2.66895059,36.456701 L7.77041372,36.456701 L7.78515313,37.2416823 C7.95467847,46.2701475 9.22312123,50.2160506 12.694636,50.8855085 C14.1068186,51.1017819 14.7516011,51.1849857 15.6412102,51.2440239 L16.3295881,51.2897076 L16.3855947,51.9773227 C16.4868536,53.220517 16.8215769,57.4781364 16.8980039,58.3947623 C17.0307718,59.5842537 17.05,59.794804 17.05,60.3134021 L17.05,61.1134021 L13.0147059,61.1134021 L11.3071128,61.1132336 C6.09055719,61.0061636 2.91907965,64.5520651 1.3936787,70.1268041 Z M2.10757052,36.885567 L7.85882353,24.9772241 L7.85882353,28.4731959 C7.85882353,29.1140828 7.85144715,29.5460912 7.82187221,30.9150879 C7.79562524,32.1300357 7.78529412,32.8036547 7.78529412,33.5969072 C7.78529412,34.8778351 7.78529412,34.8778351 7.78529412,36.085567 L7.78529412,36.885567 L2.10757052,36.885567 Z M7.36176471,33.5969072 C7.36176471,25.8094605 7.5751389,21.8799437 8.26606329,18.9912244 L8.41631703,18.3630213 L9.06207638,18.3775212 C13.6938553,18.4815235 17.1607611,20.0986922 20.9439504,23.2235344 C21.5788479,23.7479476 23.5376486,25.4614546 23.8474469,25.7211248 C24.8355764,26.5493662 25.5648603,27.0595933 26.2444695,27.3706559 C26.4903716,27.4832072 26.726081,27.5669912 26.9617693,27.6246511 C27.7742475,27.8311513 28.261326,27.311153 28.9513037,25.6278964 C29.0067064,25.4927369 29.2303873,24.9337967 29.288122,24.7932213 C29.6768178,23.846805 29.9625502,23.3315996 30.4071633,22.9673798 C31.1099458,22.3916717 31.9646596,22.4881228 32.7580149,23.1476145 C33.4069735,23.6321257 33.9756732,24.1982457 34.4539269,24.8332298 C34.9564464,25.4763956 35.3394367,26.2207466 35.7323887,27.1997694 C36.2615168,28.403719 36.4743643,29.9291678 36.831698,33.937331 C36.8337405,33.9602418 36.8337405,33.9602418 36.8357828,33.9831497 C37.1052921,37.0060952 37.2574061,38.2764258 37.5406115,39.4041088 L37.6190109,39.7162841 L37.4593632,39.9957702 C35.2172068,43.9209867 31.7561351,47.0159819 27.3771159,48.9700375 C20.9208072,51.7699284 17.1128987,52.1996361 12.4801627,51.3607479 C8.33080975,50.4756341 7.36176471,45.6231554 7.36176471,33.5969072 Z M16.5569474,58.4170755 L16.555976,58.4067305 C16.5170761,57.9614104 16.3414569,56.1211729 16.2987869,55.6454362 C16.1884282,54.4150255 16.1055043,53.3028039 16.0394121,52.0856444 L15.9948662,51.2652829 L16.8161223,51.2425737 C19.7311039,51.1619693 23.0728317,50.3518721 27.290588,48.5446344 C27.403487,48.488441 27.5191165,48.4349457 27.6545401,48.3753458 C27.7327749,48.3409147 27.8252084,48.3011645 27.9818697,48.2338567 C28.2231395,48.1294327 28.3645894,48.0614562 28.4868375,47.9884401 L29.6200957,47.3115695 L29.695744,48.6294106 C29.760371,49.7552526 29.840926,50.7850553 29.9509734,51.9681762 C29.9746223,52.2224259 30.1625635,54.1523937 30.2073293,54.6663902 C30.2547935,55.1152555 30.4869778,57.1796765 30.5010344,57.3067779 C30.5266478,57.5383777 30.5503633,57.7552743 30.5728294,57.9637247 C30.6703112,58.8682066 30.7442107,59.6135401 30.7972115,60.246665 L30.8697687,61.1134021 L29.6323529,61.1134021 C29.5128676,61.1134021 29.5128676,61.1134021 29.375,61.1134021 C29.2371324,61.1134021 29.2371324,61.1134021 29.1176471,61.1134021 L20.6617647,61.1134021 C20.5422794,61.1134021 20.5422794,61.1134021 20.4044118,61.1134021 C20.2665441,61.1134021 20.2665441,61.1134021 20.1470588,61.1134021 L16.8578554,61.1134021 L16.7784667,60.4021449 C16.7700636,60.3270749 16.7700636,60.3270749 16.7616497,60.2526675 C16.7460397,60.1149297 16.7335605,60.0066543 16.7053205,59.7630165 C16.6313428,59.124784 16.5983228,58.8289523 16.5569474,58.4170755 Z" id="Shape" stroke="#000000" stroke-width="1.6" fill="#312F30" fill-rule="nonzero"></path>
            <g id="Group" transform="translate(0.000000, 47.577320)" fill="#000000" fill-rule="nonzero">
                <path d="M16.0294118,12.7360825 L17.2058824,12.7360825 C17.1323529,12.1505155 17.0588235,11.4917526 17.0588235,10.8329897 C16.9117647,9.00309278 16.6911765,6.88041237 16.4705882,3.87938144 C16.1029412,4.09896907 15.7352941,4.24536082 15.2941176,4.46494845 C15.5147059,7.24639175 15.6617647,9.29587629 15.8823529,11.0525773 C15.8823529,11.5649485 15.9558824,12.1505155 16.0294118,12.7360825 Z" id="Shape"></path>
                <path d="M38.1617647,12.7360825 L35,12.7360825 L30.8823529,12.7360825 C30.6617647,10.0278351 30.5147059,8.6371134 30.2941176,7.02680412 C30.1470588,5.19690722 29.9264706,3.0742268 29.7058824,0.0731958763 C29.3382353,0.292783505 28.9705882,0.439175258 28.5294118,0.658762887 C28.75,3.44020619 28.8970588,5.48969072 29.1176471,7.24639175 C29.2647059,8.6371134 29.5588235,11.0525773 29.7058824,12.8092784 L29.3382353,12.8092784 C29.1911765,12.8092784 28.9705882,12.8092784 28.8235294,12.8092784 L25.6617647,12.8092784 L22.1323529,12.8092784 L20.3676471,12.8092784 C20.2205882,12.8092784 20,12.8092784 19.8529412,12.8092784 L12.8676471,12.8092784 L11.0294118,12.8092784 C3.89705882,12.6628866 1.10294118,18.957732 0.0735294118,23.4226804 L49.1911765,23.4226804 C48.0882353,18.8113402 45.2941176,12.5164948 38.1617647,12.7360825 Z" id="Shape"></path>
            </g>
        </g>
        <g id="person-2" transform="translate(138.000000, 158.000000)">
            <path d="M37.7263158,6.10909091 C34.4105263,2.03636364 30.9473684,1.52727273 27.3368421,1.52727273 C27.1157895,1.45454545 26.8210526,1.45454545 26.6,1.38181818 C17.0947368,-0.945454545 10.7578947,0.218181818 8.32631579,5.45454545 C7.36842105,7.34545455 6.77894737,10.0363636 6.55789474,13.8909091 L0.294736842,26.7636364 L6.33684211,26.7636364 C6.48421053,34.5454545 7.36842105,40.2181818 11.9368421,41.0909091 C13.1157895,41.3090909 14.3684211,41.4545455 15.8421053,41.4545455 C16.3381893,41.4545455 16.3976076,52.4082985 16.9473684,52.3636364 C19.0579535,52.1921739 26.86233,55.2408979 30.2105263,51.6363636 C30.7831469,51.0199032 27.9908587,40.2606651 28.5894737,40 C29.1052632,39.7818182 28.0736842,38.1818182 28.5894737,37.9636364 C33.4526316,35.4181818 36.9894737,31.3454545 38.8315789,26.4 C41.7789474,20.1454545 43.0315789,12.5818182 37.7263158,6.10909091 Z" id="Path" fill="#FEE9D6"></path>
            <path d="M9.87368421,23.8545455 C8.91578947,23.8545455 8.10526316,23.0545455 8.10526316,22.1090909 C8.10526316,21.1636364 8.91578947,20.3636364 9.87368421,20.3636364 C10.8315789,20.3636364 11.6421053,21.1636364 11.6421053,22.1090909 C11.6421053,23.0545455 10.8315789,23.8545455 9.87368421,23.8545455 Z M9.87368421,21.6 C9.57894737,21.6 9.35789474,21.8181818 9.35789474,22.1090909 C9.35789474,22.4 9.57894737,22.6181818 9.87368421,22.6181818 C10.1684211,22.6181818 10.3894737,22.4 10.3894737,22.1090909 C10.3894737,21.8181818 10.1684211,21.6 9.87368421,21.6 Z" id="Shape" fill="#000000" fill-rule="nonzero"></path>
            <path d="M27.8337142,1.97401481 C27.8341828,1.97409182 27.8346512,1.97416885 27.8351196,1.9742459 L27.8323075,1.97378844 C27.8327763,1.97386385 27.8332452,1.97393928 27.833714,1.97401473 Z M21.2096785,3.2 L14.4492454,3.2 L14.2385448,0.912393106 C10.1516977,1.6806738 7.75676066,4.8915072 6.6551551,8.83034198 C5.98051086,10.8945781 5.59782796,13.9491267 5.36754784,18.8737317 L5.35906319,19.0551784 L2.07519295,25.1636364 L5.17775683,25.1636364 L5.21981593,25.9191708 C5.52293896,31.3643626 7.54931068,34.9506685 10.548147,37.0136224 C12.6507608,38.4600486 15.1814402,39.1272727 18.0526316,39.1272727 C20.4229004,39.1272727 22.823043,38.6390113 24.896238,37.8053676 C32.0633722,34.8636816 36.738394,28.8631833 37.4421053,21.8181818 C37.4421053,21.8090909 37.4421053,21.8090909 37.4421053,21.7818182 C37.4421053,21.7545455 37.4421053,21.7545455 37.4421053,21.7454545 L37.4503554,21.6308592 C38.8123642,12.2206165 35.6766768,4.8560934 27.5782188,3.55348429 L27.5754067,3.55302683 C26.614405,3.39493996 25.053046,3.31290228 21.9520394,3.22161724 C21.5773299,3.21065893 21.5744238,3.21057394 21.2096785,3.2 Z M4.02009952,23.8545455 L4.27368421,23.8545455 L4.27368421,24.6545455 L3.59641531,24.6545455 L1.85263158,27.9471557 L1.85263158,23.8545455 L3.47368421,23.8545455 C3.47368421,23.7595245 3.47368421,23.6442301 3.47368421,23.4909091 C3.47368421,23.1981788 3.48331585,22.9700217 3.51179058,22.4641328 C3.52539595,22.2224166 3.53102112,22.1158161 3.53656715,21.9844399 C3.543723,21.81493 3.54736842,21.6668948 3.54736842,21.5272727 L4.34736842,21.5272727 L5.05434218,21.9016897 L4.02009952,23.8545455 Z M2.65263158,24.7272727 L2.65263158,24.6545455 L3.45263158,24.6545455 L3.45263158,24.7272727 L2.65263158,24.7272727 Z M2.65263158,24.7272727 L1.94565782,24.3528557 L5.14736842,18.3073897 L5.14736842,21.5272727 C5.14736842,21.6915468 5.14318489,21.8614337 5.13514337,22.0519237 C5.12917625,22.1932748 5.12328826,22.3048561 5.10926205,22.554049 C5.08247363,23.0299783 5.07368421,23.2381848 5.07368421,23.4909091 C5.07368421,24.1090909 5.07368421,24.1090909 5.07368421,24.6545455 L5.07368421,25.4545455 L2.65263158,25.4545455 L2.65263158,24.7272727 Z M24.377527,36.6429371 C24.3776361,36.6428918 24.3777453,36.6428466 24.3778544,36.6428013 L24.3771996,36.6430731 C24.3773087,36.6430278 24.3774178,36.6429824 24.377527,36.6429371 Z M26.3408992,14.6021284 L29.8862534,14.5292261 L29.9598084,17.6510178 L32.6147584,17.5782269 L32.6874654,21.0946033 L35.3087405,20.8728406 L35.2839025,21.7676522 C35.2809765,21.8730645 35.2758396,22.0677606 35.2692287,22.3348496 C35.2582038,22.780275 35.2471777,23.26435 35.2368871,23.7701632 C35.2214758,24.5276802 35.2091062,25.2661795 35.2008872,25.9600644 C35.1841925,27.3695047 35.1858091,28.4909736 35.2100705,29.2093615 L35.2180387,29.4453033 L35.0966344,29.6477706 C32.8704182,33.3604572 29.347562,36.310136 24.9912215,38.1205633 L24.9905666,38.1208351 C20.2011411,40.1062696 14.3760075,40.1062696 10.3150315,37.3207827 C6.45355158,34.7539681 4.56969106,29.9867963 4.80040067,23.6110474 C5.05048846,15.7121708 5.38778749,11.7776791 6.15566876,9.02164718 L6.30788363,8.47532698 L6.87378869,8.43808993 C10.6067725,8.19245637 14.6861754,8.2580791 18.1540523,8.86658391 C22.9812005,9.71359867 26.0000774,11.5270116 26.3408992,14.6021284 Z" id="Shape" stroke="#000000" stroke-width="1.6" fill="#F6F396" fill-rule="nonzero"></path>
            <path d="M29.6210526,46.4727273 C29.5473684,44.6545455 29.3263158,43.1272727 29.1052632,41.2363636 C28.9578947,39.8545455 28.7368421,38.3272727 28.5894737,36.3636364 C28.2210526,36.6545455 27.7789474,36.8727273 27.3368421,37.1636364 C27.3368421,37.2363636 27.3368421,37.2363636 27.3368421,37.3090909 C27.3368421,37.3818182 27.7052632,40.2181818 27.8526316,41.4545455 C28.0736842,43.2727273 28.2210526,44.8 28.3684211,46.4727273 C28.2210526,46.4727273 28.0736842,46.4727273 27.9263158,46.4727273 C22.2526316,46.6909091 18.2,46.8363636 15.1789474,47.1272727 C15.1052632,47.0545455 15.0315789,47.0545455 15.0315789,46.9818182 L14.5157895,39.8545455 C14.5157895,39.5636364 14.5157895,39.3454545 14.4421053,39.1272727 C14,39.0545455 13.6315789,38.9818182 13.1894737,38.9090909 L13.7789474,47.2727273 C8.25263158,48.1454545 6.77894737,50.1090909 4.42105263,55.9272727 L38.7578947,55.9272727 C37.9473684,50.6181818 36.1052632,46.7636364 29.6210526,46.4727273 Z" id="Shape" fill="#000000" fill-rule="nonzero"></path>
        </g>
        <g id="person-1" transform="translate(87.000000, 208.000000)">
            <path d="M50.1985714,22.4 C49.6157143,20.4363636 47.5757143,19.2727273 45.5357143,19.8545455 C45.2442857,19.9272727 44.9528571,20.0727273 44.7342857,20.2181818 C44.7342857,19.9272727 44.6614286,19.5636364 44.5885714,19.2727273 C44.0057143,17.3090909 41.9657143,16.1454545 39.9257143,16.7272727 C38.76,17.0909091 37.8857143,17.8909091 37.5214286,18.9818182 C36.72,17.6727273 35.7728571,16.2181818 34.4614286,14.6909091 C32.9314286,12.8727273 30.1628571,11.9272727 27.3214286,11.5636364 C27.9771429,10.6909091 28.2685714,9.52727273 27.9771429,8.36363636 C27.54,6.61818182 26.01,5.45454545 24.2614286,5.52727273 C24.6257143,4.72727273 24.7714286,3.85454545 24.5528571,2.98181818 C24.0428571,0.945454545 22.0757143,-0.290909091 20.0357143,0.218181818 C17.9957143,0.727272727 16.83,2.69090909 17.2671429,4.72727273 C17.34,5.01818182 17.4128571,5.30909091 17.5585714,5.52727273 C17.2671429,5.52727273 16.9028571,5.52727273 16.6114286,5.6 C14.6442857,6.10909091 13.4057143,8.07272727 13.8428571,10.1090909 C13.9157143,10.5454545 14.1342857,10.9090909 14.28,11.2 C12.1671429,11.4181818 10.4914286,11.7818182 9.18,12.5818182 C3.71571429,14.7636364 0.874285714,19.6363636 4.88142857,25.5272727 C4.88142857,25.7454545 4.88142857,26.0363636 4.80857143,26.2545455 L0.218571429,35.3454545 L4.66285714,35.3454545 C5.24571429,41.2363636 7.86857143,44.2909091 10.2,45.8909091 C11.5408615,46.8237831 12.3512173,46.9301482 13.8428571,47.2727273 C15.0258622,47.5444234 13.2943409,57.4545455 14.486665,57.4545455 C17.1095221,57.4545455 27.1757143,58.2545455 29.1428571,57.4545455 C30.0403472,57.0856494 26.8924394,45.9815475 27.7109799,45.527157 C32.5405289,42.8461643 35.953409,38.7309854 37.4485714,33.8181818 C38.1042857,32.5090909 38.6142857,31.2727273 38.9785714,29.9636364 C39.9257143,30.6909091 41.0914286,30.9090909 42.33,30.6181818 C44.0785714,30.1090909 45.1714286,28.5090909 45.0257143,26.7636364 C45.8271429,27.1272727 46.7014286,27.2 47.6485714,26.9818182 C49.6157143,26.4 50.7814286,24.3636364 50.1985714,22.4 Z" id="Path" fill="#FDE2C7"></path>
            <path d="M10.4185714,32 C9.47142857,32 8.74285714,31.2 8.74285714,30.2545455 C8.74285714,29.3090909 9.54428571,28.5090909 10.4914286,28.5090909 C11.4385714,28.5090909 12.24,29.3090909 12.24,30.2545455 C12.24,31.2 11.4385714,32 10.4185714,32 Z M10.4185714,29.6727273 C10.1271429,29.6727273 9.90857143,29.8909091 9.90857143,30.1818182 C9.90857143,30.4727273 10.1271429,30.6909091 10.4185714,30.6909091 C10.71,30.6909091 10.9285714,30.4727273 10.9285714,30.1818182 C10.9285714,29.8909091 10.7828571,29.6727273 10.4185714,29.6727273 Z" id="Shape" fill="#000000" fill-rule="nonzero"></path>
            <g id="Group" fill-rule="nonzero">
                <ellipse id="Oval" fill="#000000" cx="15.5914286" cy="37.6" rx="1" ry="1"></ellipse>
                <ellipse id="Oval" fill="#000000" cx="14.79" cy="34.4" rx="1" ry="1"></ellipse>
                <ellipse id="Oval" fill="#000000" cx="17.9228571" cy="35.6363636" rx="1" ry="1"></ellipse>
                <path d="M1.51867856,34.5454545 L5.38760996,34.5454545 L5.45896987,35.2666857 C5.94039714,40.1324479 7.84263081,43.3028374 10.6568848,45.2342081 C12.733664,46.67908 15.2327514,47.3454545 18.0685714,47.3454545 C20.4099255,47.3454545 22.7809888,46.8576332 24.8315789,46.0237028 C30.7742139,43.5810972 34.9966992,39.1268615 36.6832306,33.585258 L36.7332853,33.4599001 C37.403703,32.1214549 37.8749987,30.9453157 38.2078558,29.7491664 L38.5256334,28.6072062 L39.4657933,29.3291169 C40.2112397,29.9015152 41.1282211,30.0786791 42.1063681,29.8500746 C43.4795772,29.4502692 44.3433932,28.2066015 44.2284875,26.8301906 L44.1150995,25.4719594 L45.3562674,26.035121 C45.9933577,26.3241913 46.6885322,26.3820192 47.4216733,26.2146694 C48.9830965,25.7528502 49.883339,24.1493984 49.4316436,22.6276437 C48.9670582,21.0624629 47.3516155,20.1685421 45.7294172,20.6307408 C45.5550897,20.674245 45.3480352,20.7706982 45.1774978,20.8841871 L43.9342857,21.7115178 L43.9342857,20.2181818 C43.9342857,20.0436043 43.8890031,19.772393 43.8216436,19.5003709 C43.3570582,17.9351902 41.7416155,17.0412693 40.1639467,17.4909777 C39.2251088,17.7838416 38.5570521,18.4062497 38.2802396,19.2352069 L37.7361109,20.8646832 L36.8391346,19.3995202 C35.816386,17.7289148 34.9545141,16.49316 33.8493171,15.2060009 C32.5969776,13.7177781 30.2212119,12.7412654 27.2198755,12.3571645 L25.855743,12.1825875 L26.68184,11.0830883 C27.2223934,10.3636351 27.42247,9.44185085 27.2011104,8.55799091 C26.8558459,7.17939433 25.6628169,6.2696773 24.2946737,6.32658165 L22.9937836,6.38068879 L23.5333582,5.19574067 C23.8500522,4.50025574 23.9373934,3.81730258 23.7768247,3.17617273 C23.3696547,1.55039563 21.8234502,0.596579251 20.2294172,0.994377138 C18.6284109,1.39391525 17.6982951,2.92415131 18.0431753,4.53291818 C18.1288482,4.87499896 18.1727417,5.00644472 18.2238459,5.08296442 L19.0548661,6.32727273 L17.5585714,6.32727273 C17.3454596,6.32727273 17.2453523,6.32870028 17.1292972,6.3351363 C16.9920365,6.3427483 16.8831701,6.35672046 16.8118629,6.3744844 C15.2457878,6.77978013 14.2809466,8.3382855 14.6319342,9.97734323 C14.6584517,10.1361647 14.7203115,10.3008302 14.8333813,10.5265668 C14.8600882,10.5798854 14.969374,10.7899864 14.9952861,10.8417183 L15.513776,11.8768496 L14.3621741,11.9957684 C12.1370101,12.2255475 10.6885356,12.5986811 9.59661821,13.2647745 L9.47665581,13.3247821 C3.93029936,15.53937 2.1229608,20.0496623 5.5429006,25.077323 L5.68142857,25.2809733 L5.68142857,25.5272727 C5.68142857,25.7187066 5.6795874,25.8179527 5.67028115,25.948008 C5.65565772,26.1523711 5.62520032,26.3347897 5.56738246,26.5079341 L5.522708,26.615113 L1.51867856,34.5454545 Z M1.02754407,34.9090909 L5.68142857,25.7506444 L5.68142857,29.0909091 C5.68142857,29.4677633 5.67270424,29.7478959 5.64433207,30.441775 C5.61794763,31.0870415 5.60857143,31.4005842 5.60857143,31.7818182 C5.60857143,32.9818182 5.60857143,32.9818182 5.60857143,34.1090909 L5.60857143,34.9090909 L1.02754407,34.9090909 Z M24.9481673,29.2028952 L25.3508607,23.1732619 L26.6393548,24.8152159 C26.7028642,24.8961472 26.8240597,25.049347 26.9958028,25.2644656 C27.282674,25.623789 27.6058494,26.024376 27.9581767,26.455863 C28.9645395,27.6883318 30.0021104,28.9206157 31.0131782,30.0693447 C31.3436553,30.4448176 31.6665009,30.8057984 31.9804595,31.1504929 C33.7646596,33.109362 35.1869417,34.4579781 36.0274364,34.9437129 L36.6624877,35.3107188 L36.3518578,35.9751679 C34.2227202,40.5294727 30.2814426,44.2264835 25.234444,46.4071114 L25.2264593,46.41051 C20.4864056,48.3977838 14.7204178,48.3977838 10.700811,45.6093731 C6.88154097,43.0417966 5.01947555,38.2762877 5.24769295,31.8976106 C5.31732156,30.0209893 5.38953543,28.2729245 5.46571429,26.6181818 C5.46571429,26.4267479 5.46755546,26.3275018 5.47686171,26.1974466 C5.49148514,25.9930834 5.52194253,25.8106648 5.56632194,25.6820294 C6.40135213,22.5948378 7.38975529,21.431981 9.62054272,20.0917582 C9.78664937,19.9920216 9.86093259,19.947238 9.94872407,19.8935677 C11.8059242,18.7581899 12.7037203,17.5275695 13.4972195,14.1621826 C13.5130978,14.0868953 13.5312952,14.0201412 13.5569689,13.9532379 C13.620336,13.7881096 13.7067453,13.65062 13.8915897,13.5298189 C14.2386109,13.3030306 14.6402941,13.3780867 14.8987899,13.6157537 C14.998629,13.7075479 15.0571768,13.7978199 15.1088856,13.9042421 C15.1801905,14.0509951 15.2197009,14.1794386 15.3504216,14.6436471 C15.6732714,15.7901341 15.8820411,16.4560149 16.2606322,17.437311 C17.506437,20.6663969 19.424815,23.8146442 22.3094556,26.7832344 C23.1229963,27.620451 24.0015654,28.4279267 24.9481673,29.2028952 Z" id="Shape" stroke="#000000" stroke-width="1.6" fill="#884636"></path>
            </g>
            <path d="M29.58,54.4727273 C29.5071429,52.6545455 29.2885714,51.1272727 29.07,49.2363636 C28.9242857,47.8545455 28.7057143,46.3272727 28.56,44.3636364 C28.1957143,44.6545455 27.7585714,44.8727273 27.3214286,45.1636364 C27.3214286,45.2363636 27.3214286,45.2363636 27.3214286,45.3090909 C27.3214286,45.3818182 27.6857143,48.2181818 27.8314286,49.4545455 C28.05,51.2727273 28.1957143,52.8 28.3414286,54.4727273 C28.1957143,54.4727273 28.05,54.4727273 27.9042857,54.4727273 C22.2942857,54.6909091 18.2871429,54.8363636 15.3,55.1272727 C15.2271429,55.0545455 15.1542857,55.0545455 15.1542857,54.9818182 L14.6442857,47.8545455 C14.6442857,47.5636364 14.6442857,47.3454545 14.5714286,47.1272727 C14.1342857,47.0545455 13.77,46.9818182 13.3328571,46.9090909 L13.9157143,55.2727273 C8.45142857,56.2181818 7.06714286,58.1818182 4.66285714,64 L38.6142857,64 C37.8857143,58.6909091 36.0642857,54.8363636 29.58,54.4727273 Z" id="Shape" fill="#000000" fill-rule="nonzero"></path>
        </g>
    </g>
</svg>