<?xml version="1.0" encoding="UTF-8"?>
<svg width="108px" height="114px" viewBox="0 0 108 114" version="1.1" xmlns="http://www.w3.org/2000/svg" xmlns:xlink="http://www.w3.org/1999/xlink">
    <!-- Generator: Sketch 52.5 (67469) - http://www.bohemiancoding.com/sketch -->
    <title>cri.planets-10</title>
    <desc>Created with Sketch.</desc>
    <g id="Landing" stroke="none" stroke-width="1" fill="none" fill-rule="evenodd">
        <g id="Artboard" transform="translate(-1163.000000, -315.000000)" fill="#814D8D">
            <path d="M1216.9514,381.8607 C1217.1584,380.0767 1217.4204,378.2397 1217.6744,376.4577 C1218.7154,369.1517 1219.7924,361.5967 1217.6704,354.4757 C1213.9154,344.9227 1206.9194,336.0937 1198.4754,330.2507 C1198.0354,329.9637 1197.5084,329.7577 1196.9504,329.5407 C1196.5764,329.3947 1196.2364,329.2597 1195.9014,329.1017 C1196.6444,328.2687 1197.4174,327.4577 1198.1994,326.6917 C1204.4444,330.6117 1209.5624,335.2567 1213.4084,340.4977 C1218.1124,346.9077 1220.4684,353.9757 1220.8224,362.7447 C1220.9044,364.7677 1220.9074,366.7947 1220.9114,368.7547 C1220.9204,374.6187 1220.9304,380.1577 1222.8444,385.8487 C1224.9614,392.1387 1228.7844,398.3697 1234.2084,404.3667 C1240.3174,411.1207 1243.3144,418.0967 1243.1164,425.1017 C1240.5524,426.4267 1237.6264,427.3397 1234.4164,427.8167 C1235.4574,420.5317 1235.9054,411.2607 1230.1864,404.0417 C1229.7044,403.4327 1229.2174,402.8237 1228.7284,402.2127 C1223.8454,396.1067 1218.7964,389.7917 1216.9514,381.8607 Z M1225.0676,428.0262 C1226.0246,415.6012 1218.0476,405.7262 1210.3326,396.1742 L1210.2796,396.1082 C1209.4296,395.0562 1208.5516,393.9682 1207.7186,392.9202 C1205.6816,389.4282 1204.8266,386.5662 1205.1036,384.1692 C1205.4796,380.9232 1206.5126,377.6002 1207.5126,374.3842 C1209.3036,368.6202 1211.1566,362.6592 1209.5096,356.5942 C1208.3256,351.8282 1205.7006,347.6582 1201.9166,344.5362 C1198.1646,341.4402 1193.6096,339.6462 1188.7386,339.3452 C1189.8106,337.4522 1191.1096,335.2452 1192.6336,333.1452 C1197.3436,336.1442 1202.2766,339.4922 1206.4636,343.6562 C1211.3106,348.4772 1214.1976,353.4562 1215.2886,358.8772 C1216.3066,363.9332 1215.2726,368.9212 1214.2716,373.7472 C1213.5396,377.2772 1212.7826,380.9282 1212.8246,384.5982 C1212.9136,392.2642 1217.2016,398.8862 1221.5856,405.0132 C1226.0306,411.2242 1230.7006,419.4672 1227.3496,428.1752 C1226.5996,428.1462 1225.8326,428.0962 1225.0676,428.0262 Z M1212.5583,425.6484 C1212.3523,422.2094 1211.9593,417.7224 1210.7463,413.4464 C1209.5133,409.1034 1207.6263,405.6004 1204.9763,402.7384 C1203.9293,401.6074 1202.7783,400.5034 1201.6633,399.4354 C1198.0573,395.9764 1194.3273,392.3994 1193.3673,387.2214 C1192.3253,381.6024 1194.2013,375.5284 1198.9433,369.1684 L1199.3433,368.6324 C1203.0633,363.6584 1207.2793,358.0224 1202.5063,352.2594 C1200.6623,350.0314 1198.2123,348.1674 1195.0193,346.5594 C1192.6323,345.3564 1189.9183,344.3384 1186.4833,343.3574 C1186.8003,342.7994 1187.1353,342.2034 1187.5343,341.4894 C1191.7363,343.0714 1195.6043,345.2354 1198.7223,347.7514 C1201.8543,350.2784 1204.2363,353.1664 1205.6103,356.1014 C1207.5313,360.2044 1207.6533,364.5444 1205.9743,369.0024 C1204.9323,372.0054 1203.3723,374.5084 1201.7193,377.1604 C1200.5133,379.0944 1199.2663,381.0944 1198.2213,383.3304 C1197.1763,385.7554 1195.4463,392.1514 1201.9223,399.1484 L1201.9253,399.1504 C1209.7163,406.3814 1217.9463,415.0664 1216.9923,426.6844 C1215.5733,426.3784 1214.0813,426.0294 1212.5583,425.6484 Z M1201.4952,422.5427 C1202.7492,412.1017 1194.9602,404.7187 1188.0882,398.2037 L1188.0602,398.1767 C1186.9512,397.1247 1185.9042,396.1317 1184.8902,395.1267 C1183.2762,393.4297 1181.3552,390.3157 1183.3112,382.8807 C1184.0832,379.8337 1185.5942,376.8117 1187.0562,373.8867 C1189.8532,368.2947 1192.7462,362.5127 1190.6502,356.2167 C1189.1052,352.5997 1185.4102,351.4747 1181.7432,350.6447 C1182.7462,349.3747 1183.7232,347.9657 1184.7262,346.3407 C1188.7842,346.7657 1192.4912,348.6427 1194.6482,351.3647 C1197.4382,354.8857 1198.0912,358.8707 1196.7682,364.2837 C1195.8802,367.1467 1194.2232,370.0447 1192.6192,372.8487 C1188.9032,379.3477 1185.0612,386.0677 1189.7542,393.4387 C1190.2612,394.4287 1190.9612,395.1367 1191.6402,395.8217 C1192.3032,396.4907 1192.9892,397.1827 1193.4792,398.1417 L1193.4992,398.1677 C1199.2042,404.2537 1206.8032,413.5637 1206.9752,424.1547 C1205.2642,423.6707 1203.4702,423.1427 1201.4952,422.5427 Z M1196.1353,420.886 C1196.1513,417.976 1195.1833,414.752 1193.3363,411.558 C1191.7073,408.742 1189.4273,406.019 1186.9193,403.892 C1178.9663,395.864 1178.8563,388.501 1180.1643,383.739 C1180.8403,381.393 1181.9283,379.115 1182.9813,376.91 C1185.1003,372.474 1187.2923,367.886 1186.2833,362.438 L1186.2823,362.435 C1185.4133,358.937 1182.6293,356.333 1178.0083,354.694 C1178.8083,353.929 1179.4963,353.234 1180.1113,352.569 C1180.5593,352.085 1181.0163,351.55 1181.5493,350.888 C1185.2023,351.708 1188.8893,352.807 1190.3893,356.316 C1192.4443,362.491 1189.5783,368.22 1186.8063,373.762 C1185.3383,376.698 1183.8193,379.734 1183.0403,382.811 C1182.0873,386.436 1181.2203,391.676 1184.6903,395.322 C1185.7133,396.336 1186.7653,397.334 1187.8803,398.391 L1187.8963,398.407 C1194.7083,404.865 1202.4283,412.184 1201.2233,422.46 C1199.7463,422.01 1198.1273,421.509 1196.1353,420.886 Z M1233.019,335.2083 C1230.429,328.4543 1226.524,318.2753 1217.651,316.2403 C1222.559,315.2743 1228,315.1253 1233.828,315.7973 C1237.139,317.5713 1239.511,320.3923 1241.805,323.1213 C1243.775,325.4663 1245.813,327.8913 1248.403,329.5843 C1249.924,330.5793 1251.636,331.0623 1253.636,331.0623 C1255.376,331.0623 1257.045,330.7053 1258.607,330.3373 C1259.329,331.8843 1259.947,333.4683 1260.652,335.3663 C1260.669,335.4123 1260.685,335.4583 1260.701,335.5043 C1260.709,335.5263 1260.717,335.5473 1260.725,335.5693 C1260.552,335.5723 1260.381,335.5733 1260.21,335.5733 C1252.98,335.5733 1247.315,333.2103 1243.369,328.5453 C1242.262,327.2363 1241.253,325.8243 1240.277,324.4573 C1237.831,321.0343 1235.303,317.4953 1231.166,315.5683 L1231.126,315.5493 L1231.008,315.8033 L1231.048,315.8223 C1235.119,317.7173 1237.514,321.0713 1240.054,324.6263 C1241.033,325.9963 1242.045,327.4123 1243.155,328.7253 C1247.16,333.4593 1252.892,335.8593 1260.193,335.8593 C1260.365,335.8593 1260.54,335.8563 1260.715,335.8523 L1260.827,335.8503 C1262.326,339.9333 1263.663,344.1353 1264.956,348.1993 C1265.335,349.3903 1265.727,350.6223 1266.118,351.8333 C1261.655,352.0093 1255.825,351.0103 1252.28,350.0033 C1247.786,348.7253 1244.274,346.6803 1241.84,343.9263 C1239.345,341.1023 1237.852,337.5693 1236.536,334.1933 C1233.73,326.9933 1230.828,319.5483 1222.848,315.6223 L1222.808,315.6033 L1222.685,315.8543 L1222.725,315.8733 C1230.608,319.7513 1233.489,327.1453 1236.275,334.2953 C1237.6,337.6943 1239.105,341.2533 1241.63,344.1113 C1244.1,346.9063 1247.657,348.9793 1252.204,350.2713 C1255.469,351.2003 1260.712,352.1363 1265.064,352.1363 C1265.447,352.1363 1265.832,352.1283 1266.208,352.1123 C1266.438,352.8233 1266.669,353.5353 1266.904,354.2453 C1267.02,354.6003 1267.138,354.9493 1267.255,355.2963 C1265.496,355.1653 1263.53,355.1153 1261.628,355.0663 C1257.774,354.9683 1253.788,354.8663 1250.643,354.1393 C1241.206,351.9583 1236.773,344.9943 1233.019,335.2083 Z M1239.8902,316.7795 C1246.7992,318.2655 1251.7592,320.8385 1255.0522,324.6435 C1255.7582,325.4585 1256.4092,326.3585 1257.0422,327.3945 C1257.0842,327.6195 1257.0552,327.8185 1256.9552,327.9865 C1256.4622,328.8125 1254.3932,328.9045 1253.5252,328.8205 C1251.2682,328.6015 1249.1152,327.7755 1247.3012,326.4335 C1245.3512,324.9905 1244.0722,322.9205 1242.8342,320.9185 C1242.0022,319.5725 1241.0622,318.0525 1239.8902,316.7795 Z M1261.6169,355.3458 L1261.6209,355.3458 C1263.5569,355.3958 1265.5579,355.4468 1267.3529,355.5848 C1267.4449,355.8568 1267.5379,356.1278 1267.6289,356.3968 C1268.4339,358.7528 1269.1929,360.9788 1269.6679,363.2888 C1269.6819,363.3848 1269.6969,363.4808 1269.7119,363.5768 C1269.7349,363.7268 1269.7579,363.8768 1269.7789,364.0278 C1269.9139,364.9908 1270.0049,366.0008 1270.0589,367.1118 C1266.3399,365.4688 1260.6409,363.7008 1256.8769,363.4788 C1255.9229,363.4218 1254.9429,363.3888 1253.9879,363.3558 C1251.0289,363.2548 1247.9689,363.1488 1245.0949,362.3418 C1235.7529,359.7178 1233.3229,350.2188 1231.1789,341.8368 L1230.9909,341.1028 C1229.8089,336.4888 1228.5869,331.7168 1225.8869,327.7388 C1224.4649,325.6438 1222.0169,323.6488 1218.8059,321.9698 C1216.0699,320.5388 1212.8579,319.3788 1209.7469,318.6948 C1211.9929,317.7068 1214.4129,316.9308 1216.9429,316.3858 C1226.1319,318.0328 1230.1189,328.4288 1232.7579,335.3088 C1236.5439,345.1778 1241.0229,352.2028 1250.5799,354.4118 C1253.7499,355.1448 1257.7489,355.2468 1261.6169,355.3458 Z M1234.5557,315.8833 C1235.3327,315.9813 1236.1177,316.0933 1236.8927,316.2173 C1237.7567,316.3563 1238.6017,316.5093 1239.4057,316.6743 C1240.6897,317.9813 1241.6597,319.5493 1242.5977,321.0673 C1243.8487,323.0913 1245.1427,325.1843 1247.1347,326.6583 C1248.9897,328.0303 1251.1907,328.8743 1253.4987,329.0993 C1253.6747,329.1163 1253.8977,329.1253 1254.1267,329.1253 C1254.8707,329.1253 1256.6587,329.0283 1257.1957,328.1293 C1257.2477,328.0413 1257.2867,327.9443 1257.3107,327.8403 C1257.7077,328.5223 1258.0927,329.2563 1258.4837,330.0773 C1255.0437,330.8713 1251.6957,331.4043 1248.5557,329.3513 C1246.0007,327.6803 1243.9767,325.2713 1242.0187,322.9413 C1239.8467,320.3573 1237.6017,317.6873 1234.5557,315.8833 Z M1163.0192,380.6342 C1163.0762,380.7372 1163.1342,380.8402 1163.1912,380.9442 L1163.2142,380.9842 C1163.7672,381.9822 1164.3382,383.0142 1165.2462,383.8912 C1165.1842,388.9872 1167.3282,393.0082 1169.8102,397.6642 C1170.2862,398.5562 1170.7782,399.4792 1171.2662,400.4322 C1172.3172,402.7552 1171.7592,404.9362 1171.2192,407.0442 L1171.2082,407.0862 L1171.1222,406.9762 C1170.9812,406.7972 1170.8362,406.6122 1170.7002,406.4232 C1167.2932,401.6932 1165.6882,395.8582 1164.4612,390.2562 C1163.8822,387.6112 1163.1992,384.1392 1163.0192,380.6342 Z M1198.4039,326.4894 C1199.1319,325.7844 1199.8989,325.0904 1200.6869,324.4254 C1204.4689,326.1374 1207.1849,328.3154 1209.8559,330.5764 C1210.6439,331.5714 1211.4659,332.2364 1212.5059,333.0784 L1212.5349,333.1014 C1212.9119,333.4074 1213.3019,333.7234 1213.7219,334.0774 C1218.4879,339.4164 1222.7959,344.8164 1223.1629,352.1674 C1223.4569,354.2264 1223.6989,356.2994 1223.9319,358.3034 C1225.0639,368.0204 1226.1339,377.1994 1232.8089,385.0514 C1235.1849,387.4504 1237.6569,389.7294 1240.0479,391.9324 C1245.9509,397.3724 1251.5279,402.5124 1255.8779,409.4054 L1255.8399,409.4884 C1255.6389,409.9404 1255.4309,410.4064 1255.2179,410.8634 C1253.5289,414.4944 1251.3319,418.6364 1247.8549,421.8174 C1246.5419,423.0194 1245.0429,424.0734 1243.3999,424.9524 C1243.5509,417.9264 1240.5289,410.9374 1234.4159,404.1794 C1229.0179,398.2104 1225.2139,392.0134 1223.1099,385.7594 C1221.2099,380.1124 1221.1999,374.5954 1221.1909,368.7454 C1221.1869,366.7844 1221.1829,364.7574 1221.1019,362.7334 C1220.7459,353.9064 1218.3729,346.7884 1213.6339,340.3324 C1209.7779,335.0784 1204.6539,330.4204 1198.4039,326.4894 Z M1227.6432,428.1862 C1230.9782,419.3862 1226.2822,411.0942 1221.8132,404.8502 C1217.4552,398.7602 1213.1922,392.1802 1213.1042,384.5952 C1213.0622,380.9532 1213.8162,377.3172 1214.5452,373.8012 C1215.5522,368.9502 1216.5922,363.9342 1215.5632,358.8222 C1214.4622,353.3502 1211.5562,348.3312 1206.6812,343.4772 C1202.4762,339.2912 1197.5252,335.9292 1192.7992,332.9192 C1192.8382,332.8662 1192.8772,332.8122 1192.9152,332.7582 C1192.9972,332.6452 1193.0782,332.5332 1193.1632,332.4222 C1193.9812,331.3472 1194.8372,330.3032 1195.7072,329.3172 C1196.0842,329.5002 1196.4622,329.6502 1196.8502,329.8012 C1197.3942,330.0132 1197.9082,330.2142 1198.3192,330.4832 C1206.7152,336.2932 1213.6732,345.0722 1217.4062,354.5672 C1219.5062,361.6172 1218.4342,369.1422 1217.3972,376.4192 C1217.1432,378.2022 1216.8802,380.0462 1216.6712,381.8522 L1216.6682,381.8772 L1216.6732,381.9002 C1218.5282,389.9052 1223.6022,396.2502 1228.5102,402.3872 C1228.9982,402.9982 1229.4852,403.6062 1229.9662,404.2152 C1235.6342,411.3682 1235.1712,420.6032 1234.1282,427.8582 C1232.0582,428.1472 1229.8772,428.2562 1227.6432,428.1862 Z M1207.2568,424.2345 C1207.2088,419.7755 1205.9028,415.3005 1203.2658,410.5535 C1201.0858,406.6305 1197.9618,402.5215 1193.7158,397.9915 C1193.2098,397.0085 1192.5128,396.3055 1191.8388,395.6255 C1191.1758,394.9555 1190.4908,394.2635 1189.9968,393.2995 C1185.3868,386.0595 1189.1878,379.4145 1192.8628,372.9875 C1194.4728,370.1705 1196.1388,367.2575 1197.0378,364.3585 C1198.3848,358.8475 1197.7158,354.7855 1194.8668,351.1905 C1192.6908,348.4445 1188.9638,346.5355 1184.8878,346.0765 C1185.3508,345.3195 1185.8268,344.5115 1186.3408,343.6085 C1191.2028,344.9925 1198.1298,347.4125 1202.2918,352.4375 C1206.9238,358.0305 1202.7778,363.5745 1199.1198,368.4645 L1198.7188,369.0015 C1193.9288,375.4275 1192.0358,381.5745 1193.0928,387.2715 C1194.0688,392.5385 1197.8318,396.1475 1201.4768,399.6425 C1202.5848,400.7055 1203.7308,401.8055 1204.7708,402.9285 C1207.3868,405.7535 1209.2518,409.2155 1210.4728,413.5105 C1211.6748,417.7395 1212.0678,422.1735 1212.2738,425.5775 C1210.6718,425.1735 1209.0298,424.7345 1207.2568,424.2345 Z M1200.9251,324.2268 C1202.2821,323.0978 1203.6961,322.0668 1205.1281,321.1628 C1205.8541,321.4678 1206.6501,321.7918 1207.3541,322.0768 C1211.5311,323.7738 1216.7291,325.8838 1219.8451,328.7048 C1226.1901,334.0848 1227.7131,341.5568 1229.1871,348.7818 C1229.6391,350.9968 1230.1061,353.2878 1230.7051,355.4908 C1233.3831,366.7588 1243.9311,375.1888 1262.0631,380.5498 C1264.0041,380.7748 1265.6011,381.6508 1266.5601,383.0168 L1266.5861,383.0528 L1266.8151,382.8918 L1266.7891,382.8558 C1265.7841,381.4238 1264.1221,380.5068 1262.1191,380.2768 C1244.1081,374.9498 1233.6301,366.5878 1230.9751,355.4228 C1230.3791,353.2248 1229.9121,350.9388 1229.4611,348.7258 C1227.9781,341.4538 1226.4451,333.9348 1220.0291,328.4938 C1216.8801,325.6438 1211.6571,323.5228 1207.4591,321.8178 L1207.4171,321.8008 C1206.7151,321.5158 1206.0491,321.2458 1205.4181,320.9818 C1206.7091,320.1828 1208.0181,319.4788 1209.3101,318.8888 C1215.2391,320.1178 1222.5891,323.3778 1225.6551,327.8958 C1228.3271,331.8328 1229.5431,336.5808 1230.7201,341.1718 L1230.9081,341.9068 C1233.0711,350.3608 1235.5221,359.9438 1245.0191,362.6118 C1247.9271,363.4278 1251.0041,363.5338 1253.9801,363.6358 L1254.0071,363.6358 C1254.9461,363.6688 1255.9171,363.7018 1256.8601,363.7578 C1260.6451,363.9818 1266.3641,365.7698 1270.0711,367.4238 C1270.1021,368.2128 1270.1151,368.9468 1270.1101,369.6658 L1270.0991,369.8188 C1270.0871,370.0008 1270.0741,370.1888 1270.0541,370.3768 C1269.4831,375.9068 1267.5861,381.1378 1265.6921,386.0218 C1262.9731,393.0298 1259.9401,400.0458 1257.0061,406.8338 C1256.6591,407.6378 1256.3341,408.3808 1256.0151,409.0998 C1251.6571,402.2508 1246.1101,397.1388 1240.2381,391.7268 C1237.8491,389.5258 1235.3781,387.2488 1233.0141,384.8628 C1226.4021,377.0838 1225.3371,367.9458 1224.2091,358.2668 C1223.9751,356.2598 1223.7331,354.1848 1223.4411,352.1408 C1223.0711,344.7098 1218.7271,339.2638 1213.9161,333.8778 C1213.4771,333.5048 1213.0821,333.1858 1212.7011,332.8768 L1212.6811,332.8608 C1211.6541,332.0298 1210.8431,331.3728 1210.0551,330.3828 C1207.3871,328.1198 1204.6811,325.9468 1200.9251,324.2268 Z M1217.2678,426.7438 C1218.2528,414.9838 1209.9668,406.2318 1202.1228,398.9528 C1200.0038,396.6638 1195.4068,390.5708 1198.4768,383.4448 C1199.5118,381.2298 1200.7528,379.2378 1201.9568,377.3068 C1203.6168,374.6438 1205.1858,372.1278 1206.2368,369.0978 C1207.9428,364.5698 1207.8178,360.1568 1205.8638,355.9838 C1204.4748,353.0178 1202.0728,350.1018 1198.9178,347.5508 C1195.7818,345.0168 1191.8948,342.8368 1187.6718,341.2428 C1187.9748,340.6998 1188.2788,340.1568 1188.5858,339.6158 C1193.4318,339.8858 1197.9678,341.6518 1201.7038,344.7228 C1205.4598,347.8108 1208.0658,351.9398 1209.2388,356.6648 C1210.8658,362.6548 1209.0248,368.5758 1207.2458,374.3018 C1206.2428,377.5278 1205.2058,380.8648 1204.8268,384.1368 C1204.5418,386.5968 1205.4108,389.5198 1207.4888,393.0768 C1208.3578,394.1748 1209.2508,395.2808 1210.1148,396.3508 C1217.7948,405.8578 1225.7348,415.6888 1224.7888,428.0008 C1223.6478,427.8898 1222.4878,427.7328 1221.3398,427.5348 C1220.0488,427.3108 1218.7168,427.0518 1217.2678,426.7438 Z M1183.7178,416.5 C1183.6848,411.485 1180.7698,407.107 1177.9498,402.872 C1176.5968,400.839 1175.3178,398.918 1174.3588,396.952 C1172.6308,393.411 1171.9468,389.382 1172.3818,385.302 C1172.5338,383.873 1172.8058,382.424 1173.0708,381.017 C1173.5358,378.548 1174.0158,375.995 1173.8668,373.429 C1173.6538,369.778 1171.9228,366.595 1168.5768,363.698 C1170.2658,361.741 1172.2108,359.956 1174.0618,358.293 C1176.4808,359.907 1178.3718,362.187 1179.5318,364.891 C1180.9688,368.242 1181.2078,372.105 1180.2028,375.764 C1179.7808,376.884 1179.3268,377.994 1178.8868,379.067 C1176.5368,384.806 1174.3168,390.226 1177.2358,396.25 C1178.6508,399.284 1180.5078,401.975 1182.3038,404.578 C1185.3468,408.989 1188.2218,413.157 1188.6578,418.494 C1186.9068,417.876 1185.2458,417.205 1183.7178,416.5 Z M1178.3806,413.576 C1178.4906,408.588 1176.3256,402.318 1173.4466,399.294 C1169.2916,394.05 1168.9136,388.416 1168.5126,382.451 C1168.4026,380.821 1168.2896,379.134 1168.0916,377.388 L1168.0896,377.378 C1167.1876,374.895 1165.8716,372.77 1164.1776,371.06 C1164.3566,370.541 1164.5416,370.065 1164.7426,369.606 C1165.5916,367.673 1166.7866,365.81 1168.3956,363.911 C1171.6806,366.756 1173.3786,369.875 1173.5866,373.445 C1173.7346,375.976 1173.2576,378.513 1172.7956,380.971 C1172.5306,382.377 1172.2566,383.832 1172.1036,385.272 C1171.6636,389.405 1172.3566,393.486 1174.1066,397.074 C1175.0746,399.058 1176.3586,400.986 1177.7176,403.027 C1180.4876,407.186 1183.3506,411.487 1183.4356,416.366 C1181.5996,415.505 1179.8996,414.566 1178.3806,413.576 Z M1188.9454,418.5942 C1188.5384,413.1242 1185.6214,408.8952 1182.5334,404.4182 C1180.7444,401.8252 1178.8944,399.1432 1177.4894,396.1302 C1174.6234,390.2162 1176.8204,384.8522 1179.1464,379.1722 L1179.1514,379.1602 C1179.5904,378.0872 1180.0444,376.9792 1180.4684,375.8502 C1181.4934,372.1212 1181.2514,368.1902 1179.7884,364.7812 C1178.6164,362.0502 1176.7114,359.7402 1174.2774,358.1002 L1174.7394,357.6852 C1175.7474,356.7822 1176.7884,355.8492 1177.7804,354.9102 C1182.3884,356.5122 1185.1574,359.0652 1186.0094,362.4942 C1187.0014,367.8472 1184.8294,372.3932 1182.7274,376.7922 C1181.6704,379.0052 1180.5784,381.2932 1179.8944,383.6642 C1178.0184,390.4972 1180.4444,397.7532 1186.7274,404.0952 L1186.7304,404.0972 C1193.4584,409.8032 1195.8484,416.6442 1195.8554,420.7982 L1194.6744,420.4282 C1193.5234,420.0672 1192.3794,419.7082 1191.2434,419.3552 C1190.5244,419.1312 1189.7734,418.8822 1188.9454,418.5942 Z M1171.4255,407.3661 L1171.4895,407.1131 C1172.0415,404.9581 1172.6125,402.7301 1171.5175,400.3111 C1171.0265,399.3501 1170.5335,398.4261 1170.0565,397.5321 C1167.5835,392.8921 1165.4475,388.8861 1165.5265,383.8351 L1165.5275,383.7731 L1165.4835,383.7311 C1164.5815,382.8751 1164.0105,381.8461 1163.4585,380.8491 C1163.2745,380.5161 1163.1305,380.2641 1162.9945,380.0331 C1162.8825,376.7671 1163.2365,373.9281 1164.0765,371.3581 C1165.6945,373.0211 1166.9545,375.0711 1167.8195,377.4421 C1168.0095,379.1481 1168.1235,380.8301 1168.2325,382.4561 L1168.2335,382.4701 C1168.6375,388.4791 1169.0185,394.1561 1173.2325,399.4741 L1173.2355,399.4771 C1176.0295,402.4131 1178.1595,408.5081 1178.1045,413.3901 C1175.4475,411.6231 1173.2015,409.5961 1171.4255,407.3661 Z" id="cri.planets-10"></path>
        </g>
    </g>
</svg>