<?xml version="1.0" encoding="UTF-8"?>
<svg width="47px" height="46px" viewBox="0 0 47 46" version="1.1" xmlns="http://www.w3.org/2000/svg" xmlns:xlink="http://www.w3.org/1999/xlink">
    <!-- Generator: Sketch 52.5 (67469) - http://www.bohemiancoding.com/sketch -->
    <title>cri.planets-6</title>
    <desc>Created with Sketch.</desc>
    <g id="Landing" stroke="none" stroke-width="1" fill="none" fill-rule="evenodd">
        <g id="Artboard" transform="translate(-996.000000, -687.000000)" fill="#E07D2B">
            <path d="M1030.3722,708.5309 L1030.3762,708.5399 C1031.4792,710.6399 1032.6192,712.8119 1032.8722,715.1679 C1033.0682,716.9949 1032.7142,718.8659 1032.3352,720.6249 C1032.2302,721.1099 1032.1172,721.6119 1032.0002,722.1229 C1031.9472,720.2629 1031.6062,718.2049 1030.9372,715.6909 C1030.2702,713.1849 1029.1172,710.8119 1028.0022,708.5169 C1027.0882,706.6349 1026.1422,704.6879 1025.4692,702.6739 C1023.9762,698.2099 1024.4172,693.4079 1026.8172,687.9999 C1026.2542,690.2199 1025.7522,692.6079 1025.8132,695.0749 C1025.9252,699.7019 1027.9442,703.9059 1030.3722,708.5309 Z M1030.76,715.7386 C1031.503,718.5286 1031.841,720.7666 1031.822,722.7826 C1031.433,723.4316 1031.07,724.1186 1030.719,724.7886 C1030.154,719.9896 1028.134,715.3586 1026.112,711.0256 C1021.384,700.2806 1022.624,692.4456 1024.505,687.7556 L1025.341,687.8056 C1025.783,687.8326 1026.225,687.8596 1026.667,687.8866 C1024.233,693.3556 1023.784,698.2116 1025.295,702.7316 C1025.972,704.7556 1026.92,706.7086 1027.838,708.5976 C1028.949,710.8846 1030.097,713.2496 1030.76,715.7386 Z M1036.853,700.7556 C1037.564,708.2226 1037.186,713.6506 1035.627,718.3486 C1035.353,718.6086 1035.035,718.9106 1034.713,719.2286 C1034.905,717.7266 1035.23,716.1636 1035.518,714.7796 C1036.367,710.7046 1037.243,706.4896 1035.552,702.4736 C1035.177,701.5356 1034.754,700.5786 1034.344,699.6526 C1033.065,696.7606 1031.392,692.4476 1031.59,688.3066 C1032.408,688.4046 1033.036,688.5076 1033.612,688.6386 C1033.481,689.7726 1033.405,691.2926 1033.61,691.9156 C1033.906,693.5416 1034.583,694.9706 1035.237,696.3516 C1035.888,697.7256 1036.56,699.1436 1036.853,700.7556 Z M1025.9449,711.1003 C1028.0019,715.5073 1030.0519,720.2153 1030.5689,725.0753 C1030.3149,725.5603 1030.0219,726.1143 1029.7139,726.6493 C1029.7759,721.9523 1027.5399,717.7123 1025.3759,713.6113 L1025.3299,713.6353 L1025.3759,713.6113 L1025.3729,713.6063 C1024.7249,712.3783 1024.0559,711.1083 1023.4569,709.8443 C1021.7839,706.1943 1020.8019,702.3293 1020.6169,698.6673 C1020.4159,694.6863 1021.1219,690.9763 1022.7179,687.6393 C1023.2499,687.6763 1023.7809,687.7103 1024.3129,687.7433 C1022.4329,692.4663 1021.2079,700.3343 1025.9449,711.1003 Z M1038.0565,712.7418 C1037.6615,714.1328 1037.2535,715.5718 1036.9525,717.0848 C1036.6075,717.4208 1036.2525,717.7578 1035.9065,718.0848 C1037.3855,713.4348 1037.7335,708.0698 1037.0345,700.7308 C1036.7355,699.0888 1036.0585,697.6588 1035.4035,696.2758 C1034.7525,694.9008 1034.0805,693.4828 1033.7885,691.8738 C1033.5885,691.2718 1033.6635,689.7918 1033.7905,688.6798 C1034.5395,688.8608 1035.1865,689.0908 1035.7685,689.3838 C1035.8395,689.4188 1035.9085,689.4588 1035.9775,689.4968 L1036.0175,689.5198 C1035.8075,692.8818 1036.7635,696.6598 1037.7315,699.0788 L1037.7795,699.0598 L1037.7315,699.0788 C1039.7115,704.0278 1039.5345,706.3288 1039.2125,708.0978 C1038.9235,709.6888 1038.4825,711.2408 1038.0565,712.7418 Z M1022.3525,712.9717 C1025.5045,717.1287 1029.0695,721.8297 1028.7335,727.3507 C1027.3905,722.4167 1024.4855,718.5347 1021.4135,714.4307 C1019.8935,712.3997 1018.3225,710.2997 1016.9625,708.0657 C1015.2735,705.2517 1014.6025,702.0857 1014.9105,698.3867 C1015.4385,694.4267 1018.2505,690.4797 1020.6475,687.4807 C1020.7605,687.4877 1020.8745,687.4957 1020.9885,687.5037 C1019.1165,690.7207 1017.3915,693.8957 1016.7835,697.3327 C1015.7375,703.2437 1018.8415,708.3427 1022.3525,712.9717 Z M1019.4775,721.9489 C1021.9895,724.9969 1023.5985,728.3169 1024.1325,731.5509 C1023.6255,731.7149 1023.0815,731.8529 1022.5145,731.9609 C1022.5585,730.5489 1022.3945,729.4589 1021.9835,728.4339 C1019.6085,724.4119 1016.7285,721.1339 1013.6795,717.6639 C1011.8265,715.5559 1009.9155,713.3799 1008.1075,711.0079 C1004.5115,706.2879 1006.7865,701.4079 1008.9865,696.6889 C1009.6615,695.2409 1010.2985,693.8759 1010.7765,692.5099 C1011.0165,691.7899 1011.0645,691.2579 1011.0985,690.6429 C1012.1595,689.9159 1013.0515,689.3669 1013.8985,688.9199 C1014.6595,692.0439 1012.9695,694.3269 1010.8515,696.7749 C1008.1035,699.9539 1006.9785,702.7909 1007.4115,705.4479 C1007.9315,708.6369 1010.1515,711.3709 1012.1095,713.7829 L1012.1915,713.8829 C1013.3645,715.3289 1014.6665,716.6999 1015.9245,718.0259 C1017.1195,719.2849 1018.3555,720.5859 1019.4775,721.9489 Z M1021.8203,728.5139 C1022.2193,729.5129 1022.3773,730.5899 1022.3303,731.9939 C1021.2903,732.1779 1020.1543,732.2829 1018.6553,732.3309 L1018.5893,732.3329 C1018.5583,732.1209 1018.5273,731.9079 1018.4973,731.6989 C1018.1483,729.2829 1017.7873,726.7849 1016.6963,724.5589 C1015.5933,722.3099 1013.6153,720.8489 1011.7023,719.4359 L1011.6903,719.4279 C1011.3753,719.1949 1011.0493,718.9539 1010.7333,718.7139 C1008.2483,716.8269 1006.3723,714.6039 1005.1553,712.1079 C1003.7213,709.1649 1003.3313,705.9399 1004.0253,702.7799 C1004.2933,701.5649 1004.7043,700.3749 1005.1023,699.2249 C1005.6773,697.5659 1006.2693,695.8559 1006.4403,694.0299 C1007.8193,692.9899 1008.9813,692.1369 1010.0963,691.3449 C1010.3653,691.1539 1010.6353,690.9629 1010.9073,690.7749 C1010.8753,691.2959 1010.8213,691.7949 1010.6033,692.4499 C1010.1293,693.8059 1009.4943,695.1659 1008.8233,696.6059 C1006.5973,701.3799 1004.2983,706.3109 1007.9623,711.1189 C1009.7773,713.5009 1011.6913,715.6789 1013.5423,717.7849 C1016.5863,721.2499 1019.4613,724.5219 1021.8203,728.5139 Z M1018.1781,715.6635 C1021.8351,719.9145 1026.3851,725.2035 1025.6831,730.9015 C1025.2571,731.1265 1024.7951,731.3245 1024.3091,731.4915 C1023.7641,728.2345 1022.1431,724.8965 1019.6191,721.8325 C1018.4911,720.4635 1017.2541,719.1605 1016.0581,717.9005 C1014.8021,716.5775 1013.5041,715.2095 1012.3331,713.7675 L1012.2521,713.6675 C1010.3071,711.2725 1008.1041,708.5585 1007.5921,705.4185 C1007.1681,702.8185 1008.2801,700.0305 1010.9901,696.8955 C1013.1521,694.3955 1014.8751,692.0635 1014.0651,688.8325 C1014.7051,688.5025 1015.3131,688.2325 1015.9221,688.0095 C1015.9901,687.9855 1016.0581,687.9625 1016.1251,687.9405 C1015.1271,690.8885 1013.9161,694.2785 1012.1701,697.3545 C1010.5341,700.2375 1010.3941,703.2275 1011.7431,706.4945 C1012.8981,709.2925 1014.9551,711.8555 1016.9631,714.2405 C1017.3371,714.6855 1017.7261,715.1375 1018.1371,715.6155 L1018.1781,715.6635 Z M1022.4221,717.9104 C1025.8351,722.0064 1027.3711,725.7944 1027.2531,729.8264 C1027.1241,729.9404 1027.0121,730.0354 1026.8931,730.1284 C1026.5871,730.3664 1026.2551,730.5844 1025.8801,730.7944 C1026.5091,725.0674 1021.9691,719.7894 1018.3171,715.5444 C1017.9121,715.0734 1017.4931,714.5874 1017.1031,714.1234 C1015.1041,711.7484 1013.0571,709.1984 1011.9121,706.4244 C1010.5871,703.2134 1010.7231,700.2754 1012.3291,697.4444 C1014.1021,694.3214 1015.3301,690.8654 1016.3421,687.8684 C1017.2831,687.5724 1018.2501,687.4344 1019.3741,687.4344 L1019.3931,687.4344 C1018.6231,688.9604 1017.5711,690.5314 1016.6411,691.9194 C1013.9631,695.9194 1011.1941,700.0544 1012.6671,704.8954 C1013.8531,709.1654 1016.8801,712.2374 1020.0841,715.4894 C1020.8561,716.2734 1021.6531,717.0824 1022.4221,717.9104 Z M1039.6334,697.425 C1038.7624,695.362 1037.8624,693.229 1037.9134,690.959 C1039.0734,692.12 1040.0764,693.705 1040.9774,695.797 C1042.7444,699.9 1043.3264,703.706 1042.7064,707.109 C1042.2754,709.474 1041.2144,711.833 1039.5504,714.126 C1039.8904,713.214 1040.1944,712.261 1040.4534,711.288 C1041.3464,707.945 1042.0064,704.322 1040.8094,700.479 C1040.4884,699.451 1040.0534,698.421 1039.6334,697.425 Z M1002.6285,696.9419 L1003.3275,696.4049 C1003.2495,698.5689 1002.6865,700.8219 1002.1415,703.0029 C1001.9195,703.8939 1001.7085,704.7349 1001.5315,705.5679 C1000.9535,708.2759 1001.4275,710.9259 1002.9395,713.4429 C1004.2735,715.6639 1006.1525,717.4699 1007.9695,719.2159 C1009.5365,720.7229 1011.1555,722.2789 1012.4145,724.0909 C1014.2315,726.7069 1015.1685,729.6059 1015.0565,732.2629 C1013.7245,732.1369 1012.5765,731.8779 1011.5485,731.4719 C1010.7755,731.1659 1010.0115,730.7489 1009.2775,730.2319 C1009.2725,727.5999 1008.6875,725.2649 1007.5385,723.2939 C1006.6805,721.8239 1005.5595,720.5039 1004.4745,719.2279 C1003.0315,717.5289 1001.5385,715.7729 1000.6715,713.6549 C999.7015,711.2839 999.9715,708.8609 1000.3645,706.8029 C1000.4155,706.5329 1000.4715,706.2499 1000.5285,705.9569 C1001.0195,703.4529 1001.6295,700.3409 1001.2535,698.0199 C1001.6955,697.6619 1002.1385,697.3189 1002.6285,696.9419 Z M997.5549,702.1249 C997.6829,701.8859 997.8299,701.6419 997.9909,701.3999 C998.7909,703.8949 998.6829,706.4869 998.5779,708.9949 C998.5419,709.8629 998.5039,710.7609 998.5039,711.6539 C998.5039,712.6559 998.8579,713.8339 999.4049,714.6539 C999.6819,715.0509 999.9679,715.4459 1000.2449,715.8279 L1000.2529,715.8399 C1002.0269,718.2929 1003.7049,720.6129 1003.8459,723.8319 L1003.5519,723.3539 C1001.5509,720.1019 999.4809,716.7389 997.9549,713.3139 C996.1069,709.1689 995.9609,705.0899 997.5549,702.1249 Z M1018.3156,731.7256 C1018.3446,731.9276 1018.3746,732.1326 1018.4046,732.3386 C1017.1326,732.3736 1016.1506,732.3556 1015.2396,732.2776 C1015.3556,729.5806 1014.4066,726.6376 1012.5656,723.9866 C1011.2966,722.1606 1009.6716,720.5976 1008.0996,719.0866 C1006.2866,717.3456 1004.4166,715.5476 1003.0966,713.3486 C1001.6086,710.8726 1001.1426,708.2676 1001.7106,705.6056 C1001.8876,704.7756 1002.0976,703.9356 1002.3196,703.0476 C1002.8796,700.8056 1003.4586,698.4876 1003.5166,696.2596 C1004.3406,695.6266 1005.2926,694.8966 1006.2406,694.1796 C1006.0516,695.9236 1005.4826,697.5676 1004.9316,699.1586 C1004.5306,700.3166 1004.1176,701.5136 1003.8466,702.7416 C1003.1436,705.9416 1003.5386,709.2076 1004.9906,712.1876 C1006.2196,714.7096 1008.1146,716.9546 1010.6226,718.8596 C1010.9396,719.1006 1011.2656,719.3406 1011.5816,719.5746 L1011.5936,719.5836 C1013.4886,720.9836 1015.4486,722.4306 1016.5316,724.6396 C1017.6106,726.8396 1017.9696,729.3236 1018.3156,731.7256 Z M998.1211,701.2069 C999.0031,699.9419 1000.1591,698.9169 1001.0881,698.1549 C1001.4251,700.4349 1000.8291,703.4729 1000.3491,705.9209 C1000.2911,706.2139 1000.2361,706.4979 1000.1841,706.7689 C999.4761,710.4819 999.9471,712.3689 1000.5021,713.7239 C1001.3801,715.8689 1002.8831,717.6369 1004.3351,719.3469 C1005.4161,720.6179 1006.5321,721.9309 1007.3801,723.3859 C1008.4921,725.2949 1009.0691,727.5519 1009.0931,730.0979 C1007.3761,728.8409 1005.8041,727.0259 1004.2911,724.5559 L1004.0391,724.1459 C1003.9981,720.7049 1002.2501,718.2889 1000.4011,715.7319 C1000.1231,715.3479 999.8361,714.9509 999.5561,714.5509 C999.0291,713.7599 998.6871,712.6219 998.6871,711.6539 C998.6871,710.7699 998.7251,709.8719 998.7611,709.0029 C998.8681,706.4309 998.9791,703.7729 998.1211,701.2069 Z M1040.2769,711.2405 C1039.9599,712.4285 1039.5779,713.5825 1039.1429,714.6695 L1039.1129,714.7075 C1039.0499,714.7905 1038.9859,714.8735 1038.9209,714.9555 C1038.4499,715.5475 1037.9109,716.1385 1037.1849,716.8565 C1037.4779,715.4495 1037.8609,714.0995 1038.2329,712.7925 L1038.1829,712.7775 L1038.2349,712.7825 C1038.6619,711.2805 1039.1029,709.7265 1039.3929,708.1305 C1040.0149,704.7095 1038.9489,701.6295 1037.9019,699.0105 C1036.9519,696.6355 1036.0099,692.9305 1036.1959,689.6195 C1036.7349,689.9355 1037.2519,690.3285 1037.7359,690.7885 C1037.6349,693.1615 1038.5649,695.3655 1039.4649,697.4965 C1039.8839,698.4885 1040.3169,699.5145 1040.6339,700.5335 C1041.8179,704.3325 1041.1619,707.9245 1040.2769,711.2405 Z M1028.6654,728.1117 L1028.7764,728.1247 C1028.3434,728.7267 1027.9064,729.2297 1027.4394,729.6627 C1027.5114,725.6457 1025.9594,721.8687 1022.5594,717.7897 L1022.5574,717.7877 C1021.7894,716.9597 1020.9884,716.1477 1020.2144,715.3617 C1017.0274,712.1267 1014.0174,709.0707 1012.8424,704.8447 C1011.3944,700.0837 1014.1384,695.9857 1016.7934,692.0217 C1017.7424,690.6037 1018.8174,688.9977 1019.5964,687.4367 C1019.8654,687.4397 1020.1364,687.4507 1020.4244,687.4667 C1018.0374,690.4637 1015.2584,694.3947 1014.7284,698.3677 C1014.4164,702.1097 1015.0964,705.3117 1016.8064,708.1607 C1018.1704,710.4027 1019.7444,712.5057 1021.2664,714.5397 C1024.4304,718.7677 1027.4194,722.7597 1028.6874,727.8977 C1028.6854,727.9207 1028.6834,727.9437 1028.6814,727.9667 C1028.6784,727.9977 1028.6754,728.0287 1028.6714,728.0597 L1028.6654,728.1117 Z M1025.2114,713.6917 C1027.4184,717.8757 1029.6984,722.1967 1029.5234,726.9767 C1029.3124,727.3307 1029.1024,727.6577 1028.8924,727.9607 L1028.8724,727.8847 C1029.4804,722.0677 1025.7714,717.1767 1022.4984,712.8607 C1019.0124,708.2647 1015.9294,703.2067 1016.9634,697.3657 C1017.5714,693.9307 1019.2374,690.8727 1021.1914,687.5197 C1021.3724,687.5337 1021.5554,687.5477 1021.7394,687.5627 C1021.9964,687.5837 1022.2574,687.6047 1022.5224,687.6247 C1020.9354,690.9737 1020.2324,694.6907 1020.4334,698.6767 C1020.6204,702.3617 1021.6084,706.2497 1023.2904,709.9217 C1023.8914,711.1897 1024.5624,712.4617 1025.2114,713.6917 Z M1032.1392,705.7894 C1033.7442,710.0704 1035.3302,715.0664 1033.8032,720.1644 C1033.1362,720.8874 1032.5982,721.5654 1032.1602,722.2404 C1032.2882,721.6884 1032.4062,721.1594 1032.5132,720.6634 C1032.8962,718.8904 1033.2542,717.0034 1033.0552,715.1484 C1032.7982,712.7584 1031.6502,710.5724 1030.5402,708.4574 L1030.5342,708.4454 C1028.1172,703.8424 1026.1082,699.6584 1025.9962,695.0704 C1025.9352,692.5794 1026.4552,690.1574 1027.0292,687.9104 C1027.5752,687.9454 1028.1682,687.9854 1028.7912,688.0344 C1027.6842,694.4514 1029.9382,700.5624 1032.1392,705.7894 Z M1035.3392,714.7414 C1035.0352,716.2014 1034.6922,717.8544 1034.5022,719.4384 C1034.3642,719.5764 1034.2242,719.7204 1034.0772,719.8744 C1035.4512,714.8384 1033.8882,709.9334 1032.3092,705.7214 C1030.1152,700.5114 1027.8692,694.4224 1028.9742,688.0494 C1029.5982,688.0994 1030.2492,688.1584 1030.9092,688.2294 C1031.0752,688.2474 1031.2412,688.2654 1031.4082,688.2844 C1031.2042,692.4694 1032.8882,696.8144 1034.1752,699.7224 C1034.5842,700.6464 1035.0062,701.6024 1035.3832,702.5434 C1037.0522,706.5074 1036.1812,710.6934 1035.3392,714.7414 Z" id="cri.planets-6"></path>
        </g>
    </g>
</svg>