<?xml version="1.0" encoding="UTF-8"?>
<svg width="108px" height="132px" viewBox="0 0 108 132" version="1.1" xmlns="http://www.w3.org/2000/svg" xmlns:xlink="http://www.w3.org/1999/xlink">
    <!-- Generator: Sketch 52.5 (67469) - http://www.bohemiancoding.com/sketch -->
    <title>cri.planets-11</title>
    <desc>Created with Sketch.</desc>
    <g id="Landing" stroke="none" stroke-width="1" fill="none" fill-rule="evenodd">
        <g id="Artboard" transform="translate(-969.000000, -297.000000)" fill="#00B0B6">
            <path d="M979.5819,362.4045 C978.9809,362.9325 978.3599,363.4865 977.7839,364.0845 C977.7049,363.9185 977.6239,363.7525 977.5449,363.5865 C976.5069,361.4275 975.4119,359.2665 974.3519,357.0885 C978.2179,351.2565 982.5649,345.7245 985.8319,339.5195 C987.7009,335.9685 989.1769,332.2085 990.0339,328.2825 C990.6949,325.2535 991.2579,322.1565 991.4669,319.0615 C991.5479,317.8495 991.5849,316.5595 991.4859,315.2815 C993.2199,313.9365 994.9829,312.6295 996.7589,311.3425 C998.1219,313.6235 998.5839,316.5335 998.8309,319.0685 C999.1769,322.6345 999.0439,326.2285 998.8139,329.7975 C998.4939,334.7545 997.1349,339.5545 994.8899,343.9825 C992.4619,348.7695 989.0529,352.9125 985.3809,356.7935 C983.5229,358.7575 981.6109,360.6205 979.5819,362.4045 Z M992.5604,355.5499 C988.8364,360.4379 984.6584,364.9579 980.3404,369.3239 C979.5224,367.6679 978.7134,366.0099 977.9134,364.3509 C978.5544,363.6769 979.2584,363.0559 979.9314,362.4679 C981.7514,360.8759 983.4604,359.2069 985.1324,357.4579 C988.8234,353.5969 992.2974,349.4919 994.8064,344.7479 C997.1344,340.3449 998.6784,335.4819 999.0454,330.5009 C999.3074,326.9449 999.4514,323.3519 999.1724,319.7919 C998.9524,316.9869 998.5094,313.7029 996.9854,311.1779 C997.5794,310.7499 998.1674,310.3129 998.7664,309.8919 C999.4904,309.3809 1000.2244,308.8859 1000.9564,308.3859 C1002.3724,310.0079 1003.3674,312.0419 1004.0334,314.1029 C1005.2944,318.0059 1005.6474,322.2329 1005.3864,326.3129 C1005.0694,331.2919 1003.4744,336.2099 1001.4794,340.7519 C999.1564,346.0419 996.0574,350.9609 992.5604,355.5499 Z M984.8339,369.4198 C984.0059,371.5348 983.8449,373.7258 983.6769,375.9268 C982.5899,373.8218 981.5199,371.7088 980.4709,369.5878 C988.5999,361.3778 996.3709,352.4888 1001.2559,341.9228 C1003.3919,337.3008 1005.1439,332.2608 1005.5999,327.1618 C1005.9679,323.0498 1005.6769,318.7718 1004.5349,314.7958 C1003.8569,312.4378 1002.7859,310.0748 1001.1849,308.2298 C1001.9009,307.7418 1002.6229,307.2648 1003.3449,306.7878 C1004.5729,308.0688 1005.5399,309.6448 1006.3919,311.1518 C1007.5949,313.2808 1008.6409,315.5208 1009.5269,317.7998 C1011.8409,323.7468 1011.0629,330.5798 1009.2739,336.5658 C1007.8039,341.4808 1005.2019,345.8998 1001.8089,349.7318 C998.1189,353.8978 993.5029,357.0898 989.8829,361.3158 C987.8069,363.7408 986.0019,366.4368 984.8339,369.4198 Z M994.9468,364.7446 C991.8868,370.7646 990.1118,377.3126 987.7798,383.6266 C986.4498,381.2116 985.1508,378.7786 983.8838,376.3306 C984.0138,374.3286 984.1168,372.3246 984.7608,370.4146 C985.7838,367.3826 987.5278,364.6156 989.5458,362.1506 C993.2098,357.6736 998.0278,354.3836 1001.8728,350.0766 C1005.2168,346.3326 1007.8338,342.0286 1009.3588,337.2316 C1011.1798,331.5076 1012.0578,324.9306 1010.2688,319.0986 C1009.4498,316.4286 1008.1788,313.8126 1006.8338,311.3726 C1005.9318,309.7376 1004.9018,308.0196 1003.5788,306.6316 C1003.9288,306.4016 1004.2828,306.1756 1004.6338,305.9476 C1006.4218,307.1696 1007.8508,308.9236 1009.0908,310.6666 C1010.5228,312.6786 1011.7558,314.8316 1012.8648,317.0366 C1015.7328,322.7376 1015.7658,329.2456 1013.9088,335.2646 C1012.9748,338.2906 1011.6538,341.2526 1010.0368,343.9766 C1008.5608,346.4656 1006.7748,348.7496 1004.9288,350.9706 C1001.2758,355.3646 997.5548,359.6136 994.9468,364.7446 Z M989.9718,387.4226 C989.9588,387.4316 989.9448,387.4406 989.9318,387.4496 C989.2648,386.2846 988.6038,385.1166 987.9548,383.9416 C990.1758,377.9686 991.8748,371.7846 994.6278,366.0206 C995.9528,363.2456 997.5428,360.6196 999.3888,358.1606 C1001.1548,355.8086 1003.0978,353.5986 1004.9808,351.3406 C1006.7718,349.1926 1008.5148,346.9916 1009.9828,344.6056 C1011.5998,341.9776 1012.9188,339.1086 1013.9038,336.1856 C1015.8708,330.3436 1016.2658,323.6376 1013.6108,317.9256 C1012.4568,315.4426 1011.0778,313.0246 1009.5108,310.7806 C1008.2258,308.9416 1006.7468,307.0856 1004.8848,305.7856 C1006.6338,304.6516 1008.4028,303.5496 1010.1888,302.4756 C1014.6628,305.5076 1017.4048,310.6906 1019.1148,315.7056 C1021.1608,321.7026 1022.2918,328.4536 1021.4858,334.7726 C1020.5528,342.0746 1016.6398,348.3866 1013.6928,354.9876 C1010.6128,361.8876 1008.4058,369.2526 1004.1738,375.5826 C1002.9098,377.4736 1001.4688,379.1976 999.8048,380.7486 C998.0938,382.3426 996.2018,383.9546 994.1948,385.1656 C992.8268,385.9896 991.3218,386.5566 989.9718,387.4226 Z M993.9877,390.5939 C993.6027,391.2529 993.2267,391.9909 993.0627,392.7579 C992.0437,391.0819 991.0467,389.3909 990.0687,387.6879 C990.2707,387.5609 990.4707,387.4389 990.6647,387.3239 C991.8867,386.6039 993.2447,386.0949 994.4387,385.3339 C997.7557,383.2189 1000.9237,380.4639 1003.2867,377.3159 C1007.9867,371.0559 1010.3367,363.4819 1013.3897,356.3709 C1016.2227,349.7739 1020.2157,343.5279 1021.5177,336.3689 C1022.6747,330.0089 1021.7137,323.2029 1019.8447,317.0619 C1018.1557,311.5149 1015.3587,305.7019 1010.4547,302.3169 C1011.4067,301.7469 1012.3617,301.1829 1013.3257,300.6329 C1013.9857,300.2559 1014.6517,299.8619 1015.3267,299.4789 C1015.8967,300.3609 1016.4077,301.2819 1016.8967,302.2099 C1018.5177,305.2829 1020.0027,308.4139 1021.2247,311.6699 C1022.7047,315.6149 1023.9147,319.6959 1024.7957,323.8179 C1025.6567,327.8449 1025.7597,331.9819 1025.2587,336.0629 C1024.7517,340.1929 1023.6847,344.2299 1022.6027,348.2399 C1021.6107,351.9189 1020.3047,355.4899 1018.5847,358.8939 C1015.0007,365.9899 1009.8047,371.9639 1004.5587,377.8659 C1001.9507,380.8019 999.3837,383.7749 996.8357,386.7629 C995.8057,387.9709 994.7907,389.2199 993.9877,390.5939 Z M1001.8585,388.9189 C1000.3745,392.4219 998.4755,395.8409 997.3365,399.4899 C995.9435,397.3909 994.5925,395.2619 993.2785,393.1079 C993.4045,392.0979 993.9805,391.1089 994.4985,390.2899 C995.3405,388.9599 996.3535,387.7419 997.3815,386.5529 C999.7195,383.8529 1002.0305,381.1309 1004.4025,378.4609 C1009.6285,372.5779 1014.8575,366.6609 1018.5155,359.6369 C1020.2655,356.2779 1021.6635,352.7309 1022.6645,349.0789 C1023.7495,345.1199 1024.8195,341.1319 1025.4035,337.0629 C1025.9625,333.1659 1026.0115,329.2179 1025.3645,325.3279 C1024.6715,321.1649 1023.4245,317.0229 1022.0215,313.0479 C1020.7015,309.3099 1019.0555,305.7309 1017.2175,302.2219 C1016.7055,301.2449 1016.1665,300.2739 1015.5675,299.3449 C1017.2615,298.3929 1019.0185,297.5339 1020.9135,297.1909 C1021.7995,298.9919 1022.4275,300.9609 1023.0295,302.7409 C1023.5765,304.3589 1024.0825,305.9999 1024.7505,307.5749 C1025.7425,309.9099 1026.7305,312.2439 1027.6385,314.6139 C1029.5155,319.5129 1031.1345,324.5159 1032.3275,329.6269 C1033.2495,333.5799 1033.8615,337.4839 1033.7255,341.5529 C1033.4595,349.4859 1031.2425,357.4969 1027.4935,364.4859 C1025.6995,367.8309 1023.5005,371.0009 1020.7695,373.6509 C1019.2925,375.0849 1017.6905,376.3079 1015.8095,377.1679 C1013.7815,378.0959 1011.6195,378.6859 1009.5795,379.5859 C1007.6615,380.4329 1005.9985,381.5399 1004.7565,383.2509 C1003.5045,384.9749 1002.6845,386.9689 1001.8585,388.9189 Z M1000.9044,403.7211 C1000.7574,403.8251 1000.6104,403.9281 1000.4634,404.0311 C999.4784,402.6421 998.5064,401.2441 997.5624,399.8261 C998.4834,396.8411 999.9264,394.0111 1001.2054,391.1321 C1002.0864,389.1481 1002.8454,387.0991 1003.8804,385.1871 C1005.0024,383.1151 1006.4414,381.5041 1008.5394,380.3951 C1010.5664,379.3231 1012.7894,378.7121 1014.9064,377.8551 C1016.8284,377.0781 1018.5294,376.0491 1020.0784,374.6731 C1022.8114,372.2461 1025.0454,369.2821 1026.8874,366.1371 C1030.8724,359.3351 1033.2714,351.4631 1033.8884,343.6101 C1034.5874,334.7021 1032.0024,325.9051 1029.0374,317.5941 C1028.1314,315.0561 1027.1494,312.5461 1026.1114,310.0601 C1025.3644,308.2681 1024.5954,306.5041 1023.9704,304.6661 C1023.1254,302.1831 1022.3574,299.5391 1021.1664,297.1501 C1021.2654,297.1341 1021.3634,297.1131 1021.4644,297.1011 C1024.0074,296.7871 1026.3654,297.4771 1028.7024,298.3191 C1029.0334,299.2731 1029.3614,300.2281 1029.6954,301.1821 C1030.2564,302.7881 1031.0684,304.3121 1031.7904,305.8511 C1033.8804,310.2991 1035.9904,314.7621 1037.4824,319.4551 C1038.8424,323.7321 1039.5074,328.1171 1039.5714,332.6001 C1039.6904,341.0131 1038.1834,349.8351 1034.3574,357.3871 C1033.3584,359.3601 1032.1314,361.1901 1030.9074,363.0291 C1029.4664,365.1941 1027.9994,367.3421 1026.5404,369.4941 C1023.6654,373.7351 1020.8334,378.0011 1018.2594,382.4331 C1015.8394,386.6011 1014.0894,391.0861 1011.0814,394.8981 C1008.2874,398.4391 1004.5604,401.1411 1000.9044,403.7211 Z M1011.3353,404.3601 C1009.6173,406.8281 1008.0043,409.3671 1006.4783,411.9571 C1005.6103,410.8831 1004.7523,409.8011 1003.9133,408.7041 C1004.6753,406.8041 1005.8013,405.0321 1007.0163,403.3881 C1009.1753,400.4671 1011.6983,397.8401 1013.8903,394.9451 C1016.4833,391.5221 1018.4703,387.7451 1020.3783,383.9131 C1022.3533,379.9471 1024.3853,376.0431 1026.8063,372.3281 C1029.1833,368.6801 1031.7523,365.1591 1034.0553,361.4631 C1036.2573,357.9301 1037.9553,354.2271 1039.2203,350.2601 C1040.5033,346.2341 1041.3993,342.0911 1042.0983,337.9271 C1042.8213,333.6161 1043.1973,329.3101 1042.8953,324.9381 C1042.5893,320.4991 1041.7063,316.1091 1040.3783,311.8651 C1039.2913,308.3921 1037.9953,304.9721 1037.1053,301.4421 C1039.5563,302.3621 1042.0033,303.2951 1044.4463,304.2371 C1045.0033,310.9291 1047.5333,317.4431 1047.5763,324.2091 C1047.6053,328.7481 1047.2553,333.2851 1046.6203,337.7781 C1046.0243,341.9991 1045.2243,346.1821 1043.9253,350.2481 C1041.4593,357.9671 1037.5513,365.1851 1033.2853,372.0451 C1028.9013,379.0941 1025.2123,386.6411 1020.0693,393.1931 C1018.5963,395.0691 1016.9983,396.8431 1015.5203,398.7151 C1014.0683,400.5541 1012.6733,402.4381 1011.3353,404.3601 Z M1014.6768,405.319 C1012.3708,408.104 1009.8938,410.855 1008.2868,414.126 C1007.7438,413.481 1007.1948,412.84 1006.6628,412.186 C1010.1758,406.21 1014.2128,400.55 1018.7188,395.279 C1024.0928,388.992 1027.7968,381.597 1032.0518,374.563 C1036.2678,367.595 1040.4718,360.647 1043.2868,352.965 C1046.2288,344.936 1047.5058,336.23 1047.8038,327.707 C1047.8808,325.531 1047.9318,323.329 1047.7228,321.159 C1047.5338,319.194 1047.1798,317.249 1046.7838,315.317 C1046.0398,311.684 1045.1018,308.055 1044.7518,304.355 C1045.8718,304.787 1046.9928,305.216 1048.1108,305.655 C1049.9978,306.395 1051.8768,307.155 1053.7588,307.909 C1054.4778,313.552 1054.3008,319.323 1053.6928,324.956 C1052.8018,333.198 1051.0488,341.311 1048.0478,349.049 C1046.5138,353.007 1044.7158,356.857 1042.7948,360.641 C1040.8048,364.559 1038.8158,368.473 1036.7128,372.331 C1034.6168,376.177 1032.4358,379.977 1030.1368,383.705 C1028.9728,385.592 1027.7778,387.46 1026.5488,389.305 C1025.2968,391.182 1023.9218,392.974 1022.5808,394.788 C1019.9768,398.311 1017.4718,401.943 1014.6768,405.319 Z M1012.7905,418.0348 C1012.6075,418.2278 1012.4325,418.4278 1012.2535,418.6248 C1010.9675,417.2258 1009.7065,415.8078 1008.4825,414.3598 C1009.7905,411.6388 1011.7605,409.2458 1013.6845,406.9408 C1016.3565,403.7408 1018.7945,400.3758 1021.2715,397.0248 C1023.9595,393.3868 1026.6355,389.7738 1029.0595,385.9518 C1031.4265,382.2198 1033.6655,378.4078 1035.8125,374.5448 C1037.9525,370.6938 1040.0005,366.7918 1041.9865,362.8598 C1043.8915,359.0898 1045.7735,355.3118 1047.3965,351.4098 C1050.5605,343.8088 1052.5335,335.9078 1053.6295,327.7568 C1054.5045,321.2548 1054.8695,314.5638 1054.0535,308.0268 C1055.1035,308.4478 1056.1565,308.8588 1057.2055,309.2848 C1057.6555,309.4678 1058.1145,309.6458 1058.5755,309.8238 C1058.5035,311.9308 1058.5035,314.0428 1058.5195,316.1498 C1058.5545,320.5828 1058.6285,325.0058 1058.2665,329.4298 C1057.8915,334.0188 1057.2095,338.5858 1056.1575,343.0698 C1055.1115,347.5278 1053.7005,351.9068 1051.8475,356.0958 C1049.9695,360.3418 1047.6965,364.4358 1045.4215,368.4798 C1040.8835,376.5438 1035.8935,384.3458 1030.6815,391.9888 C1025.4555,399.6538 1020.0085,407.1628 1014.5585,414.6688 C1013.8755,415.6098 1013.1925,416.5508 1012.5095,417.4928 C1012.4035,417.6378 1012.6455,417.7768 1012.7495,417.6328 C1018.0545,410.3208 1023.3825,403.0238 1028.5325,395.6018 C1033.6565,388.2188 1038.6025,380.7068 1043.1625,372.9608 C1047.6225,365.3818 1052.0635,357.6038 1054.7555,349.1948 C1057.4055,340.9148 1058.7305,332.1198 1058.8305,323.4328 C1058.8815,318.9658 1058.6875,314.4268 1058.8325,309.9228 C1060.9245,310.7268 1063.0665,311.5378 1064.9105,312.7608 C1065.3885,313.0788 1065.8195,313.4248 1066.2275,313.7848 C1066.0225,315.6718 1065.7805,317.5458 1065.6815,319.4428 C1065.4455,323.9388 1065.1245,328.4358 1064.5005,332.8968 C1063.2965,341.5088 1060.7765,349.8998 1057.6005,357.9798 C1054.4495,365.9968 1050.6755,373.8998 1046.1945,381.2638 C1041.7945,388.4938 1036.3945,395.0808 1030.5925,401.2258 C1027.7545,404.2318 1024.8425,407.2078 1021.7525,409.9578 C1018.7495,412.6308 1015.5635,415.1138 1012.7905,418.0348 Z M1016.3997,419.3833 C1015.7197,419.8723 1015.0447,420.3703 1014.3807,420.8823 C1013.7287,420.2053 1013.0807,419.5233 1012.4437,418.8333 C1014.6917,416.3613 1017.2617,414.2003 1019.7957,412.0283 C1022.9377,409.3343 1025.9047,406.4653 1028.7937,403.5023 C1034.7187,397.4243 1040.2757,390.9303 1044.9177,383.8093 C1049.5887,376.6443 1053.4147,368.8133 1056.7037,360.9293 C1060.0817,352.8333 1062.8727,344.3853 1064.3437,335.7223 C1065.0867,331.3523 1065.5007,326.9333 1065.7827,322.5113 C1065.9147,320.4393 1065.9767,318.3643 1066.2127,316.3003 C1066.2997,315.5373 1066.3937,314.7743 1066.4807,314.0093 C1069.3797,316.7033 1070.5397,320.4283 1071.3557,324.2793 C1071.3197,324.4063 1071.2837,324.5333 1071.2487,324.6603 C1069.9237,329.3853 1068.9787,334.1993 1067.9777,339.0013 C1065.9627,348.6543 1063.8517,358.3293 1060.1417,367.4993 C1056.6627,376.0993 1051.9127,384.1293 1046.1357,391.3833 C1040.3727,398.6183 1033.7607,405.2723 1026.6547,411.1873 C1024.6667,412.8423 1022.6547,414.4683 1020.6837,416.1443 C1019.3117,417.3123 1017.8607,418.3313 1016.3997,419.3833 Z M1070.7367,327.6003 C1070.9707,326.6913 1071.2237,325.7843 1071.4797,324.8773 C1071.7197,326.0623 1071.9367,327.2553 1072.1667,328.4303 C1073.3517,334.4913 1074.2787,340.6003 1075.0117,346.7323 C1075.1557,347.9413 1075.2837,349.1533 1075.4087,350.3663 C1074.8477,351.4823 1074.2827,352.5973 1073.7117,353.7083 C1071.9587,357.1193 1070.1827,360.5193 1068.5437,363.9863 C1065.5687,370.2813 1063.5187,376.9513 1060.1637,383.0733 C1057.0827,388.6933 1053.1867,393.8133 1048.6217,398.3103 C1043.2847,403.5683 1037.2267,407.9823 1031.2117,412.4173 C1027.9527,414.8193 1024.6577,417.1863 1021.7097,419.9723 C1020.2987,421.3053 1018.9567,422.7053 1017.6497,424.1383 C1016.6027,423.1373 1015.5767,422.1183 1014.5737,421.0813 C1014.9277,420.8093 1015.2837,420.5413 1015.6427,420.2773 C1016.9307,419.3253 1018.2607,418.4303 1019.5417,417.4683 C1021.4717,416.0193 1023.2677,414.3423 1025.1327,412.8063 C1032.3747,406.8413 1039.1557,400.3073 1045.1317,393.0613 C1050.8287,386.1523 1055.5907,378.5603 1059.2247,370.3713 C1063.2217,361.3623 1065.5587,351.7843 1067.5947,342.1753 C1068.6237,337.3193 1069.4967,332.4073 1070.7367,327.6003 Z M1031.2645,416.9408 C1027.3955,419.9938 1023.7125,423.3598 1020.7045,427.2718 C1020.2845,426.9018 1019.9075,426.4498 1019.5905,425.9088 C1019.5155,425.7798 1019.4485,425.6438 1019.3845,425.5068 C1018.9475,425.2698 1018.5185,424.9698 1018.1065,424.5818 C1018.0205,424.4998 1017.9375,424.4158 1017.8515,424.3338 C1018.8245,423.2678 1019.8125,422.2158 1020.8395,421.2008 C1023.4595,418.6108 1026.3375,416.3798 1029.2885,414.1848 C1035.1915,409.7928 1041.2315,405.5508 1046.6565,400.5608 C1051.3325,396.2588 1055.4655,391.4308 1058.7865,386.0058 C1060.4165,383.3418 1061.8535,380.5638 1063.1235,377.7118 C1064.5225,374.5738 1065.6175,371.3178 1066.9645,368.1598 C1068.6395,364.2358 1070.5685,360.4278 1072.5175,356.6348 C1073.4705,354.7818 1074.4295,352.9308 1075.3685,351.0708 C1075.4015,351.0068 1075.4325,350.9418 1075.4645,350.8778 C1076.2175,358.3188 1076.6005,365.7958 1076.6275,373.2748 C1075.7225,374.2388 1074.8395,375.2228 1073.9785,376.2278 C1072.1345,378.3818 1070.3835,380.6118 1068.6555,382.8588 C1065.1035,387.4778 1061.6435,392.1868 1057.6635,396.4548 C1050.0105,404.6648 1040.0095,410.0388 1031.2645,416.9408 Z M1036.8621,423.2629 C1033.6691,424.8639 1030.4521,426.4159 1027.2051,427.9049 C1025.0771,428.8809 1022.6581,428.8229 1020.9131,427.4409 C1026.7881,419.7489 1035.1931,414.2389 1043.0451,408.7689 C1047.4171,405.7239 1051.8071,402.6739 1055.6291,398.9399 C1059.6041,395.0559 1063.0321,390.6659 1066.4021,386.2599 C1068.3371,383.7289 1070.2581,381.1879 1072.2671,378.7149 C1073.2811,377.4679 1074.3161,376.2389 1075.3851,375.0389 C1075.7941,374.5809 1076.2111,374.1299 1076.62947,373.6809 C1076.6341,376.2229 1076.5881,378.7639 1076.5101,381.3039 C1071.0691,386.3919 1066.3101,392.1989 1061.4771,397.8489 C1055.1131,405.2889 1048.4121,412.3989 1041.3031,419.1319 C1039.8351,420.5229 1038.3521,421.8959 1036.8621,423.2629 Z M1069.7235,388.7218 C1071.8945,386.3008 1074.1335,383.9318 1076.4985,381.6998 C1076.4805,382.2638 1076.4725,382.8288 1076.4495,383.3928 C1076.2135,389.1798 1076.7095,396.4488 1072.8285,401.1818 C1069.3495,405.4238 1063.4385,408.2558 1058.8115,411.0888 C1051.9625,415.2818 1044.9405,419.1798 1037.7765,422.8028 C1042.2505,418.6788 1046.6365,414.4608 1050.8485,410.0688 C1057.4315,403.2038 1063.3785,395.7968 1069.7235,388.7218 Z M1007.8199,401.8864 C1006.2339,403.8904 1004.6919,406.0514 1003.7089,408.4344 C1002.6609,407.0574 1001.6289,405.6674 1000.6259,404.2574 C1003.6159,402.1574 1006.5919,400.0164 1009.1819,397.4334 C1010.7839,395.8344 1012.2059,394.0404 1013.3999,392.1174 C1014.6769,390.0614 1015.7059,387.8664 1016.7999,385.7114 C1019.1729,381.0404 1022.0729,376.6384 1024.9869,372.2934 C1026.4799,370.0664 1027.9939,367.8554 1029.4939,365.6334 C1030.8979,363.5544 1032.3609,361.4894 1033.6249,359.3204 C1037.9179,351.9494 1039.6719,343.0644 1039.8429,334.6104 C1039.9319,330.2394 1039.5439,325.8784 1038.4139,321.6464 C1037.1299,316.8324 1035.0919,312.2614 1032.9909,307.7594 C1032.0329,305.7034 1030.9099,303.6634 1030.1149,301.5384 C1029.7329,300.5154 1029.3969,299.4734 1029.0399,298.4414 C1029.6319,298.6574 1030.2229,298.8814 1030.8159,299.0984 C1032.8149,299.8304 1034.8069,300.5804 1036.8009,301.3284 C1037.3889,303.7054 1038.1579,306.0424 1038.9379,308.3654 C1040.3589,312.6014 1041.6019,316.8354 1042.2309,321.2694 C1043.4829,330.1044 1042.0739,339.0884 1039.7109,347.6284 C1038.5799,351.7194 1037.1099,355.7444 1034.9649,359.4184 C1032.7729,363.1754 1030.2299,366.7104 1027.8049,370.3174 C1025.3379,373.9874 1023.1469,377.7734 1021.1609,381.7234 C1019.1869,385.6494 1017.3129,389.6484 1014.7719,393.2504 C1012.6359,396.2784 1010.1169,398.9854 1007.8199,401.8864 Z M984.7528,321.6217 C984.7258,321.4447 984.4578,321.5197 984.4848,321.6957 C985.8638,330.8447 980.6958,338.8357 975.0248,345.4927 C973.7558,346.9827 972.4448,348.4337 971.1298,349.8817 C970.9588,349.4447 970.7858,349.0087 970.6258,348.5697 C970.1728,347.3247 969.8638,346.0797 969.6818,344.8427 C972.9098,339.4277 976.4388,333.8707 977.0698,327.5677 C979.6288,325.0257 982.4398,322.6947 985.1528,320.4037 C987.1398,318.7257 989.1658,317.0917 991.2198,315.4927 C991.2858,316.5067 991.2708,317.5207 991.2228,318.4847 C991.0678,321.5817 990.4818,324.6407 989.8768,327.6757 C988.3508,335.3387 984.3448,342.0787 979.9728,348.4377 C978.0548,351.2267 976.0828,353.9787 974.2118,356.7997 C973.1528,354.6167 972.1318,352.4147 971.2428,350.1757 C976.8508,344.0117 982.9348,337.3427 984.5968,328.9457 C985.0758,326.5267 985.1208,324.0587 984.7528,321.6217 Z M971.5841,341.0511 C970.9341,342.1681 970.2741,343.2781 969.6171,344.3911 C969.0861,340.0071 970.2521,335.7471 973.1091,332.0131 C974.2191,330.5621 975.4561,329.1991 976.7561,327.8871 C976.6611,328.7761 976.5111,329.6631 976.2931,330.5481 C975.3701,334.3001 973.5141,337.7341 971.5841,341.0511 Z" id="cri.planets-11"></path>
        </g>
    </g>
</svg>