<?xml version="1.0" encoding="UTF-8"?>
<svg width="108px" height="162px" viewBox="0 0 108 162" version="1.1" xmlns="http://www.w3.org/2000/svg" xmlns:xlink="http://www.w3.org/1999/xlink">
    <!-- Generator: Sketch 52.5 (67469) - http://www.bohemiancoding.com/sketch -->
    <title>cri.planets-7</title>
    <desc>Created with Sketch.</desc>
    <g id="Landing" stroke="none" stroke-width="1" fill="none" fill-rule="evenodd">
        <g id="Artboard" transform="translate(-1343.000000, -292.000000)" fill="#E05479">
            <path d="M1418.2988,349.7633 L1418.2668,349.7493 C1416.2468,348.8463 1414.5828,347.7953 1413.1788,346.5363 L1413.1248,346.4873 L1413.1868,346.4503 C1414.0658,345.9213 1415.0988,345.2803 1416.0928,344.5353 C1417.6398,343.3763 1418.8078,342.1713 1419.6618,340.8513 C1420.7198,339.2163 1421.4278,337.1913 1421.7668,334.8313 C1421.9368,333.6493 1422.0078,332.4373 1422.0768,331.2643 C1422.1498,330.0343 1422.2248,328.7633 1422.4128,327.5243 C1422.6078,326.2433 1422.9418,324.8903 1423.4668,323.2683 C1424.6708,319.5453 1426.2808,316.4833 1428.2518,314.1663 C1429.4438,312.7653 1430.7768,311.7253 1432.2118,311.0753 L1432.2368,311.0633 L1432.4538,311.1803 C1432.6918,311.3073 1432.9298,311.4353 1433.1668,311.5663 L1433.2328,311.6023 L1433.1768,311.6533 C1432.7198,312.0673 1432.2728,312.6103 1431.8498,313.2693 C1430.1398,315.9253 1429.1688,319.1563 1428.3948,321.9763 C1427.5698,324.9753 1426.9278,327.9993 1426.4858,330.9663 C1426.3468,331.8993 1426.2698,332.8453 1426.1958,333.7613 L1426.1558,334.2493 C1425.9138,337.1793 1425.1948,339.9343 1424.0198,342.4363 C1423.2258,344.1273 1422.4038,345.4723 1421.5068,346.5503 C1420.5888,347.6513 1419.5248,348.6333 1418.5858,349.4993 L1418.2988,349.7633 Z M1400.6902,315.1703 L1400.6732,315.1013 C1399.8112,311.6653 1399.1692,308.5133 1398.7112,305.4633 C1398.6212,304.8673 1398.5492,304.3423 1398.4902,303.8583 L1398.4812,303.7883 L1398.5512,303.7983 C1401.8392,304.2653 1404.8032,304.5733 1407.7802,303.6143 C1409.4182,303.0873 1410.9712,302.2733 1412.4732,301.4853 C1412.9032,301.2603 1413.3482,301.0273 1413.7872,300.8053 C1416.1452,299.6113 1418.1542,298.6903 1420.2902,298.0753 C1421.1672,297.8233 1422.0292,297.6493 1422.8522,297.5593 L1422.8772,297.5563 L1422.8962,297.5743 C1423.5602,298.2193 1424.2042,298.9593 1424.8122,299.7743 L1424.8812,299.8673 L1424.7652,299.8603 C1421.3172,299.6643 1417.7052,301.6473 1414.9462,303.3943 C1412.9852,304.6363 1411.0962,305.9833 1409.3312,307.3973 C1408.0732,308.4063 1406.9432,309.5933 1405.8512,310.7413 C1405.2702,311.3513 1404.6702,311.9823 1404.0572,312.5783 C1402.9332,313.6733 1401.8522,314.5093 1400.7522,315.1353 L1400.6902,315.1703 Z M1398.6815,298.6422 C1398.6055,298.6422 1398.5295,298.6412 1398.4535,298.6402 L1398.3925,298.6392 L1398.4005,298.5792 C1398.9095,295.0042 1400.9465,293.1352 1404.6285,292.8622 C1408.0335,292.6102 1412.9985,292.6352 1417.3185,294.1802 L1417.5555,294.2652 L1417.3045,294.2852 C1414.4265,294.5122 1411.5245,295.4842 1408.7185,296.4232 C1405.4565,297.5142 1402.0865,298.6422 1398.6815,298.6422 Z M1403.308,304.099 C1403.031,304.099 1402.754,304.091 1402.477,304.075 C1401.164,303.999 1399.847,303.809 1398.5,303.605 L1398.459,303.599 L1398.455,303.558 C1398.238,301.672 1398.206,300.189 1398.355,298.89 L1398.361,298.841 L1398.41,298.842 C1401.864,298.88 1405.303,297.739 1408.626,296.63 C1411.693,295.607 1414.865,294.549 1418.016,294.449 L1418.027,294.448 L1418.038,294.453 C1418.947,294.821 1419.785,295.242 1420.527,295.705 C1421.196,296.123 1421.859,296.634 1422.551,297.267 L1422.636,297.345 L1422.521,297.36 C1420.165,297.674 1417.831,298.649 1415.859,299.562 C1414.778,300.062 1413.704,300.619 1412.664,301.157 C1411.748,301.632 1410.8,302.123 1409.851,302.573 C1407.717,303.587 1405.52,304.099 1403.308,304.099 Z M1403.7094,325.5908 L1403.6554,325.4188 C1403.6444,325.3818 1403.6324,325.3448 1403.6214,325.3088 C1402.4524,321.6618 1401.5124,318.4228 1400.7474,315.4048 L1400.7364,315.3658 L1400.7724,315.3448 C1402.7864,314.1948 1404.4964,312.4278 1406.1504,310.7198 C1406.6244,310.2298 1407.1134,309.7248 1407.6014,309.2418 C1409.2694,307.5958 1411.2154,306.1958 1413.0654,304.9028 C1414.8434,303.6608 1417.2194,302.1028 1419.8324,301.0648 L1419.8524,301.1148 L1419.8324,301.0648 C1421.7514,300.3018 1423.5024,299.9808 1425.0364,300.1088 L1425.0614,300.1118 L1425.0754,300.1318 C1425.4484,300.6528 1425.8094,301.2008 1426.1494,301.7608 L1426.1834,301.8158 L1426.1234,301.8388 C1425.5214,302.0708 1424.9054,302.3398 1424.2934,302.6388 C1421.6314,303.9408 1419.1364,305.7108 1417.0784,307.7608 C1415.8064,309.0268 1414.9024,310.1888 1414.2334,311.4168 C1413.8184,312.1788 1413.4344,312.9728 1413.0634,313.7408 C1412.6864,314.5198 1412.2964,315.3258 1411.8734,316.1008 C1410.3324,318.9218 1408.2024,321.5848 1405.5444,324.0128 C1405.0274,324.4858 1404.4474,324.9848 1403.7714,325.5398 L1403.7094,325.5908 Z M1406.3408,334.1279 L1406.3128,334.0449 C1405.7648,332.3899 1405.2618,330.7099 1404.7748,329.0859 C1404.4388,327.9649 1404.1218,326.9069 1403.7898,325.8529 L1403.7788,325.8179 L1403.8078,325.7949 C1406.6608,323.4699 1408.8848,321.1159 1410.6058,318.5999 C1411.4438,317.3749 1412.2438,315.9729 1413.0508,314.3149 C1413.1928,314.0239 1413.3308,313.7299 1413.4698,313.4359 C1414.0238,312.2649 1414.5958,311.0539 1415.3748,309.9839 C1416.9548,307.8169 1419.3108,305.7789 1422.3768,303.9279 C1423.7428,303.1029 1425.0058,302.4719 1426.2378,301.9989 L1426.2798,301.9829 L1426.3768,302.1459 C1426.4868,302.3299 1426.5968,302.5139 1426.7028,302.7009 L1426.7318,302.7539 L1426.6758,302.7779 C1426.3278,302.9239 1425.9628,303.0949 1425.5608,303.2989 C1424.3288,303.9239 1422.9108,304.7309 1421.7428,305.9759 C1419.5808,308.2789 1418.5588,311.4039 1417.7718,314.1529 C1417.6498,314.5779 1417.5308,315.0039 1417.4118,315.4279 C1416.6748,318.0579 1415.9128,320.7759 1414.5478,323.2489 C1412.8308,326.3589 1410.6968,329.3519 1408.2058,332.1439 C1407.5838,332.8419 1406.9938,333.4699 1406.4028,334.0659 L1406.3408,334.1279 Z M1408.0818,338.7722 L1408.0508,338.7012 C1407.5098,337.4432 1406.9928,336.0662 1406.4218,334.3662 L1406.4118,334.3352 L1406.4808,334.2682 C1406.4958,334.2532 1406.5118,334.2382 1406.5268,334.2232 C1408.9668,331.8082 1411.2278,328.9872 1413.2468,325.8372 C1414.9698,323.1512 1416.2208,320.4032 1417.0728,317.4382 C1417.2378,316.8632 1417.3988,316.2732 1417.5548,315.7022 C1418.2358,313.2032 1418.9408,310.6192 1420.2608,308.3432 C1421.2628,306.6172 1422.5608,305.2642 1424.1198,304.3242 C1424.9398,303.8292 1425.8298,303.3172 1426.7748,302.9292 L1426.8188,302.9102 L1426.8418,302.9522 C1427.2958,303.7702 1427.7528,304.6602 1428.2398,305.6722 L1428.2638,305.7212 L1428.2138,305.7442 C1426.7018,306.4312 1425.4398,307.1492 1424.3548,307.9382 C1422.9838,308.9352 1421.8358,310.1022 1420.9398,311.4072 C1419.7768,313.1022 1419.1028,315.0322 1418.5478,316.8662 C1418.0978,318.3542 1417.7188,319.8852 1417.3528,321.3662 C1416.5758,324.5052 1415.7728,327.7502 1414.2508,330.7282 C1412.8708,333.4292 1410.7998,336.1512 1408.2628,338.6002 L1408.0818,338.7722 Z M1410.5229,343.4064 L1410.4919,343.3594 C1409.6679,342.0914 1408.9139,340.6724 1408.1869,339.0204 L1408.1719,338.9854 L1408.1999,338.9594 C1410.0099,337.2664 1411.6829,335.2554 1413.1709,332.9814 C1415.5459,329.3524 1416.6759,325.1774 1417.5479,321.5484 L1417.6919,320.9494 C1418.6849,316.7924 1419.7119,312.4944 1422.8789,309.4434 C1424.2929,308.0814 1426.0169,306.9634 1428.3029,305.9254 L1428.3509,305.9034 L1428.3739,305.9514 C1428.7149,306.6644 1429.0489,307.3864 1429.3729,308.0854 L1429.5889,308.5504 L1429.2469,308.6774 C1428.0519,309.1214 1426.8159,309.5814 1425.7729,310.2774 C1422.9759,312.1434 1421.6329,315.5754 1420.4969,318.9304 C1419.3939,322.1904 1418.9899,325.6534 1418.5989,329.0014 C1418.5539,329.3934 1418.5079,329.7844 1418.4609,330.1764 C1418.0829,333.3474 1416.8419,336.3704 1414.7739,339.1614 C1413.5179,340.8574 1412.1029,342.2744 1410.5689,343.3734 L1410.5229,343.4064 Z M1412.9824,346.3463 L1412.9524,346.3183 C1412.1094,345.5313 1411.4034,344.7163 1410.7944,343.8263 C1410.7744,343.7963 1410.7544,343.7653 1410.7354,343.7343 C1410.7174,343.7073 1410.7004,343.6803 1410.6824,343.6533 L1410.6534,343.6093 L1410.6964,343.5793 C1414.1574,341.1513 1416.9484,337.1663 1418.1614,332.9203 C1418.5344,331.6113 1418.6824,330.2343 1418.8254,328.9023 C1418.8594,328.5813 1418.8944,328.2613 1418.9314,327.9413 C1419.1594,325.9953 1419.4204,323.9253 1419.8844,321.8933 C1420.3394,319.8983 1421.0534,318.0173 1421.8064,316.1063 C1422.6344,314.0063 1423.6624,312.4033 1424.9504,311.2073 C1426.2024,310.0453 1427.8294,309.4343 1429.4034,308.8443 L1429.6774,308.7413 L1429.6984,308.7863 C1429.8994,309.2163 1430.0994,309.6453 1430.3014,310.0653 C1430.7784,310.2983 1431.2994,310.5643 1431.8934,310.8783 L1431.9854,310.9273 L1431.8914,310.9743 C1427.8804,312.9823 1425.3714,317.8593 1424.2334,320.5873 C1422.9174,323.7403 1422.1654,326.9993 1421.9344,330.5513 L1421.9234,330.7223 C1421.7604,333.2263 1421.5924,335.8163 1420.6984,338.2363 C1419.9604,340.2373 1418.7654,341.9773 1417.1494,343.4093 C1415.8124,344.5933 1414.3104,345.5473 1413.0174,346.3253 L1412.9824,346.3463 Z M1423.6862,351.6217 L1423.6512,351.6117 C1421.6862,351.0767 1420.0162,350.5057 1418.5462,349.8687 L1418.4702,349.8357 L1418.6182,349.6987 C1420.1672,348.2647 1421.7702,346.7827 1422.8902,344.9647 C1424.2522,342.7537 1425.2322,340.3837 1425.8012,337.9207 C1426.1112,336.5787 1426.2382,335.2047 1426.3602,333.8767 C1426.4042,333.4047 1426.4492,332.9167 1426.5012,332.4347 C1426.8102,329.6127 1427.4162,326.8377 1427.9102,324.7367 C1428.5862,321.8627 1429.4732,318.5047 1430.9352,315.3927 C1431.4622,314.2717 1432.2862,312.6717 1433.3652,311.7187 L1433.3942,311.6937 L1433.4282,311.7117 C1435.3602,312.7927 1437.0482,313.8587 1438.5882,314.9707 L1438.6582,315.0207 L1438.5822,315.0617 C1437.1382,315.8377 1435.6292,316.8617 1433.9692,318.1907 C1432.1832,319.6187 1430.9012,320.8797 1429.9312,322.1587 C1428.7052,323.7787 1427.8402,325.8777 1427.4312,328.2287 C1427.0662,330.3217 1427.1772,332.3397 1427.2942,334.4757 L1427.3252,335.0327 C1427.4292,336.9977 1427.4222,338.7727 1427.3042,340.4597 C1427.0172,344.5347 1426.0912,347.8127 1424.4742,350.4807 C1424.2302,350.8827 1423.9622,351.2527 1423.7082,351.5927 L1423.6862,351.6217 Z M1429.9084,352.9126 L1429.8714,352.9086 C1428.5354,352.7456 1427.1464,352.4906 1425.7444,352.1496 C1425.1734,352.0106 1424.5844,351.8606 1423.9944,351.7026 L1423.9184,351.6826 L1423.9644,351.6196 C1425.5064,349.4786 1426.5684,346.8156 1427.1214,343.7016 C1427.7444,340.1856 1427.5774,336.7756 1427.3994,333.1666 L1427.3884,332.9426 C1427.2514,330.1386 1427.5644,327.7336 1428.3484,325.5916 C1429.0554,323.6556 1430.2504,321.8906 1432.0014,320.1966 C1433.6844,318.5676 1435.5704,317.1266 1437.6064,315.9106 C1438.0024,315.6746 1438.4224,315.4386 1438.8544,315.2086 L1438.8834,315.1926 L1438.9114,315.2126 C1439.7454,315.8266 1440.4784,316.4026 1441.1534,316.9726 L1441.2474,317.0526 L1441.1254,317.0676 C1439.2014,317.2996 1437.4024,318.5266 1435.7784,320.7136 C1434.5594,322.3546 1433.4674,324.5496 1432.7834,326.7346 C1431.8154,329.8286 1432.0154,333.1556 1432.2084,336.3746 L1432.2414,336.9236 C1432.2624,337.2876 1432.2854,337.6526 1432.3084,338.0166 C1432.5454,341.8236 1432.7924,345.7606 1431.4544,349.4566 C1431.0514,350.5716 1430.5374,351.7226 1429.9264,352.8796 L1429.9084,352.9126 Z M1433.1064,353.1151 C1432.1694,353.1151 1431.1954,353.0591 1430.1934,352.9491 L1430.1144,352.9401 L1430.1514,352.8701 C1430.3484,352.4951 1430.5204,352.1571 1430.6754,351.8331 C1431.5054,350.1111 1432.0604,348.5401 1432.3744,347.0301 C1432.7514,345.2141 1432.7364,343.3281 1432.6894,341.5511 C1432.6544,340.2581 1432.5614,338.9271 1432.4704,337.6411 C1432.2704,334.7931 1432.0624,331.8481 1432.4664,329.0031 C1432.8814,326.0701 1434.2394,323.4971 1435.3044,321.8551 C1437.6364,318.2601 1439.9334,317.3671 1441.4484,317.2511 L1441.4714,317.2491 L1441.4884,317.2641 C1442.4124,318.0641 1443.1494,318.7561 1443.8074,319.4401 L1443.8494,319.4841 L1443.8014,319.5201 C1441.8024,321.0371 1440.3234,322.3991 1439.1474,323.8081 C1437.8874,325.3161 1437.0854,326.7641 1436.6974,328.2331 C1436.2574,329.8921 1436.3694,331.7461 1437.0374,333.8991 C1437.3334,334.8551 1437.7074,335.8031 1438.0694,336.7191 C1438.5304,337.8881 1439.0074,339.0981 1439.3294,340.3381 C1439.7104,341.8031 1439.6594,343.1511 1439.1584,344.8451 C1438.3644,347.5301 1436.9374,350.2821 1434.9184,353.0231 L1434.9034,353.0431 L1434.8794,353.0451 C1434.3064,353.0921 1433.7144,353.1151 1433.1064,353.1151 Z M1435.1959,353.0205 L1435.2669,352.9225 C1436.5609,351.1335 1437.6589,349.1995 1438.5279,347.1745 C1439.1789,345.6555 1439.5659,344.4045 1439.7439,343.2365 C1440.0009,341.5515 1439.4939,339.9495 1438.9529,338.4525 C1438.7409,337.8665 1438.5049,337.2725 1438.2769,336.6975 C1437.6559,335.1335 1437.0139,333.5155 1436.7539,331.8245 C1436.4289,329.7185 1436.8459,327.6825 1437.9919,325.7735 C1439.5959,323.0995 1442.0149,321.0975 1443.9429,319.6515 L1443.9819,319.6225 L1444.0149,319.6575 C1444.4429,320.1115 1444.7859,320.4925 1445.0939,320.8555 L1445.1159,320.8815 L1445.1019,320.9125 C1444.6239,321.9845 1443.9219,322.9395 1443.2439,323.8635 C1442.2019,325.2835 1441.1249,326.7515 1440.8829,328.6365 C1440.6399,330.5355 1441.4729,332.2175 1442.2789,333.8435 C1442.6549,334.6035 1443.0449,335.3895 1443.3209,336.1885 C1445.3589,342.0915 1442.1979,347.4635 1438.4769,352.3885 L1438.4659,352.4035 L1438.4489,352.4085 C1437.4619,352.6935 1436.4079,352.8955 1435.3159,353.0085 L1435.1959,353.0205 Z M1438.8044,352.3044 L1438.9044,352.1684 C1440.2354,350.3684 1441.3144,348.6874 1442.2024,347.0314 C1443.9174,343.8324 1444.5224,340.9494 1444.0504,338.2174 C1443.8254,336.9154 1443.3794,335.5954 1442.6874,334.1814 C1442.5844,333.9714 1442.4784,333.7614 1442.3724,333.5514 C1441.8764,332.5694 1441.3634,331.5544 1441.1524,330.4564 C1440.6464,327.8204 1442.0594,325.8714 1443.4244,323.9874 C1444.0804,323.0824 1444.7574,322.1474 1445.2254,321.1404 L1445.2624,321.0624 L1445.3164,321.1284 C1449.4854,326.1734 1451.1644,331.7834 1450.3074,337.8014 C1449.5924,342.8184 1447.0154,347.2914 1443.2384,350.0714 C1441.9624,351.0104 1440.5244,351.7444 1438.9644,352.2524 L1438.8044,352.3044 Z M1350.1729,434.7433 L1350.1369,434.6883 C1349.2439,433.3233 1348.4429,431.7713 1347.7559,430.0753 L1347.7419,430.0433 L1347.8969,429.8853 C1348.8909,428.8683 1349.7429,428.0703 1350.5789,427.3743 C1352.5139,425.7643 1354.4989,424.7753 1356.6489,424.3513 C1360.8819,423.5173 1365.2289,424.5023 1369.4319,425.4553 C1369.7699,425.5313 1370.1059,425.6083 1370.4409,425.6833 L1370.5439,425.7063 C1372.5949,426.1653 1374.7149,426.6393 1376.8339,426.8933 C1378.5119,427.0943 1380.2119,427.1093 1381.6539,427.0983 C1390.6739,427.0253 1395.3629,424.5193 1395.5899,419.6513 C1395.6909,417.5053 1394.8039,415.3633 1393.8859,413.3523 C1393.6479,412.8303 1393.3919,412.3003 1393.1439,411.7873 C1392.3449,410.1343 1391.5179,408.4243 1391.1059,406.6103 C1390.2159,402.6933 1389.9959,398.3213 1390.4669,393.9663 C1390.9899,389.1413 1392.3689,385.0283 1394.5679,381.7413 C1397.0799,377.9833 1400.9789,375.6483 1404.7479,373.3893 C1405.1989,373.1193 1405.6479,372.8503 1406.0939,372.5793 C1407.2199,371.8953 1408.2209,371.2513 1409.1539,370.6103 L1409.2019,370.5773 L1409.2309,370.6283 C1409.2499,370.6603 1409.2849,370.6833 1409.3209,370.6873 C1409.3389,370.6893 1409.3649,370.6873 1409.3849,370.6653 L1409.4179,370.6313 L1409.4559,370.6593 C1410.0589,371.0943 1410.6599,371.5323 1411.2609,371.9693 C1411.6739,372.2703 1412.0869,372.5713 1412.5009,372.8713 L1412.5789,372.9283 L1412.4899,372.9653 C1406.2239,375.5613 1401.9019,378.8303 1399.2789,382.9623 C1397.3479,386.0043 1396.5629,389.5403 1397.0089,393.1893 C1397.3719,396.1603 1398.5769,398.9603 1399.7429,401.6683 C1400.2689,402.8913 1400.8139,404.1553 1401.2709,405.4153 C1403.0439,410.3023 1402.9779,414.8233 1401.0789,418.4913 C1399.4699,421.5993 1396.4879,424.2073 1392.4539,426.0343 C1386.1709,428.8803 1379.3379,428.8803 1372.7309,428.8783 C1371.8019,428.8783 1370.8439,428.8783 1369.9009,428.8863 L1369.9009,428.8323 L1369.9009,428.8863 C1362.7319,428.9453 1355.3859,429.6903 1350.2199,434.6973 L1350.1729,434.7433 Z M1353.0284,438.165 L1353.0034,438.142 C1352.0344,437.225 1351.1354,436.159 1350.3324,434.973 L1350.3064,434.935 L1350.3394,434.904 C1352.3324,432.974 1354.6954,431.547 1357.3624,430.661 C1361.0604,429.433 1365.0214,429.192 1368.4074,429.119 C1369.9294,429.086 1371.4804,429.087 1372.9794,429.089 C1378.7934,429.097 1384.8064,429.104 1390.4654,427.064 C1394.3624,425.659 1397.4024,423.69 1399.5024,421.209 C1401.9504,418.315 1403.1294,414.419 1402.7354,410.519 C1402.4194,407.386 1401.1684,404.456 1399.9584,401.622 C1399.5214,400.597 1399.0694,399.538 1398.6694,398.486 C1396.9244,393.903 1396.6624,389.943 1397.8664,386.38 C1399.7234,380.886 1404.7354,376.415 1412.7624,373.093 L1412.7894,373.082 L1412.8144,373.099 C1413.6114,373.678 1414.4074,374.259 1415.2024,374.841 L1416.3254,375.66 L1416.2614,375.703 C1412.4554,378.269 1408.1804,381.388 1405.6134,385.949 C1403.5354,389.641 1402.5844,394.254 1402.6194,400.466 C1402.6384,403.741 1402.9574,406.208 1403.6554,408.468 C1403.8944,409.243 1404.1704,410.025 1404.4364,410.781 C1405.0054,412.393 1405.5934,414.061 1405.8724,415.781 C1406.4874,419.579 1405.3114,423.173 1402.6444,425.643 C1399.9374,428.151 1396.3724,429.411 1393.5684,430.228 C1390.4004,431.152 1387.1044,431.723 1383.9164,432.276 C1381.4684,432.701 1378.9874,433.184 1376.5884,433.651 C1373.4084,434.269 1370.1214,434.909 1366.8674,435.421 C1365.8194,435.587 1364.7484,435.735 1363.7124,435.879 C1361.0654,436.246 1358.3284,436.626 1355.7044,437.318 C1354.7254,437.575 1353.8604,437.849 1353.0594,438.153 L1353.0284,438.165 Z M1361.7594,443.0171 L1361.7324,443.0081 C1359.0244,442.0611 1355.9024,440.7741 1353.2764,438.4051 L1353.2104,438.3461 L1353.2824,438.3041 C1353.6964,438.1471 1354.1314,437.9971 1354.5744,437.8601 C1357.4914,436.9551 1360.5724,436.5261 1363.5514,436.1111 C1363.9114,436.0611 1364.2714,436.0111 1364.6304,435.9601 C1368.3084,435.4391 1372.0134,434.7201 1375.5954,434.0241 C1377.7974,433.5971 1380.0754,433.1541 1382.3244,432.7631 C1382.7964,432.6801 1383.2694,432.5991 1383.7414,432.5181 C1386.5434,432.0361 1389.4404,431.5381 1392.2384,430.8131 C1400.7624,428.6021 1405.3014,424.9631 1406.1164,419.6861 C1406.6014,416.5411 1405.5954,413.5971 1404.6224,410.7491 C1404.1324,409.3151 1403.6254,407.8321 1403.3094,406.3311 C1402.6714,403.3031 1402.7594,400.0731 1402.9074,397.5971 C1403.0344,395.4741 1403.3194,392.3111 1404.3214,389.3611 C1406.4414,383.1191 1411.5144,379.2661 1416.5294,375.8541 L1416.5604,375.8321 L1416.5914,375.8551 C1419.3664,377.8821 1421.7844,379.6661 1423.9854,381.3111 L1424.0454,381.3561 L1423.9824,381.3991 C1418.0624,385.3851 1413.8004,389.5631 1410.9534,394.1731 C1408.8904,397.5111 1407.6814,401.0641 1407.3584,404.7311 C1407.1114,407.5341 1407.3694,410.3331 1407.6194,413.0411 C1407.7234,414.1641 1407.8304,415.3261 1407.9004,416.4781 C1408.0724,419.2741 1408.1094,422.2411 1407.2314,424.9931 C1406.3994,427.6011 1404.6134,429.7891 1402.0684,431.3211 C1398.3934,433.5311 1393.9844,434.2851 1389.7664,434.7701 C1388.2954,434.9391 1386.7954,435.0751 1385.3454,435.2071 C1382.3284,435.4811 1379.2094,435.7641 1376.1844,436.3601 C1371.3574,437.3091 1366.5124,439.5431 1361.7824,443.0001 L1361.7594,443.0171 Z M1368.4304,445.1619 L1366.2714,444.4769 C1365.9354,444.3709 1365.5974,444.2649 1365.2604,444.1579 C1364.2204,443.8319 1363.1444,443.4939 1362.0954,443.1349 L1361.9974,443.0999 L1362.0814,443.0399 C1366.0684,440.1469 1370.1384,438.1269 1374.1804,437.0339 C1377.7804,436.0609 1381.6004,435.7509 1385.2934,435.4509 C1390.3384,435.0419 1395.5534,434.6189 1400.2644,432.4969 C1403.0854,431.2269 1405.1494,429.5069 1406.4004,427.3859 C1407.5064,425.5089 1408.0914,423.1409 1408.1874,420.1459 C1408.2564,417.9799 1408.0394,415.8039 1407.8294,413.6989 C1407.7034,412.4399 1407.5744,411.1379 1407.5064,409.8469 C1407.2534,405.0409 1407.8824,401.0049 1409.4274,397.5089 C1412.0044,391.6779 1416.8344,386.4459 1424.1954,381.5119 L1424.2274,381.4909 L1424.2574,381.5139 C1424.3484,381.5819 1424.4404,381.6499 1424.5324,381.7179 C1424.6334,381.7929 1424.7354,381.8689 1424.8374,381.9449 C1427.6564,384.0609 1429.6684,385.9869 1431.1684,388.0059 L1431.2034,388.0529 L1431.1534,388.0829 C1429.1854,389.3139 1427.4404,390.5469 1425.8204,391.8549 C1420.4274,396.2059 1418.6774,399.0839 1417.7554,401.1059 C1416.1614,404.5989 1415.8404,408.4919 1415.5314,412.2559 L1415.5264,412.3099 C1415.1904,416.3939 1414.8014,420.0559 1413.4464,423.5179 C1412.3594,426.2949 1410.6554,428.6999 1408.5184,430.4699 C1406.6404,432.0269 1404.2534,433.2829 1401.2224,434.3109 C1398.0344,435.3929 1394.6934,436.1399 1391.4634,436.8619 C1388.7594,437.4659 1385.9634,438.0909 1383.2714,438.9089 C1377.5224,440.6569 1372.6744,442.6979 1368.4514,445.1499 L1368.4304,445.1619 Z M1375.5109,447.4072 L1368.7039,445.2482 L1368.8109,445.1872 C1372.5119,443.0692 1376.6879,441.2622 1381.5769,439.6652 C1384.8019,438.6112 1388.1519,437.8452 1391.3909,437.1052 C1394.1999,436.4632 1397.1039,435.8002 1399.9119,434.9512 C1405.9489,433.1282 1410.0279,430.2722 1412.3809,426.2222 C1414.8069,422.0462 1415.2299,417.3132 1415.6389,412.7352 C1415.8659,410.1882 1416.1009,407.5532 1416.6769,405.0302 C1417.2329,402.5962 1418.1329,400.4752 1419.3519,398.7252 C1420.8319,396.6022 1422.7869,394.7612 1424.3239,393.3962 C1426.3609,391.5862 1428.6369,389.9042 1431.2839,388.2522 L1431.3269,388.2252 L1431.3569,388.2662 C1432.6289,390.0382 1433.5029,391.8582 1434.0269,393.8292 C1434.2649,394.7262 1434.4449,395.6742 1434.5609,396.6482 L1434.5649,396.6812 L1434.5379,396.6992 C1431.3159,398.9072 1428.9219,400.9632 1427.0039,403.1712 C1424.3499,406.2262 1422.5099,409.2422 1421.5359,412.1362 C1420.7479,414.4762 1420.4599,416.9622 1420.1809,419.3672 C1420.0409,420.5812 1419.8949,421.8362 1419.6879,423.0582 C1418.9909,427.1492 1417.4749,430.1622 1415.0519,432.2682 C1413.7939,433.3612 1411.5559,434.9682 1406.6549,436.3012 C1405.0049,436.7502 1403.3039,437.0992 1401.6589,437.4372 C1400.3849,437.6992 1399.0679,437.9702 1397.7839,438.2852 C1394.0309,439.2052 1390.3259,440.5792 1386.7439,441.9082 C1386.3029,442.0722 1385.8629,442.2352 1385.4229,442.3972 C1384.9139,442.5852 1384.3909,442.7692 1383.8859,442.9472 C1382.3449,443.4902 1380.7519,444.0512 1379.2869,444.8072 L1379.2629,444.7592 L1379.2869,444.8072 C1378.0089,445.4672 1376.7459,446.3352 1375.5339,447.3872 L1375.5109,447.4072 Z M1384.2977,450.1976 L1384.1697,450.1566 C1383.6657,449.9956 1383.1637,449.8346 1382.6627,449.6756 L1375.7447,447.4816 L1375.8187,447.4186 C1376.6127,446.7386 1377.3737,446.1766 1378.1417,445.6996 C1379.7427,444.7066 1381.5167,444.0566 1383.2317,443.4286 L1383.6167,443.2876 C1384.1207,443.1016 1384.6257,442.9156 1385.1297,442.7296 C1388.7197,441.4046 1392.4317,440.0346 1396.1707,438.9486 C1397.9927,438.4196 1399.8797,438.0286 1401.7037,437.6516 C1402.9377,437.3956 1404.2137,437.1316 1405.4587,436.8266 C1407.9057,436.2286 1411.0547,435.3146 1413.7017,433.5546 C1416.2287,431.8746 1418.0807,429.4546 1419.0577,426.5556 C1419.8337,424.2516 1420.1147,421.7986 1420.3867,419.4276 C1420.5267,418.2026 1420.6727,416.9356 1420.8837,415.7046 C1421.2697,413.4606 1421.8077,411.7026 1422.5757,410.1696 C1423.3647,408.5956 1424.3287,407.0166 1425.4407,405.4786 C1427.9837,401.9616 1431.1827,399.3986 1434.2607,397.1536 C1434.3067,397.1206 1434.3537,397.0896 1434.4007,397.0576 C1434.4387,397.0326 1434.4757,397.0076 1434.5127,396.9816 L1434.5887,396.9276 L1434.5977,397.0196 C1434.9587,400.5546 1434.5417,404.4276 1433.2857,409.2086 C1432.8857,410.7316 1432.4357,412.2766 1431.9097,413.9336 L1431.9047,413.9496 L1431.8907,413.9596 C1431.2337,414.4586 1430.6657,414.9236 1430.1557,415.3796 C1428.0877,417.2316 1426.4447,419.3126 1425.2707,421.5656 C1424.8757,422.3236 1424.5457,423.1286 1424.2277,423.9086 C1423.9817,424.5086 1423.7277,425.1286 1423.4457,425.7256 C1422.6887,427.3206 1421.8947,428.6686 1421.0167,429.8466 C1419.2587,432.2046 1417.2037,434.0146 1414.7337,435.3786 C1412.4257,436.6536 1409.9777,437.5266 1407.2467,438.4566 L1406.6317,438.6656 C1404.3897,439.4266 1402.0717,440.2136 1399.8907,441.2316 C1397.1077,442.5306 1394.3537,444.0696 1391.7717,445.5346 C1389.1497,447.0226 1386.6427,448.5856 1384.3197,450.1826 L1384.2977,450.1976 Z M1394.745,452.8801 L1394.723,452.8771 C1391.324,452.3901 1388.018,451.3851 1384.648,450.3101 L1384.543,450.2761 L1384.634,450.2131 C1386.414,448.9981 1388.294,447.8071 1390.222,446.6731 C1392.58,445.2871 1395.156,443.8801 1398.33,442.2451 C1401.015,440.8611 1403.825,439.8441 1405.973,439.1121 L1406.568,438.9101 C1411.112,437.3651 1415.812,435.7691 1419.248,432.2751 C1421.16,430.3321 1422.743,427.8941 1424.087,424.8201 C1424.241,424.4681 1424.391,424.1091 1424.537,423.7611 C1424.943,422.7881 1425.363,421.7821 1425.909,420.8441 C1426.597,419.6641 1427.43,418.5211 1428.385,417.4481 C1429.349,416.3671 1430.451,415.3361 1431.662,414.3861 L1431.801,414.2771 L1431.747,414.4451 C1429.025,422.8611 1425.212,430.9351 1420.414,438.4441 C1419.252,440.2631 1418.047,441.9301 1416.833,443.4011 L1416.816,443.4151 C1416.249,443.6961 1415.655,443.9471 1414.999,444.1831 C1413.447,444.7431 1411.838,445.2731 1410.282,445.7851 C1405.232,447.4491 1400.01,449.1691 1395.588,452.2521 C1395.352,452.4171 1395.119,452.5941 1394.895,452.7661 L1394.745,452.8801 Z M1398.6625,453.1788 C1397.5315,453.1788 1396.3825,453.1008 1395.1495,452.9418 L1395.0155,452.9238 L1395.1245,452.8448 C1395.1335,452.8378 1395.1415,452.8318 1395.1495,452.8248 C1395.1585,452.8178 1395.1675,452.8108 1395.1765,452.8038 C1397.5665,451.0538 1400.4475,449.5678 1404.2425,448.1298 C1406.2465,447.3698 1408.3135,446.6798 1410.3125,446.0128 C1411.7225,445.5418 1413.1815,445.0548 1414.6055,444.5478 C1415.0705,444.3818 1415.6805,444.1588 1416.2775,443.9038 L1416.4905,443.8128 L1416.3395,443.9888 C1415.0725,445.4668 1413.7335,446.7948 1412.3605,447.9368 L1412.3395,447.9478 C1411.1795,448.2438 1410.0795,448.6758 1409.0695,449.2318 C1407.1995,450.2618 1405.4435,451.4438 1403.9715,452.4648 L1403.9555,452.4728 C1402.2575,452.9388 1400.4855,453.1768 1398.6895,453.1788 L1398.6625,453.1788 Z M1404.6007,452.2836 L1404.9457,452.0566 C1406.2107,451.2226 1407.4567,450.4356 1408.6507,449.7176 C1409.6017,449.1446 1410.6257,448.6856 1411.6927,448.3516 L1411.9747,448.2626 L1411.7427,448.4446 C1409.6057,450.1216 1407.3347,451.3686 1404.9927,452.1526 L1404.6007,452.2836 Z M1343.1406,387.2181 L1343.1366,387.0111 C1343.0276,380.5541 1343.1836,373.7171 1345.0506,367.4641 C1345.5556,365.7711 1346.2136,364.1851 1347.0066,362.7481 L1347.1436,362.4981 L1347.1066,362.7811 C1346.9226,364.1881 1346.8656,365.6461 1346.9376,367.1151 C1347.2886,374.2531 1346.4966,379.7911 1344.4456,384.5421 C1344.0906,385.3641 1343.6846,386.2031 1343.2386,387.0351 L1343.1406,387.2181 Z M1343.3567,396.6676 L1343.3477,396.1706 C1343.3457,396.0576 1343.3427,395.9446 1343.3417,395.8336 C1343.3187,394.3516 1343.2787,392.8106 1343.2387,391.3216 C1343.2067,390.1006 1343.1727,388.8376 1343.1487,387.5856 L1343.1487,387.5706 L1343.1557,387.5586 C1344.8247,384.5256 1345.9307,381.5696 1346.5367,378.5216 C1347.0327,376.0276 1347.2617,373.2836 1347.2377,370.1316 C1347.2327,369.4466 1347.2117,368.7566 1347.1907,368.0886 C1347.1297,366.0966 1347.0657,364.0366 1347.4377,362.0006 L1347.4447,361.9826 C1349.4627,358.6676 1352.3037,356.1686 1355.8877,354.5566 L1356.0377,354.4886 L1355.9567,354.6326 C1355.1827,355.9996 1354.5217,357.6566 1353.9347,359.6976 C1353.0387,362.8186 1352.5987,366.0906 1352.1737,369.2546 C1351.9237,371.1126 1351.6657,373.0336 1351.3177,374.9046 C1349.8727,382.6696 1347.2467,389.9786 1343.7237,396.0406 L1343.6827,396.1116 C1343.6157,396.2266 1343.5387,396.3586 1343.4537,396.5026 L1343.3567,396.6676 Z M1343.4978,402.7225 L1343.4948,402.6155 C1343.4448,400.9445 1343.4028,399.1635 1343.3668,397.1685 L1343.3668,397.1525 L1343.3748,397.1385 C1345.1248,394.3515 1346.5628,390.8905 1347.1038,389.5875 L1347.2118,389.3265 C1348.5508,386.1355 1349.5018,383.4325 1350.2048,380.8205 C1351.0338,377.7385 1351.6878,374.4275 1352.2638,370.3995 C1352.3698,369.6625 1352.4668,368.9115 1352.5618,368.1845 C1352.7728,366.5605 1352.9918,364.8815 1353.3098,363.2435 C1353.9088,360.1635 1354.6458,357.7825 1355.6278,355.7505 C1355.8558,355.2795 1356.1168,354.8025 1356.4038,354.3325 L1356.4128,354.3175 L1356.4288,354.3105 C1358.7298,353.3525 1361.3418,352.7375 1364.1918,352.4825 L1364.3298,352.4695 L1364.2358,352.5725 C1363.1438,353.7665 1362.2028,355.0875 1361.4418,356.5015 C1359.2768,360.5195 1358.3908,365.0415 1357.8098,368.9355 C1357.5768,370.4935 1357.4028,372.0975 1357.2358,373.6475 C1356.9318,376.4545 1356.6178,379.3575 1355.9378,382.1325 C1354.8198,386.6955 1352.7978,391.2645 1350.0908,395.3475 C1348.0968,398.3545 1345.9068,400.8135 1343.5818,402.6555 L1343.4978,402.7225 Z M1344.0127,402.7092 L1343.9507,402.6212 C1345.5697,401.3012 1347.1387,399.6672 1348.6147,397.7642 C1351.4607,394.0962 1353.6927,389.8862 1355.2487,385.2542 C1356.4657,381.6312 1356.9147,377.8182 1357.3477,374.1322 C1357.4207,373.5162 1357.4937,372.8982 1357.5697,372.2802 C1358.1127,367.8722 1358.7887,363.2142 1360.5137,358.9712 C1361.5197,356.4992 1362.9167,354.3072 1364.6677,352.4572 L1364.6817,352.4422 L1364.7027,352.4402 C1365.8657,352.3542 1367.0657,352.3242 1368.2707,352.3502 L1368.3687,352.3522 L1368.3147,352.4342 C1366.8537,354.6642 1365.8547,356.8762 1365.2587,359.1962 C1364.8587,360.7512 1364.6447,362.3672 1364.4367,363.9302 C1364.3607,364.5042 1364.2817,365.0972 1364.1947,365.6792 C1363.8397,368.0612 1363.4477,370.2492 1362.9967,372.3702 C1362.0007,377.0542 1360.6727,381.4742 1359.0497,385.5092 C1358.2387,387.5262 1357.3187,389.8132 1356.0737,391.7892 C1355.0007,393.4922 1353.6607,395.1102 1351.9777,396.7352 C1349.7647,398.8722 1347.1597,400.8262 1344.0127,402.7092 Z M1343.6061,406.0115 L1343.6021,405.9205 C1343.5751,405.3055 1343.5571,404.6845 1343.5391,404.0835 C1343.5311,403.8205 1343.5231,403.5565 1343.5151,403.2925 L1343.5141,403.2605 L1343.5421,403.2445 C1346.3201,401.6235 1348.7041,399.9335 1350.8281,398.0765 C1352.4291,396.6775 1353.8221,395.2155 1354.9661,393.7335 C1356.3931,391.8865 1357.3611,389.9115 1358.1211,388.2225 C1359.9141,384.2365 1361.3911,379.9315 1362.5101,375.4275 C1363.4521,371.6315 1364.0431,367.7245 1364.6141,363.9465 C1364.7181,363.2625 1364.8211,362.5775 1364.9271,361.8925 C1365.4551,358.4685 1366.6581,355.3585 1368.6061,352.3845 L1368.6221,352.3595 L1368.6531,352.3605 C1372.1541,352.4695 1375.9181,353.0215 1379.8371,354.0005 L1379.9401,354.0255 L1379.8591,354.0935 C1378.1091,355.5625 1376.5651,357.5815 1375.3931,359.9335 C1373.3981,363.9405 1372.1901,368.3655 1371.0221,372.6455 C1370.7121,373.7825 1370.3911,374.9585 1370.0621,376.1035 C1368.5591,381.3205 1366.4891,387.3265 1362.5251,392.3065 C1359.1421,396.5555 1354.5191,399.5155 1350.4521,401.9555 C1349.4771,402.5405 1348.4781,403.1255 1347.5111,403.6915 C1346.2521,404.4285 1344.9501,405.1915 1343.6841,405.9635 L1343.6061,406.0115 Z M1343.7709,409.0958 L1343.7649,408.9978 C1343.7059,408.0748 1343.6619,407.1548 1343.6219,406.2918 L1343.6199,406.2598 L1343.6469,406.2428 C1344.9379,405.4568 1346.2669,404.6838 1347.5529,403.9358 C1352.2839,401.1848 1357.1759,398.3398 1361.0569,394.2978 C1366.7549,388.3628 1368.9719,380.5618 1371.1149,373.0178 C1371.9929,369.9278 1372.8999,366.7328 1374.0349,363.7098 C1375.6939,359.2898 1377.6959,356.1478 1380.1549,354.1068 L1380.1769,354.0888 L1380.2029,354.0958 C1382.5729,354.7018 1384.9549,355.4478 1387.2819,356.3128 L1387.3799,356.3488 L1387.2929,356.4078 C1385.9339,357.3288 1384.6539,358.3328 1383.4879,359.3908 C1378.6369,363.7918 1375.7799,369.9428 1373.8319,374.8098 C1373.0519,376.7598 1372.3609,378.7788 1371.6929,380.7318 C1370.4909,384.2458 1369.2479,387.8798 1367.4389,391.2328 C1364.8459,396.0408 1361.2319,399.8168 1356.6969,402.4578 C1355.0529,403.4158 1353.2839,404.1838 1351.5729,404.9268 C1349.9479,405.6318 1348.2679,406.3618 1346.6969,407.2528 C1345.8209,407.7488 1344.7979,408.3488 1343.8499,409.0388 L1343.7709,409.0958 Z M1344.045,412.6554 L1344.037,412.5684 C1343.952,411.6474 1343.874,410.6484 1343.793,409.4254 L1343.791,409.3964 L1343.814,409.3794 C1344.299,409.0044 1344.721,408.7034 1345.145,408.4324 C1346.507,407.5614 1347.981,406.7524 1349.65,405.9594 C1350.42,405.5934 1351.223,405.2654 1352,404.9484 C1352.834,404.6084 1353.697,404.2564 1354.519,403.8564 C1359.346,401.5084 1363.2,398.2194 1365.975,394.0814 C1368.87,389.7624 1370.581,384.9094 1372.362,379.4714 C1373.494,376.0184 1374.826,372.7484 1376.322,369.7524 C1377.578,367.2384 1379.152,364.3394 1381.304,361.8954 C1383.09,359.8674 1385.206,358.0364 1387.592,356.4524 L1387.615,356.4374 L1387.641,356.4464 C1388.881,356.9154 1390.108,357.4164 1391.288,357.9364 C1391.349,357.9464 1391.41,357.9614 1391.472,357.9764 L1391.648,358.0184 L1391.516,358.0844 C1387.272,360.2154 1382.986,362.7734 1380.391,367.0284 C1378.7,369.8004 1377.652,373.0814 1376.722,376.2034 C1376.216,377.9064 1375.751,379.6514 1375.302,381.3394 C1374.844,383.0574 1374.371,384.8334 1373.854,386.5664 C1372.12,392.3734 1369.832,398.2804 1364.878,402.1454 C1361.521,404.7634 1357.516,406.4174 1353.643,408.0164 C1352.971,408.2944 1352.301,408.5714 1351.635,408.8524 C1349.476,409.7644 1346.67,411.0154 1344.119,412.6084 L1344.045,412.6554 Z M1344.5364,416.9918 L1344.5244,416.9048 C1344.3644,415.7438 1344.2204,414.4828 1344.0724,412.9378 L1344.0694,412.9048 L1344.0974,412.8868 C1346.9854,411.0848 1350.2294,409.7268 1353.3664,408.4148 C1356.8504,406.9578 1360.4524,405.4508 1363.6084,403.3228 C1365.6504,401.9458 1367.3584,400.3638 1368.6834,398.6188 C1370.6184,396.0718 1371.8574,393.0388 1372.8154,390.4078 C1373.8834,387.4738 1374.7004,384.4038 1375.4914,381.4348 C1376.5154,377.5908 1377.5734,373.6168 1379.1874,369.8928 C1380.5644,366.7128 1382.4884,364.1938 1385.0684,362.1908 C1387.2214,360.5198 1389.6234,359.2498 1391.8974,358.1258 L1391.9204,358.1148 L1391.9424,358.1248 C1392.1714,358.2218 1392.3994,358.3518 1392.6194,358.5118 L1392.7834,358.6298 C1393.0484,358.7738 1393.2834,358.9428 1393.4754,359.1298 C1393.8014,359.3668 1394.1294,359.6018 1394.4554,359.8378 C1394.6784,359.9978 1394.9004,360.1578 1395.1234,360.3188 L1395.2164,360.3858 L1395.1044,360.4148 C1392.9024,360.9868 1391.0684,361.8148 1389.4974,362.9438 C1384.5564,366.4968 1382.5774,372.8148 1380.8314,378.3898 C1380.6364,379.0138 1380.4424,379.6318 1380.2474,380.2368 C1379.6464,382.1048 1379.1134,384.0268 1378.5964,385.8858 C1377.4684,389.9478 1376.3024,394.1488 1374.3654,398.0238 C1372.8634,401.0278 1371.0444,403.5548 1368.9594,405.5358 C1366.6144,407.7638 1363.6184,409.5608 1359.7984,411.0288 C1358.0004,411.7208 1356.1354,412.3208 1354.3324,412.9008 C1352.4884,413.4938 1350.5814,414.1068 1348.7444,414.8188 C1347.1164,415.4498 1345.7634,416.1438 1344.6084,416.9418 L1344.5364,416.9918 Z M1345.2399,421.2632 L1345.2199,421.1652 C1344.9959,420.0282 1344.7899,418.7892 1344.5729,417.2662 L1344.5679,417.2342 L1344.5949,417.2152 C1345.5499,416.5422 1346.6049,415.9522 1347.7299,415.4602 C1349.9269,414.5002 1352.2599,413.7612 1354.5159,413.0462 C1355.5869,412.7072 1356.6949,412.3562 1357.7709,411.9862 C1361.6249,410.6632 1364.4089,409.3102 1366.7979,407.5982 C1369.1079,405.9422 1371.1369,403.7762 1372.8269,401.1602 C1376.0969,396.0992 1377.7039,390.1642 1379.2599,384.4252 L1379.2789,384.3512 C1380.1509,381.1322 1381.1429,377.9212 1382.2269,374.8072 C1383.2579,371.8452 1384.7709,368.0722 1387.3359,365.1782 C1389.3139,362.9462 1391.9709,361.4442 1395.4579,360.5842 L1395.4819,360.5782 L1396.0469,360.9852 C1397.2609,361.8622 1398.4749,362.7392 1399.6899,363.6142 L1399.7769,363.6762 L1399.6749,363.7092 C1395.1979,365.1672 1391.6619,367.5912 1389.1669,370.9152 C1385.6669,375.5792 1384.2599,381.3642 1382.8999,386.9592 C1382.8119,387.3202 1382.7239,387.6812 1382.6359,388.0412 L1382.4299,388.8852 C1380.9119,395.1062 1379.3419,401.5382 1375.5709,406.7142 C1373.7249,409.2482 1371.3759,411.0732 1368.3889,412.2942 C1365.8489,413.3332 1363.1419,414.0232 1360.5239,414.6912 L1359.1989,415.0302 C1354.3749,416.2642 1348.9069,417.6632 1345.3109,421.1932 L1345.2399,421.2632 Z M1346.5397,426.5623 L1346.5187,426.4913 C1346.0627,424.9533 1345.6637,423.3343 1345.2997,421.5423 L1345.2937,421.5133 L1345.3137,421.4933 C1348.8077,417.9603 1354.1737,416.5593 1358.4857,415.4333 C1359.1957,415.2483 1359.9327,415.0653 1360.6457,414.8893 C1365.6007,413.6613 1370.7247,412.3923 1374.2487,408.6443 C1378.4567,404.1693 1380.3027,398.0163 1381.9707,391.5743 C1382.3007,390.2993 1382.6137,388.9823 1382.9167,387.7083 C1384.0677,382.8673 1385.2587,377.8613 1387.7417,373.4873 C1389.4317,370.5093 1391.6177,368.1333 1394.2367,366.4263 L1394.2657,366.4713 L1394.2367,366.4263 C1395.8957,365.3443 1397.7617,364.4923 1399.9427,363.8223 L1399.9687,363.8143 L1399.9897,363.8303 C1400.3577,364.0953 1400.7237,364.3593 1401.0907,364.6243 C1401.4577,364.8893 1401.8247,365.1543 1402.1917,365.4183 L1402.2767,365.4793 L1402.1777,365.5133 C1398.6767,366.7233 1395.7687,368.2013 1393.2877,370.0323 C1386.6027,374.9653 1384.7937,383.5973 1383.3397,390.5323 C1382.8907,392.6743 1382.4307,394.9613 1382.1767,397.3033 C1381.8897,399.9563 1381.7807,402.6193 1381.6947,405.1193 C1381.6697,405.8243 1381.6567,406.5443 1381.6447,407.2413 C1381.6217,408.5043 1381.5977,409.8103 1381.5057,411.0873 C1381.3827,412.7953 1381.0297,414.8823 1379.3797,415.8673 C1378.0477,416.6623 1376.3007,416.7443 1374.8977,416.8103 C1373.1557,416.8923 1371.4377,416.8283 1369.6837,416.7493 C1367.1897,416.6363 1364.2397,416.5813 1361.2667,417.0253 C1357.3077,417.6153 1354.1907,418.7413 1351.7387,420.4653 C1349.7537,421.8613 1348.2877,423.7523 1347.4977,425.9343 L1347.4917,425.9513 L1347.4767,425.9613 C1347.3937,426.0143 1347.3107,426.0653 1347.2267,426.1183 C1347.0197,426.2473 1346.8057,426.3823 1346.6007,426.5203 L1346.5397,426.5623 Z M1347.7948,425.7535 L1347.8588,425.5995 C1348.8688,423.1635 1351.8668,418.8505 1360.5998,417.3435 C1363.1098,416.9105 1365.8158,416.7805 1369.1148,416.9335 C1370.6388,417.0045 1372.3658,417.0845 1374.0608,417.0495 C1375.5538,417.0175 1377.1308,416.9475 1378.5478,416.4685 C1381.3328,415.5285 1381.7428,412.5875 1381.7718,409.5485 C1381.8148,405.0705 1381.9258,399.8705 1382.7118,394.8295 C1383.3948,390.4515 1384.3498,386.2625 1385.5498,382.3805 C1386.9978,377.6955 1388.8288,374.3885 1391.3118,371.9725 C1393.8788,369.4755 1397.4028,367.4645 1402.0858,365.8235 C1402.1668,365.7955 1402.2488,365.7685 1402.3308,365.7415 C1402.3928,365.7215 1402.4538,365.7005 1402.5148,365.6805 L1402.5418,365.6715 L1402.5638,365.6875 C1403.4348,366.3145 1404.3038,366.9415 1405.1728,367.5685 C1405.8448,368.0545 1406.5178,368.5395 1407.1908,369.0255 L1407.2838,369.0925 L1407.1728,369.1215 C1406.2058,369.3755 1405.2078,369.5775 1404.2418,369.7735 C1401.8818,370.2505 1399.4418,370.7445 1397.3038,372.0335 C1393.5728,374.2825 1391.0548,378.0655 1389.0838,381.4685 C1385.5458,387.5765 1384.9928,391.3105 1384.9058,393.8805 C1384.7658,398.0325 1386.1698,401.9555 1387.5278,405.7495 L1387.7278,406.3085 C1389.1058,410.1605 1390.6678,414.5265 1389.3388,418.5135 C1388.7648,420.2355 1387.5728,421.4535 1385.9818,421.9425 C1384.3648,422.4395 1382.6148,422.2685 1381.2708,422.0645 C1379.8858,421.8545 1378.5038,421.5485 1377.1678,421.2515 C1375.3128,420.8395 1373.3948,420.4135 1371.4508,420.2435 C1367.6798,419.9145 1363.8548,420.1385 1360.0808,420.9105 C1355.7118,421.8055 1351.6258,423.4055 1347.9368,425.6665 L1347.7948,425.7535 Z M1347.6573,429.8296 L1347.6263,429.7516 C1347.4613,429.3306 1347.2963,428.8846 1347.1213,428.3896 L1347.1173,428.3776 L1347.1193,428.3646 C1347.2183,427.5906 1347.3963,426.8356 1347.6483,426.1206 L1347.6543,426.1026 L1347.6703,426.0926 C1350.9623,424.0116 1354.5943,422.4646 1358.4673,421.4946 C1362.2423,420.5486 1366.1193,420.1656 1369.9893,420.3556 C1371.9483,420.4506 1373.8913,420.6976 1375.7633,421.0876 C1376.4283,421.2266 1377.0983,421.3876 1377.7463,421.5436 C1378.5783,421.7426 1379.4383,421.9496 1380.2923,422.1106 C1382.9553,422.6116 1385.9503,422.8806 1387.9773,421.0756 C1390.5553,418.7826 1390.2343,414.5436 1389.5123,411.3926 C1389.0483,409.3706 1388.3273,407.3906 1387.6293,405.4746 C1386.9463,403.6016 1386.2403,401.6636 1385.7763,399.6856 C1384.6533,394.9086 1385.0913,390.2096 1387.0773,385.7176 C1388.0053,383.6206 1389.1983,381.6226 1390.2423,379.9446 C1391.6473,377.6886 1392.9623,375.9886 1394.3803,374.5956 C1396.1463,372.8616 1398.1373,371.6246 1400.2963,370.9206 C1401.6373,370.4836 1403.0393,370.2086 1404.3953,369.9426 C1405.1043,369.8036 1405.8373,369.6596 1406.5533,369.4936 C1406.8383,369.4286 1407.1413,369.3516 1407.4803,369.2586 L1407.5053,369.2516 L1408.1323,369.7036 C1408.4323,369.9196 1408.7313,370.1346 1409.0303,370.3506 L1409.0933,370.3956 L1409.0293,370.4396 C1407.6383,371.3906 1406.1543,372.2746 1404.7193,373.1286 C1401.9313,374.7896 1399.0483,376.5056 1396.6933,378.8086 C1394.1333,381.3116 1392.1953,384.9306 1391.0913,389.2726 C1390.1083,393.1416 1389.8033,397.3516 1390.1853,401.7846 C1390.3453,403.6386 1390.5693,405.7816 1391.2053,407.7436 C1391.6743,409.1946 1392.3433,410.5916 1392.9903,411.9436 C1393.3393,412.6736 1393.7003,413.4276 1394.0263,414.1816 C1394.9233,416.2596 1395.7633,418.6896 1395.1913,420.9606 C1394.8293,422.3946 1393.9223,423.6316 1392.5683,424.5346 C1389.8403,426.3566 1386.2483,426.7296 1383.0943,426.8536 C1379.5123,426.9936 1375.9073,426.6596 1372.0773,425.8296 C1371.3763,425.6776 1370.6603,425.5146 1369.9673,425.3566 C1366.3253,424.5276 1362.5593,423.6686 1358.7953,423.8796 C1356.6453,423.9996 1354.7103,424.5126 1353.0433,425.4046 C1350.9803,426.5106 1349.2283,428.2196 1347.7483,429.7356 L1347.6573,429.8296 Z" id="cri.planets-7"></path>
        </g>
    </g>
</svg>