<?xml version="1.0" encoding="UTF-8"?>
<svg width="31px" height="30px" viewBox="0 0 31 30" version="1.1" xmlns="http://www.w3.org/2000/svg" xmlns:xlink="http://www.w3.org/1999/xlink">
    <!-- Generator: Sketch 52.5 (67469) - http://www.bohemiancoding.com/sketch -->
    <title>cri.planets-3</title>
    <desc>Created with Sketch.</desc>
    <g id="Landing" stroke="none" stroke-width="1" fill="none" fill-rule="evenodd">
        <g id="Artboard" transform="translate(-1046.000000, -681.000000)" fill="#E07D2B">
            <path d="M1060.4786,681.702 C1060.8016,681.702 1061.1206,681.729 1061.4436,681.791 C1059.1696,684.254 1056.1046,686.107 1052.7906,687.022 C1052.9376,686.776 1053.0816,686.552 1053.2276,686.338 C1054.3076,684.759 1055.5916,683.539 1057.0426,682.711 C1058.0966,682.11 1059.1496,681.774 1060.1726,681.712 C1060.2746,681.706 1060.3766,681.703 1060.4786,681.702 Z M1064.8873,683.6614 C1065.2763,683.9834 1065.6553,684.3204 1065.9483,684.5864 C1064.7393,685.7864 1063.2163,686.6914 1061.8843,687.4194 C1058.3073,689.3734 1054.5083,690.9414 1050.5923,692.0794 C1050.5633,692.0884 1050.5353,692.0964 1050.5063,692.1034 L1050.6603,691.7094 C1050.8493,691.2214 1051.0443,690.7164 1051.2443,690.2234 C1052.1973,690.0584 1053.1863,689.7604 1054.1863,689.3374 C1056.0263,688.5584 1057.7243,687.4464 1059.4463,686.2794 C1061.0283,685.2064 1062.5523,684.1364 1063.8063,682.8374 C1064.1383,683.0644 1064.4823,683.3264 1064.8873,683.6614 Z M1069.0873,687.2532 C1069.3433,687.4312 1069.6223,687.6102 1069.9603,687.8162 C1064.0563,692.6312 1056.6263,695.4812 1049.0223,695.8482 L1049.6353,694.3112 C1050.1453,694.2842 1050.6473,694.1942 1051.0303,694.1182 C1057.1673,692.9012 1063.0523,690.2532 1068.0503,686.4612 C1068.4183,686.7642 1068.7573,687.0242 1069.0873,687.2532 Z M1066.4532,685.0476 C1066.9232,685.4786 1067.4092,685.9236 1067.9062,686.3406 C1062.9372,690.1026 1057.0912,692.7296 1050.9942,693.9386 C1050.5882,694.0196 1050.1522,694.0976 1049.7082,694.1266 C1049.9492,693.5226 1050.1882,692.9186 1050.4252,692.3136 L1050.4872,692.2976 C1050.5392,692.2846 1050.5902,692.2716 1050.6442,692.2556 C1054.5722,691.1136 1058.3832,689.5406 1061.9722,687.5796 C1063.3182,686.8446 1064.8572,685.9296 1066.0832,684.7106 C1066.2072,684.8226 1066.3302,684.9356 1066.4532,685.0476 Z M1070.9084,688.3727 C1071.2754,688.5847 1071.6534,688.8027 1072.0184,689.0287 C1070.3634,690.4517 1068.2304,691.3577 1066.5134,692.0877 C1060.8984,694.4747 1055.1744,696.8147 1049.5024,699.0427 L1049.3994,699.0827 C1048.7434,699.3397 1048.1014,699.5937 1047.4644,699.8637 C1047.9514,698.5527 1048.4644,697.2507 1048.9474,696.0347 C1056.6424,695.6817 1064.1624,692.7997 1070.1274,687.9167 C1070.3864,688.0707 1070.6474,688.2217 1070.9084,688.3727 Z M1061.652,681.835 C1062.31,681.989 1062.965,682.283 1063.652,682.734 C1062.414,684.01 1060.907,685.068 1059.344,686.128 C1057.629,687.29 1055.94,688.396 1054.115,689.168 C1053.17,689.568 1052.233,689.855 1051.327,690.022 C1051.793,688.888 1052.205,688.029 1052.656,687.249 C1056.111,686.332 1059.304,684.41 1061.652,681.835 Z M1073.5502,690.1235 C1073.6312,690.1935 1073.7092,690.2655 1073.7872,690.3385 C1072.4742,691.8275 1070.6162,693.0805 1068.2642,694.0615 C1066.6542,694.7335 1064.9522,695.2375 1063.3062,695.7255 C1062.3092,696.0205 1061.2782,696.3255 1060.2742,696.6665 C1055.5832,698.2585 1051.0822,700.7905 1047.2542,703.9905 C1047.1902,703.8465 1047.1382,703.7085 1047.0962,703.5715 C1046.7962,702.6035 1046.8892,701.4675 1047.3792,700.0995 C1048.0512,699.8115 1048.7222,699.5455 1049.4662,699.2535 L1049.5692,699.2135 C1055.2502,696.9815 1060.9762,694.6405 1066.5852,692.2565 C1068.3292,691.5155 1070.4962,690.5945 1072.1812,689.1305 C1072.7312,689.4775 1073.1672,689.7945 1073.5502,690.1235 Z M1073.9204,690.4633 C1074.5054,691.0323 1075.0084,691.6953 1075.4174,692.4363 C1072.7384,694.8393 1069.5574,696.7673 1066.2154,698.0123 C1064.8824,698.5083 1063.4904,698.9133 1062.1444,699.3033 C1061.3744,699.5273 1060.5834,699.7563 1059.8024,700.0043 C1055.0814,701.4973 1051.4634,703.4493 1048.7444,705.9693 C1048.2444,705.4763 1047.6934,704.8793 1047.3354,704.1623 C1051.1544,700.9613 1055.6474,698.4303 1060.3334,696.8403 C1061.3354,696.5003 1062.3634,696.1953 1063.3574,695.9003 C1065.0084,695.4113 1066.7154,694.9053 1068.3344,694.2303 C1070.7104,693.2393 1072.5894,691.9723 1073.9204,690.4633 Z M1074.1875,707.196 L1073.9415,707.699 C1073.1645,707.713 1072.1505,707.754 1071.1425,707.945 C1069.7745,708.203 1068.5785,708.724 1067.6805,709.451 C1067.4735,709.364 1067.2675,709.275 1067.0615,709.186 C1066.5925,708.984 1066.1095,708.776 1065.6255,708.597 C1066.4455,707.845 1067.4045,707.241 1068.4025,706.847 C1069.3845,706.46 1070.4385,706.245 1071.4585,706.037 L1075.0885,705.298 C1074.8025,705.938 1074.4905,706.577 1074.1875,707.196 Z M1075.5072,692.6018 C1075.8702,693.2938 1076.1562,694.0598 1076.3562,694.8788 C1074.6882,696.7288 1072.2942,698.2088 1069.0372,699.4018 C1067.6822,699.8988 1066.2742,700.3198 1064.9122,700.7278 C1062.8242,701.3538 1060.6652,702.0008 1058.6482,702.9308 C1054.7682,704.7208 1052.8632,707.0258 1051.9462,708.6628 C1050.9322,708.0008 1050.0112,707.1728 1049.1662,706.3758 C1049.0692,706.2838 1048.9712,706.1918 1048.8752,706.0978 C1051.5732,703.5988 1055.1662,701.6628 1059.8572,700.1778 C1060.6262,699.9348 1061.4142,699.7058 1062.1762,699.4848 L1062.1902,699.4808 C1063.5402,699.0898 1064.9352,698.6848 1066.2792,698.1838 C1069.6292,696.9358 1072.8182,695.0068 1075.5072,692.6018 Z M1064.1385,705.9921 C1063.3245,706.5371 1062.5765,707.2451 1061.7885,708.2191 C1060.9925,708.4041 1060.2315,708.7411 1059.4955,709.0671 C1058.7795,709.3831 1058.0395,709.7111 1057.2695,709.8971 C1056.8815,709.9911 1056.4725,710.0391 1056.0525,710.0391 C1056.0345,710.0391 1056.0175,710.0381 1056.0005,710.0381 C1056.9615,708.4941 1058.1595,706.7631 1059.7735,705.5271 C1061.7515,704.0131 1064.2255,703.3121 1066.6175,702.6351 C1067.3045,702.4401 1068.0135,702.2391 1068.7065,702.0201 C1071.5235,701.1301 1074.2155,699.8751 1076.7095,698.2911 C1076.6865,699.5191 1076.5195,700.7791 1076.2145,702.0371 C1074.4945,703.1781 1072.3535,703.5811 1070.2825,703.9711 C1068.1455,704.3741 1065.9375,704.7891 1064.1385,705.9921 Z M1076.4065,695.0957 C1076.6145,696.0267 1076.7175,697.0267 1076.7125,698.0727 C1074.2045,699.6777 1071.4925,700.9477 1068.6515,701.8457 C1067.9705,702.0617 1067.2645,702.2617 1066.5815,702.4547 L1066.5685,702.4587 C1064.1595,703.1407 1061.6685,703.8457 1059.6625,705.3817 C1058.0005,706.6547 1056.7715,708.4447 1055.7885,710.0327 C1054.7425,709.9837 1053.6195,709.6357 1052.5385,709.0257 C1052.3955,708.9447 1052.2515,708.8587 1052.0995,708.7627 C1053.0015,707.1477 1054.8815,704.8697 1058.7255,703.0967 C1060.7305,702.1727 1062.8835,701.5277 1064.9655,700.9037 C1066.3305,700.4947 1067.7405,700.0717 1069.0995,699.5737 C1072.3315,698.3897 1074.7235,696.9247 1076.4065,695.0957 Z M1075.6801,703.8364 C1075.5451,704.2154 1075.3811,704.6264 1075.1781,705.0934 L1071.4241,705.8574 C1070.3961,706.0664 1069.3331,706.2834 1068.3351,706.6764 C1067.2881,707.0904 1066.2841,707.7294 1065.4321,708.5274 C1064.2901,708.1274 1063.3671,707.9974 1062.4421,708.1034 C1062.3271,708.1164 1062.2071,708.1354 1062.0731,708.1604 C1062.7891,707.3004 1063.5001,706.6394 1064.2401,706.1444 C1066.0091,704.9624 1068.1991,704.5504 1070.3161,704.1514 C1072.3381,703.7704 1074.4281,703.3774 1076.1501,702.2954 C1076.0151,702.8204 1075.8571,703.3394 1075.6801,703.8364 Z M1071.1768,708.1251 C1071.9368,707.9811 1072.7648,707.9061 1073.8488,707.8831 C1073.3068,708.9241 1072.6788,709.5951 1071.9308,709.9341 C1070.9018,710.4001 1069.7098,710.1791 1068.8908,709.9111 C1068.5898,709.8131 1068.2648,709.6911 1067.8728,709.5301 C1068.7368,708.8551 1069.8768,708.3701 1071.1768,708.1251 Z" id="cri.planets-3"></path>
        </g>
    </g>
</svg>