<?xml version="1.0" encoding="UTF-8"?>
<svg width="127px" height="112px" viewBox="0 0 127 112" version="1.1" xmlns="http://www.w3.org/2000/svg" xmlns:xlink="http://www.w3.org/1999/xlink">
    <!-- Generator: Sketch 52.5 (67469) - http://www.bohemiancoding.com/sketch -->
    <title>cri.planets-all</title>
    <desc>Created with Sketch.</desc>
    <g id="Landing" stroke="none" stroke-width="1" fill="none" fill-rule="evenodd" fill-opacity="1">
        <g id="Artboard" transform="translate(-960.000000, -674.000000)" fill="#322B34">
            <g id="cri.planets-all" transform="translate(960.000000, 674.000000)">
                <path d="M70.3722,34.5309 L70.3762,34.5399 C71.4792,36.6399 72.6192,38.8119 72.8722,41.1679 C73.0682,42.9949 72.7142,44.8659 72.3352,46.6249 C72.2302,47.1099 72.1172,47.6119 72.0002,48.1229 C71.9472,46.2629 71.6062,44.2049 70.9372,41.6909 C70.2702,39.1849 69.1172,36.8119 68.0022,34.5169 C67.0882,32.6349 66.1422,30.6879 65.4692,28.6739 C63.9762,24.2099 64.4172,19.4079 66.8172,13.9999 C66.2542,16.2199 65.7522,18.6079 65.8132,21.0749 C65.9252,25.7019 67.9442,29.9059 70.3722,34.5309 Z M70.76,41.7386 C71.503,44.5286 71.841,46.7666 71.822,48.7826 C71.433,49.4316 71.07,50.1186 70.719,50.7886 C70.154,45.9896 68.134,41.3586 66.112,37.0256 C61.384,26.2806 62.624,18.4456 64.505,13.7556 L65.341,13.8056 C65.783,13.8326 66.225,13.8596 66.667,13.8866 C64.233,19.3556 63.784,24.2116 65.295,28.7316 C65.972,30.7556 66.92,32.7086 67.838,34.5976 C68.949,36.8846 70.097,39.2496 70.76,41.7386 Z M76.853,26.7556 C77.564,34.2226 77.186,39.6506 75.627,44.3486 C75.353,44.6086 75.035,44.9106 74.713,45.2286 C74.905,43.7266 75.23,42.1636 75.518,40.7796 C76.367,36.7046 77.243,32.4896 75.552,28.4736 C75.177,27.5356 74.754,26.5786 74.344,25.6526 C73.065,22.7606 71.392,18.4476 71.59,14.3066 C72.408,14.4046 73.036,14.5076 73.612,14.6386 C73.481,15.7726 73.405,17.2926 73.61,17.9156 C73.906,19.5416 74.583,20.9706 75.237,22.3516 C75.888,23.7256 76.56,25.1436 76.853,26.7556 Z M65.9449,37.1003 C68.0019,41.5073 70.0519,46.2153 70.5689,51.0753 C70.3149,51.5603 70.0219,52.1143 69.7139,52.6493 C69.7759,47.9523 67.5399,43.7123 65.3759,39.6113 L65.3299,39.6353 L65.3759,39.6113 L65.3729,39.6063 C64.7249,38.3783 64.0559,37.1083 63.4569,35.8443 C61.7839,32.1943 60.8019,28.3293 60.6169,24.6673 C60.4159,20.6863 61.1219,16.9763 62.7179,13.6393 C63.2499,13.6763 63.7809,13.7103 64.3129,13.7433 C62.4329,18.4663 61.2079,26.3343 65.9449,37.1003 Z M78.0565,38.7418 C77.6615,40.1328 77.2535,41.5718 76.9525,43.0848 C76.6075,43.4208 76.2525,43.7578 75.9065,44.0848 C77.3855,39.4348 77.7335,34.0698 77.0345,26.7308 C76.7355,25.0888 76.0585,23.6588 75.4035,22.2758 C74.7525,20.9008 74.0805,19.4828 73.7885,17.8738 C73.5885,17.2718 73.6635,15.7918 73.7905,14.6798 C74.5395,14.8608 75.1865,15.0908 75.7685,15.3838 C75.8395,15.4188 75.9085,15.4588 75.9775,15.4968 L76.0175,15.5198 C75.8075,18.8818 76.7635,22.6598 77.7315,25.0788 L77.7795,25.0598 L77.7315,25.0788 C79.7115,30.0278 79.5345,32.3288 79.2125,34.0978 C78.9235,35.6888 78.4825,37.2408 78.0565,38.7418 Z M62.3525,38.9717 C65.5045,43.1287 69.0695,47.8297 68.7335,53.3507 C67.3905,48.4167 64.4855,44.5347 61.4135,40.4307 C59.8935,38.3997 58.3225,36.2997 56.9625,34.0657 C55.2735,31.2517 54.6025,28.0857 54.9105,24.3867 C55.4385,20.4267 58.2505,16.4797 60.6475,13.4807 C60.7605,13.4877 60.8745,13.4957 60.9885,13.5037 C59.1165,16.7207 57.3915,19.8957 56.7835,23.3327 C55.7375,29.2437 58.8415,34.3427 62.3525,38.9717 Z M59.4775,47.9489 C61.9895,50.9969 63.5985,54.3169 64.1325,57.5509 C63.6255,57.7149 63.0815,57.8529 62.5145,57.9609 C62.5585,56.5489 62.3945,55.4589 61.9835,54.4339 C59.6085,50.4119 56.7285,47.1339 53.6795,43.6639 C51.8265,41.5559 49.9155,39.3799 48.1075,37.0079 C44.5115,32.2879 46.7865,27.4079 48.9865,22.6889 C49.6615,21.2409 50.2985,19.8759 50.7765,18.5099 C51.0165,17.7899 51.0645,17.2579 51.0985,16.6429 C52.1595,15.9159 53.0515,15.3669 53.8985,14.9199 C54.6595,18.0439 52.9695,20.3269 50.8515,22.7749 C48.1035,25.9539 46.9785,28.7909 47.4115,31.4479 C47.9315,34.6369 50.1515,37.3709 52.1095,39.7829 L52.1915,39.8829 C53.3645,41.3289 54.6665,42.6999 55.9245,44.0259 C57.1195,45.2849 58.3555,46.5859 59.4775,47.9489 Z M61.8203,54.5139 C62.2193,55.5129 62.3773,56.5899 62.3303,57.9939 C61.2903,58.1779 60.1543,58.2829 58.6553,58.3309 L58.5893,58.3329 C58.5583,58.1209 58.5273,57.9079 58.4973,57.6989 C58.1483,55.2829 57.7873,52.7849 56.6963,50.5589 C55.5933,48.3099 53.6153,46.8489 51.7023,45.4359 L51.6903,45.4279 C51.3753,45.1949 51.0493,44.9539 50.7333,44.7139 C48.2483,42.8269 46.3723,40.6039 45.1553,38.1079 C43.7213,35.1649 43.3313,31.9399 44.0253,28.7799 C44.2933,27.5649 44.7043,26.3749 45.1023,25.2249 C45.6773,23.5659 46.2693,21.8559 46.4403,20.0299 C47.8193,18.9899 48.9813,18.1369 50.0963,17.3449 C50.3653,17.1539 50.6353,16.9629 50.9073,16.7749 C50.8753,17.2959 50.8213,17.7949 50.6033,18.4499 C50.1293,19.8059 49.4943,21.1659 48.8233,22.6059 C46.5973,27.3799 44.2983,32.3109 47.9623,37.1189 C49.7773,39.5009 51.6913,41.6789 53.5423,43.7849 C56.5863,47.2499 59.4613,50.5219 61.8203,54.5139 Z M58.1781,41.6635 C61.8351,45.9145 66.3851,51.2035 65.6831,56.9015 C65.2571,57.1265 64.7951,57.3245 64.3091,57.4915 C63.7641,54.2345 62.1431,50.8965 59.6191,47.8325 C58.4911,46.4635 57.2541,45.1605 56.0581,43.9005 C54.8021,42.5775 53.5041,41.2095 52.3331,39.7675 L52.2521,39.6675 C50.3071,37.2725 48.1041,34.5585 47.5921,31.4185 C47.1681,28.8185 48.2801,26.0305 50.9901,22.8955 C53.1521,20.3955 54.8751,18.0635 54.0651,14.8325 C54.7051,14.5025 55.3131,14.2325 55.9221,14.0095 C55.9901,13.9855 56.0581,13.9625 56.1251,13.9405 C55.1271,16.8885 53.9161,20.2785 52.1701,23.3545 C50.5341,26.2375 50.3941,29.2275 51.7431,32.4945 C52.8981,35.2925 54.9551,37.8555 56.9631,40.2405 C57.3371,40.6855 57.7261,41.1375 58.1371,41.6155 L58.1781,41.6635 Z M62.4221,43.9104 C65.8351,48.0064 67.3711,51.7944 67.2531,55.8264 C67.1241,55.9404 67.0121,56.0354 66.8931,56.1284 C66.5871,56.3664 66.2551,56.5844 65.8801,56.7944 C66.5091,51.0674 61.9691,45.7894 58.3171,41.5444 C57.9121,41.0734 57.4931,40.5874 57.1031,40.1234 C55.1041,37.7484 53.0571,35.1984 51.9121,32.4244 C50.5871,29.2134 50.7231,26.2754 52.3291,23.4444 C54.1021,20.3214 55.3301,16.8654 56.3421,13.8684 C57.2831,13.5724 58.2501,13.4344 59.3741,13.4344 L59.3931,13.4344 C58.6231,14.9604 57.5711,16.5314 56.6411,17.9194 C53.9631,21.9194 51.1941,26.0544 52.6671,30.8954 C53.8531,35.1654 56.8801,38.2374 60.0841,41.4894 C60.8561,42.2734 61.6531,43.0824 62.4221,43.9104 Z M79.6334,23.425 C78.7624,21.362 77.8624,19.229 77.9134,16.959 C79.0734,18.12 80.0764,19.705 80.9774,21.797 C82.7444,25.9 83.3264,29.706 82.7064,33.109 C82.2754,35.474 81.2144,37.833 79.5504,40.126 C79.8904,39.214 80.1944,38.261 80.4534,37.288 C81.3464,33.945 82.0064,30.322 80.8094,26.479 C80.4884,25.451 80.0534,24.421 79.6334,23.425 Z M42.6285,22.9419 L43.3275,22.4049 C43.2495,24.5689 42.6865,26.8219 42.1415,29.0029 C41.9195,29.8939 41.7085,30.7349 41.5315,31.5679 C40.9535,34.2759 41.4275,36.9259 42.9395,39.4429 C44.2735,41.6639 46.1525,43.4699 47.9695,45.2159 C49.5365,46.7229 51.1555,48.2789 52.4145,50.0909 C54.2315,52.7069 55.1685,55.6059 55.0565,58.2629 C53.7245,58.1369 52.5765,57.8779 51.5485,57.4719 C50.7755,57.1659 50.0115,56.7489 49.2775,56.2319 C49.2725,53.5999 48.6875,51.2649 47.5385,49.2939 C46.6805,47.8239 45.5595,46.5039 44.4745,45.2279 C43.0315,43.5289 41.5385,41.7729 40.6715,39.6549 C39.7015,37.2839 39.9715,34.8609 40.3645,32.8029 C40.4155,32.5329 40.4715,32.2499 40.5285,31.9569 C41.0195,29.4529 41.6295,26.3409 41.2535,24.0199 C41.6955,23.6619 42.1385,23.3189 42.6285,22.9419 Z M37.5549,28.1249 C37.6829,27.8859 37.8299,27.6419 37.9909,27.3999 C38.7909,29.8949 38.6829,32.4869 38.5779,34.9949 C38.5419,35.8629 38.5039,36.7609 38.5039,37.6539 C38.5039,38.6559 38.8579,39.8339 39.4049,40.6539 C39.6819,41.0509 39.9679,41.4459 40.2449,41.8279 L40.2529,41.8399 C42.0269,44.2929 43.7049,46.6129 43.8459,49.8319 L43.5519,49.3539 C41.5509,46.1019 39.4809,42.7389 37.9549,39.3139 C36.1069,35.1689 35.9609,31.0899 37.5549,28.1249 Z M58.3156,57.7256 C58.3446,57.9276 58.3746,58.1326 58.4046,58.3386 C57.1326,58.3736 56.1506,58.3556 55.2396,58.2776 C55.3556,55.5806 54.4066,52.6376 52.5656,49.9866 C51.2966,48.1606 49.6716,46.5976 48.0996,45.0866 C46.2866,43.3456 44.4166,41.5476 43.0966,39.3486 C41.6086,36.8726 41.1426,34.2676 41.7106,31.6056 C41.8876,30.7756 42.0976,29.9356 42.3196,29.0476 C42.8796,26.8056 43.4586,24.4876 43.5166,22.2596 C44.3406,21.6266 45.2926,20.8966 46.2406,20.1796 C46.0516,21.9236 45.4826,23.5676 44.9316,25.1586 C44.5306,26.3166 44.1176,27.5136 43.8466,28.7416 C43.1436,31.9416 43.5386,35.2076 44.9906,38.1876 C46.2196,40.7096 48.1146,42.9546 50.6226,44.8596 C50.9396,45.1006 51.2656,45.3406 51.5816,45.5746 L51.5936,45.5836 C53.4886,46.9836 55.4486,48.4306 56.5316,50.6396 C57.6106,52.8396 57.9696,55.3236 58.3156,57.7256 Z M38.1211,27.2069 C39.0031,25.9419 40.1591,24.9169 41.0881,24.1549 C41.4251,26.4349 40.8291,29.4729 40.3491,31.9209 C40.2911,32.2139 40.2361,32.4979 40.1841,32.7689 C39.4761,36.4819 39.9471,38.3689 40.5021,39.7239 C41.3801,41.8689 42.8831,43.6369 44.3351,45.3469 C45.4161,46.6179 46.5321,47.9309 47.3801,49.3859 C48.4921,51.2949 49.0691,53.5519 49.0931,56.0979 C47.3761,54.8409 45.8041,53.0259 44.2911,50.5559 L44.0391,50.1459 C43.9981,46.7049 42.2501,44.2889 40.4011,41.7319 C40.1231,41.3479 39.8361,40.9509 39.5561,40.5509 C39.0291,39.7599 38.6871,38.6219 38.6871,37.6539 C38.6871,36.7699 38.7251,35.8719 38.7611,35.0029 C38.8681,32.4309 38.9791,29.7729 38.1211,27.2069 Z M80.2769,37.2405 C79.9599,38.4285 79.5779,39.5825 79.1429,40.6695 L79.1129,40.7075 C79.0499,40.7905 78.9859,40.8735 78.9209,40.9555 C78.4499,41.5475 77.9109,42.1385 77.1849,42.8565 C77.4779,41.4495 77.8609,40.0995 78.2329,38.7925 L78.1829,38.7775 L78.2349,38.7825 C78.6619,37.2805 79.1029,35.7265 79.3929,34.1305 C80.0149,30.7095 78.9489,27.6295 77.9019,25.0105 C76.9519,22.6355 76.0099,18.9305 76.1959,15.6195 C76.7349,15.9355 77.2519,16.3285 77.7359,16.7885 C77.6349,19.1615 78.5649,21.3655 79.4649,23.4965 C79.8839,24.4885 80.3169,25.5145 80.6339,26.5335 C81.8179,30.3325 81.1619,33.9245 80.2769,37.2405 Z M68.6654,54.1117 L68.7764,54.1247 C68.3434,54.7267 67.9064,55.2297 67.4394,55.6627 C67.5114,51.6457 65.9594,47.8687 62.5594,43.7897 L62.5574,43.7877 C61.7894,42.9597 60.9884,42.1477 60.2144,41.3617 C57.0274,38.1267 54.0174,35.0707 52.8424,30.8447 C51.3944,26.0837 54.1384,21.9857 56.7934,18.0217 C57.7424,16.6037 58.8174,14.9977 59.5964,13.4367 C59.8654,13.4397 60.1364,13.4507 60.4244,13.4667 C58.0374,16.4637 55.2584,20.3947 54.7284,24.3677 C54.4164,28.1097 55.0964,31.3117 56.8064,34.1607 C58.1704,36.4027 59.7444,38.5057 61.2664,40.5397 C64.4304,44.7677 67.4194,48.7597 68.6874,53.8977 C68.6854,53.9207 68.6834,53.9437 68.6814,53.9667 C68.6784,53.9977 68.6754,54.0287 68.6714,54.0597 L68.6654,54.1117 Z M65.2114,39.6917 C67.4184,43.8757 69.6984,48.1967 69.5234,52.9767 C69.3124,53.3307 69.1024,53.6577 68.8924,53.9607 L68.8724,53.8847 C69.4804,48.0677 65.7714,43.1767 62.4984,38.8607 C59.0124,34.2647 55.9294,29.2067 56.9634,23.3657 C57.5714,19.9307 59.2374,16.8727 61.1914,13.5197 C61.3724,13.5337 61.5554,13.5477 61.7394,13.5627 C61.9964,13.5837 62.2574,13.6047 62.5224,13.6247 C60.9354,16.9737 60.2324,20.6907 60.4334,24.6767 C60.6204,28.3617 61.6084,32.2497 63.2904,35.9217 C63.8914,37.1897 64.5624,38.4617 65.2114,39.6917 Z M72.1392,31.7894 C73.7442,36.0704 75.3302,41.0664 73.8032,46.1644 C73.1362,46.8874 72.5982,47.5654 72.1602,48.2404 C72.2882,47.6884 72.4062,47.1594 72.5132,46.6634 C72.8962,44.8904 73.2542,43.0034 73.0552,41.1484 C72.7982,38.7584 71.6502,36.5724 70.5402,34.4574 L70.5342,34.4454 C68.1172,29.8424 66.1082,25.6584 65.9962,21.0704 C65.9352,18.5794 66.4552,16.1574 67.0292,13.9104 C67.5752,13.9454 68.1682,13.9854 68.7912,14.0344 C67.6842,20.4514 69.9382,26.5624 72.1392,31.7894 Z M75.3392,40.7414 C75.0352,42.2014 74.6922,43.8544 74.5022,45.4384 C74.3642,45.5764 74.2242,45.7204 74.0772,45.8744 C75.4512,40.8384 73.8882,35.9334 72.3092,31.7214 C70.1152,26.5114 67.8692,20.4224 68.9742,14.0494 C69.5982,14.0994 70.2492,14.1584 70.9092,14.2294 C71.0752,14.2474 71.2412,14.2654 71.4082,14.2844 C71.2042,18.4694 72.8882,22.8144 74.1752,25.7224 C74.5842,26.6464 75.0062,27.6024 75.3832,28.5434 C77.0522,32.5074 76.1812,36.6934 75.3392,40.7414 Z" id="cri.planets-6"></path>
                <path d="M25.5483,68.5968 C25.6703,69.4558 25.7973,70.3448 25.8973,71.2078 C24.9993,75.0638 22.5433,78.1348 20.1673,81.1068 L20.1153,81.1708 C19.8943,81.4468 19.6743,81.7228 19.4563,81.9978 C16.6733,85.5108 16.8793,90.0158 17.3823,93.5648 C15.8453,93.3328 14.4423,92.8938 13.2093,92.2588 C13.1193,88.8598 14.5773,85.4748 17.5423,82.1958 C20.1883,79.2708 22.0533,76.2318 23.0863,73.1628 C24.0203,70.3848 24.0243,67.6838 24.0293,64.8238 C24.0313,63.8658 24.0333,62.8798 24.0723,61.8968 C24.2453,57.6308 25.3903,54.1918 27.6793,51.0748 C29.5473,48.5298 32.0303,46.2728 35.0613,44.3678 C35.4263,44.7268 35.7873,45.1048 36.1353,45.4938 C35.9843,45.5628 35.8313,45.6238 35.6623,45.6888 C35.3893,45.7958 35.1313,45.8958 34.9143,46.0378 C30.7943,48.8888 27.3813,53.1958 25.5493,57.8558 C24.5133,61.3338 25.0383,65.0188 25.5463,68.5818 L25.5483,68.5968 Z M29.1296,78.1649 C25.3736,82.8159 21.4896,87.6239 21.9416,93.6759 C21.5876,93.7079 21.2326,93.7309 20.8826,93.7449 C19.2706,89.5229 21.5376,85.5229 23.6946,82.5079 C25.8336,79.5189 27.9266,76.2879 27.9696,72.5439 C27.9896,70.7509 27.6206,68.9709 27.2636,67.2489 C26.7766,64.9019 26.2736,62.4749 26.7676,60.0179 C27.8816,54.4869 32.7086,50.7389 37.7696,47.5149 C38.4926,48.5139 39.1106,49.5629 39.6246,50.4679 C34.7516,50.7889 30.6986,54.1649 29.5246,58.8909 C28.7206,61.8549 29.6236,64.7629 30.4986,67.5759 C30.9846,69.1409 31.4876,70.7589 31.6706,72.3379 C31.8046,73.4989 31.3896,74.8879 30.4006,76.5829 C29.9836,77.1079 29.5296,77.6689 29.1296,78.1649 Z M31.741,81.3613 C28.898,84.4313 28.28,88.5373 28.04,92.5203 C27.318,92.7013 26.611,92.8663 25.936,93.0123 C25.492,87.3833 29.487,83.1673 33.271,79.6563 L33.273,79.6533 C36.441,76.2313 35.593,73.1013 35.082,71.9143 C34.572,70.8223 33.964,69.8463 33.376,68.9033 C32.572,67.6133 31.813,66.3953 31.306,64.9343 C30.49,62.7703 30.549,60.6633 31.482,58.6723 C32.83,55.7913 36.106,53.1413 40.248,51.5773 C40.407,51.8623 40.567,52.1473 40.728,52.4313 C38.348,53.1133 34.983,54.3043 32.943,56.7673 C30.602,59.5943 32.664,62.3503 34.483,64.7823 L34.679,65.0433 C36.983,68.1363 37.896,71.0873 37.389,73.8163 C36.923,76.3293 35.11,78.0683 33.357,79.7503 C32.812,80.2723 32.251,80.8103 31.741,81.3613 Z M39.9786,79.1428 C36.6226,82.3248 32.8286,85.9208 33.4256,91.0098 C32.4866,91.2948 31.6336,91.5458 30.8206,91.7768 C30.9236,86.6438 34.6086,82.1298 37.3776,79.1758 L37.3896,79.1608 C37.6286,78.6938 37.9616,78.3578 38.2826,78.0338 C38.6146,77.6988 38.9576,77.3518 39.2066,76.8648 C41.5016,73.2608 39.6256,69.9778 37.8106,66.8038 C37.0296,65.4398 36.2236,64.0288 35.7916,62.6368 C35.1496,60.0108 35.4666,58.0768 36.8196,56.3698 C37.8616,55.0538 39.6526,54.1458 41.6136,53.9358 C42.0906,54.7058 42.5536,55.3758 43.0286,55.9808 C41.2506,56.3868 39.4676,56.9428 38.7156,58.7028 C37.6896,61.7848 39.1016,64.6078 40.4666,67.3378 C41.1786,68.7608 41.9136,70.2318 42.2896,71.7148 C43.2386,75.3228 42.3096,76.8308 41.5276,77.6528 C41.0326,78.1428 40.5206,78.6288 39.9786,79.1428 Z M40.5394,81.923 C37.2134,84.743 36.0384,88.135 36.0404,90.202 C35.0704,90.505 34.3184,90.738 33.6174,90.952 C33.0544,85.979 36.7994,82.428 40.1064,79.293 C40.6574,78.77 41.1704,78.284 41.6684,77.79 C43.3704,76.002 42.9464,73.438 42.4804,71.665 C42.1004,70.164 41.3594,68.683 40.6434,67.251 C39.2954,64.556 37.9024,61.77 38.8994,58.773 C39.6214,57.085 41.3994,56.55 43.1654,56.152 C43.4204,56.469 43.6404,56.725 43.8554,56.959 C44.1454,57.272 44.4704,57.601 44.8464,57.961 C42.6124,58.764 41.2644,60.034 40.8414,61.737 L40.8414,61.741 C40.3474,64.405 41.4174,66.645 42.4524,68.811 C42.9644,69.883 43.4944,70.992 43.8234,72.134 C44.4584,74.446 44.4044,78.022 40.5394,81.923 Z M23.1102,38.9297 C23.9122,38.9937 24.6902,39.0977 25.4432,39.2407 C21.2012,40.3077 19.3222,45.2067 18.0712,48.4677 C16.2452,53.2267 14.0912,56.6137 9.5062,57.6737 C7.9762,58.0267 6.0362,58.0767 4.1602,58.1237 C3.2502,58.1477 2.3092,58.1717 1.4622,58.2327 C1.5142,58.0777 1.5672,57.9227 1.6182,57.7637 C1.7312,57.4257 1.8412,57.0857 1.9502,56.7467 C2.1282,56.7537 2.3082,56.7577 2.4862,56.7577 C4.6102,56.7577 7.1672,56.3007 8.7602,55.8477 C10.9812,55.2167 12.7202,54.2037 13.9272,52.8367 C15.1602,51.4407 15.8952,49.7037 16.5412,48.0447 C17.8972,44.5667 19.2982,40.9697 23.1292,39.0857 L23.1752,39.0627 L23.1102,38.9297 Z M19.0662,38.9247 C20.4342,38.8277 21.7532,38.8257 23.0142,38.9227 C19.1362,40.8437 17.7242,44.4687 16.3572,47.9737 C15.7172,49.6157 14.9912,51.3347 13.7792,52.7067 C12.5972,54.0437 10.8902,55.0377 8.7062,55.6577 C6.9922,56.1457 4.1772,56.6257 2.0142,56.5507 C2.1992,55.9747 2.3832,55.3977 2.5672,54.8217 C3.1952,52.8477 3.8442,50.8067 4.5722,48.8227 L4.6072,48.8237 C4.6922,48.8247 4.7762,48.8267 4.8592,48.8267 C8.4262,48.8267 11.2272,47.6537 13.1842,45.3397 C13.7272,44.6977 14.2212,44.0067 14.6982,43.3387 C15.9322,41.6117 17.0972,39.9807 19.0722,39.0607 L19.1202,39.0387 L19.0662,38.9247 Z M17.7142,39.0507 C18.1032,39.0057 18.4882,38.9687 18.8702,38.9397 C16.9172,39.8927 15.7082,41.5857 14.5382,43.2237 C14.0632,43.8877 13.5722,44.5757 13.0332,45.2127 C11.0792,47.5237 8.2612,48.6737 4.6432,48.6247 L4.6642,48.5667 C5.0042,47.6517 5.3022,46.8877 5.6492,46.1407 C6.3732,46.3117 7.2122,46.4897 8.0542,46.4897 C9.0352,46.4897 9.8742,46.2527 10.6202,45.7647 C11.8862,44.9367 12.8802,43.7537 13.8422,42.6097 C14.9562,41.2837 16.1092,39.9127 17.7142,39.0507 Z M7.3911,43.3516 C8.9751,41.5196 11.3561,40.2756 14.6651,39.5496 C14.1221,40.1566 13.6831,40.8686 13.2921,41.5006 C12.6911,42.4736 12.0701,43.4796 11.1251,44.1796 C10.2451,44.8296 9.2031,45.2296 8.1091,45.3366 C7.6451,45.3816 6.6881,45.3136 6.4681,44.9446 C6.4231,44.8706 6.4101,44.7826 6.4281,44.6836 C6.7351,44.1806 7.0501,43.7456 7.3911,43.3516 Z M25.932,39.3395 C27.129,39.5965 28.275,39.9615 29.341,40.4235 C26.687,41.0225 23.116,42.5155 21.55,44.8225 C20.231,46.7645 19.635,49.0925 19.058,51.3435 L18.967,51.7015 C17.925,55.7765 16.743,60.3965 12.208,61.6705 C10.81,62.0635 9.321,62.1145 7.881,62.1635 L7.867,62.1635 C7.409,62.1795 6.935,62.1955 6.473,62.2235 C4.652,62.3305 1.901,63.1805 0.086,63.9755 C0.112,63.4555 0.156,62.9805 0.219,62.5245 C0.229,62.4505 0.241,62.3775 0.252,62.3035 L0.273,62.1655 C0.504,61.0435 0.874,59.9595 1.265,58.8125 L1.393,58.4355 C2.262,58.3705 3.229,58.3455 4.165,58.3215 L4.163,58.2695 L4.168,58.3215 C6.054,58.2725 8.003,58.2235 9.55,57.8655 C14.22,56.7865 16.408,53.3565 18.255,48.5385 C19.538,45.1945 21.475,40.1415 25.932,39.3395 Z M13.6915,42.4825 C12.7385,43.6165 11.7545,44.7875 10.5125,45.5995 C9.0045,46.5855 7.3925,46.3385 5.7365,45.9575 C5.9095,45.5965 6.0795,45.2695 6.2555,44.9645 C6.2655,44.9935 6.2785,45.0205 6.2945,45.0455 C6.5635,45.4965 7.4475,45.5455 7.8155,45.5455 C7.9255,45.5455 8.0355,45.5405 8.1245,45.5325 C9.2545,45.4225 10.3315,45.0095 11.2395,44.3375 C12.2165,43.6155 12.8485,42.5925 13.4595,41.6045 C13.9135,40.8695 14.3835,40.1095 15.0025,39.4765 C15.3915,39.3975 15.7995,39.3235 16.2175,39.2565 C16.5455,39.2035 16.8795,39.1545 17.2115,39.1115 C15.7855,39.9915 14.7215,41.2565 13.6915,42.4825 Z M52.1379,70.7976 C52.1479,70.7796 52.1579,70.7606 52.1679,70.7426 C52.0709,72.4046 51.7479,74.0406 51.4739,75.2946 C50.8769,78.0196 50.0959,80.8596 48.4389,83.1596 C48.3729,83.2506 48.3039,83.3396 48.2339,83.4276 L48.2299,83.4326 C47.9719,82.4226 47.7139,81.3786 48.2159,80.2716 C48.4479,79.8166 48.6859,79.3716 48.9149,78.9406 L48.9239,78.9246 C50.1329,76.6566 51.1779,74.6966 51.1509,72.2116 C51.5919,71.7836 51.8689,71.2826 52.1379,70.7976 Z M33.848,43.261 C34.216,43.572 34.575,43.896 34.916,44.226 C31.883,46.139 29.395,48.404 27.52,50.958 C25.208,54.108 24.05,57.582 23.876,61.889 C23.836,62.876 23.834,63.864 23.833,64.819 C23.828,67.667 23.823,70.353 22.899,73.1 C21.875,76.143 20.024,79.159 17.396,82.064 C14.428,85.346 12.953,88.74 13.01,92.154 C12.23,91.732 11.517,91.229 10.892,90.656 C9.201,89.11 8.133,87.095 7.311,85.328 C7.209,85.108 7.11,84.887 7.011,84.665 L6.997,84.633 C9.112,81.285 11.825,78.785 14.696,76.14 C15.861,75.066 17.066,73.955 18.224,72.786 C21.483,68.952 22.005,64.475 22.557,59.735 L22.559,59.718 C22.673,58.746 22.79,57.741 22.932,56.747 C23.111,53.172 25.206,50.545 27.524,47.948 C27.726,47.778 27.916,47.624 28.1,47.476 L28.114,47.465 C28.624,47.052 29.024,46.728 29.41,46.241 C30.7,45.149 32.017,44.093 33.848,43.261 Z M23.5348,82.3933 C21.3598,85.4323 19.0748,89.4653 20.6758,93.7523 C19.6118,93.7843 18.5728,93.7303 17.5858,93.5943 C17.0808,90.0693 16.8628,85.5893 19.6108,82.1203 C19.8458,81.8243 20.0828,81.5273 20.3208,81.2303 C22.7138,78.2373 25.1888,75.1433 26.0938,71.2363 L26.0958,71.2103 C25.9928,70.3223 25.8648,69.4233 25.7418,68.5543 C25.2358,65.0103 24.7148,61.3483 25.7358,57.9203 C27.5518,53.3023 30.9378,49.0293 35.0238,46.2023 C35.2218,46.0723 35.4708,45.9753 35.7338,45.8733 C35.9158,45.8023 36.0938,45.7313 36.2718,45.6463 C36.6898,46.1203 37.1008,46.6233 37.4948,47.1403 C37.5348,47.1933 37.5738,47.2473 37.6128,47.3013 L37.6528,47.3553 C32.5598,50.6003 27.7018,54.3773 26.5748,59.9783 C26.0718,62.4753 26.5798,64.9223 27.0708,67.2893 C27.4258,69.0003 27.7928,70.7703 27.7718,72.5413 C27.7298,76.2283 25.6558,79.4303 23.5348,82.3933 Z M32.5702,85.1753 C31.2872,87.4843 30.6492,89.6623 30.6222,91.8333 C29.7732,92.0713 28.9932,92.2803 28.2402,92.4713 C28.4802,88.5473 29.0962,84.5073 31.8852,81.4953 C32.3922,80.9483 32.9502,80.4133 33.4902,79.8953 C35.2692,78.1893 37.1052,76.4273 37.5832,73.8523 C38.0992,71.0673 37.1752,68.0643 34.8362,64.9263 L34.6412,64.6653 C32.8652,62.2903 30.8532,59.6003 33.0942,56.8933 C35.1102,54.4593 38.4642,53.2823 40.8282,52.6073 C41.0642,53.0213 41.2852,53.3963 41.5002,53.7493 C39.5242,53.9833 37.7212,54.9133 36.6642,56.2473 C35.2702,58.0073 34.9422,59.9943 35.6012,62.6893 C36.0402,64.1053 36.8522,65.5253 37.6372,66.8983 C39.4252,70.0253 41.2722,73.2553 39.0362,76.7673 C38.7962,77.2343 38.4642,77.5703 38.1432,77.8943 C37.8132,78.2273 37.4732,78.5703 37.2242,79.0513 C35.1552,81.2593 33.6332,83.2623 32.5702,85.1753 Z M31.6864,41.6698 C32.3654,42.0998 33.0354,42.5878 33.6804,43.1208 C31.8704,43.9568 30.5604,45.0098 29.2684,46.1048 C28.8834,46.5888 28.4894,46.9068 27.9914,47.3108 C27.7844,47.4778 27.5974,47.6288 27.3874,47.8068 C25.0374,50.4388 22.9164,53.0978 22.7364,56.7278 C22.5924,57.7318 22.4754,58.7388 22.3614,59.7128 C21.8134,64.4218 21.2944,68.8698 18.0784,72.6528 C16.9314,73.8108 15.7304,74.9178 14.5684,75.9888 C11.7124,78.6208 9.0204,81.1018 6.9004,84.4178 C6.7444,84.0668 6.5914,83.7158 6.4404,83.3658 C5.0114,80.0598 3.5334,76.6408 2.2084,73.2268 C2.0224,72.7458 1.8364,72.2588 1.6554,71.7648 L1.7524,71.8328 L1.7824,71.7898 C2.2444,71.1318 3.0144,70.7098 3.9524,70.6008 C12.8034,67.9848 17.9494,63.8698 19.2574,58.3688 C19.5484,57.2958 19.7764,56.1798 19.9964,55.0998 C20.7134,51.5828 21.4554,47.9478 24.5384,45.3338 C26.0524,43.9628 28.5824,42.9348 30.6154,42.1098 C30.9914,41.9568 31.3494,41.8108 31.6864,41.6698 Z M29.6484,40.5598 C30.2564,40.8388 30.8734,41.1688 31.4814,41.5418 C31.2024,41.6578 30.9094,41.7768 30.6054,41.9008 L30.5414,41.9268 C28.4944,42.7578 25.9464,43.7928 24.4084,45.1848 C21.2754,47.8418 20.5274,51.5108 19.8034,55.0598 C19.5824,56.1448 19.3554,57.2538 19.0664,58.3208 C17.7754,63.7498 12.6764,67.8168 3.9124,70.4088 C2.9334,70.5208 2.1174,70.9708 1.6224,71.6748 C0.9204,69.7508 0.3034,67.7258 0.0854,65.6118 C0.0754,65.5168 0.0694,65.4248 0.0624,65.3328 L0.0574,65.2658 C0.0554,64.9268 0.0624,64.5658 0.0764,64.1958 C1.8804,63.3928 4.6504,62.5288 6.4854,62.4198 C6.9444,62.3928 7.4164,62.3768 7.8734,62.3608 L7.8884,62.3608 C9.3394,62.3108 10.8404,62.2588 12.2614,61.8598 C16.9054,60.5558 18.1024,55.8778 19.1584,51.7508 L19.2494,51.3918 C19.8214,49.1578 20.4144,46.8468 21.7124,44.9328 C23.2004,42.7418 26.7664,41.1588 29.6484,40.5598 Z M33.1312,79.5171 C29.3112,83.0621 25.2752,87.3241 25.7412,93.0541 C25.0492,93.2011 24.4082,93.3261 23.7852,93.4341 C23.2372,93.5281 22.6832,93.6041 22.1372,93.6581 C21.6932,87.6851 25.5512,82.9081 29.2832,78.2891 C29.6832,77.7931 30.1382,77.2301 30.5632,76.6941 C31.5812,74.9511 32.0062,73.5211 31.8662,72.3151 C31.6812,70.7181 31.1752,69.0911 30.6862,67.5171 C29.8202,64.7321 28.9252,61.8511 29.7152,58.9411 C30.8782,54.2601 34.9002,50.9351 39.7322,50.6581 C39.8722,50.9061 40.0112,51.1551 40.1502,51.4031 C35.9742,52.9871 32.6692,55.6701 31.3032,58.5881 C30.3472,60.6301 30.2862,62.7881 31.1202,65.0021 C31.6332,66.4811 32.3982,67.7081 33.2092,69.0081 C33.7942,69.9471 34.3992,70.9171 34.9022,71.9951 C36.3902,75.4491 34.1592,78.4061 33.1312,79.5171 Z M44.9066,81.4288 C43.5326,83.4928 42.1146,85.6238 42.0906,88.0678 C41.3656,88.4018 40.5786,88.7198 39.7486,89.0148 C39.9726,86.4448 41.3636,84.4288 42.8346,82.2958 C43.7106,81.0258 44.6166,79.7128 45.3066,78.2328 C46.7346,75.2868 45.6506,72.6398 44.5026,69.8368 C44.3006,69.3428 44.0706,68.7828 43.8616,68.2288 C43.3756,66.4548 43.4906,64.5798 44.1886,62.9538 C44.7476,61.6488 45.6586,60.5478 46.8236,59.7648 C47.7116,60.5638 48.6446,61.4218 49.4546,62.3568 C47.8336,63.7688 46.9946,65.3208 46.8906,67.0998 C46.8176,68.3518 47.0516,69.5978 47.2776,70.8018 C47.4076,71.4878 47.5406,72.1938 47.6136,72.8898 C47.8246,74.8718 47.4926,76.8288 46.6536,78.5488 C46.1876,79.5048 45.5656,80.4398 44.9066,81.4288 Z M47.1016,79.6851 C45.6996,81.1581 44.6426,84.2121 44.6906,86.6471 C43.9676,87.1171 43.1606,87.5631 42.2906,87.9741 C42.3496,85.6251 43.7326,83.5491 45.0696,81.5401 C45.7326,80.5431 46.3586,79.6031 46.8316,78.6361 C47.6866,76.8831 48.0246,74.8881 47.8096,72.8681 C47.7356,72.1671 47.6026,71.4591 47.4736,70.7741 C47.2476,69.5751 47.0156,68.3411 47.0876,67.1111 C47.1876,65.3891 48.0036,63.8821 49.5836,62.5071 C50.3546,63.4221 50.9296,64.3201 51.3386,65.2511 C51.4336,65.4671 51.5216,65.6921 51.6066,65.9391 C50.7846,66.7741 50.1456,67.8081 49.7076,69.0151 L49.7046,69.0271 C49.6076,69.8761 49.5526,70.7001 49.4996,71.4961 C49.3046,74.3971 49.1196,77.1381 47.1016,79.6851 Z M42.6735,82.1829 C41.1695,84.3629 39.7495,86.4219 39.5445,89.0859 C39.1485,89.2229 38.7885,89.3419 38.4455,89.4489 C37.9365,89.6079 37.4245,89.7679 36.9095,89.9299 L36.2375,90.1399 C36.2565,88.1189 37.4255,84.8219 40.6735,82.0679 L40.6765,82.0649 C43.7455,78.9669 44.9305,75.4209 44.0125,72.0809 C43.6785,70.9219 43.1465,69.8059 42.6305,68.7259 C41.6085,66.5879 40.5535,64.3779 41.0345,61.7799 C41.4455,60.1249 42.7825,58.8909 45.0065,58.1139 C45.4865,58.5669 45.9885,59.0179 46.4755,59.4539 L46.6715,59.6299 C45.4955,60.4309 44.5755,61.5519 44.0075,62.8759 C43.2925,64.5439 43.1735,66.4659 43.6745,68.2889 C43.8855,68.8499 44.1065,69.3899 44.3205,69.9119 C45.4515,72.6729 46.5185,75.2809 45.1285,78.1489 C44.4445,79.6149 43.5445,80.9209 42.6735,82.1829 Z M48.0493,83.5212 L48.0763,83.6302 C47.2253,84.6962 46.1523,85.6662 44.8862277,86.5152 C44.8763,84.1532 45.9043,81.2282 47.2503,79.8142 L47.2533,79.8102 C49.3123,77.2122 49.4983,74.4422 49.6953,71.5092 C49.7493,70.7152 49.8043,69.8942 49.8973,69.0602 C50.3093,67.9332 50.9083,66.9502 51.6773,66.1502 C52.0743,67.3842 52.2413,68.7462 52.1873,70.3102 C52.1123,70.4382 52.0393,70.5682 51.9653,70.7022 C51.6973,71.1862 51.4203,71.6852 50.9843,72.0992 L50.9533,72.1282 L50.9533,72.1722 C50.9923,74.6262 49.9533,76.5752 48.7493,78.8312 C48.5183,79.2662 48.2783,79.7162 48.0383,80.1852 C47.4993,81.3752 47.7793,82.4662 48.0493,83.5212 Z" id="cri.planets-5"></path>
                <path d="M87.1223,41.2485 C87.2573,41.2035 87.3933,41.1595 87.5293,41.1145 C86.0163,41.9905 84.8943,42.9615 84.1093,44.0725 C82.5933,46.2145 82.2493,48.9395 81.9443,51.3435 L80.9003,59.5955 C80.6353,61.6865 80.3613,63.8495 80.4383,65.9995 C80.5273,68.5115 81.0973,71.0045 81.6483,73.4165 L81.6523,73.4335 C81.7823,74.0035 81.9163,74.5925 82.0423,75.1725 C83.2733,80.8405 83.9043,86.6555 83.9183,92.4575 C83.9373,100.5645 82.5743,106.9185 79.7513,111.8795 C78.0403,111.7845 76.4813,111.4405 75.1143,110.8555 C75.6023,110.4355 75.9453,109.8425 76.2293,109.3165 C79.0203,104.1515 80.8093,98.2545 81.4023,92.2635 C81.9963,86.2715 81.3983,80.1385 79.6753,74.5265 C79.4703,73.8595 79.2413,73.1705 79.0393,72.5635 C78.4913,70.9115 77.9233,69.2035 77.6273,67.4645 C77.2033,64.9825 77.3393,62.4385 77.5043,60.4985 C77.7143,58.0445 78.0483,55.9955 78.5233,54.2335 C79.1493,53.3775 79.6853,52.5975 80.1593,51.8515 C80.8223,50.8095 81.3383,49.5225 81.8853,48.1615 C83.0643,45.2245 84.2833,42.1875 87.1223,41.2485 Z M95.0381,99.0529 C94.5091,102.0679 93.8681,105.1399 93.1331,108.1819 C92.1691,108.7939 91.1291,109.3479 90.0411,109.8299 C94.8211,96.3389 94.6071,88.3949 94.0291,83.5899 C93.6071,80.0839 92.6901,76.5979 91.8021,73.2269 C90.6361,68.7969 89.4311,64.2199 89.3531,59.5849 C89.3101,57.0719 89.5971,54.5609 90.2061,52.1229 C90.6041,50.5249 91.3251,48.2219 92.9801,46.6729 C94.3681,45.3759 96.2481,44.7369 97.9021,44.2399 C100.0301,43.5999 102.9581,42.8469 105.3681,42.3209 C105.6061,42.5229 105.8351,42.7319 106.0481,42.9419 C102.2131,44.2169 98.2671,45.7339 95.7151,48.8949 C94.0891,50.9089 93.2181,53.3749 92.4661,55.7279 C91.9061,57.4799 91.2901,59.5269 91.0801,61.6329 C90.6711,65.7169 91.7841,69.7859 92.8611,73.7209 L93.0571,74.4399 C95.4401,83.1939 97.3271,92.1819 98.6671,101.1549 L98.6811,101.2459 C98.7261,101.5509 98.7721,101.8569 98.8211,102.1629 C98.3751,103.0269 97.9101,103.7669 97.4001,104.4269 C97.3741,104.4609 97.3481,104.4939 97.3211,104.5269 C96.8351,101.5219 96.5241,98.4799 96.3971,95.4819 L96.3861,95.2159 L96.2311,95.4329 C95.4901,96.4719 95.2631,97.7649 95.0451,99.0149 L95.0381,99.0529 Z M85.3188,83.076 C87.4058,92.635 86.2958,102.853 82.1928,111.85 C81.4308,111.907 80.6788,111.921 79.9548,111.889 C82.7638,106.91 84.1198,100.552 84.1008,92.456 C84.0868,86.642 83.4548,80.814 82.2208,75.134 C82.0958,74.558 81.9628,73.972 81.8338,73.406 L81.8268,73.376 C81.2778,70.972 80.7098,68.487 80.6208,65.993 C80.5448,63.86 80.8178,61.705 81.0808,59.621 L82.1258,51.367 C82.4278,48.984 82.7698,46.283 84.2588,44.178 C85.1758,42.88 86.5178,41.809 88.4818,40.808 C91.2678,39.93 94.5388,39.066 97.7498,39.276 C96.1798,39.647 94.6248,40.102 93.1198,40.629 C91.7258,41.118 90.2738,41.706 89.1038,42.697 C87.1348,44.367 86.2118,46.963 85.5008,49.265 C84.3488,53 83.4108,56.843 82.7128,60.689 C82.3568,62.65 81.9968,64.966 82.0198,67.264 C82.0578,70.959 83.0638,74.589 84.0378,78.1 C84.4898,79.732 84.9548,81.412 85.3188,83.076 Z M95.9736,103.3485 C95.3376,104.5865 94.8296,105.9025 94.4656,107.2615 C94.1116,107.5275 93.7386,107.7885 93.3556,108.0385 C94.0736,105.0535 94.6996,102.0425 95.2186,99.0845 L95.2246,99.0465 C95.4246,97.9095 95.6296,96.7355 96.2266,95.7705 C96.3646,98.7535 96.6796,101.7645 97.1646,104.7225 C97.0856,104.8175 96.9986,104.9195 96.9006,105.0305 C96.5506,104.4945 96.1956,103.9425 96.1456,103.3825 L96.1176,103.0675 L95.9736,103.3485 Z M74.3364,72.6677 L74.3874,72.6607 L74.3364,72.6677 L74.3364,72.6717 C74.6824,75.4877 75.0394,78.3987 75.0104,81.2477 C74.9684,85.4217 74.0994,89.5727 73.2584,93.5877 C72.6664,96.4157 71.9964,99.6167 70.1874,102.1247 C69.6704,102.8417 69.0554,103.5087 68.4164,104.1837 L68.4154,104.1837 L68.3424,104.0727 C67.7324,103.1417 67.0174,102.1267 66.2604,101.0527 C65.8864,100.5217 65.5014,99.9757 65.1124,99.4167 C66.6114,97.4387 67.5174,95.1137 68.2074,93.0977 C71.3854,83.8057 72.3904,73.7377 71.1134,63.9807 C71.4254,63.5097 71.6864,63.1267 71.9324,62.7767 C72.5254,61.9347 73.1804,61.0607 74.0424,59.9627 C73.2904,64.1467 73.8224,68.4777 74.3364,72.6677 Z M89.4493,94.4736 C89.0503,100.2386 87.8303,105.8876 85.8243,111.2646 C84.6693,111.5466 83.5183,111.7376 82.4003,111.8336 C86.4863,102.8236 87.5863,92.6006 85.4973,83.0366 C85.1333,81.3686 84.6673,79.6876 84.2163,78.0616 C83.2433,74.5516 82.2403,70.9326 82.2033,67.2626 C82.1803,64.9776 82.5393,62.6736 82.8933,60.7216 C83.5893,56.8826 84.5263,53.0466 85.6763,49.3186 C86.3793,47.0416 87.2903,44.4746 89.2223,42.8376 C90.3693,41.8656 91.8023,41.2846 93.1803,40.8016 C94.8573,40.2146 96.5943,39.7176 98.3433,39.3266 C100.0803,39.5126 101.6553,39.9996 103.1593,40.8156 C103.4363,40.9656 103.7073,41.1256 103.9843,41.3026 C100.7713,41.3046 97.4953,41.8676 94.4963,42.9316 C91.4643,44.0086 90.2473,45.1846 89.5953,45.9746 C88.4363,47.3816 87.8963,49.2266 87.4813,50.8446 C85.7673,57.5286 85.3373,63.3396 86.1653,68.6106 C86.4663,70.5316 86.9503,72.4466 87.4183,74.2986 C87.6663,75.2786 87.9233,76.2916 88.1513,77.3036 C89.4133,82.9046 89.8503,88.6806 89.4493,94.4736 Z M76.7213,56.5935 C77.2883,55.8745 77.7853,55.2285 78.2333,54.6265 C77.8143,56.3015 77.5153,58.2205 77.3223,60.4825 C77.1553,62.4335 77.0193,64.9935 77.4463,67.4955 C77.7453,69.2465 78.3143,70.9605 78.8643,72.6175 C79.0793,73.2635 79.2993,73.9265 79.5003,74.5805 C81.2163,80.1705 81.8113,86.2785 81.2203,92.2455 C80.6293,98.2125 78.8483,104.0855 76.0683,109.2295 C75.7643,109.7925 75.4253,110.3755 74.9293,110.7735 C74.3873,110.5295 73.8783,110.2485 73.4143,109.9365 C72.4593,109.2945 71.5523,108.4405 70.6433,107.3245 C73.7943,103.5245 76.0013,98.6325 77.0243,93.1745 C78.0523,87.6925 77.9913,81.6665 76.8323,74.2095 C76.7403,73.6155 76.6413,73.0075 76.5453,72.4155 L76.5283,72.3145 C75.6613,66.9935 74.7653,61.4905 76.7213,56.5935 Z M68.5234,68.1143 C68.6894,67.8413 68.8554,67.5693 69.0214,67.2963 C70.1454,72.2553 70.0374,77.5713 68.7094,82.6793 C67.5044,87.3103 65.3144,91.6503 62.3734,95.2323 C62.0784,94.7423 61.7954,94.2493 61.5304,93.7663 C64.4764,89.4403 66.3764,85.6713 67.5084,81.9083 C68.4574,78.7563 69.3094,73.9583 67.9904,68.9893 C68.1684,68.6983 68.3454,68.4063 68.5234,68.1143 Z M62.2611,77.011 C62.4631,76.784 62.6651,76.557 62.8631,76.329 C62.8251,76.807 62.7921,77.285 62.7621,77.737 C62.6531,79.392 62.5401,81.102 62.1171,82.727 C61.5961,84.733 60.5861,86.625 59.1951,88.206 C58.9011,87.092 58.7391,86.016 58.7161,85.007 C58.7991,84.907 58.8711,84.815 58.9371,84.723 C59.5441,83.877 59.9701,82.812 60.2401,81.468 C60.3941,80.698 60.4851,79.907 60.5111,79.117 C61.0411,78.384 61.6611,77.686 62.2611,77.011 Z M69.1588,67.0717 C69.6438,66.2777 70.2808,65.2467 70.9588,64.2137 C72.1918,73.8767 71.1808,83.8407 68.0338,93.0387 C67.3548,95.0227 66.4638,97.3107 65.0028,99.2577 C63.9738,97.7737 63.1688,96.5447 62.4738,95.3977 C65.4518,91.7857 67.6688,87.4037 68.8858,82.7247 C70.2388,77.5237 70.3338,72.1107 69.1588,67.0717 Z M63.0662,76.0939 C63.8942,75.1249 64.7242,74.0259 65.6002,72.7379 C66.0202,76.0009 65.6762,79.4309 64.6032,82.6659 C63.6212,85.6269 62.0352,88.3789 60.0162,90.6319 C59.7082,89.8729 59.4512,89.1289 59.2532,88.4169 C60.7042,86.7969 61.7552,84.8459 62.2942,82.7729 C62.7212,81.1319 62.8352,79.4119 62.9452,77.7499 C62.9812,77.2089 63.0182,76.6489 63.0662,76.0939 Z M60.0607,81.4318 C59.7967,82.7498 59.3797,83.7918 58.7877,84.6158 C58.7637,84.6498 58.7397,84.6828 58.7147,84.7158 C58.7187,83.4518 58.9407,82.2488 59.3757,81.1368 C59.5977,80.5688 59.9057,79.9978 60.3147,79.3978 C60.2797,80.0838 60.1937,80.7668 60.0607,81.4318 Z M67.8574,69.2067 C69.1024,74.0767 68.2634,78.7677 67.3334,81.8557 C66.2134,85.5797 64.3364,89.3087 61.4314,93.5867 C61.0604,92.9027 60.7454,92.2777 60.4704,91.6777 C60.3414,91.3987 60.2154,91.1097 60.0944,90.8197 C62.1584,88.5357 63.7774,85.7367 64.7764,82.7237 C65.8814,79.3917 66.2204,75.8607 65.7554,72.5097 C66.5284,71.3597 67.2484,70.2017 67.8574,69.2067 Z M75.5074,58.118 C75.7884,57.766 76.0704,57.414 76.3504,57.061 C74.6414,61.87 75.5084,67.192 76.3474,72.343 C76.4494,72.966 76.5544,73.61 76.6514,74.238 C77.8074,81.673 77.8684,87.68 76.8444,93.14 C75.8294,98.554 73.6454,103.406 70.5264,107.179 C69.7984,106.268 69.1364,105.279 68.5194,104.342 C69.1754,103.649 69.8074,102.966 70.3364,102.232 C72.1674,99.693 72.8414,96.472 73.4374,93.63 C74.2794,89.605 75.1514,85.443 75.1934,81.249 C75.2224,78.385 74.8644,75.467 74.5184,72.645 C73.9914,68.353 73.4464,63.915 74.2874,59.651 C74.6914,59.138 75.0994,58.628 75.5074,58.118 Z M112.2682,77.0483 C112.2722,74.0143 112.9192,70.9503 114.1452,68.1673 C114.4782,69.3023 114.7512,70.5163 114.5882,71.7463 C114.3822,73.3023 113.6442,74.9903 112.2682,77.0483 Z M109.6942,79.9344 C109.7082,80.1234 109.7222,80.3144 109.7382,80.5054 C109.3162,81.0654 108.8332,81.7154 108.4022,82.3494 C108.0452,78.5434 108.0222,74.6764 108.3312,70.8514 C108.7332,65.8814 109.6932,60.9744 111.1862,56.2634 C111.3122,57.0144 111.4542,57.7834 111.6202,58.6134 C110.3232,61.5254 109.5872,64.8694 109.3692,68.8344 C109.1732,72.3994 109.4002,75.9704 109.6942,79.9344 Z M112.199,61.2684 C110.471,67.3404 109.814,73.5864 110.246,79.8334 C110.131,79.9844 110.017,80.1354 109.904,80.2844 C109.895,80.1634 109.885,80.0414 109.877,79.9204 C109.378,73.1964 108.813,65.5804 111.683,58.9274 C111.838,59.6904 112.012,60.4764 112.199,61.2684 Z M103.6685,79.3629 C104.0555,82.6459 104.2635,85.9969 104.2875,89.3239 C103.1495,91.4899 102.2185,93.5299 101.4445,95.5549 C101.9915,88.3269 101.6995,81.0319 100.5775,73.8659 C100.4905,73.3049 100.3955,72.7339 100.3035,72.1789 L100.2845,72.0629 C99.7875,69.0759 99.2735,65.9879 99.5115,62.9389 C99.9685,57.0879 104.6935,51.3029 108.7805,46.9059 C108.8815,47.1249 108.9805,47.3549 109.0775,47.5899 C107.3655,50.8259 105.1095,55.3869 104.0635,58.7849 C103.0345,62.1279 102.5445,65.5949 102.6065,69.0909 C102.6505,71.6179 102.9905,74.1649 103.3175,76.6279 C103.4315,77.4819 103.5595,78.4429 103.6685,79.3629 Z M108.1487,70.8369 C107.8327,74.7489 107.8637,78.7029 108.2407,82.5899 C108.1747,82.6899 108.1097,82.7899 108.0457,82.8899 C107.4247,83.8669 106.8587,84.7869 106.3197,85.6949 C106.3927,85.2319 106.4707,84.7259 106.5347,84.2369 C106.9687,80.9299 106.8887,77.5319 106.8117,74.2459 C106.7267,70.6339 106.6387,66.9019 107.2347,63.2929 C107.8387,59.6369 109.1287,56.1319 110.5187,52.5679 C110.7477,53.6809 110.9417,54.8069 111.1197,55.8699 C109.5607,60.6999 108.5617,65.7349 108.1487,70.8369 Z M96.7675,105.1622 L96.7735,105.1722 C96.1785,105.8332 95.4825,106.4732 94.7055,107.0782 C95.0365,105.9032 95.4745,104.7622 96.0105,103.6802 C96.1355,104.1942 96.4565,104.6852 96.7675,105.1622 Z M113.1483,64.8934 C111.5813,69.3274 110.9023,73.9564 111.1303,78.6544 C110.8923,78.9764 110.6523,79.2954 110.4143,79.6104 C110.0203,73.5634 110.6493,67.5174 112.2853,61.6344 C112.5433,62.7034 112.8333,63.7984 113.1483,64.8934 Z M114.064,67.897 C112.735,70.836 112.052,74.091 112.088,77.314 C111.85,77.661 111.593,78.024 111.303,78.42 C111.112,73.907 111.762,69.459 113.236,65.195 C113.421,65.83 113.583,66.366 113.742,66.871 L113.804,67.065 C113.892,67.341 113.979,67.618 114.064,67.897 Z M105.7484,68.9254 L104.8184,88.3284 C104.7004,88.5454 104.5834,88.7634 104.4674,88.9814 C104.4324,85.7614 104.2244,82.5194 103.8504,79.3414 C103.7424,78.4324 103.6204,77.5084 103.5014,76.6154 C103.1724,74.1484 102.8334,71.6054 102.7894,69.0884 C102.7274,65.6114 103.2154,62.1624 104.2384,58.8394 C105.2674,55.4964 107.4754,51.0174 109.1674,47.8124 C109.3864,48.3634 109.5904,48.9514 109.7744,49.5604 C108.4484,53.1994 106.9824,57.4404 106.3374,61.7314 C105.9784,64.1164 105.8614,66.5614 105.7484,68.9254 Z M106.1145,85.8243 L106.0675,86.1233 C105.7055,86.7413 105.3535,87.3593 105.0195,87.9643 L105.9315,68.9303 C106.0445,66.5713 106.1615,64.1323 106.5185,61.7583 C107.1515,57.5513 108.5685,53.4163 109.8605,49.8563 C110.0725,50.5883 110.2655,51.3703 110.4515,52.2383 C109.0125,55.9173 107.6715,59.5293 107.0545,63.2623 C106.4555,66.8903 106.5435,70.6313 106.6285,74.2483 C106.7055,77.5323 106.7855,80.9213 106.3525,84.2133 C106.2825,84.7493 106.1975,85.2953 106.1145,85.8243 Z M100.449,97.296 C100.447,97.624 100.445,97.955 100.449,98.286 C100.37,98.502 100.292,98.717 100.212,98.932 L94.47,71.27 C93.843,68.246 93.195,65.123 93.471,61.993 C93.964,56.406 97.52,50.793 103.486,46.19 C104.048,45.757 105.148,45.251 106.313,44.716 C106.619,44.576 106.927,44.434 107.23,44.292 C107.366,44.472 107.499,44.659 107.627,44.848 C106.835,45.567 105.985,46.302 105.162,47.013 C103.47,48.473 101.725,49.981 100.608,51.256 C97.196,55.151 95.628,61.072 96.194,67.928 C96.497,71.608 97.324,75.27 98.122,78.812 C98.598,80.92 99.09,83.099 99.468,85.267 C100.131,89.078 100.462,92.971 100.451,96.838 C100.451,96.99 100.45,97.143 100.449,97.296 Z M94.2911,71.306 L100.0911,99.251 C99.6961,100.292 99.3361,101.134 98.9631,101.885 C98.9271,101.658 98.8931,101.432 98.8591,101.207 L98.8591,101.204 L98.8481,101.128 C97.5071,92.148 95.6181,83.152 93.2341,74.391 L93.0371,73.672 C91.9651,69.751 90.8571,65.699 91.2621,61.651 C91.4711,59.563 92.0831,57.528 92.6401,55.783 C93.3871,53.448 94.2511,51 95.8571,49.01 C98.3921,45.871 102.3501,44.361 106.1921,43.087 C106.5231,43.425 106.8341,43.78 107.1171,44.143 C106.8291,44.278 106.5361,44.413 106.2441,44.546 C105.0621,45.089 103.9531,45.599 103.3741,46.045 C97.3671,50.68 93.7851,56.338 93.2881,61.977 C93.0101,65.134 93.6611,68.272 94.2911,71.306 Z M93.8475,83.6112 C95.0545,93.6422 92.1245,103.4312 89.8115,109.9292 C88.5895,110.4562 87.3205,110.8872 86.0405,111.2112 C88.0295,105.8442 89.2385,100.2082 89.6335,94.4592 C90.0325,88.6582 89.5945,82.8722 88.3295,77.2632 C88.1045,76.2662 87.8505,75.2582 87.6045,74.2842 L87.5965,74.2542 C87.1295,72.4072 86.6465,70.4972 86.3455,68.5822 C85.5215,63.3372 85.9515,57.5502 87.6585,50.8902 C88.0685,49.2912 88.6015,47.4692 89.7365,46.0922 C91.0685,44.4762 93.1255,43.6132 94.5575,43.1052 C97.5455,42.0432 100.8045,41.4852 104.0035,41.4852 C104.0915,41.4852 104.1795,41.4862 104.2665,41.4862 C104.5805,41.6982 104.8905,41.9282 105.1895,42.1722 C102.7775,42.7032 99.9745,43.4252 97.8495,44.0642 C96.1755,44.5672 94.2715,45.2152 92.8555,46.5392 C91.1645,48.1212 90.4315,50.4582 90.0275,52.0782 C89.4155,54.5322 89.1275,57.0592 89.1695,59.5882 C89.2475,64.2442 90.4555,68.8322 91.6245,73.2702 C92.5115,76.6392 93.4275,80.1182 93.8475,83.6112 Z M100.397,73.8947 C101.549,81.2527 101.822,88.7517 101.209,96.1847 C101.048,96.6177 100.892,97.0547 100.735,97.4907 L100.63,97.7837 C100.63,97.6207 100.631,97.4587 100.632,97.2977 L100.635,96.8387 C100.645,92.9597 100.313,89.0557 99.648,85.2357 C99.27,83.0677 98.778,80.8837 98.301,78.7717 C97.503,75.2367 96.679,71.5817 96.376,67.9127 C96.115,64.7497 96.303,61.7847 96.935,59.0997 C97.654,56.0407 98.937,53.4417 100.745,51.3767 C101.856,50.1087 103.597,48.6047 105.282,47.1517 C106.097,46.4467 106.939,45.7197 107.73,45.0017 C108.078,45.5327 108.402,46.1137 108.695,46.7277 C104.572,51.1577 99.792,56.9967 99.329,62.9247 C99.09,65.9947 99.605,69.0927 100.103,72.0897 C100.197,72.6527 100.302,73.2887 100.397,73.8947 L100.448,73.8867 L100.397,73.8947 Z" id="cri.planets-4"></path>
                <path d="M100.4786,7.702 C100.8016,7.702 101.1206,7.729 101.4436,7.791 C99.1696,10.254 96.1046,12.107 92.7906,13.022 C92.9376,12.776 93.0816,12.552 93.2276,12.338 C94.3076,10.759 95.5916,9.539 97.0426,8.711 C98.0966,8.11 99.1496,7.774 100.1726,7.712 C100.2746,7.706 100.3766,7.703 100.4786,7.702 Z M104.8873,9.6614 C105.2763,9.9834 105.6553,10.3204 105.9483,10.5864 C104.7393,11.7864 103.2163,12.6914 101.8843,13.4194 C98.3073,15.3734 94.5083,16.9414 90.5923,18.0794 C90.5633,18.0884 90.5353,18.0964 90.5063,18.1034 L90.6603,17.7094 C90.8493,17.2214 91.0443,16.7164 91.2443,16.2234 C92.1973,16.0584 93.1863,15.7604 94.1863,15.3374 C96.0263,14.5584 97.7243,13.4464 99.4463,12.2794 C101.0283,11.2064 102.5523,10.1364 103.8063,8.8374 C104.1383,9.0644 104.4823,9.3264 104.8873,9.6614 Z M109.0873,13.2532 C109.3433,13.4312 109.6223,13.6102 109.9603,13.8162 C104.0563,18.6312 96.6263,21.4812 89.0223,21.8482 L89.6353,20.3112 C90.1453,20.2842 90.6473,20.1942 91.0303,20.1182 C97.1673,18.9012 103.0523,16.2532 108.0503,12.4612 C108.4183,12.7642 108.7573,13.0242 109.0873,13.2532 Z M106.4532,11.0476 C106.9232,11.4786 107.4092,11.9236 107.9062,12.3406 C102.9372,16.1026 97.0912,18.7296 90.9942,19.9386 C90.5882,20.0196 90.1522,20.0976 89.7082,20.1266 C89.9492,19.5226 90.1882,18.9186 90.4252,18.3136 L90.4872,18.2976 C90.5392,18.2846 90.5902,18.2716 90.6442,18.2556 C94.5722,17.1136 98.3832,15.5406 101.9722,13.5796 C103.3182,12.8446 104.8572,11.9296 106.0832,10.7106 C106.2072,10.8226 106.3302,10.9356 106.4532,11.0476 Z M110.9084,14.3727 C111.2754,14.5847 111.6534,14.8027 112.0184,15.0287 C110.3634,16.4517 108.2304,17.3577 106.5134,18.0877 C100.8984,20.4747 95.1744,22.8147 89.5024,25.0427 L89.3994,25.0827 C88.7434,25.3397 88.1014,25.5937 87.4644,25.8637 C87.9514,24.5527 88.4644,23.2507 88.9474,22.0347 C96.6424,21.6817 104.1624,18.7997 110.1274,13.9167 C110.3864,14.0707 110.6474,14.2217 110.9084,14.3727 Z M101.652,7.835 C102.31,7.989 102.965,8.283 103.652,8.734 C102.414,10.01 100.907,11.068 99.344,12.128 C97.629,13.29 95.94,14.396 94.115,15.168 C93.17,15.568 92.233,15.855 91.327,16.022 C91.793,14.888 92.205,14.029 92.656,13.249 C96.111,12.332 99.304,10.41 101.652,7.835 Z M113.5502,16.1235 C113.6312,16.1935 113.7092,16.2655 113.7872,16.3385 C112.4742,17.8275 110.6162,19.0805 108.2642,20.0615 C106.6542,20.7335 104.9522,21.2375 103.3062,21.7255 C102.3092,22.0205 101.2782,22.3255 100.2742,22.6665 C95.5832,24.2585 91.0822,26.7905 87.2542,29.9905 C87.1902,29.8465 87.1382,29.7085 87.0962,29.5715 C86.7962,28.6035 86.8892,27.4675 87.3792,26.0995 C88.0512,25.8115 88.7222,25.5455 89.4662,25.2535 L89.5692,25.2135 C95.2502,22.9815 100.9762,20.6405 106.5852,18.2565 C108.3292,17.5155 110.4962,16.5945 112.1812,15.1305 C112.7312,15.4775 113.1672,15.7945 113.5502,16.1235 Z M113.9204,16.4633 C114.5054,17.0323 115.0084,17.6953 115.4174,18.4363 C112.7384,20.8393 109.5574,22.7673 106.2154,24.0123 C104.8824,24.5083 103.4904,24.9133 102.1444,25.3033 C101.3744,25.5273 100.5834,25.7563 99.8024,26.0043 C95.0814,27.4973 91.4634,29.4493 88.7444,31.9693 C88.2444,31.4763 87.6934,30.8793 87.3354,30.1623 C91.1544,26.9613 95.6474,24.4303 100.3334,22.8403 C101.3354,22.5003 102.3634,22.1953 103.3574,21.9003 C105.0084,21.4113 106.7154,20.9053 108.3344,20.2303 C110.7104,19.2393 112.5894,17.9723 113.9204,16.4633 Z M114.1875,33.196 L113.9415,33.699 C113.1645,33.713 112.1505,33.754 111.1425,33.945 C109.7745,34.203 108.5785,34.724 107.6805,35.451 C107.4735,35.364 107.2675,35.275 107.0615,35.186 C106.5925,34.984 106.1095,34.776 105.6255,34.597 C106.4455,33.845 107.4045,33.241 108.4025,32.847 C109.3845,32.46 110.4385,32.245 111.4585,32.037 L115.0885,31.298 C114.8025,31.938 114.4905,32.577 114.1875,33.196 Z M115.5072,18.6018 C115.8702,19.2938 116.1562,20.0598 116.3562,20.8788 C114.6882,22.7288 112.2942,24.2088 109.0372,25.4018 C107.6822,25.8988 106.2742,26.3198 104.9122,26.7278 C102.8242,27.3538 100.6652,28.0008 98.6482,28.9308 C94.7682,30.7208 92.8632,33.0258 91.9462,34.6628 C90.9322,34.0008 90.0112,33.1728 89.1662,32.3758 C89.0692,32.2838 88.9712,32.1918 88.8752,32.0978 C91.5732,29.5988 95.1662,27.6628 99.8572,26.1778 C100.6262,25.9348 101.4142,25.7058 102.1762,25.4848 L102.1902,25.4808 C103.5402,25.0898 104.9352,24.6848 106.2792,24.1838 C109.6292,22.9358 112.8182,21.0068 115.5072,18.6018 Z M104.1385,31.9921 C103.3245,32.5371 102.5765,33.2451 101.7885,34.2191 C100.9925,34.4041 100.2315,34.7411 99.4955,35.0671 C98.7795,35.3831 98.0395,35.7111 97.2695,35.8971 C96.8815,35.9911 96.4725,36.0391 96.0525,36.0391 C96.0345,36.0391 96.0175,36.0381 96.0005,36.0381 C96.9615,34.4941 98.1595,32.7631 99.7735,31.5271 C101.7515,30.0131 104.2255,29.3121 106.6175,28.6351 C107.3045,28.4401 108.0135,28.2391 108.7065,28.0201 C111.5235,27.1301 114.2155,25.8751 116.7095,24.2911 C116.6865,25.5191 116.5195,26.7791 116.2145,28.0371 C114.4945,29.1781 112.3535,29.5811 110.2825,29.9711 C108.1455,30.3741 105.9375,30.7891 104.1385,31.9921 Z M116.4065,21.0957 C116.6145,22.0267 116.7175,23.0267 116.7125,24.0727 C114.2045,25.6777 111.4925,26.9477 108.6515,27.8457 C107.9705,28.0617 107.2645,28.2617 106.5815,28.4547 L106.5685,28.4587 C104.1595,29.1407 101.6685,29.8457 99.6625,31.3817 C98.0005,32.6547 96.7715,34.4447 95.7885,36.0327 C94.7425,35.9837 93.6195,35.6357 92.5385,35.0257 C92.3955,34.9447 92.2515,34.8587 92.0995,34.7627 C93.0015,33.1477 94.8815,30.8697 98.7255,29.0967 C100.7305,28.1727 102.8835,27.5277 104.9655,26.9037 C106.3305,26.4947 107.7405,26.0717 109.0995,25.5737 C112.3315,24.3897 114.7235,22.9247 116.4065,21.0957 Z M115.6801,29.8364 C115.5451,30.2154 115.3811,30.6264 115.1781,31.0934 L111.4241,31.8574 C110.3961,32.0664 109.3331,32.2834 108.3351,32.6764 C107.2881,33.0904 106.2841,33.7294 105.4321,34.5274 C104.2901,34.1274 103.3671,33.9974 102.4421,34.1034 C102.3271,34.1164 102.2071,34.1354 102.0731,34.1604 C102.7891,33.3004 103.5001,32.6394 104.2401,32.1444 C106.0091,30.9624 108.1991,30.5504 110.3161,30.1514 C112.3381,29.7704 114.4281,29.3774 116.1501,28.2954 C116.0151,28.8204 115.8571,29.3394 115.6801,29.8364 Z M111.1768,34.1251 C111.9368,33.9811 112.7648,33.9061 113.8488,33.8831 C113.3068,34.9241 112.6788,35.5951 111.9308,35.9341 C110.9018,36.4001 109.7098,36.1791 108.8908,35.9111 C108.5898,35.8131 108.2648,35.6911 107.8728,35.5301 C108.7368,34.8551 109.8768,34.3701 111.1768,34.1251 Z" id="cri.planets-3"></path>
                <path d="M10.551,10.4346 C12.077,11.4106 13.654,12.4206 14.772,13.7996 C14.431,14.2846 14.06,14.7136 13.667,15.0746 C12.778,13.6116 11.233,12.5586 9.835,11.7206 L9.536,11.5416 C7.746,10.4716 5.897,9.3666 4.999,7.5376 C4.856,7.2466 4.76,6.9776 4.707,6.7156 C5.074,6.0016 5.563,5.2936 6.202,4.5546 C6.241,4.7416 6.278,4.9296 6.314,5.1136 C6.475,5.9466 6.641,6.8086 7.081,7.5506 C7.569,8.3716 8.346,8.9696 9.113,9.4936 C9.586,9.8166 10.076,10.1306 10.551,10.4346 Z M14.8722,11.0781 C15.2292,11.3391 15.5512,11.6531 15.8322,12.0121 C15.5482,12.5601 15.2562,13.0661 14.9632,13.5171 C14.9352,13.5601 14.9072,13.6011 14.8792,13.6421 C13.7452,12.2611 12.1722,11.2541 10.6492,10.2801 L10.6362,10.2711 C10.1652,9.9701 9.6782,9.6581 9.2162,9.3431 C8.4662,8.8301 7.7082,8.2471 7.2382,7.4571 C6.8142,6.7421 6.6512,5.8961 6.4942,5.0791 C6.4502,4.8551 6.4032,4.6151 6.3522,4.3831 C6.4902,4.2281 6.6362,4.0701 6.7962,3.9021 C7.0352,4.9631 7.5632,5.9961 8.3272,6.8941 C9.3152,8.0561 10.6902,9.0301 12.5312,9.8731 C12.6742,9.9391 12.8192,10.0031 12.9632,10.0671 L12.9992,10.0831 C13.6422,10.3681 14.3042,10.6621 14.8722,11.0781 Z M14.5316,9.0408 C15.0306,9.2568 15.9486,9.7358 16.5376,10.5208 C16.3406,10.9738 16.1346,11.4158 15.9236,11.8338 C15.6426,11.4868 15.3256,11.1838 14.9806,10.9298 C14.3956,10.5018 13.7236,10.2038 13.0736,9.9158 C12.9176,9.8468 12.7616,9.7778 12.6076,9.7078 C10.7916,8.8758 9.4376,7.9168 8.4666,6.7758 C7.6926,5.8658 7.1676,4.8168 6.9496,3.7428 C7.2716,3.4118 7.6246,3.0688 8.0816,2.6408 C8.4726,5.0778 9.5766,6.9758 11.0456,7.7278 C11.6766,8.0518 12.3576,8.2748 13.0166,8.4918 C13.5196,8.6568 14.0396,8.8268 14.5316,9.0408 Z M12.3358,15.9839 L12.3428,15.9999 C11.6938,16.3239 11.0118,16.4919 10.3158,16.4999 C9.6548,15.1749 8.4188,14.1679 7.4138,13.4379 C7.2288,13.3039 7.0408,13.1699 6.8538,13.0359 C5.7768,12.2689 4.6638,11.4759 3.8868,10.4229 C3.8588,9.8849 3.8968,9.3319 3.9998,8.7769 C5.2538,10.6039 6.9598,12.0719 8.9388,13.0279 C9.0888,13.0999 9.2418,13.1699 9.3948,13.2399 L9.4268,13.2549 C10.0158,13.5249 10.6248,13.8039 11.1138,14.2289 C11.5478,14.6079 11.9158,15.1219 12.2718,15.8459 C12.2938,15.8919 12.3148,15.9379 12.3358,15.9839 Z M4.0609,11.6067 C3.9929,11.3317 3.9439,11.0467 3.9139,10.7577 C4.6949,11.7237 5.7379,12.4657 6.7469,13.1857 C6.9349,13.3187 7.1219,13.4527 7.3059,13.5857 C8.2699,14.2867 9.4529,15.2467 10.1079,16.4957 C9.3989,16.4707 8.6739,16.2817 7.9499,15.9337 C7.5679,15.2877 7.1259,14.6807 6.6359,14.1307 C6.1629,13.5987 5.6319,13.1037 5.1189,12.6257 C4.7529,12.2847 4.3979,11.9507 4.0609,11.6067 Z M9.7407,11.8772 C11.6397,13.0162 12.8827,14.1002 13.5377,15.1902 C13.2087,15.4772 12.8617,15.7212 12.5057,15.9152 L12.4967,15.8962 C12.4767,15.8522 12.4567,15.8092 12.4357,15.7652 C12.0687,15.0182 11.6867,14.4862 11.2337,14.0912 C10.7257,13.6482 10.1047,13.3632 9.5037,13.0892 L9.4707,13.0732 C9.3187,13.0042 9.1677,12.9352 9.0177,12.8622 C7.0427,11.9082 5.2787,10.3682 4.0507,8.5242 C4.0707,8.4332 4.0917,8.3412 4.1157,8.2482 C4.2247,7.8232 4.3787,7.4042 4.5817,6.9722 C4.6407,7.1802 4.7247,7.3972 4.8347,7.6182 C5.7567,9.4962 7.6297,10.6162 9.4417,11.6982 L9.7407,11.8772 Z M10.8942,0.403 C11.0602,0.364 11.2282,0.346 11.3962,0.346 C12.0222,0.346 12.6582,0.585 13.2792,0.818 C13.5922,0.936 13.8902,1.047 14.1832,1.128 C15.0552,1.369 16.0342,1.704 16.7842,2.373 C16.5502,2.303 16.3402,2.264 16.1902,2.242 C15.6962,2.171 15.1892,2.174 14.7042,2.176 C14.3952,2.178 14.0842,2.18 13.7782,2.164 C13.4732,2.148 13.1202,2.111 12.8152,1.963 C12.5912,1.854 12.3952,1.686 12.2052,1.524 L10.8942,0.403 Z M4.9926,12.7582 L4.9976,12.7622 C5.5066,13.2372 6.0326,13.7282 6.4986,14.2522 C6.9186,14.7232 7.3026,15.2352 7.6416,15.7772 C7.5146,15.7082 7.3886,15.6352 7.2646,15.5582 C7.0866,15.4482 6.9156,15.3352 6.7536,15.2232 C5.9936,14.6972 5.4056,14.1452 4.9546,13.5372 C4.6086,13.0702 4.3426,12.5432 4.1596,11.9662 C4.4416,12.2442 4.7326,12.5152 4.9926,12.7582 Z M17.3754,5.418 C17.5984,5.499 17.8004,5.621 17.9924,5.788 C17.9544,6.344 17.8434,6.915 17.6624,7.487 C17.6394,7.56 17.6154,7.634 17.5924,7.708 C17.3244,7.272 17.0134,6.97 16.6454,6.783 C16.0574,6.486 15.3894,6.522 14.7444,6.556 C14.4464,6.572 14.1404,6.589 13.8434,6.571 C12.5104,6.494 11.1814,5.689 10.1984,4.363 C9.6364,3.604 9.4274,2.634 9.2254,1.695 L9.1904,1.537 C9.2244,1.504 9.2574,1.472 9.2914,1.44 C9.8234,2.423 10.3054,3.127 10.8474,3.715 C11.9144,4.872 13.2554,5.523 14.5314,5.499 C14.8694,5.494 15.2124,5.443 15.5454,5.393 C16.1924,5.298 16.8004,5.208 17.3754,5.418 Z M16.6423,3.7606 C16.9693,3.8236 17.4473,3.9546 17.8763,4.2216 C17.9763,4.6346 18.0203,5.0846 18.0043,5.5616 C17.8273,5.4236 17.6403,5.3206 17.4383,5.2466 C16.8183,5.0196 16.1583,5.1176 15.5183,5.2126 C15.1913,5.2606 14.8533,5.3106 14.5273,5.3166 C13.3063,5.3346 12.0153,4.7106 10.9823,3.5906 C10.2973,2.8486 9.7943,1.9856 9.4303,1.3086 C9.6593,1.0966 9.8693,0.9256 10.0703,0.7886 C10.3773,1.2276 10.7933,1.5586 11.1923,1.8596 C12.0183,2.4826 13.0173,3.1566 14.1603,3.4286 C14.6123,3.5366 15.0773,3.5796 15.5263,3.6206 C15.8973,3.6556 16.2763,3.6906 16.6423,3.7606 Z M16.5626,6.9465 C16.9356,7.1355 17.2476,7.4605 17.5156,7.9395 C17.2406,8.7725 16.9386,9.5755 16.6196,10.3285 C16.0376,9.5965 15.2076,9.1345 14.6046,8.8725 C14.1026,8.6545 13.5796,8.4835 13.0736,8.3175 C12.4206,8.1025 11.7456,7.8815 11.1286,7.5655 C9.6836,6.8245 8.6056,4.9285 8.2426,2.4895 C8.4066,2.3345 8.5756,2.1615 8.7536,1.9785 C8.8466,1.8835 8.9406,1.7865 9.0376,1.6895 L9.0466,1.7335 C9.2526,2.6915 9.4656,3.6815 10.0516,4.4715 C11.0666,5.8415 12.4456,6.6735 13.8326,6.7535 C14.1386,6.7705 14.4506,6.7545 14.7526,6.7385 C15.3736,6.7055 16.0166,6.6705 16.5626,6.9465 Z M16.1643,2.4236 C16.3923,2.4566 16.7373,2.5276 17.0873,2.6776 C17.1373,2.7336 17.1853,2.7916 17.2313,2.8506 C17.4803,3.1736 17.6733,3.5476 17.8043,3.9666 C17.3983,3.7496 16.9733,3.6376 16.6763,3.5806 C16.3003,3.5086 15.9153,3.4726 15.5433,3.4386 L15.5403,3.4386 C15.0973,3.3976 14.6393,3.3546 14.2033,3.2506 C13.0933,2.9866 12.1143,2.3256 11.3033,1.7136 C10.9163,1.4226 10.5163,1.1046 10.2243,0.6886 C10.3813,0.5926 10.5363,0.5176 10.6843,0.4646 L12.0863,1.6636 C12.2863,1.8346 12.4913,2.0086 12.7353,2.1276 C13.0693,2.2906 13.4453,2.3296 13.7693,2.3466 C14.0793,2.3626 14.3943,2.3606 14.6983,2.3596 C15.1843,2.3556 15.6823,2.3536 16.1643,2.4236 Z" id="cri.planets-2"></path>
                <path d="M120.0551,42.7693 C119.5371,43.3953 119.0951,44.0903 118.6681,44.7613 C118.1671,45.5483 117.6501,46.3623 117.0141,47.0563 C116.1891,47.9583 114.7011,48.9383 113.2081,48.7503 C113.0591,48.1543 112.9301,47.4983 112.8031,46.6933 C113.9661,46.5023 115.0631,46.2553 115.7531,45.4273 C115.9961,45.1353 116.1641,44.7913 116.3271,44.4583 L116.3351,44.4413 C116.3761,44.3573 116.4171,44.2733 116.4591,44.1913 C116.8911,43.3413 117.4581,42.5753 118.1441,41.9153 C118.7851,41.2983 119.4011,40.9153 120.0261,40.7443 C120.7731,40.5423 121.5581,40.6763 122.0751,41.0963 L122.0981,41.1283 C122.3441,41.4483 122.5891,41.7793 122.8271,42.1133 C121.8721,42.0743 120.5981,42.1133 120.0551,42.7693 Z M114.9388,40.343 C115.7508,39.663 116.7318,38.961 117.8968,38.843 C116.8268,39.547 115.4178,40.57 114.7958,41.033 C114.1238,41.533 113.4748,41.858 112.8648,41.998 C113.2158,41.573 113.7028,41.235 114.1748,40.907 C114.4488,40.717 114.7068,40.537 114.9388,40.343 Z M118.028,40.2 C117.331,40.647 116.703,41.232 116.096,41.797 C115.021,42.797 114.005,43.742 112.64,44.001 C112.535,44.021 112.44,44.026 112.364,44.029 C112.313,43.51 112.337,43.096 112.437,42.766 C112.496,42.574 112.582,42.393 112.701,42.215 C113.4,42.096 114.142,41.749 114.905,41.18 C115.593,40.668 117.174,39.521 118.254,38.83 C118.824,38.833 119.397,38.982 119.962,39.271 C119.351,39.504 118.657,39.797 118.028,40.2 Z M122.9716,42.3169 C122.9876,42.3399 123.0036,42.3629 123.0206,42.3849 C122.4136,42.6509 121.7636,43.1389 121.4056,43.4909 C120.0406,44.8329 118.8406,46.3389 117.8386,47.9689 C117.7606,48.0949 117.6846,48.2219 117.6076,48.3489 L117.5786,48.3969 C117.1006,49.1929 116.6056,50.0159 115.8966,50.6139 C115.4096,51.0239 114.7716,51.3019 114.1826,51.3599 C113.8066,50.6639 113.5036,49.8729 113.2576,48.9439 C114.7906,49.1009 116.2686,48.1419 117.1486,47.1809 C117.7956,46.4729 118.3176,45.6529 118.8226,44.8599 C119.2496,44.1889 119.6876,43.4999 120.1956,42.8859 C120.5836,42.4189 121.4886,42.2279 122.9606,42.3019 L122.9716,42.3169 Z M119.9781,40.5684 C119.3221,40.7464 118.6811,41.1444 118.0171,41.7834 C117.3161,42.4574 116.7371,43.2394 116.2961,44.1074 C116.2511,44.1964 116.2071,44.2854 116.1641,44.3744 C116.0061,44.6984 115.8421,45.0334 115.6121,45.3104 C114.9621,46.0894 113.9011,46.3274 112.7751,46.5124 C112.7511,46.3594 112.7281,46.2064 112.7061,46.0544 C112.6891,45.9344 112.6671,45.8074 112.6431,45.6764 L112.6471,45.6744 L112.6321,45.6194 C112.6131,45.5154 112.5911,45.4024 112.5691,45.2884 C112.5001,44.9364 112.4301,44.5744 112.3851,44.2134 C112.4961,44.2124 112.6031,44.1944 112.6741,44.1804 C114.0921,43.9124 115.1741,42.9054 116.2201,41.9314 C116.8231,41.3694 117.4451,40.7914 118.1271,40.3534 C118.7791,39.9354 119.4941,39.6414 120.1721,39.3874 C120.7101,39.6974 121.2391,40.1374 121.7161,40.6684 C121.1991,40.4424 120.5801,40.4044 119.9781,40.5684 Z M123.1282,42.5415 C123.4412,42.9945 123.7382,43.4515 124.0122,43.9005 C121.7692,44.6745 119.8932,46.3065 118.8572,48.3885 C118.6682,48.7675 118.5052,49.1645 118.3472,49.5485 C118.2112,49.8805 118.0612,50.2445 117.8982,50.5845 C117.3642,51.7025 116.6202,52.7055 115.9572,53.5415 C115.6382,53.2745 115.3402,52.9805 115.0712,52.6675 C114.7802,52.3265 114.5202,51.9545 114.2782,51.5315 C114.8882,51.4545 115.5172,51.1735 116.0142,50.7535 C116.7472,50.1355 117.2492,49.2995 117.7362,48.4905 L117.7462,48.4735 C117.8282,48.3365 117.9112,48.2005 117.9942,48.0645 C118.9882,46.4475 120.1792,44.9525 121.5342,43.6215 C121.8982,43.2635 122.5282,42.7945 123.1282,42.5415 Z M124.9143,45.5117 C123.1703,46.0797 121.3793,46.6807 120.6243,48.5317 C120.2153,49.5347 120.0073,50.6147 119.8053,51.6587 C119.6493,52.4687 119.4873,53.3057 119.2323,54.1007 C119.1443,54.3757 119.0403,54.6587 118.9223,54.9407 C117.9353,54.7847 116.9603,54.3417 116.0983,53.6577 C116.7683,52.8127 117.5213,51.7987 118.0643,50.6637 C118.2253,50.3267 118.3693,49.9767 118.5093,49.6377 C118.6713,49.2417 118.8343,48.8457 119.0213,48.4707 C120.0423,46.4187 121.8943,44.8137 124.1093,44.0607 C124.4063,44.5557 124.6773,45.0437 124.9143,45.5117 Z M122.8363,53.6821 C122.8233,53.8431 122.8113,54.0511 122.8303,54.2611 L122.8223,54.2651 C122.6253,54.3501 122.4413,54.4251 122.2593,54.4931 C121.8553,54.6451 121.4573,54.7641 121.0753,54.8481 C121.1583,53.1291 121.4203,51.6631 121.8783,50.3661 C122.5403,48.4911 123.6853,46.9081 125.1073,45.9031 C125.2573,46.2171 125.3863,46.5071 125.5003,46.7891 C125.6093,47.0551 125.7053,47.3261 125.7873,47.5971 C124.1083,49.0231 123.0333,51.2391 122.8363,53.6821 Z M121.7053,50.3053 C121.2373,51.6303 120.9713,53.1293 120.8903,54.8863 C120.5333,54.9553 120.1973,54.9943 119.8653,55.0033 C119.6233,55.0103 119.3703,54.9973 119.1093,54.9653 C119.2233,54.6903 119.3233,54.4183 119.4073,54.1573 C119.6653,53.3523 119.8273,52.5093 119.9853,51.6933 C120.1843,50.6583 120.3913,49.5873 120.7943,48.6003 C121.5193,46.8223 123.2833,46.2353 124.9973,45.6773 L125.0273,45.7373 C123.5623,46.7633 122.3843,48.3843 121.7053,50.3053 Z M126.1011,49.5258 C125.3821,50.2668 124.9781,51.4308 124.9881,52.7288 C124.4881,53.3128 123.8221,53.8018 123.0081,54.1798 C122.9971,54.0058 123.0071,53.8328 123.0191,53.6968 C123.2091,51.3358 124.2371,49.1878 125.8431,47.7908 C126.0071,48.3868 126.0941,48.9688 126.1011,49.5258 Z M125.1738,52.4965 C125.7528,51.7275 126.0628,50.8225 126.0988,49.8005 C125.5408,50.4605 125.2078,51.4285 125.1738,52.4965 Z" id="cri.planets-1"></path>
            </g>
        </g>
    </g>
</svg>
