<?xml version="1.0" encoding="UTF-8"?>
<svg width="53px" height="56px" viewBox="0 0 53 56" version="1.1" xmlns="http://www.w3.org/2000/svg" xmlns:xlink="http://www.w3.org/1999/xlink">
    <!-- Generator: Sketch 52.5 (67469) - http://www.bohemiancoding.com/sketch -->
    <title>cri.planets-5</title>
    <desc>Created with Sketch.</desc>
    <g id="Landing" stroke="none" stroke-width="1" fill="none" fill-rule="evenodd">
        <g id="Artboard" transform="translate(-960.000000, -712.000000)" fill="#E07D2B">
            <path d="M985.5483,742.5968 C985.6703,743.4558 985.7973,744.3448 985.8973,745.2078 C984.9993,749.0638 982.5433,752.1348 980.1673,755.1068 L980.1153,755.1708 C979.8943,755.4468 979.6743,755.7228 979.4563,755.9978 C976.6733,759.5108 976.8793,764.0158 977.3823,767.5648 C975.8453,767.3328 974.4423,766.8938 973.2093,766.2588 C973.1193,762.8598 974.5773,759.4748 977.5423,756.1958 C980.1883,753.2708 982.0533,750.2318 983.0863,747.1628 C984.0203,744.3848 984.0243,741.6838 984.0293,738.8238 C984.0313,737.8658 984.0333,736.8798 984.0723,735.8968 C984.2453,731.6308 985.3903,728.1918 987.6793,725.0748 C989.5473,722.5298 992.0303,720.2728 995.0613,718.3678 C995.4263,718.7268 995.7873,719.1048 996.1353,719.4938 C995.9843,719.5628 995.8313,719.6238 995.6623,719.6888 C995.3893,719.7958 995.1313,719.8958 994.9143,720.0378 C990.7943,722.8888 987.3813,727.1958 985.5493,731.8558 C984.5133,735.3338 985.0383,739.0188 985.5463,742.5818 L985.5483,742.5968 Z M989.1296,752.1649 C985.3736,756.8159 981.4896,761.6239 981.9416,767.6759 C981.5876,767.7079 981.2326,767.7309 980.8826,767.7449 C979.2706,763.5229 981.5376,759.5229 983.6946,756.5079 C985.8336,753.5189 987.9266,750.2879 987.9696,746.5439 C987.9896,744.7509 987.6206,742.9709 987.2636,741.2489 C986.7766,738.9019 986.2736,736.4749 986.7676,734.0179 C987.8816,728.4869 992.7086,724.7389 997.7696,721.5149 C998.4926,722.5139 999.1106,723.5629 999.6246,724.4679 C994.7516,724.7889 990.6986,728.1649 989.5246,732.8909 C988.7206,735.8549 989.6236,738.7629 990.4986,741.5759 C990.9846,743.1409 991.4876,744.7589 991.6706,746.3379 C991.8046,747.4989 991.3896,748.8879 990.4006,750.5829 C989.9836,751.1079 989.5296,751.6689 989.1296,752.1649 Z M991.741,755.3613 C988.898,758.4313 988.28,762.5373 988.04,766.5203 C987.318,766.7013 986.611,766.8663 985.936,767.0123 C985.492,761.3833 989.487,757.1673 993.271,753.6563 L993.273,753.6533 C996.441,750.2313 995.593,747.1013 995.082,745.9143 C994.572,744.8223 993.964,743.8463 993.376,742.9033 C992.572,741.6133 991.813,740.3953 991.306,738.9343 C990.49,736.7703 990.549,734.6633 991.482,732.6723 C992.83,729.7913 996.106,727.1413 1000.248,725.5773 C1000.407,725.8623 1000.567,726.1473 1000.728,726.4313 C998.348,727.1133 994.983,728.3043 992.943,730.7673 C990.602,733.5943 992.664,736.3503 994.483,738.7823 L994.679,739.0433 C996.983,742.1363 997.896,745.0873 997.389,747.8163 C996.923,750.3293 995.11,752.0683 993.357,753.7503 C992.812,754.2723 992.251,754.8103 991.741,755.3613 Z M999.9786,753.1428 C996.6226,756.3248 992.8286,759.9208 993.4256,765.0098 C992.4866,765.2948 991.6336,765.5458 990.8206,765.7768 C990.9236,760.6438 994.6086,756.1298 997.3776,753.1758 L997.3896,753.1608 C997.6286,752.6938 997.9616,752.3578 998.2826,752.0338 C998.6146,751.6988 998.9576,751.3518 999.2066,750.8648 C1001.5016,747.2608 999.6256,743.9778 997.8106,740.8038 C997.0296,739.4398 996.2236,738.0288 995.7916,736.6368 C995.1496,734.0108 995.4666,732.0768 996.8196,730.3698 C997.8616,729.0538 999.6526,728.1458 1001.6136,727.9358 C1002.0906,728.7058 1002.5536,729.3758 1003.0286,729.9808 C1001.2506,730.3868 999.4676,730.9428 998.7156,732.7028 C997.6896,735.7848 999.1016,738.6078 1000.4666,741.3378 C1001.1786,742.7608 1001.9136,744.2318 1002.2896,745.7148 C1003.2386,749.3228 1002.3096,750.8308 1001.5276,751.6528 C1001.0326,752.1428 1000.5206,752.6288 999.9786,753.1428 Z M1000.5394,755.923 C997.2134,758.743 996.0384,762.135 996.0404,764.202 C995.0704,764.505 994.3184,764.738 993.6174,764.952 C993.0544,759.979 996.7994,756.428 1000.1064,753.293 C1000.6574,752.77 1001.1704,752.284 1001.6684,751.79 C1003.3704,750.002 1002.9464,747.438 1002.4804,745.665 C1002.1004,744.164 1001.3594,742.683 1000.6434,741.251 C999.2954,738.556 997.9024,735.77 998.8994,732.773 C999.6214,731.085 1001.3994,730.55 1003.1654,730.152 C1003.4204,730.469 1003.6404,730.725 1003.8554,730.959 C1004.1454,731.272 1004.4704,731.601 1004.8464,731.961 C1002.6124,732.764 1001.2644,734.034 1000.8414,735.737 L1000.8414,735.741 C1000.3474,738.405 1001.4174,740.645 1002.4524,742.811 C1002.9644,743.883 1003.4944,744.992 1003.8234,746.134 C1004.4584,748.446 1004.4044,752.022 1000.5394,755.923 Z M983.1102,712.9297 C983.9122,712.9937 984.6902,713.0977 985.4432,713.2407 C981.2012,714.3077 979.3222,719.2067 978.0712,722.4677 C976.2452,727.2267 974.0912,730.6137 969.5062,731.6737 C967.9762,732.0267 966.0362,732.0767 964.1602,732.1237 C963.2502,732.1477 962.3092,732.1717 961.4622,732.2327 C961.5142,732.0777 961.5672,731.9227 961.6182,731.7637 C961.7312,731.4257 961.8412,731.0857 961.9502,730.7467 C962.1282,730.7537 962.3082,730.7577 962.4862,730.7577 C964.6102,730.7577 967.1672,730.3007 968.7602,729.8477 C970.9812,729.2167 972.7202,728.2037 973.9272,726.8367 C975.1602,725.4407 975.8952,723.7037 976.5412,722.0447 C977.8972,718.5667 979.2982,714.9697 983.1292,713.0857 L983.1752,713.0627 L983.1102,712.9297 Z M979.0662,712.9247 C980.4342,712.8277 981.7532,712.8257 983.0142,712.9227 C979.1362,714.8437 977.7242,718.4687 976.3572,721.9737 C975.7172,723.6157 974.9912,725.3347 973.7792,726.7067 C972.5972,728.0437 970.8902,729.0377 968.7062,729.6577 C966.9922,730.1457 964.1772,730.6257 962.0142,730.5507 C962.1992,729.9747 962.3832,729.3977 962.5672,728.8217 C963.1952,726.8477 963.8442,724.8067 964.5722,722.8227 L964.6072,722.8237 C964.6922,722.8247 964.7762,722.8267 964.8592,722.8267 C968.4262,722.8267 971.2272,721.6537 973.1842,719.3397 C973.7272,718.6977 974.2212,718.0067 974.6982,717.3387 C975.9322,715.6117 977.0972,713.9807 979.0722,713.0607 L979.1202,713.0387 L979.0662,712.9247 Z M977.7142,713.0507 C978.1032,713.0057 978.4882,712.9687 978.8702,712.9397 C976.9172,713.8927 975.7082,715.5857 974.5382,717.2237 C974.0632,717.8877 973.5722,718.5757 973.0332,719.2127 C971.0792,721.5237 968.2612,722.6737 964.6432,722.6247 L964.6642,722.5667 C965.0042,721.6517 965.3022,720.8877 965.6492,720.1407 C966.3732,720.3117 967.2122,720.4897 968.0542,720.4897 C969.0352,720.4897 969.8742,720.2527 970.6202,719.7647 C971.8862,718.9367 972.8802,717.7537 973.8422,716.6097 C974.9562,715.2837 976.1092,713.9127 977.7142,713.0507 Z M967.3911,717.3516 C968.9751,715.5196 971.3561,714.2756 974.6651,713.5496 C974.1221,714.1566 973.6831,714.8686 973.2921,715.5006 C972.6911,716.4736 972.0701,717.4796 971.1251,718.1796 C970.2451,718.8296 969.2031,719.2296 968.1091,719.3366 C967.6451,719.3816 966.6881,719.3136 966.4681,718.9446 C966.4231,718.8706 966.4101,718.7826 966.4281,718.6836 C966.7351,718.1806 967.0501,717.7456 967.3911,717.3516 Z M985.932,713.3395 C987.129,713.5965 988.275,713.9615 989.341,714.4235 C986.687,715.0225 983.116,716.5155 981.55,718.8225 C980.231,720.7645 979.635,723.0925 979.058,725.3435 L978.967,725.7015 C977.925,729.7765 976.743,734.3965 972.208,735.6705 C970.81,736.0635 969.321,736.1145 967.881,736.1635 L967.867,736.1635 C967.409,736.1795 966.935,736.1955 966.473,736.2235 C964.652,736.3305 961.901,737.1805 960.086,737.9755 C960.112,737.4555 960.156,736.9805 960.219,736.5245 C960.229,736.4505 960.241,736.3775 960.252,736.3035 L960.273,736.1655 C960.504,735.0435 960.874,733.9595 961.265,732.8125 L961.393,732.4355 C962.262,732.3705 963.229,732.3455 964.165,732.3215 L964.163,732.2695 L964.168,732.3215 C966.054,732.2725 968.003,732.2235 969.55,731.8655 C974.22,730.7865 976.408,727.3565 978.255,722.5385 C979.538,719.1945 981.475,714.1415 985.932,713.3395 Z M973.6915,716.4825 C972.7385,717.6165 971.7545,718.7875 970.5125,719.5995 C969.0045,720.5855 967.3925,720.3385 965.7365,719.9575 C965.9095,719.5965 966.0795,719.2695 966.2555,718.9645 C966.2655,718.9935 966.2785,719.0205 966.2945,719.0455 C966.5635,719.4965 967.4475,719.5455 967.8155,719.5455 C967.9255,719.5455 968.0355,719.5405 968.1245,719.5325 C969.2545,719.4225 970.3315,719.0095 971.2395,718.3375 C972.2165,717.6155 972.8485,716.5925 973.4595,715.6045 C973.9135,714.8695 974.3835,714.1095 975.0025,713.4765 C975.3915,713.3975 975.7995,713.3235 976.2175,713.2565 C976.5455,713.2035 976.8795,713.1545 977.2115,713.1115 C975.7855,713.9915 974.7215,715.2565 973.6915,716.4825 Z M1012.1379,744.7976 C1012.1479,744.7796 1012.1579,744.7606 1012.1679,744.7426 C1012.0709,746.4046 1011.7479,748.0406 1011.4739,749.2946 C1010.8769,752.0196 1010.0959,754.8596 1008.4389,757.1596 C1008.3729,757.2506 1008.3039,757.3396 1008.2339,757.4276 L1008.2299,757.4326 C1007.9719,756.4226 1007.7139,755.3786 1008.2159,754.2716 C1008.4479,753.8166 1008.6859,753.3716 1008.9149,752.9406 L1008.9239,752.9246 C1010.1329,750.6566 1011.1779,748.6966 1011.1509,746.2116 C1011.5919,745.7836 1011.8689,745.2826 1012.1379,744.7976 Z M993.848,717.261 C994.216,717.572 994.575,717.896 994.916,718.226 C991.883,720.139 989.395,722.404 987.52,724.958 C985.208,728.108 984.05,731.582 983.876,735.889 C983.836,736.876 983.834,737.864 983.833,738.819 C983.828,741.667 983.823,744.353 982.899,747.1 C981.875,750.143 980.024,753.159 977.396,756.064 C974.428,759.346 972.953,762.74 973.01,766.154 C972.23,765.732 971.517,765.229 970.892,764.656 C969.201,763.11 968.133,761.095 967.311,759.328 C967.209,759.108 967.11,758.887 967.011,758.665 L966.997,758.633 C969.112,755.285 971.825,752.785 974.696,750.14 C975.861,749.066 977.066,747.955 978.224,746.786 C981.483,742.952 982.005,738.475 982.557,733.735 L982.559,733.718 C982.673,732.746 982.79,731.741 982.932,730.747 C983.111,727.172 985.206,724.545 987.524,721.948 C987.726,721.778 987.916,721.624 988.1,721.476 L988.114,721.465 C988.624,721.052 989.024,720.728 989.41,720.241 C990.7,719.149 992.017,718.093 993.848,717.261 Z M983.5348,756.3933 C981.3598,759.4323 979.0748,763.4653 980.6758,767.7523 C979.6118,767.7843 978.5728,767.7303 977.5858,767.5943 C977.0808,764.0693 976.8628,759.5893 979.6108,756.1203 C979.8458,755.8243 980.0828,755.5273 980.3208,755.2303 C982.7138,752.2373 985.1888,749.1433 986.0938,745.2363 L986.0958,745.2103 C985.9928,744.3223 985.8648,743.4233 985.7418,742.5543 C985.2358,739.0103 984.7148,735.3483 985.7358,731.9203 C987.5518,727.3023 990.9378,723.0293 995.0238,720.2023 C995.2218,720.0723 995.4708,719.9753 995.7338,719.8733 C995.9158,719.8023 996.0938,719.7313 996.2718,719.6463 C996.6898,720.1203 997.1008,720.6233 997.4948,721.1403 C997.5348,721.1933 997.5738,721.2473 997.6128,721.3013 L997.6528,721.3553 C992.5598,724.6003 987.7018,728.3773 986.5748,733.9783 C986.0718,736.4753 986.5798,738.9223 987.0708,741.2893 C987.4258,743.0003 987.7928,744.7703 987.7718,746.5413 C987.7298,750.2283 985.6558,753.4303 983.5348,756.3933 Z M992.5702,759.1753 C991.2872,761.4843 990.6492,763.6623 990.6222,765.8333 C989.7732,766.0713 988.9932,766.2803 988.2402,766.4713 C988.4802,762.5473 989.0962,758.5073 991.8852,755.4953 C992.3922,754.9483 992.9502,754.4133 993.4902,753.8953 C995.2692,752.1893 997.1052,750.4273 997.5832,747.8523 C998.0992,745.0673 997.1752,742.0643 994.8362,738.9263 L994.6412,738.6653 C992.8652,736.2903 990.8532,733.6003 993.0942,730.8933 C995.1102,728.4593 998.4642,727.2823 1000.8282,726.6073 C1001.0642,727.0213 1001.2852,727.3963 1001.5002,727.7493 C999.5242,727.9833 997.7212,728.9133 996.6642,730.2473 C995.2702,732.0073 994.9422,733.9943 995.6012,736.6893 C996.0402,738.1053 996.8522,739.5253 997.6372,740.8983 C999.4252,744.0253 1001.2722,747.2553 999.0362,750.7673 C998.7962,751.2343 998.4642,751.5703 998.1432,751.8943 C997.8132,752.2273 997.4732,752.5703 997.2242,753.0513 C995.1552,755.2593 993.6332,757.2623 992.5702,759.1753 Z M991.6864,715.6698 C992.3654,716.0998 993.0354,716.5878 993.6804,717.1208 C991.8704,717.9568 990.5604,719.0098 989.2684,720.1048 C988.8834,720.5888 988.4894,720.9068 987.9914,721.3108 C987.7844,721.4778 987.5974,721.6288 987.3874,721.8068 C985.0374,724.4388 982.9164,727.0978 982.7364,730.7278 C982.5924,731.7318 982.4754,732.7388 982.3614,733.7128 C981.8134,738.4218 981.2944,742.8698 978.0784,746.6528 C976.9314,747.8108 975.7304,748.9178 974.5684,749.9888 C971.7124,752.6208 969.0204,755.1018 966.9004,758.4178 C966.7444,758.0668 966.5914,757.7158 966.4404,757.3658 C965.0114,754.0598 963.5334,750.6408 962.2084,747.2268 C962.0224,746.7458 961.8364,746.2588 961.6554,745.7648 L961.7524,745.8328 L961.7824,745.7898 C962.2444,745.1318 963.0144,744.7098 963.9524,744.6008 C972.8034,741.9848 977.9494,737.8698 979.2574,732.3688 C979.5484,731.2958 979.7764,730.1798 979.9964,729.0998 C980.7134,725.5828 981.4554,721.9478 984.5384,719.3338 C986.0524,717.9628 988.5824,716.9348 990.6154,716.1098 C990.9914,715.9568 991.3494,715.8108 991.6864,715.6698 Z M989.6484,714.5598 C990.2564,714.8388 990.8734,715.1688 991.4814,715.5418 C991.2024,715.6578 990.9094,715.7768 990.6054,715.9008 L990.5414,715.9268 C988.4944,716.7578 985.9464,717.7928 984.4084,719.1848 C981.2754,721.8418 980.5274,725.5108 979.8034,729.0598 C979.5824,730.1448 979.3554,731.2538 979.0664,732.3208 C977.7754,737.7498 972.6764,741.8168 963.9124,744.4088 C962.9334,744.5208 962.1174,744.9708 961.6224,745.6748 C960.9204,743.7508 960.3034,741.7258 960.0854,739.6118 C960.0754,739.5168 960.0694,739.4248 960.0624,739.3328 L960.0574,739.2658 C960.0554,738.9268 960.0624,738.5658 960.0764,738.1958 C961.8804,737.3928 964.6504,736.5288 966.4854,736.4198 C966.9444,736.3928 967.4164,736.3768 967.8734,736.3608 L967.8884,736.3608 C969.3394,736.3108 970.8404,736.2588 972.2614,735.8598 C976.9054,734.5558 978.1024,729.8778 979.1584,725.7508 L979.2494,725.3918 C979.8214,723.1578 980.4144,720.8468 981.7124,718.9328 C983.2004,716.7418 986.7664,715.1588 989.6484,714.5598 Z M993.1312,753.5171 C989.3112,757.0621 985.2752,761.3241 985.7412,767.0541 C985.0492,767.2011 984.4082,767.3261 983.7852,767.4341 C983.2372,767.5281 982.6832,767.6041 982.1372,767.6581 C981.6932,761.6851 985.5512,756.9081 989.2832,752.2891 C989.6832,751.7931 990.1382,751.2301 990.5632,750.6941 C991.5812,748.9511 992.0062,747.5211 991.8662,746.3151 C991.6812,744.7181 991.1752,743.0911 990.6862,741.5171 C989.8202,738.7321 988.9252,735.8511 989.7152,732.9411 C990.8782,728.2601 994.9002,724.9351 999.7322,724.6581 C999.8722,724.9061 1000.0112,725.1551 1000.1502,725.4031 C995.9742,726.9871 992.6692,729.6701 991.3032,732.5881 C990.3472,734.6301 990.2862,736.7881 991.1202,739.0021 C991.6332,740.4811 992.3982,741.7081 993.2092,743.0081 C993.7942,743.9471 994.3992,744.9171 994.9022,745.9951 C996.3902,749.4491 994.1592,752.4061 993.1312,753.5171 Z M1004.9066,755.4288 C1003.5326,757.4928 1002.1146,759.6238 1002.0906,762.0678 C1001.3656,762.4018 1000.5786,762.7198 999.7486,763.0148 C999.9726,760.4448 1001.3636,758.4288 1002.8346,756.2958 C1003.7106,755.0258 1004.6166,753.7128 1005.3066,752.2328 C1006.7346,749.2868 1005.6506,746.6398 1004.5026,743.8368 C1004.3006,743.3428 1004.0706,742.7828 1003.8616,742.2288 C1003.3756,740.4548 1003.4906,738.5798 1004.1886,736.9538 C1004.7476,735.6488 1005.6586,734.5478 1006.8236,733.7648 C1007.7116,734.5638 1008.6446,735.4218 1009.4546,736.3568 C1007.8336,737.7688 1006.9946,739.3208 1006.8906,741.0998 C1006.8176,742.3518 1007.0516,743.5978 1007.2776,744.8018 C1007.4076,745.4878 1007.5406,746.1938 1007.6136,746.8898 C1007.8246,748.8718 1007.4926,750.8288 1006.6536,752.5488 C1006.1876,753.5048 1005.5656,754.4398 1004.9066,755.4288 Z M1007.1016,753.6851 C1005.6996,755.1581 1004.6426,758.2121 1004.6906,760.6471 C1003.9676,761.1171 1003.1606,761.5631 1002.2906,761.9741 C1002.3496,759.6251 1003.7326,757.5491 1005.0696,755.5401 C1005.7326,754.5431 1006.3586,753.6031 1006.8316,752.6361 C1007.6866,750.8831 1008.0246,748.8881 1007.8096,746.8681 C1007.7356,746.1671 1007.6026,745.4591 1007.4736,744.7741 C1007.2476,743.5751 1007.0156,742.3411 1007.0876,741.1111 C1007.1876,739.3891 1008.0036,737.8821 1009.5836,736.5071 C1010.3546,737.4221 1010.9296,738.3201 1011.3386,739.2511 C1011.4336,739.4671 1011.5216,739.6921 1011.6066,739.9391 C1010.7846,740.7741 1010.1456,741.8081 1009.7076,743.0151 L1009.7046,743.0271 C1009.6076,743.8761 1009.5526,744.7001 1009.4996,745.4961 C1009.3046,748.3971 1009.1196,751.1381 1007.1016,753.6851 Z M1002.6735,756.1829 C1001.1695,758.3629 999.7495,760.4219 999.5445,763.0859 C999.1485,763.2229 998.7885,763.3419 998.4455,763.4489 C997.9365,763.6079 997.4245,763.7679 996.9095,763.9299 L996.2375,764.1399 C996.2565,762.1189 997.4255,758.8219 1000.6735,756.0679 L1000.6765,756.0649 C1003.7455,752.9669 1004.9305,749.4209 1004.0125,746.0809 C1003.6785,744.9219 1003.1465,743.8059 1002.6305,742.7259 C1001.6085,740.5879 1000.5535,738.3779 1001.0345,735.7799 C1001.4455,734.1249 1002.7825,732.8909 1005.0065,732.1139 C1005.4865,732.5669 1005.9885,733.0179 1006.4755,733.4539 L1006.6715,733.6299 C1005.4955,734.4309 1004.5755,735.5519 1004.0075,736.8759 C1003.2925,738.5439 1003.1735,740.4659 1003.6745,742.2889 C1003.8855,742.8499 1004.1065,743.3899 1004.3205,743.9119 C1005.4515,746.6729 1006.5185,749.2809 1005.1285,752.1489 C1004.4445,753.6149 1003.5445,754.9209 1002.6735,756.1829 Z M1008.0493,757.5212 L1008.0763,757.6302 C1007.2253,758.6962 1006.1523,759.6662 1004.88623,760.5152 C1004.8763,758.1532 1005.9043,755.2282 1007.2503,753.8142 L1007.2533,753.8102 C1009.3123,751.2122 1009.4983,748.4422 1009.6953,745.5092 C1009.7493,744.7152 1009.8043,743.8942 1009.8973,743.0602 C1010.3093,741.9332 1010.9083,740.9502 1011.6773,740.1502 C1012.0743,741.3842 1012.2413,742.7462 1012.1873,744.3102 C1012.1123,744.4382 1012.0393,744.5682 1011.9653,744.7022 C1011.6973,745.1862 1011.4203,745.6852 1010.9843,746.0992 L1010.9533,746.1282 L1010.9533,746.1722 C1010.9923,748.6262 1009.9533,750.5752 1008.7493,752.8312 C1008.5183,753.2662 1008.2783,753.7162 1008.0383,754.1852 C1007.4993,755.3752 1007.7793,756.4662 1008.0493,757.5212 Z" id="cri.planets-5"></path>
        </g>
    </g>
</svg>