<?xml version="1.0" encoding="UTF-8"?>
<svg width="127px" height="153px" viewBox="0 0 127 153" version="1.1" xmlns="http://www.w3.org/2000/svg" xmlns:xlink="http://www.w3.org/1999/xlink">
    <!-- Generator: Sketch 52.5 (67469) - http://www.bohemiancoding.com/sketch -->
    <title>cri.planets-12</title>
    <desc>Created with Sketch.</desc>
    <g id="Landing" stroke="none" stroke-width="1" fill="none" fill-rule="evenodd">
        <g id="Artboard" transform="translate(-779.000000, -492.000000)" fill="#E05479">
            <path d="M886.4696,510.4103 C875.6296,507.4973 865.5896,501.5313 858.0246,493.2483 C859.1116,493.0213 860.2456,492.8953 861.4466,492.9023 C861.7766,492.9033 862.1056,492.9153 862.4346,492.9343 C865.9896,493.1493 869.4506,494.3913 872.5526,496.1603 C877.5086,498.9873 881.6296,503.1433 884.8496,507.8503 C885.4216,508.6883 885.9576,509.5433 886.4696,510.4103 Z M856.8538,511.5601 C852.2178,509.0271 847.4818,506.1601 843.6518,502.3191 C844.8128,501.2661 845.9848,500.2241 847.1928,499.2271 C848.3768,498.2491 849.5668,497.3241 850.7898,496.4951 C854.7858,500.6621 859.5538,504.0281 864.8518,507.6181 C870.3698,511.3591 875.8108,514.9231 881.7008,517.4151 C884.9508,518.7891 888.1218,519.7391 891.1938,520.2641 C891.9388,522.0961 892.6498,523.9441 893.3658,525.7901 C893.4818,526.0911 893.6008,526.3911 893.7178,526.6911 C893.5188,526.6381 893.3238,526.5881 893.1198,526.5291 C880.5458,522.8731 868.3438,517.8371 856.8538,511.5601 Z M898.4564,538.64 C873.9434,537.513 849.7184,528.217 830.7324,512.667 C831.7494,512.053 832.7534,511.42 833.7264,510.744 C834.9084,509.923 836.0394,509.042 837.1424,508.127 C853.1934,520.33 872.0144,528.823 891.7964,532.747 C893.2504,533.036 894.8004,533.294 896.3534,533.366 C897.0544,535.124 897.7564,536.882 898.4564,538.64 Z M856.7319,511.7827 C868.2379,518.0687 880.4569,523.1117 893.0489,526.7727 C893.3179,526.8507 893.5689,526.9087 893.8299,526.9767 C894.6299,529.0267 895.4399,531.0727 896.2549,533.1187 C894.7539,533.0397 893.2539,532.7777 891.8459,532.4977 C872.1209,528.5847 853.3529,520.1217 837.3429,507.9617 C839.4409,506.2077 841.4389,504.3327 843.4639,502.4907 C847.3169,506.3577 852.0749,509.2387 856.7319,511.7827 Z M824.1351,516.5569 C826.2201,515.2589 828.3861,514.0719 830.5001,512.8059 C849.5681,528.4489 873.9231,537.7919 898.5591,538.8989 C900.2461,543.1369 901.9151,547.3819 903.4941,551.6509 C901.3101,550.7169 899.1061,549.8479 896.9341,548.9949 L896.6051,548.8659 C878.3911,541.7119 860.0241,534.2029 842.0151,526.5479 C836.3181,524.1269 829.4801,521.2149 824.1351,516.5569 Z M857.7373,493.311 C865.4043,501.751 875.6243,507.811 886.6543,510.724 C888.3763,513.692 889.7843,516.811 891.0803,519.983 C888.0763,519.456 884.9763,518.525 881.7993,517.181 C875.9313,514.698 870.5013,511.142 864.9933,507.408 C859.7223,503.835 854.9783,500.485 851.0043,496.351 C853.0933,494.96 855.2893,493.868 857.7373,493.311 Z M836.3999,532.8818 C828.7329,529.6828 822.7429,525.6178 818.5109,520.7688 C818.7989,520.4968 819.0879,520.2268 819.3919,519.9648 C820.8059,518.7488 822.3329,517.6888 823.9109,516.6968 C829.2929,521.4098 836.1809,524.3438 841.9159,526.7818 C859.9269,534.4388 878.2959,541.9478 896.5129,549.1018 L896.8409,549.2308 C899.0839,550.1118 901.3599,551.0098 903.6119,551.9768 C904.9209,555.6128 905.6839,559.6128 904.5469,563.2938 C904.3809,563.8318 904.1739,564.3508 903.9389,564.8558 C891.6099,554.5128 877.2509,546.4038 862.0469,541.2448 C858.8349,540.1548 855.5259,539.1738 852.3249,538.2258 C847.0379,536.6588 841.5699,535.0388 836.3999,532.8818 Z M861.9653,541.4854 C877.1603,546.6414 891.5103,554.7504 903.8263,565.0934 C902.7093,567.3804 900.9573,569.3464 899.1013,571.1684 C890.3923,563.0564 878.7123,556.7464 863.5653,551.9534 C861.0793,551.1674 858.5333,550.4284 856.0713,549.7134 C851.7433,548.4574 847.2683,547.1584 842.9773,545.5604 C832.0903,541.5044 821.9493,535.3294 813.3003,527.5484 C814.6133,525.1414 816.2683,522.9114 818.3233,520.9394 C822.5813,525.8174 828.6013,529.9034 836.3023,533.1164 C841.4853,535.2784 846.9593,536.9004 852.2533,538.4694 C855.4513,539.4174 858.7573,540.3964 861.9653,541.4854 Z M836.0797,573.5985 C839.4467,574.9265 842.5727,576.9395 845.2437,579.4325 C842.9077,580.2775 840.6197,581.3335 838.3067,582.3005 C835.4447,579.9555 831.6367,578.2795 827.1957,577.4405 C824.2117,576.8765 821.1637,576.7025 818.1397,576.6505 C818.1097,576.5885 818.0767,576.5265 818.0467,576.4635 C816.7867,573.8735 815.4647,571.2315 814.2827,568.5565 L826.2407,570.9905 C829.5217,571.6595 832.9147,572.3495 836.0797,573.5985 Z M863.4885,552.1957 C878.5945,556.9747 890.2405,563.2637 898.9205,571.3467 C898.5675,571.6897 898.2125,572.0287 897.8575,572.3627 C895.0035,575.0547 892.0545,577.6907 888.7645,579.8167 C885.5995,574.0947 879.3965,566.9417 867.2475,561.3387 C860.7925,558.3617 853.8675,556.2857 847.1695,554.2787 C842.7975,552.9687 838.2755,551.6137 833.9255,550.0197 C823.4525,546.1837 815.6685,541.3627 810.3155,535.3947 C810.9605,532.7297 811.8975,530.1667 813.1735,527.7767 C821.8365,535.5607 831.9905,541.7377 842.8895,545.7977 C847.1885,547.3997 851.6685,548.7007 856.0005,549.9577 C858.4615,550.6717 861.0055,551.4097 863.4885,552.1957 Z M876.1111,584.1547 C874.6431,584.1917 873.1661,584.0567 871.7021,583.7027 C866.6581,582.4837 862.1931,579.4647 857.1471,578.3057 C854.9681,575.6067 852.5261,573.0997 849.6081,571.1497 C843.8621,567.3087 836.7931,565.9777 829.9571,564.6897 C823.2541,563.4277 816.3541,562.1257 810.8061,558.4237 C809.8321,554.4257 809.2461,550.2007 809.1921,545.9917 C817.2561,551.1457 825.9481,555.2157 835.0921,558.1077 C837.2991,558.8057 839.5821,559.4517 841.7901,560.0767 C849.4811,562.2547 857.4351,564.5067 863.8071,569.3847 C869.0291,573.3837 872.9271,579.0137 876.1111,584.1547 Z M867.1409,561.5692 C879.2439,567.1512 885.4119,574.2702 888.5529,579.9572 C888.0449,580.2802 887.5309,580.5922 887.0059,580.8882 C883.7549,582.7242 880.1109,583.9932 876.4049,584.1462 C873.1949,578.9532 869.2609,573.2402 863.9619,569.1832 C857.5519,564.2752 849.5739,562.0172 841.8589,559.8322 C839.6529,559.2082 837.3719,558.5622 835.1689,557.8652 C825.9939,554.9622 817.2729,550.8732 809.1879,545.6892 C809.1649,542.3002 809.4919,538.9282 810.2439,535.6982 C815.6209,541.6362 823.4039,546.4362 833.8379,550.2582 C838.1959,551.8552 842.7209,553.2112 847.0969,554.5222 C853.7859,556.5272 860.7029,558.6002 867.1409,561.5692 Z M849.467,571.3608 C852.273,573.2358 854.639,575.6328 856.756,578.2238 C856.219,578.1118 855.677,578.0148 855.125,577.9498 C851.721,577.5558 848.573,578.2528 845.512,579.3358 C842.797,576.7788 839.609,574.7178 836.173,573.3618 C832.987,572.1048 829.583,571.4118 826.292,570.7418 L814.16,568.2718 C813.562,566.9058 813,565.5308 812.51,564.1488 C811.898,562.4258 811.356,560.6278 810.893,558.7788 C816.442,562.3958 823.271,563.6898 829.91,564.9398 C836.721,566.2218 843.764,567.5478 849.467,571.3608 Z M827.1486,577.6897 C831.4936,578.5107 835.2256,580.1357 838.0436,582.4087 C836.8736,582.8937 835.6976,583.3527 834.5036,583.7437 C831.3016,584.7907 827.6976,585.2007 824.6276,583.8107 C821.7196,582.4937 819.7196,579.7657 818.2686,576.9067 C821.2376,576.9617 824.2266,577.1377 827.1486,577.6897 Z M798.5004,605.6974 C796.8314,603.6814 792.8474,603.5004 789.3994,603.6664 C790.2394,602.4814 791.0914,601.3284 791.9404,600.2234 C791.9734,600.1804 792.0094,600.1384 792.0434,600.0954 C793.7434,598.7134 796.3024,598.2644 798.7644,598.9344 C800.7984,599.4884 802.7974,600.7294 804.8754,602.7294 C807.0914,604.8634 808.9224,607.3354 810.3154,610.0764 C810.4584,610.3574 810.5974,610.6424 810.7364,610.9264 C811.2544,611.9894 811.7904,613.0884 812.5614,614.0144 C814.7654,616.6564 818.3234,617.4314 822.0894,618.0434 C821.7314,620.3364 821.3074,622.6564 820.7334,624.9334 C816.1864,625.5584 811.3834,622.8684 808.2644,619.4614 C806.2134,617.2204 804.5494,614.6044 802.9394,612.0744 C801.5704,609.9204 800.1534,607.6944 798.5004,605.6974 Z M815.4036,600.1542 C813.4186,598.6762 808.4606,595.0702 804.9306,592.7852 C804.9586,592.7862 804.9876,592.7842 805.0166,592.7862 C808.9476,592.9842 812.2296,595.2302 815.1526,597.6792 C817.3126,599.4892 820.3556,601.0082 822.1146,603.3732 C820.0006,602.9792 817.7556,601.9042 815.4036,600.1542 Z M805.0425,597.4865 C803.0065,596.1805 800.7655,595.2365 798.5235,594.3905 C800.3695,593.3875 802.3695,592.7875 804.4565,592.7835 C807.9905,595.0425 813.2045,598.8345 815.2515,600.3585 C817.7295,602.2025 820.0955,603.2965 822.3235,603.6575 C822.7105,604.2285 823.0235,604.8475 823.2315,605.5305 C823.6165,606.7975 823.6175,608.2765 823.4565,609.7955 C823.0905,609.8185 822.7165,609.7685 822.3905,609.7065 C817.9615,608.8675 814.6865,605.8195 811.2195,602.5935 C809.2755,600.7835 807.2635,598.9115 805.0425,597.4865 Z M808.077,619.6329 C811.22,623.0659 816.056,625.7909 820.661,625.2109 C819.929,628.0429 818.951,630.7969 817.565,633.3329 C815.448,633.1529 813.358,632.1499 811.865,630.8889 C809.569,628.9519 807.973,626.2999 806.431,623.7339 C806.155,623.2749 805.88,622.8169 805.601,622.3629 C802.391,617.1439 798.548,612.3209 794.178,608.0259 C793.129,606.9949 790.962,605.3059 788.859,604.4329 C788.977,604.2629 789.096,604.0969 789.214,603.9289 C792.65,603.7479 796.674,603.8899 798.305,605.8589 C799.948,607.8439 801.36,610.0639 802.725,612.2109 C804.341,614.7499 806.01,617.3759 808.077,619.6329 Z M798.8312,598.6892 C796.6182,598.0862 794.3292,598.3652 792.6092,599.3912 C794.2022,597.4862 796.1152,595.7662 798.2392,594.5552 C800.5332,595.4152 802.8302,596.3692 804.9052,597.7002 C807.1072,599.1122 809.1102,600.9762 811.0472,602.7792 C814.3872,605.8882 817.8422,609.1042 822.3422,609.9562 C822.6302,610.0102 822.9522,610.0582 823.2792,610.0582 C823.3292,610.0582 823.3802,610.0532 823.4302,610.0502 C823.2412,611.6602 822.8822,613.3032 822.6062,614.7852 L822.5942,614.8252 C822.5952,614.8262 822.5972,614.8262 822.5982,614.8272 C822.5122,615.2882 822.4342,615.7352 822.3732,616.1582 C822.2952,616.7002 822.2132,617.2462 822.1292,617.7932 C818.4132,617.1892 814.9042,616.4272 812.7572,613.8512 C812.0052,612.9502 811.4762,611.8652 810.9642,610.8152 C810.8252,610.5292 810.6862,610.2432 810.5422,609.9612 C809.1352,607.1942 807.2882,604.6992 805.0512,602.5472 C802.9422,600.5162 800.9072,599.2542 798.8312,598.6892 Z M811.7007,631.0833 C813.2037,632.3513 815.2987,633.3603 817.4357,633.5703 C816.6687,634.9393 815.7857,636.2463 814.7467,637.4593 C813.8117,638.5503 812.8067,639.5263 811.7537,640.3943 C809.2277,637.2173 807.0237,634.1433 805.3967,630.7413 C804.8797,629.6603 804.4147,628.5303 803.9657,627.4373 C803.4567,626.1983 802.9307,624.9183 802.3227,623.6973 C798.9757,616.9683 792.7987,611.7103 785.6797,609.3123 C786.6447,607.7243 787.6627,606.1643 788.7067,604.6543 C790.6457,605.4453 792.7467,606.9763 793.9997,608.2073 C798.3557,612.4873 802.1857,617.2953 805.3847,622.4963 C805.6627,622.9493 805.9377,623.4063 806.2137,623.8653 C807.7667,626.4483 809.3727,629.1193 811.7007,631.0833 Z M796.6469,624.1437 C794.2899,618.3667 788.7449,616.4257 782.7999,614.4887 C783.6359,612.8227 784.5619,611.1647 785.5449,609.5347 C792.6239,611.9027 798.7689,617.1237 802.0959,623.8107 C802.6989,625.0237 803.2239,626.2997 803.7309,627.5337 C804.1819,628.6297 804.6469,629.7627 805.1679,630.8517 C806.8059,634.2767 809.0209,637.3647 811.5579,640.5557 C808.6899,642.8667 805.4549,644.3367 802.1609,644.8307 C801.7699,643.9057 801.4159,642.9637 801.1079,642.0037 C800.2889,639.4467 799.7689,636.7527 799.2659,634.1467 C798.6209,630.8047 797.9539,627.3477 796.6469,624.1437 Z M792.9359,629.9126 C794.6579,634.7886 795.3209,639.8886 795.5309,644.5576 C794.1559,644.2676 792.8109,643.8586 791.4979,643.3666 C790.8869,643.1376 790.2829,642.8916 789.6849,642.6326 C789.6369,642.6116 789.5919,642.5896 789.5439,642.5676 C789.6149,641.9286 789.5899,641.2666 789.5379,640.6216 C788.8989,632.6976 785.3769,625.6276 780.0449,621.1376 C780.3109,620.2426 780.6279,619.3376 780.9999,618.4266 C781.4099,617.4196 781.8659,616.4076 782.3529,615.3976 C786.9899,618.6196 790.7549,623.7356 792.9359,629.9126 Z M800.8661,642.0812 C801.1691,643.0272 801.5171,643.9532 801.9001,644.8642 C801.0121,644.9842 800.1211,645.0402 799.2321,645.0142 C798.0631,644.9802 796.9151,644.8342 795.7871,644.6092 C795.5791,639.9032 794.9151,634.7542 793.1751,629.8282 C790.9711,623.5862 787.1591,618.4192 782.4631,615.1692 C782.5361,615.0182 782.6081,614.8682 782.6831,614.7182 C788.5851,616.6402 794.0931,618.5582 796.4121,624.2392 C797.7091,627.4202 798.3741,630.8652 799.0171,634.1952 C799.5211,636.8082 800.0421,639.5092 800.8661,642.0812 Z M789.2848,640.6417 C789.3338,641.2447 789.3588,641.8617 789.3008,642.4567 C786.4808,641.1777 784.2658,639.5337 782.6308,637.6077 C782.6728,633.9137 781.5968,629.9157 779.0608,627.3377 C779.0788,625.4327 779.3828,623.4447 779.9658,621.4067 C785.1988,625.8567 788.6538,632.8277 789.2848,640.6417 Z M782.3795,637.3014 C782.3615,633.8424 781.3465,630.1604 779.0575,627.7034 C779.0945,631.2904 780.1755,634.5654 782.3795,637.3014 Z" id="cri.planets-12"></path>
        </g>
    </g>
</svg>