<?xml version="1.0" encoding="UTF-8"?>
<svg width="57px" height="73px" viewBox="0 0 57 73" version="1.1" xmlns="http://www.w3.org/2000/svg" xmlns:xlink="http://www.w3.org/1999/xlink">
    <!-- Generator: Sketch 52.5 (67469) - http://www.bohemiancoding.com/sketch -->
    <title>cri.planets-4</title>
    <desc>Created with Sketch.</desc>
    <g id="Landing" stroke="none" stroke-width="1" fill="none" fill-rule="evenodd">
        <g id="Artboard" transform="translate(-1018.000000, -713.000000)" fill="#E07D2B">
            <path d="M1047.1223,715.2485 C1047.2573,715.2035 1047.3933,715.1595 1047.5293,715.1145 C1046.0163,715.9905 1044.8943,716.9615 1044.1093,718.0725 C1042.5933,720.2145 1042.2493,722.9395 1041.9443,725.3435 L1040.9003,733.5955 C1040.6353,735.6865 1040.3613,737.8495 1040.4383,739.9995 C1040.5273,742.5115 1041.0973,745.0045 1041.6483,747.4165 L1041.6523,747.4335 C1041.7823,748.0035 1041.9163,748.5925 1042.0423,749.1725 C1043.2733,754.8405 1043.9043,760.6555 1043.9183,766.4575 C1043.9373,774.5645 1042.5743,780.9185 1039.7513,785.8795 C1038.0403,785.7845 1036.4813,785.4405 1035.1143,784.8555 C1035.6023,784.4355 1035.9453,783.8425 1036.2293,783.3165 C1039.0203,778.1515 1040.8093,772.2545 1041.4023,766.2635 C1041.9963,760.2715 1041.3983,754.1385 1039.6753,748.5265 C1039.4703,747.8595 1039.2413,747.1705 1039.0393,746.5635 C1038.4913,744.9115 1037.9233,743.2035 1037.6273,741.4645 C1037.2033,738.9825 1037.3393,736.4385 1037.5043,734.4985 C1037.7143,732.0445 1038.0483,729.9955 1038.5233,728.2335 C1039.1493,727.3775 1039.6853,726.5975 1040.1593,725.8515 C1040.8223,724.8095 1041.3383,723.5225 1041.8853,722.1615 C1043.0643,719.2245 1044.2833,716.1875 1047.1223,715.2485 Z M1055.0381,773.0529 C1054.5091,776.0679 1053.8681,779.1399 1053.1331,782.1819 C1052.1691,782.7939 1051.1291,783.3479 1050.0411,783.8299 C1054.8211,770.3389 1054.6071,762.3949 1054.0291,757.5899 C1053.6071,754.0839 1052.6901,750.5979 1051.8021,747.2269 C1050.6361,742.7969 1049.4311,738.2199 1049.3531,733.5849 C1049.3101,731.0719 1049.5971,728.5609 1050.2061,726.1229 C1050.6041,724.5249 1051.3251,722.2219 1052.9801,720.6729 C1054.3681,719.3759 1056.2481,718.7369 1057.9021,718.2399 C1060.0301,717.5999 1062.9581,716.8469 1065.3681,716.3209 C1065.6061,716.5229 1065.8351,716.7319 1066.0481,716.9419 C1062.2131,718.2169 1058.2671,719.7339 1055.7151,722.8949 C1054.0891,724.9089 1053.2181,727.3749 1052.4661,729.7279 C1051.9061,731.4799 1051.2901,733.5269 1051.0801,735.6329 C1050.6711,739.7169 1051.7841,743.7859 1052.8611,747.7209 L1053.0571,748.4399 C1055.4401,757.1939 1057.3271,766.1819 1058.6671,775.1549 L1058.6811,775.2459 C1058.7261,775.5509 1058.7721,775.8569 1058.8211,776.1629 C1058.3751,777.0269 1057.9101,777.7669 1057.4001,778.4269 C1057.3741,778.4609 1057.3481,778.4939 1057.3211,778.5269 C1056.8351,775.5219 1056.5241,772.4799 1056.3971,769.4819 L1056.3861,769.2159 L1056.2311,769.4329 C1055.4901,770.4719 1055.2631,771.7649 1055.0451,773.0149 L1055.0381,773.0529 Z M1045.3188,757.076 C1047.4058,766.635 1046.2958,776.853 1042.1928,785.85 C1041.4308,785.907 1040.6788,785.921 1039.9548,785.889 C1042.7638,780.91 1044.1198,774.552 1044.1008,766.456 C1044.0868,760.642 1043.4548,754.814 1042.2208,749.134 C1042.0958,748.558 1041.9628,747.972 1041.8338,747.406 L1041.8268,747.376 C1041.2778,744.972 1040.7098,742.487 1040.6208,739.993 C1040.5448,737.86 1040.8178,735.705 1041.0808,733.621 L1042.1258,725.367 C1042.4278,722.984 1042.7698,720.283 1044.2588,718.178 C1045.1758,716.88 1046.5178,715.809 1048.4818,714.808 C1051.2678,713.93 1054.5388,713.066 1057.7498,713.276 C1056.1798,713.647 1054.6248,714.102 1053.1198,714.629 C1051.7258,715.118 1050.2738,715.706 1049.1038,716.697 C1047.1348,718.367 1046.2118,720.963 1045.5008,723.265 C1044.3488,727 1043.4108,730.843 1042.7128,734.689 C1042.3568,736.65 1041.9968,738.966 1042.0198,741.264 C1042.0578,744.959 1043.0638,748.589 1044.0378,752.1 C1044.4898,753.732 1044.9548,755.412 1045.3188,757.076 Z M1055.9736,777.3485 C1055.3376,778.5865 1054.8296,779.9025 1054.4656,781.2615 C1054.1116,781.5275 1053.7386,781.7885 1053.3556,782.0385 C1054.0736,779.0535 1054.6996,776.0425 1055.2186,773.0845 L1055.2246,773.0465 C1055.4246,771.9095 1055.6296,770.7355 1056.2266,769.7705 C1056.3646,772.7535 1056.6796,775.7645 1057.1646,778.7225 C1057.0856,778.8175 1056.9986,778.9195 1056.9006,779.0305 C1056.5506,778.4945 1056.1956,777.9425 1056.1456,777.3825 L1056.1176,777.0675 L1055.9736,777.3485 Z M1034.3364,746.6677 L1034.3874,746.6607 L1034.3364,746.6677 L1034.3364,746.6717 C1034.6824,749.4877 1035.0394,752.3987 1035.0104,755.2477 C1034.9684,759.4217 1034.0994,763.5727 1033.2584,767.5877 C1032.6664,770.4157 1031.9964,773.6167 1030.1874,776.1247 C1029.6704,776.8417 1029.0554,777.5087 1028.4164,778.1837 L1028.4154,778.1837 L1028.3424,778.0727 C1027.7324,777.1417 1027.0174,776.1267 1026.2604,775.0527 C1025.8864,774.5217 1025.5014,773.9757 1025.1124,773.4167 C1026.6114,771.4387 1027.5174,769.1137 1028.2074,767.0977 C1031.3854,757.8057 1032.3904,747.7377 1031.1134,737.9807 C1031.4254,737.5097 1031.6864,737.1267 1031.9324,736.7767 C1032.5254,735.9347 1033.1804,735.0607 1034.0424,733.9627 C1033.2904,738.1467 1033.8224,742.4777 1034.3364,746.6677 Z M1049.4493,768.4736 C1049.0503,774.2386 1047.8303,779.8876 1045.8243,785.2646 C1044.6693,785.5466 1043.5183,785.7376 1042.4003,785.8336 C1046.4863,776.8236 1047.5863,766.6006 1045.4973,757.0366 C1045.1333,755.3686 1044.6673,753.6876 1044.2163,752.0616 C1043.2433,748.5516 1042.2403,744.9326 1042.2033,741.2626 C1042.1803,738.9776 1042.5393,736.6736 1042.8933,734.7216 C1043.5893,730.8826 1044.5263,727.0466 1045.6763,723.3186 C1046.3793,721.0416 1047.2903,718.4746 1049.2223,716.8376 C1050.3693,715.8656 1051.8023,715.2846 1053.1803,714.8016 C1054.8573,714.2146 1056.5943,713.7176 1058.3433,713.3266 C1060.0803,713.5126 1061.6553,713.9996 1063.1593,714.8156 C1063.4363,714.9656 1063.7073,715.1256 1063.9843,715.3026 C1060.7713,715.3046 1057.4953,715.8676 1054.4963,716.9316 C1051.4643,718.0086 1050.2473,719.1846 1049.5953,719.9746 C1048.4363,721.3816 1047.8963,723.2266 1047.4813,724.8446 C1045.7673,731.5286 1045.3373,737.3396 1046.1653,742.6106 C1046.4663,744.5316 1046.9503,746.4466 1047.4183,748.2986 C1047.6663,749.2786 1047.9233,750.2916 1048.1513,751.3036 C1049.4133,756.9046 1049.8503,762.6806 1049.4493,768.4736 Z M1036.7213,730.5935 C1037.2883,729.8745 1037.7853,729.2285 1038.2333,728.6265 C1037.8143,730.3015 1037.5153,732.2205 1037.3223,734.4825 C1037.1553,736.4335 1037.0193,738.9935 1037.4463,741.4955 C1037.7453,743.2465 1038.3143,744.9605 1038.8643,746.6175 C1039.0793,747.2635 1039.2993,747.9265 1039.5003,748.5805 C1041.2163,754.1705 1041.8113,760.2785 1041.2203,766.2455 C1040.6293,772.2125 1038.8483,778.0855 1036.0683,783.2295 C1035.7643,783.7925 1035.4253,784.3755 1034.9293,784.7735 C1034.3873,784.5295 1033.8783,784.2485 1033.4143,783.9365 C1032.4593,783.2945 1031.5523,782.4405 1030.6433,781.3245 C1033.7943,777.5245 1036.0013,772.6325 1037.0243,767.1745 C1038.0523,761.6925 1037.9913,755.6665 1036.8323,748.2095 C1036.7403,747.6155 1036.6413,747.0075 1036.5453,746.4155 L1036.5283,746.3145 C1035.6613,740.9935 1034.7653,735.4905 1036.7213,730.5935 Z M1028.5234,742.1143 C1028.6894,741.8413 1028.8554,741.5693 1029.0214,741.2963 C1030.1454,746.2553 1030.0374,751.5713 1028.7094,756.6793 C1027.5044,761.3103 1025.3144,765.6503 1022.3734,769.2323 C1022.0784,768.7423 1021.7954,768.2493 1021.5304,767.7663 C1024.4764,763.4403 1026.3764,759.6713 1027.5084,755.9083 C1028.4574,752.7563 1029.3094,747.9583 1027.9904,742.9893 C1028.1684,742.6983 1028.3454,742.4063 1028.5234,742.1143 Z M1022.2611,751.011 C1022.4631,750.784 1022.6651,750.557 1022.8631,750.329 C1022.8251,750.807 1022.7921,751.285 1022.7621,751.737 C1022.6531,753.392 1022.5401,755.102 1022.1171,756.727 C1021.5961,758.733 1020.5861,760.625 1019.1951,762.206 C1018.9011,761.092 1018.7391,760.016 1018.7161,759.007 C1018.7991,758.907 1018.8711,758.815 1018.9371,758.723 C1019.5441,757.877 1019.9701,756.812 1020.2401,755.468 C1020.3941,754.698 1020.4851,753.907 1020.5111,753.117 C1021.0411,752.384 1021.6611,751.686 1022.2611,751.011 Z M1029.1588,741.0717 C1029.6438,740.2777 1030.2808,739.2467 1030.9588,738.2137 C1032.1918,747.8767 1031.1808,757.8407 1028.0338,767.0387 C1027.3548,769.0227 1026.4638,771.3107 1025.0028,773.2577 C1023.9738,771.7737 1023.1688,770.5447 1022.4738,769.3977 C1025.4518,765.7857 1027.6688,761.4037 1028.8858,756.7247 C1030.2388,751.5237 1030.3338,746.1107 1029.1588,741.0717 Z M1023.0662,750.0939 C1023.8942,749.1249 1024.7242,748.0259 1025.6002,746.7379 C1026.0202,750.0009 1025.6762,753.4309 1024.6032,756.6659 C1023.6212,759.6269 1022.0352,762.3789 1020.0162,764.6319 C1019.7082,763.8729 1019.4512,763.1289 1019.2532,762.4169 C1020.7042,760.7969 1021.7552,758.8459 1022.2942,756.7729 C1022.7212,755.1319 1022.8352,753.4119 1022.9452,751.7499 C1022.9812,751.2089 1023.0182,750.6489 1023.0662,750.0939 Z M1020.0607,755.4318 C1019.7967,756.7498 1019.3797,757.7918 1018.7877,758.6158 C1018.7637,758.6498 1018.7397,758.6828 1018.7147,758.7158 C1018.7187,757.4518 1018.9407,756.2488 1019.3757,755.1368 C1019.5977,754.5688 1019.9057,753.9978 1020.3147,753.3978 C1020.2797,754.0838 1020.1937,754.7668 1020.0607,755.4318 Z M1027.8574,743.2067 C1029.1024,748.0767 1028.2634,752.7677 1027.3334,755.8557 C1026.2134,759.5797 1024.3364,763.3087 1021.4314,767.5867 C1021.0604,766.9027 1020.7454,766.2777 1020.4704,765.6777 C1020.3414,765.3987 1020.2154,765.1097 1020.0944,764.8197 C1022.1584,762.5357 1023.7774,759.7367 1024.7764,756.7237 C1025.8814,753.3917 1026.2204,749.8607 1025.7554,746.5097 C1026.5284,745.3597 1027.2484,744.2017 1027.8574,743.2067 Z M1035.5074,732.118 C1035.7884,731.766 1036.0704,731.414 1036.3504,731.061 C1034.6414,735.87 1035.5084,741.192 1036.3474,746.343 C1036.4494,746.966 1036.5544,747.61 1036.6514,748.238 C1037.8074,755.673 1037.8684,761.68 1036.8444,767.14 C1035.8294,772.554 1033.6454,777.406 1030.5264,781.179 C1029.7984,780.268 1029.1364,779.279 1028.5194,778.342 C1029.1754,777.649 1029.8074,776.966 1030.3364,776.232 C1032.1674,773.693 1032.8414,770.472 1033.4374,767.63 C1034.2794,763.605 1035.1514,759.443 1035.1934,755.249 C1035.2224,752.385 1034.8644,749.467 1034.5184,746.645 C1033.9914,742.353 1033.4464,737.915 1034.2874,733.651 C1034.6914,733.138 1035.0994,732.628 1035.5074,732.118 Z M1072.2682,751.0483 C1072.2722,748.0143 1072.9192,744.9503 1074.1452,742.1673 C1074.4782,743.3023 1074.7512,744.5163 1074.5882,745.7463 C1074.3822,747.3023 1073.6442,748.9903 1072.2682,751.0483 Z M1069.6942,753.9344 C1069.7082,754.1234 1069.7222,754.3144 1069.7382,754.5054 C1069.3162,755.0654 1068.8332,755.7154 1068.4022,756.3494 C1068.0452,752.5434 1068.0222,748.6764 1068.3312,744.8514 C1068.7332,739.8814 1069.6932,734.9744 1071.1862,730.2634 C1071.3122,731.0144 1071.4542,731.7834 1071.6202,732.6134 C1070.3232,735.5254 1069.5872,738.8694 1069.3692,742.8344 C1069.1732,746.3994 1069.4002,749.9704 1069.6942,753.9344 Z M1072.199,735.2684 C1070.471,741.3404 1069.814,747.5864 1070.246,753.8334 C1070.131,753.9844 1070.017,754.1354 1069.904,754.2844 C1069.895,754.1634 1069.885,754.0414 1069.877,753.9204 C1069.378,747.1964 1068.813,739.5804 1071.683,732.9274 C1071.838,733.6904 1072.012,734.4764 1072.199,735.2684 Z M1063.6685,753.3629 C1064.0555,756.6459 1064.2635,759.9969 1064.2875,763.3239 C1063.1495,765.4899 1062.2185,767.5299 1061.4445,769.5549 C1061.9915,762.3269 1061.6995,755.0319 1060.5775,747.8659 C1060.4905,747.3049 1060.3955,746.7339 1060.3035,746.1789 L1060.2845,746.0629 C1059.7875,743.0759 1059.2735,739.9879 1059.5115,736.9389 C1059.9685,731.0879 1064.6935,725.3029 1068.7805,720.9059 C1068.8815,721.1249 1068.9805,721.3549 1069.0775,721.5899 C1067.3655,724.8259 1065.1095,729.3869 1064.0635,732.7849 C1063.0345,736.1279 1062.5445,739.5949 1062.6065,743.0909 C1062.6505,745.6179 1062.9905,748.1649 1063.3175,750.6279 C1063.4315,751.4819 1063.5595,752.4429 1063.6685,753.3629 Z M1068.1487,744.8369 C1067.8327,748.7489 1067.8637,752.7029 1068.2407,756.5899 C1068.1747,756.6899 1068.1097,756.7899 1068.0457,756.8899 C1067.4247,757.8669 1066.8587,758.7869 1066.3197,759.6949 C1066.3927,759.2319 1066.4707,758.7259 1066.5347,758.2369 C1066.9687,754.9299 1066.8887,751.5319 1066.8117,748.2459 C1066.7267,744.6339 1066.6387,740.9019 1067.2347,737.2929 C1067.8387,733.6369 1069.1287,730.1319 1070.5187,726.5679 C1070.7477,727.6809 1070.9417,728.8069 1071.1197,729.8699 C1069.5607,734.6999 1068.5617,739.7349 1068.1487,744.8369 Z M1056.7675,779.1622 L1056.7735,779.1722 C1056.1785,779.8332 1055.4825,780.4732 1054.7055,781.0782 C1055.0365,779.9032 1055.4745,778.7622 1056.0105,777.6802 C1056.1355,778.1942 1056.4565,778.6852 1056.7675,779.1622 Z M1073.1483,738.8934 C1071.5813,743.3274 1070.9023,747.9564 1071.1303,752.6544 C1070.8923,752.9764 1070.6523,753.2954 1070.4143,753.6104 C1070.0203,747.5634 1070.6493,741.5174 1072.2853,735.6344 C1072.5433,736.7034 1072.8333,737.7984 1073.1483,738.8934 Z M1074.064,741.897 C1072.735,744.836 1072.052,748.091 1072.088,751.314 C1071.85,751.661 1071.593,752.024 1071.303,752.42 C1071.112,747.907 1071.762,743.459 1073.236,739.195 C1073.421,739.83 1073.583,740.366 1073.742,740.871 L1073.804,741.065 C1073.892,741.341 1073.979,741.618 1074.064,741.897 Z M1065.7484,742.9254 L1064.8184,762.3284 C1064.7004,762.5454 1064.5834,762.7634 1064.4674,762.9814 C1064.4324,759.7614 1064.2244,756.5194 1063.8504,753.3414 C1063.7424,752.4324 1063.6204,751.5084 1063.5014,750.6154 C1063.1724,748.1484 1062.8334,745.6054 1062.7894,743.0884 C1062.7274,739.6114 1063.2154,736.1624 1064.2384,732.8394 C1065.2674,729.4964 1067.4754,725.0174 1069.1674,721.8124 C1069.3864,722.3634 1069.5904,722.9514 1069.7744,723.5604 C1068.4484,727.1994 1066.9824,731.4404 1066.3374,735.7314 C1065.9784,738.1164 1065.8614,740.5614 1065.7484,742.9254 Z M1066.1145,759.8243 L1066.0675,760.1233 C1065.7055,760.7413 1065.3535,761.3593 1065.0195,761.9643 L1065.9315,742.9303 C1066.0445,740.5713 1066.1615,738.1323 1066.5185,735.7583 C1067.1515,731.5513 1068.5685,727.4163 1069.8605,723.8563 C1070.0725,724.5883 1070.2655,725.3703 1070.4515,726.2383 C1069.0125,729.9173 1067.6715,733.5293 1067.0545,737.2623 C1066.4555,740.8903 1066.5435,744.6313 1066.6285,748.2483 C1066.7055,751.5323 1066.7855,754.9213 1066.3525,758.2133 C1066.2825,758.7493 1066.1975,759.2953 1066.1145,759.8243 Z M1060.449,771.296 C1060.447,771.624 1060.445,771.955 1060.449,772.286 C1060.37,772.502 1060.292,772.717 1060.212,772.932 L1054.47,745.27 C1053.843,742.246 1053.195,739.123 1053.471,735.993 C1053.964,730.406 1057.52,724.793 1063.486,720.19 C1064.048,719.757 1065.148,719.251 1066.313,718.716 C1066.619,718.576 1066.927,718.434 1067.23,718.292 C1067.366,718.472 1067.499,718.659 1067.627,718.848 C1066.835,719.567 1065.985,720.302 1065.162,721.013 C1063.47,722.473 1061.725,723.981 1060.608,725.256 C1057.196,729.151 1055.628,735.072 1056.194,741.928 C1056.497,745.608 1057.324,749.27 1058.122,752.812 C1058.598,754.92 1059.09,757.099 1059.468,759.267 C1060.131,763.078 1060.462,766.971 1060.451,770.838 C1060.451,770.99 1060.45,771.143 1060.449,771.296 Z M1054.2911,745.306 L1060.0911,773.251 C1059.6961,774.292 1059.3361,775.134 1058.9631,775.885 C1058.9271,775.658 1058.8931,775.432 1058.8591,775.207 L1058.8591,775.204 L1058.8481,775.128 C1057.5071,766.148 1055.6181,757.152 1053.2341,748.391 L1053.0371,747.672 C1051.9651,743.751 1050.8571,739.699 1051.2621,735.651 C1051.4711,733.563 1052.0831,731.528 1052.6401,729.783 C1053.3871,727.448 1054.2511,725 1055.8571,723.01 C1058.3921,719.871 1062.3501,718.361 1066.1921,717.087 C1066.5231,717.425 1066.8341,717.78 1067.1171,718.143 C1066.8291,718.278 1066.5361,718.413 1066.2441,718.546 C1065.0621,719.089 1063.9531,719.599 1063.3741,720.045 C1057.3671,724.68 1053.7851,730.338 1053.2881,735.977 C1053.0101,739.134 1053.6611,742.272 1054.2911,745.306 Z M1053.8475,757.6112 C1055.0545,767.6422 1052.1245,777.4312 1049.8115,783.9292 C1048.5895,784.4562 1047.3205,784.8872 1046.0405,785.2112 C1048.0295,779.8442 1049.2385,774.2082 1049.6335,768.4592 C1050.0325,762.6582 1049.5945,756.8722 1048.3295,751.2632 C1048.1045,750.2662 1047.8505,749.2582 1047.6045,748.2842 L1047.5965,748.2542 C1047.1295,746.4072 1046.6465,744.4972 1046.3455,742.5822 C1045.5215,737.3372 1045.9515,731.5502 1047.6585,724.8902 C1048.0685,723.2912 1048.6015,721.4692 1049.7365,720.0922 C1051.0685,718.4762 1053.1255,717.6132 1054.5575,717.1052 C1057.5455,716.0432 1060.8045,715.4852 1064.0035,715.4852 C1064.0915,715.4852 1064.1795,715.4862 1064.2665,715.4862 C1064.5805,715.6982 1064.8905,715.9282 1065.1895,716.1722 C1062.7775,716.7032 1059.9745,717.4252 1057.8495,718.0642 C1056.1755,718.5672 1054.2715,719.2152 1052.8555,720.5392 C1051.1645,722.1212 1050.4315,724.4582 1050.0275,726.0782 C1049.4155,728.5322 1049.1275,731.0592 1049.1695,733.5882 C1049.2475,738.2442 1050.4555,742.8322 1051.6245,747.2702 C1052.5115,750.6392 1053.4275,754.1182 1053.8475,757.6112 Z M1060.397,747.8947 C1061.549,755.2527 1061.822,762.7517 1061.209,770.1847 C1061.048,770.6177 1060.892,771.0547 1060.735,771.4907 L1060.63,771.7837 C1060.63,771.6207 1060.631,771.4587 1060.632,771.2977 L1060.635,770.8387 C1060.645,766.9597 1060.313,763.0557 1059.648,759.2357 C1059.27,757.0677 1058.778,754.8837 1058.301,752.7717 C1057.503,749.2367 1056.679,745.5817 1056.376,741.9127 C1056.115,738.7497 1056.303,735.7847 1056.935,733.0997 C1057.654,730.0407 1058.937,727.4417 1060.745,725.3767 C1061.856,724.1087 1063.597,722.6047 1065.282,721.1517 C1066.097,720.4467 1066.939,719.7197 1067.73,719.0017 C1068.078,719.5327 1068.402,720.1137 1068.695,720.7277 C1064.572,725.1577 1059.792,730.9967 1059.329,736.9247 C1059.09,739.9947 1059.605,743.0927 1060.103,746.0897 C1060.197,746.6527 1060.302,747.2887 1060.397,747.8947 L1060.448,747.8867 L1060.397,747.8947 Z" id="cri.planets-4"></path>
        </g>
    </g>
</svg>