<?xml version="1.0" encoding="UTF-8"?>
<svg width="15px" height="17px" viewBox="0 0 15 17" version="1.1" xmlns="http://www.w3.org/2000/svg" xmlns:xlink="http://www.w3.org/1999/xlink">
    <!-- Generator: Sketch 52.5 (67469) - http://www.bohemiancoding.com/sketch -->
    <title>cri.planets-2</title>
    <desc>Created with Sketch.</desc>
    <g id="Landing" stroke="none" stroke-width="1" fill="none" fill-rule="evenodd">
        <g id="Artboard" transform="translate(-963.000000, -674.000000)" fill="#E07D2B">
            <path d="M970.551,684.4346 C972.077,685.4106 973.654,686.4206 974.772,687.7996 C974.431,688.2846 974.06,688.7136 973.667,689.0746 C972.778,687.6116 971.233,686.5586 969.835,685.7206 L969.536,685.5416 C967.746,684.4716 965.897,683.3666 964.999,681.5376 C964.856,681.2466 964.76,680.9776 964.707,680.7156 C965.074,680.0016 965.563,679.2936 966.202,678.5546 C966.241,678.7416 966.278,678.9296 966.314,679.1136 C966.475,679.9466 966.641,680.8086 967.081,681.5506 C967.569,682.3716 968.346,682.9696 969.113,683.4936 C969.586,683.8166 970.076,684.1306 970.551,684.4346 Z M974.8722,685.0781 C975.2292,685.3391 975.5512,685.6531 975.8322,686.0121 C975.5482,686.5601 975.2562,687.0661 974.9632,687.5171 C974.9352,687.5601 974.9072,687.6011 974.8792,687.6421 C973.7452,686.2611 972.1722,685.2541 970.6492,684.2801 L970.6362,684.2711 C970.1652,683.9701 969.6782,683.6581 969.2162,683.3431 C968.4662,682.8301 967.7082,682.2471 967.2382,681.4571 C966.8142,680.7421 966.6512,679.8961 966.4942,679.0791 C966.4502,678.8551 966.4032,678.6151 966.3522,678.3831 C966.4902,678.2281 966.6362,678.0701 966.7962,677.9021 C967.0352,678.9631 967.5632,679.9961 968.3272,680.8941 C969.3152,682.0561 970.6902,683.0301 972.5312,683.8731 C972.6742,683.9391 972.8192,684.0031 972.9632,684.0671 L972.9992,684.0831 C973.6422,684.3681 974.3042,684.6621 974.8722,685.0781 Z M974.5316,683.0408 C975.0306,683.2568 975.9486,683.7358 976.5376,684.5208 C976.3406,684.9738 976.1346,685.4158 975.9236,685.8338 C975.6426,685.4868 975.3256,685.1838 974.9806,684.9298 C974.3956,684.5018 973.7236,684.2038 973.0736,683.9158 C972.9176,683.8468 972.7616,683.7778 972.6076,683.7078 C970.7916,682.8758 969.4376,681.9168 968.4666,680.7758 C967.6926,679.8658 967.1676,678.8168 966.9496,677.7428 C967.2716,677.4118 967.6246,677.0688 968.0816,676.6408 C968.4726,679.0778 969.5766,680.9758 971.0456,681.7278 C971.6766,682.0518 972.3576,682.2748 973.0166,682.4918 C973.5196,682.6568 974.0396,682.8268 974.5316,683.0408 Z M972.3358,689.9839 L972.3428,689.9999 C971.6938,690.3239 971.0118,690.4919 970.3158,690.4999 C969.6548,689.1749 968.4188,688.1679 967.4138,687.4379 C967.2288,687.3039 967.0408,687.1699 966.8538,687.0359 C965.7768,686.2689 964.6638,685.4759 963.8868,684.4229 C963.8588,683.8849 963.8968,683.3319 963.9998,682.7769 C965.2538,684.6039 966.9598,686.0719 968.9388,687.0279 C969.0888,687.0999 969.2418,687.1699 969.3948,687.2399 L969.4268,687.2549 C970.0158,687.5249 970.6248,687.8039 971.1138,688.2289 C971.5478,688.6079 971.9158,689.1219 972.2718,689.8459 C972.2938,689.8919 972.3148,689.9379 972.3358,689.9839 Z M964.0609,685.6067 C963.9929,685.3317 963.9439,685.0467 963.9139,684.7577 C964.6949,685.7237 965.7379,686.4657 966.7469,687.1857 C966.9349,687.3187 967.1219,687.4527 967.3059,687.5857 C968.2699,688.2867 969.4529,689.2467 970.1079,690.4957 C969.3989,690.4707 968.6739,690.2817 967.9499,689.9337 C967.5679,689.2877 967.1259,688.6807 966.6359,688.1307 C966.1629,687.5987 965.6319,687.1037 965.1189,686.6257 C964.7529,686.2847 964.3979,685.9507 964.0609,685.6067 Z M969.7407,685.8772 C971.6397,687.0162 972.8827,688.1002 973.5377,689.1902 C973.2087,689.4772 972.8617,689.7212 972.5057,689.9152 L972.4967,689.8962 C972.4767,689.8522 972.4567,689.8092 972.4357,689.7652 C972.0687,689.0182 971.6867,688.4862 971.2337,688.0912 C970.7257,687.6482 970.1047,687.3632 969.5037,687.0892 L969.4707,687.0732 C969.3187,687.0042 969.1677,686.9352 969.0177,686.8622 C967.0427,685.9082 965.2787,684.3682 964.0507,682.5242 C964.0707,682.4332 964.0917,682.3412 964.1157,682.2482 C964.2247,681.8232 964.3787,681.4042 964.5817,680.9722 C964.6407,681.1802 964.7247,681.3972 964.8347,681.6182 C965.7567,683.4962 967.6297,684.6162 969.4417,685.6982 L969.7407,685.8772 Z M970.8942,674.403 C971.0602,674.364 971.2282,674.346 971.3962,674.346 C972.0222,674.346 972.6582,674.585 973.2792,674.818 C973.5922,674.936 973.8902,675.047 974.1832,675.128 C975.0552,675.369 976.0342,675.704 976.7842,676.373 C976.5502,676.303 976.3402,676.264 976.1902,676.242 C975.6962,676.171 975.1892,676.174 974.7042,676.176 C974.3952,676.178 974.0842,676.18 973.7782,676.164 C973.4732,676.148 973.1202,676.111 972.8152,675.963 C972.5912,675.854 972.3952,675.686 972.2052,675.524 L970.8942,674.403 Z M964.9926,686.7582 L964.9976,686.7622 C965.5066,687.2372 966.0326,687.7282 966.4986,688.2522 C966.9186,688.7232 967.3026,689.2352 967.6416,689.7772 C967.5146,689.7082 967.3886,689.6352 967.2646,689.5582 C967.0866,689.4482 966.9156,689.3352 966.7536,689.2232 C965.9936,688.6972 965.4056,688.1452 964.9546,687.5372 C964.6086,687.0702 964.3426,686.5432 964.1596,685.9662 C964.4416,686.2442 964.7326,686.5152 964.9926,686.7582 Z M977.3754,679.418 C977.5984,679.499 977.8004,679.621 977.9924,679.788 C977.9544,680.344 977.8434,680.915 977.6624,681.487 C977.6394,681.56 977.6154,681.634 977.5924,681.708 C977.3244,681.272 977.0134,680.97 976.6454,680.783 C976.0574,680.486 975.3894,680.522 974.7444,680.556 C974.4464,680.572 974.1404,680.589 973.8434,680.571 C972.5104,680.494 971.1814,679.689 970.1984,678.363 C969.6364,677.604 969.4274,676.634 969.2254,675.695 L969.1904,675.537 C969.2244,675.504 969.2574,675.472 969.2914,675.44 C969.8234,676.423 970.3054,677.127 970.8474,677.715 C971.9144,678.872 973.2554,679.523 974.5314,679.499 C974.8694,679.494 975.2124,679.443 975.5454,679.393 C976.1924,679.298 976.8004,679.208 977.3754,679.418 Z M976.6423,677.7606 C976.9693,677.8236 977.4473,677.9546 977.8763,678.2216 C977.9763,678.6346 978.0203,679.0846 978.0043,679.5616 C977.8273,679.4236 977.6403,679.3206 977.4383,679.2466 C976.8183,679.0196 976.1583,679.1176 975.5183,679.2126 C975.1913,679.2606 974.8533,679.3106 974.5273,679.3166 C973.3063,679.3346 972.0153,678.7106 970.9823,677.5906 C970.2973,676.8486 969.7943,675.9856 969.4303,675.3086 C969.6593,675.0966 969.8693,674.9256 970.0703,674.7886 C970.3773,675.2276 970.7933,675.5586 971.1923,675.8596 C972.0183,676.4826 973.0173,677.1566 974.1603,677.4286 C974.6123,677.5366 975.0773,677.5796 975.5263,677.6206 C975.8973,677.6556 976.2763,677.6906 976.6423,677.7606 Z M976.5626,680.9465 C976.9356,681.1355 977.2476,681.4605 977.5156,681.9395 C977.2406,682.7725 976.9386,683.5755 976.6196,684.3285 C976.0376,683.5965 975.2076,683.1345 974.6046,682.8725 C974.1026,682.6545 973.5796,682.4835 973.0736,682.3175 C972.4206,682.1025 971.7456,681.8815 971.1286,681.5655 C969.6836,680.8245 968.6056,678.9285 968.2426,676.4895 C968.4066,676.3345 968.5756,676.1615 968.7536,675.9785 C968.8466,675.8835 968.9406,675.7865 969.0376,675.6895 L969.0466,675.7335 C969.2526,676.6915 969.4656,677.6815 970.0516,678.4715 C971.0666,679.8415 972.4456,680.6735 973.8326,680.7535 C974.1386,680.7705 974.4506,680.7545 974.7526,680.7385 C975.3736,680.7055 976.0166,680.6705 976.5626,680.9465 Z M976.1643,676.4236 C976.3923,676.4566 976.7373,676.5276 977.0873,676.6776 C977.1373,676.7336 977.1853,676.7916 977.2313,676.8506 C977.4803,677.1736 977.6733,677.5476 977.8043,677.9666 C977.3983,677.7496 976.9733,677.6376 976.6763,677.5806 C976.3003,677.5086 975.9153,677.4726 975.5433,677.4386 L975.5403,677.4386 C975.0973,677.3976 974.6393,677.3546 974.2033,677.2506 C973.0933,676.9866 972.1143,676.3256 971.3033,675.7136 C970.9163,675.4226 970.5163,675.1046 970.2243,674.6886 C970.3813,674.5926 970.5363,674.5176 970.6843,674.4646 L972.0863,675.6636 C972.2863,675.8346 972.4913,676.0086 972.7353,676.1276 C973.0693,676.2906 973.4453,676.3296 973.7693,676.3466 C974.0793,676.3626 974.3943,676.3606 974.6983,676.3596 C975.1843,676.3556 975.6823,676.3536 976.1643,676.4236 Z" id="cri.planets-2"></path>
        </g>
    </g>
</svg>