<?xml version="1.0" encoding="UTF-8"?>
<svg width="108px" height="140px" viewBox="0 0 108 140" version="1.1" xmlns="http://www.w3.org/2000/svg" xmlns:xlink="http://www.w3.org/1999/xlink">
    <!-- Generator: Sketch 52.5 (67469) - http://www.bohemiancoding.com/sketch -->
    <title>cri.planets-13</title>
    <desc>Created with Sketch.</desc>
    <g id="Landing" stroke="none" stroke-width="1" fill="none" fill-rule="evenodd">
        <g id="Artboard" transform="translate(-798.000000, -303.000000)" fill="#E07D2B">
            <path d="M856.9463,312.5426 C855.3663,310.3086 853.0723,308.3716 849.9423,306.6286 C850.3693,306.7676 850.8043,306.9096 851.2413,307.0546 C856.6993,308.8606 859.0373,314.6836 861.2983,320.3156 C862.3433,322.9196 863.3313,325.3796 864.5963,327.3696 C865.5073,328.8016 866.5323,330.2936 867.7323,331.9336 C868.6443,335.3106 869.2833,339.2396 869.6863,343.9426 C870.0033,347.6586 870.2643,352.5326 869.4513,357.2896 C868.8823,360.6216 867.7963,363.8916 866.7453,367.0556 L866.7393,367.0756 C866.3333,368.2976 865.9133,369.5616 865.5293,370.8126 C862.2333,381.5456 861.0913,393.2756 862.2253,404.7346 C863.3603,416.1936 866.7813,427.4716 872.1193,437.3506 C872.6743,438.3776 873.3453,439.5366 874.3083,440.3376 C871.6573,441.4856 868.6273,442.1596 865.3003,442.3396 C859.8823,432.8316 857.2653,420.6526 857.3013,405.1116 C857.3273,394.0056 858.5363,382.8716 860.8923,372.0196 C861.1383,370.8856 861.4083,369.7026 861.6473,368.6586 C862.7013,364.0446 863.7903,359.2746 863.9623,354.4746 C864.1083,350.3656 863.5843,346.2276 863.0783,342.2266 L861.0783,326.4346 C860.4973,321.8396 859.8373,316.6306 856.9463,312.5426 Z M839.6718,435.2404 C838.2618,429.4064 837.0328,423.5204 836.0208,417.7434 L836.0078,417.6714 C835.5898,415.2844 835.1568,412.8164 833.7458,410.8384 L833.5438,410.5534 L833.5288,410.9024 C833.2828,416.6824 832.6818,422.5494 831.7408,428.3424 C831.6628,428.2464 831.5858,428.1504 831.5108,428.0534 C830.5298,426.7844 829.6348,425.3584 828.7768,423.6954 C828.8758,423.0844 828.9658,422.4804 829.0528,421.8954 L829.0748,421.7494 C831.6398,404.5744 835.2518,387.3694 839.8118,370.6134 L840.1878,369.2384 C842.2468,361.7114 844.3758,353.9284 843.5958,346.1244 C843.1928,342.0994 842.0158,338.1864 840.9448,334.8344 C839.5068,330.3364 837.8428,325.6234 834.7358,321.7754 C832.4828,318.9844 829.4508,316.6314 825.4658,314.5834 C821.9138,312.7564 818.1538,311.4514 814.9008,310.3714 C815.3338,309.9414 815.8018,309.5134 816.2908,309.0994 C820.9068,310.1064 826.5248,311.5494 830.6098,312.7774 C833.7808,313.7304 837.3868,314.9564 840.0508,317.4484 C843.2288,320.4214 844.6128,324.8394 845.3768,327.9034 C846.5418,332.5754 847.0918,337.3854 847.0108,342.2004 C846.8618,351.0764 844.5548,359.8404 842.3218,368.3204 C840.6238,374.7714 838.8668,381.4414 838.0608,388.1464 C837.0798,396.2914 837.4048,404.7774 839.0528,414.0904 C840.3718,421.5444 842.5568,429.5164 845.7328,438.4614 C843.5978,437.5244 841.5588,436.4404 839.6718,435.2404 Z M860.6227,442.2782 C852.7527,425.0412 850.6217,405.4632 854.6217,387.1452 C855.3197,383.9532 856.2117,380.7332 857.0747,377.6202 C858.9367,370.9052 860.8617,363.9612 860.9337,356.8962 C860.9777,352.4992 860.2887,348.0722 859.6087,344.3222 C858.2737,336.9662 856.4797,329.6122 854.2737,322.4652 C852.9157,318.0662 851.1537,313.1062 847.3957,309.9222 C845.1647,308.0322 842.3917,306.9072 839.7277,305.9732 C836.7367,304.9252 833.6397,304.0262 830.5167,303.3012 C834.0677,303.0152 839.0417,303.1852 848.6477,306.2142 C852.4137,308.1342 854.9877,310.1892 856.7507,312.6812 C859.6067,316.7202 860.2627,321.8962 860.8407,326.4642 L862.8407,342.2642 C863.3457,346.2542 863.8677,350.3802 863.7217,354.4662 C863.5517,359.2432 862.4647,364.0012 861.4137,368.6052 C861.1627,369.7042 860.9027,370.8402 860.6577,371.9692 C858.2977,382.8382 857.0877,393.9892 857.0617,405.1102 C857.0247,420.6372 859.6327,432.8202 865.0327,442.3522 C863.6077,442.4182 862.1247,442.3932 860.6227,442.2782 Z M837.1223,433.4769 C836.4253,430.8729 835.4533,428.3509 834.2353,425.9809 L834.0463,425.6119 L834.0093,426.0239 C833.9103,427.1319 833.2023,428.2169 832.5173,429.2669 C832.2973,429.0169 832.1143,428.8039 831.9463,428.5999 C832.8853,422.8729 833.4933,417.0449 833.7523,411.2739 C834.9733,413.1579 835.3783,415.4719 835.7713,417.7129 L835.7843,417.7849 C836.7833,423.4859 837.9933,429.2949 839.3803,435.0539 C838.6023,434.5499 837.8423,434.0199 837.1223,433.4769 Z M876.1626,342.7113 C877.8816,344.8993 879.1736,346.6203 880.3396,348.2763 C880.8136,348.9503 881.3166,349.6893 881.9206,350.5993 C879.4726,369.2703 881.3936,388.5373 887.4776,406.3193 C888.7996,410.1833 890.5386,414.6433 893.4156,418.4283 C892.6636,419.5113 891.9166,420.5713 891.1936,421.5963 C889.7466,423.6503 888.3786,425.5913 887.2116,427.3703 L887.0316,427.6433 C885.7906,426.3333 884.5946,425.0403 883.5896,423.6463 C880.1206,418.8373 878.8376,412.7053 877.7036,407.2923 C876.0946,399.6033 874.4296,391.6543 874.3486,383.6583 C874.2936,378.1983 874.9776,372.6223 875.6396,367.2303 C876.6326,359.1423 877.6586,350.7803 876.1626,342.7113 Z M853.6663,441.1533 C849.8193,430.8483 847.4803,420.0213 846.7153,408.9743 C845.9473,397.8823 846.7843,386.8213 849.2013,376.0973 C849.6333,374.1803 850.1243,372.2413 850.5983,370.3653 L850.6023,370.3473 C851.4983,366.8033 852.4253,363.1393 853.0023,359.4643 C854.5853,349.3853 853.7613,338.2703 850.4833,325.4853 C849.6913,322.3943 848.6603,318.8723 846.4483,316.1873 C845.2053,314.6793 842.8823,312.4363 837.0933,310.3803 C831.3473,308.3403 825.0693,307.2653 818.9153,307.2653 C818.8653,307.2653 818.8143,307.2653 818.7653,307.2653 C819.3493,306.8863 819.9203,306.5473 820.5053,306.2293 C823.3923,304.6633 826.4163,303.7283 829.7513,303.3733 C833.1083,304.1233 836.4373,305.0743 839.6483,306.1993 C842.2913,307.1253 845.0393,308.2403 847.2403,310.1053 C850.9493,313.2473 852.6973,318.1693 854.0443,322.5363 C856.2473,329.6723 858.0393,337.0163 859.3723,344.3653 C860.0503,348.1043 860.7383,352.5163 860.6933,356.8933 C860.6223,363.9263 858.7013,370.8553 856.8423,377.5603 C855.9793,380.6763 855.0863,383.8973 854.3883,387.0943 C850.3873,405.4163 852.5053,425.0043 860.3503,442.2573 C858.1703,442.0753 855.9223,441.7043 853.6663,441.1533 Z M868.114,332.4518 C869.02,333.6748 869.998,334.9498 871.179,336.4458 C874.932,345.8348 873.214,356.3748 871.554,366.5698 C871.36,367.7568 871.16,368.9838 870.972,370.1978 C868.755,384.4618 868.638,395.9878 870.604,406.4728 C872.564,416.9268 876.793,426.2938 882.834,433.5648 C881.081,435.7218 879.333,437.3718 877.489,438.6098 C876.59,439.2138 875.602,439.7588 874.551,440.2288 C873.579,439.4608 872.921,438.3298 872.33,437.2368 C867.008,427.3858 863.596,416.1388 862.464,404.7108 C861.332,393.2838 862.472,381.5858 865.758,370.8828 C866.142,369.6348 866.561,368.3718 866.967,367.1508 L866.975,367.1248 C868.028,363.9548 869.116,360.6768 869.688,357.3298 C870.505,352.5458 870.244,347.6518 869.925,343.9228 C869.544,339.4718 868.951,335.7168 868.114,332.4518 Z M885.8425,356.8127 C886.1715,357.3527 886.5005,357.8927 886.8285,358.4327 C887.1855,359.0187 887.5415,359.6037 887.8995,360.1897 C885.3685,369.6957 886.9985,378.8767 888.8135,384.9067 C890.9825,392.1117 894.6225,399.3277 900.2675,407.6137 C899.7385,408.5787 899.1765,409.5557 898.5975,410.5177 C892.9385,403.6437 888.7245,395.3097 886.4105,386.4117 C883.8535,376.5817 883.6575,366.3497 885.8425,356.8127 Z M897.5826,374.0801 C897.9986,374.5601 898.4276,375.0431 898.8436,375.5111 C899.9966,376.8091 901.1896,378.1501 902.2096,379.5621 C902.2566,381.0771 902.4306,382.5931 902.7266,384.0691 C903.2406,386.6341 904.0536,388.6651 905.2116,390.2771 C905.3376,390.4521 905.4786,390.6351 905.6446,390.8341 C905.6006,392.8061 905.2826,394.9101 904.6986,397.0891 C901.9956,394.0421 900.0346,390.3831 899.0256,386.5031 C898.2166,383.3891 897.9996,380.1121 897.7896,376.9441 C897.7286,376.0231 897.6626,375.0451 897.5826,374.0801 Z M882.1222,350.9043 C883.4622,352.9373 884.7152,354.9673 885.6632,356.5183 C883.4112,366.1613 883.5892,376.5183 886.1782,386.4713 C888.5092,395.4323 892.7572,403.8213 898.4662,410.7343 C897.1212,412.9533 895.5602,415.3353 893.5592,418.2213 C890.7302,414.4743 889.0122,410.0653 887.7042,406.2423 C881.6632,388.5833 879.7332,369.4503 882.1222,350.9043 Z M892.3777,367.2212 C894.0867,369.7392 895.7037,371.8832 897.3177,373.7722 C897.4097,374.8432 897.4817,375.9192 897.5507,376.9592 C897.7607,380.1392 897.9787,383.4272 898.7937,386.5632 C899.8257,390.5322 901.8417,394.2662 904.6227,397.3642 C904.2347,398.7632 903.7287,400.2272 903.1177,401.7202 C899.2207,397.3912 896.1617,392.0912 894.2707,386.3902 C892.1977,380.1422 891.5437,373.5172 892.3777,367.2212 Z M902.9615,384.0216 C902.6935,382.6846 902.5255,381.3076 902.4635,379.9256 C903.3055,381.1366 903.9325,382.2826 904.3785,383.4256 C905.2315,385.6076 905.6585,387.9726 905.6475,390.4576 C905.5585,390.3436 905.4795,390.2386 905.4065,390.1376 C904.2695,388.5536 903.4695,386.5526 902.9615,384.0216 Z M888.0731,360.4738 C889.2531,362.4038 890.6581,364.6688 892.1751,366.9218 C891.2821,373.3328 891.9281,380.0898 894.0431,386.4658 C895.9571,392.2368 899.0591,397.5958 903.0151,401.9658 C902.7791,402.5328 902.5331,403.0968 902.2821,403.6418 C901.7441,404.8138 901.1271,406.0368 900.3971,407.3778 C894.8051,399.1558 891.1961,391.9908 889.0431,384.8378 C887.2551,378.8948 885.6391,369.8528 888.0731,360.4738 Z M871.6721,337.0701 C872.2801,337.8371 872.8981,338.6101 873.4981,339.3601 C874.2681,340.3221 875.0641,341.3181 875.8401,342.3021 C877.4541,350.4741 876.4111,358.9771 875.4011,367.2011 C874.7391,372.6011 874.0531,378.1851 874.1091,383.6611 C874.1901,391.6801 875.8571,399.6431 877.4701,407.3441 C878.6071,412.7781 879.8971,418.9361 883.3951,423.7871 C884.4141,425.2001 885.6321,426.5151 886.8971,427.8501 C885.6981,429.6731 884.4111,431.5981 882.9871,433.3731 C876.9891,426.1391 872.7891,416.8231 870.8401,406.4291 C868.8791,395.9721 868.9961,384.4711 871.2081,370.2351 C871.3981,369.0181 871.6061,367.7381 871.7901,366.6081 C873.4131,356.6431 875.0911,346.3411 871.6721,337.0701 Z M799.4963,358.4644 C801.9093,363.8914 803.1733,369.8804 803.1543,375.8024 C800.4513,371.7894 799.0043,368.5074 798.6043,365.4824 C798.2843,363.0654 798.8373,360.6834 799.4963,358.4644 Z M807.8849,382.2534 C807.9149,381.8814 807.9429,381.5094 807.9699,381.1404 C808.5329,373.5574 808.9679,366.7254 808.5929,359.9044 C808.1749,352.3144 806.7649,345.9164 804.2819,340.3464 C804.6059,338.7244 804.8839,337.2194 805.1299,335.7464 L805.1539,335.6074 C808.0509,344.6934 809.9129,354.1634 810.6889,363.7574 C811.2859,371.1314 811.2349,378.5884 810.5379,385.9254 C809.6989,384.6804 808.7679,383.4264 807.8849,382.2534 Z M806.9136,380.9684 C807.7416,369.0064 806.4836,357.0474 803.1746,345.4224 C803.5466,343.8484 803.8916,342.2794 804.2006,340.7564 C809.7786,353.5424 808.6906,368.1924 807.7316,381.1224 C807.7106,381.4024 807.6896,381.6834 807.6676,381.9644 C807.4506,381.6774 807.2326,381.3894 807.0126,381.0994 L806.9136,380.9684 Z M818.3182,399.1283 C818.3632,392.7523 818.7622,386.3313 819.5032,380.0443 C819.7082,378.3013 819.9442,376.5313 820.1732,374.8133 C820.8012,370.1003 821.4502,365.2253 821.5352,360.3913 C821.6532,353.7063 820.7152,347.0763 818.7482,340.6853 C816.7452,334.1763 812.4222,325.4373 809.1442,319.2453 C809.3462,318.7523 809.5532,318.2783 809.7592,317.8363 C815.0232,323.4963 818.8042,328.2543 821.6542,332.8073 C825.2522,338.5533 827.1862,343.7243 827.5682,348.6143 C828.0232,354.4553 827.0402,360.3693 826.0892,366.0893 L826.0832,366.1283 C825.8972,367.2473 825.7052,368.4043 825.5272,369.5403 L825.5702,369.5463 L825.5272,369.5403 C823.3612,383.3763 822.8132,397.4633 823.8982,411.4173 C823.8792,411.3673 823.8602,411.3173 823.8412,411.2663 C822.3412,407.3183 820.5342,403.3473 818.3182,399.1283 Z M810.7495,386.2404 C811.4735,378.7984 811.5335,371.2284 810.9275,363.7384 C810.1375,353.9724 808.2245,344.3354 805.2395,335.0944 C805.5915,333.0014 805.9725,330.7774 806.4305,328.5754 C809.1175,335.4594 811.6195,342.2254 812.7855,349.2864 C813.9275,356.1994 813.7595,363.3454 813.5975,370.2564 C813.4495,376.5424 813.2965,383.0434 814.1275,389.3724 C814.2615,390.3974 814.4245,391.4374 814.5815,392.4454 C813.5095,390.6314 812.3805,388.7924 811.1325,386.8304 C811.0085,386.6344 810.8805,386.4384 810.7495,386.2404 Z M832.6826,429.452 L832.7186,429.397 C833.3426,428.441 833.9866,427.455 834.1926,426.426 C835.2766,428.588 836.1566,430.879 836.8096,433.239 C835.2526,432.04 833.8656,430.766 832.6826,429.452 Z M805.2203,378.7123 C805.6593,369.7163 804.3593,360.8493 801.3563,352.3603 C801.9823,350.1833 802.5563,348.0123 803.0623,345.9023 C806.2503,357.2783 807.4723,368.9783 806.6933,380.6783 C806.2233,380.0553 805.7213,379.3903 805.2203,378.7123 Z M803.3887,376.1464 C803.4597,369.9734 802.1507,363.7374 799.6027,358.1104 C799.7647,357.5784 799.9347,357.0424 800.0997,356.5234 L800.2247,356.1274 C800.5447,355.1174 800.8687,354.0424 801.2427,352.7544 C804.1227,361.0214 805.3837,369.6494 804.9947,378.4054 C804.3917,377.5834 803.8657,376.8434 803.3887,376.1464 Z M817.3016,397.2247 L815.5216,360.0777 C815.3046,355.5547 815.0806,350.8777 814.3946,346.3157 C813.1596,338.0987 810.3516,329.9807 807.8146,323.0147 C808.1816,321.7997 808.5886,320.6307 809.0266,319.5367 C812.2726,325.6797 816.5376,334.3177 818.5186,340.7557 C820.4786,347.1227 821.4126,353.7277 821.2956,360.3877 C821.2106,365.2097 820.5616,370.0797 819.9346,374.7877 C819.7066,376.4987 819.4706,378.2677 819.2646,380.0167 C818.5396,386.1697 818.1416,392.4467 818.0816,398.6767 C817.8166,398.1767 817.5546,397.6887 817.3016,397.2247 Z M814.9128,393.0085 L814.8268,392.4605 C814.6668,391.4365 814.5008,390.3785 814.3648,389.3405 C813.5368,383.0315 813.6898,376.5395 813.8368,370.2605 C813.9998,363.3385 814.1678,356.1815 813.0228,349.2465 C812.4758,345.9385 811.5898,342.4215 810.3118,338.4945 C809.1458,334.9115 807.7988,331.4165 806.5198,328.1445 C806.8888,326.4095 807.2758,324.8565 807.7008,323.4025 C810.1908,330.2535 812.9368,338.2285 814.1578,346.3515 C814.8408,350.8965 815.0648,355.5645 815.2818,360.0795 L817.0388,396.7485 C816.3658,395.5265 815.6518,394.2685 814.9128,393.0085 Z M825.6647,416.2764 C825.6707,415.6214 825.6677,414.9764 825.6637,414.3704 C825.6617,414.0784 825.6597,413.7864 825.6597,413.4954 C825.6387,406.0914 826.2727,398.6374 827.5427,391.3404 C828.2637,387.2024 829.2057,383.0274 830.1177,378.9844 C831.6467,372.2084 833.2277,365.1994 833.8087,358.1614 C834.8897,345.0564 831.8937,333.7394 825.3737,326.2954 C823.2377,323.8564 819.8967,320.9714 816.6637,318.1804 C815.0737,316.8074 813.4307,315.3884 811.9097,314.0034 C812.1717,313.6144 812.4457,313.2304 812.7237,312.8624 C813.3157,313.1404 813.9247,313.4204 814.5197,313.6934 C816.7517,314.7184 818.8597,315.6864 819.9407,316.5204 C831.3707,325.3394 838.1857,336.0944 839.1287,346.8034 C839.6577,352.8044 838.4157,358.7874 837.2147,364.5734 L826.1887,417.7014 C825.9947,417.1824 825.8087,416.6724 825.6647,416.2764 Z M826.3468,418.1182 L837.4498,364.6202 C838.6548,358.8182 839.8998,352.8172 839.3678,346.7832 C838.4178,336.0062 831.5708,325.1912 820.0868,316.3302 C818.9848,315.4802 816.8658,314.5062 814.6198,313.4752 C814.0768,313.2262 813.4628,312.9442 812.8718,312.6672 C813.4328,311.9412 814.0528,311.2332 814.7128,310.5622 C822.0838,313.0052 829.6828,315.8982 834.5498,321.9262 C837.6308,325.7422 839.2848,330.4312 840.7158,334.9072 C841.7838,338.2482 842.9568,342.1472 843.3568,346.1482 C844.1328,353.9072 842.0098,361.6682 839.9568,369.1752 L839.5808,370.5512 C835.0178,387.3162 831.4038,404.5292 828.8378,421.7142 L828.8158,421.8602 C828.7418,422.3572 828.6688,422.8452 828.5908,423.3332 C827.8478,421.8532 827.1328,420.1912 826.3468,418.1182 Z M846.0332,438.5916 C841.6022,426.1506 835.9852,407.3956 838.2982,388.1756 C839.1032,381.4846 840.8582,374.8206 842.5552,368.3766 C844.7902,359.8876 847.1012,351.1096 847.2512,342.2046 C847.3322,337.3686 846.7802,332.5376 845.6102,327.8456 C844.8382,324.7526 843.4392,320.2906 840.2142,317.2736 C837.5122,314.7446 833.8752,313.5086 830.6792,312.5476 C826.5812,311.3166 821.1662,309.9226 816.5232,308.9036 C817.1302,308.4046 817.7602,307.9346 818.3952,307.5076 C824.6872,307.4406 831.1272,308.5166 837.0132,310.6066 C839.7582,311.5816 843.7052,313.2366 846.2632,316.3406 C848.4442,318.9866 849.4652,322.4796 850.2512,325.5446 C853.5212,338.2976 854.3432,349.3806 852.7652,359.4276 C852.1902,363.0886 851.2652,366.7476 850.3702,370.2886 C849.8952,372.1676 849.4032,374.1106 848.9672,376.0446 C846.5492,386.7746 845.7092,397.8416 846.4732,408.9386 C847.2312,419.9706 849.5572,430.7856 853.3842,441.0826 C850.8872,440.4566 848.4142,439.6186 846.0332,438.5916 Z M824.2112,412.2572 C823.0362,398.0252 823.5582,383.6662 825.7642,369.5772 L825.7202,369.5702 L825.7642,369.5772 C825.9472,368.4052 826.1482,367.1962 826.3262,366.1272 C827.2792,360.3932 828.2652,354.4652 827.8072,348.5952 C827.4222,343.6632 825.4742,338.4542 821.8512,332.6692 C818.9812,328.0872 815.1742,323.2992 809.8712,317.6022 C810.4472,316.3902 811.0872,315.2472 811.7742,314.2042 C813.2992,315.5912 814.9292,316.9992 816.5072,318.3612 C819.7322,321.1462 823.0672,324.0262 825.1942,326.4532 C828.6612,330.4122 831.1192,335.3932 832.4992,341.2582 C833.7092,346.4032 834.0692,352.0842 833.5692,358.1412 C832.9902,365.1642 831.4112,372.1632 829.8832,378.9322 C828.9712,382.9732 828.0292,387.1522 827.3062,391.2992 C826.0332,398.6082 825.3982,406.0762 825.4192,413.4962 C825.4202,413.7872 825.4222,414.0802 825.4242,414.3742 C825.4262,414.7882 825.4282,415.2042 825.4282,415.6222 C825.3262,415.3402 825.2252,415.0582 825.1242,414.7752 C824.8272,413.9482 824.5202,413.0932 824.2112,412.2572 Z" id="cri.planets-13"></path>
        </g>
    </g>
</svg>