<?xml version="1.0" encoding="UTF-8"?>
<svg width="29px" height="30px" viewBox="0 0 29 30" version="1.1" xmlns="http://www.w3.org/2000/svg" xmlns:xlink="http://www.w3.org/1999/xlink">
    <!-- Generator: Sketch 52.5 (67469) - http://www.bohemiancoding.com/sketch -->
    <title>cri.planets-8</title>
    <desc>Created with Sketch.</desc>
    <g id="Landing" stroke="none" stroke-width="1" fill="none" fill-rule="evenodd">
        <g id="Artboard" transform="translate(-950.000000, -588.000000)" fill="#FACC21">
            <path d="M951.905,596.448 C951.638,600.125 952.004,603.856 951.847,607.544 C950.565,604.764 950.126,601.685 950.979,598.718 C951.209,597.917 951.527,597.163 951.905,596.448 Z M953.3368,610.1274 C952.8648,609.4534 952.4428,608.7494 952.0778,608.0234 C952.3008,604.0034 951.8288,599.9244 952.1948,595.9194 C952.7608,594.9664 953.4538,594.0994 954.2408,593.3214 C954.0178,597.1174 954.2158,600.9344 953.8758,604.7264 C953.7168,606.5154 953.4798,608.3214 953.3368,610.1274 Z M963.2942,611.1047 C963.7592,613.1907 964.2412,615.2777 964.9112,617.3087 C963.0912,617.1497 961.2792,616.5737 959.5882,615.6777 C958.9552,613.7987 958.6432,611.7777 958.3852,609.8837 C957.8522,605.9587 957.3552,602.0117 957.1942,598.0517 C957.1022,595.7767 957.0582,593.5007 956.9312,591.2267 C957.6822,590.7677 958.4762,590.3697 959.2982,590.0347 C959.3542,594.9617 960.3962,599.8437 961.6562,604.5887 C962.2322,606.7587 962.8052,608.9127 963.2942,611.1047 Z M969.0444,613.5132 C969.1454,613.7282 969.8764,615.2412 970.3624,616.3932 C968.6804,617.1652 966.9024,617.4442 965.1294,617.3212 C964.4944,615.3902 964.0614,613.3762 963.6364,611.4812 C962.6014,606.8752 961.1894,602.3582 960.3454,597.7092 C959.8794,595.1432 959.5714,592.5462 959.5474,589.9382 C960.1294,589.7112 960.7284,589.5252 961.3334,589.3632 C961.2444,591.2582 961.4804,593.1652 961.8574,595.0202 C962.4134,597.7522 963.2864,600.4172 964.3004,603.0112 C965.7004,606.5892 967.4184,610.0352 969.0444,613.5132 Z M972.6764,593.5486 C971.8424,593.3386 971.2374,592.5976 970.8064,591.8976 C970.3164,591.1016 969.9744,590.2236 969.7044,589.3276 C971.7484,589.8926 973.6394,590.9206 975.1814,592.4656 C974.4994,593.2606 973.6624,593.7966 972.6764,593.5486 Z M972.7039,593.8127 C973.7559,594.0277 974.6369,593.4637 975.3509,592.6407 C975.6419,592.9437 975.9209,593.2627 976.1839,593.6047 C975.7129,595.4867 974.4629,600.1907 971.8849,598.9427 C970.9239,598.4777 970.2339,597.4897 969.6839,596.6127 C968.9689,595.4697 968.4039,594.2317 967.9189,592.9767 C967.3969,591.6257 966.9699,590.2357 966.6549,588.8227 C967.5909,588.8787 968.5159,589.0197 969.4139,589.2477 C969.9189,591.0397 970.8269,593.4287 972.7039,593.8127 Z M977.9857,596.7953 C979.2577,600.0663 979.1457,603.7083 978.0197,607.0563 C977.0127,608.1963 975.8377,609.2273 974.4757,609.8283 C973.6137,610.2093 972.5947,610.4083 971.7177,609.9653 C970.5317,609.3673 969.6677,608.0933 968.9377,607.0263 C967.2397,604.5433 966.6657,601.4113 965.6867,598.6113 C964.5807,595.4473 963.0167,592.4213 962.2387,589.1513 C963.6077,588.8633 965.0097,588.7473 966.3917,588.8073 C967.0067,591.6243 968.0177,594.5183 969.5957,596.9413 C970.5477,598.4043 972.3657,600.3893 974.0987,598.7613 C975.3837,597.5543 975.9477,595.5643 976.3777,593.8613 C976.9637,594.6653 977.4417,595.5113 977.8177,596.3883 C977.5817,597.4073 977.2357,598.4113 976.8797,599.3653 C976.2297,601.1053 975.4117,602.9713 974.0997,604.3233 C970.4857,608.0463 967.9007,599.9003 967.1727,597.5303 C966.4047,595.0283 965.8127,592.3963 964.5737,590.0723 C964.4967,589.9293 964.2797,590.0563 964.3557,590.1993 C965.6117,592.5553 966.1977,595.2313 966.9817,597.7653 C967.6877,600.0443 968.4747,602.5263 970.0977,604.3373 C971.1257,605.4843 972.3937,606.0033 973.7237,604.9963 C975.1947,603.8823 976.0787,601.9843 976.7687,600.3283 C977.2357,599.2083 977.6827,598.0123 977.9857,596.7953 Z M973.9971,610.2781 C975.4591,609.8211 976.7281,608.7971 977.8031,607.6571 C976.8521,610.1791 975.3301,612.5081 973.3771,614.3431 C972.4981,615.1691 971.5661,615.8051 970.6011,616.2781 C970.3991,615.8241 970.1911,615.4241 970.1381,615.3041 C969.3711,613.5671 968.5371,611.8601 967.7271,610.1421 C965.7161,605.8751 963.7711,601.5551 962.5731,596.9761 C961.9231,594.4951 961.4461,591.8761 961.5881,589.2941 C961.7221,589.2601 961.8571,589.2351 961.9921,589.2051 C962.7551,592.4071 964.2841,595.3601 965.3681,598.4581 C966.3981,601.4031 967.0041,604.6961 968.8191,607.2911 C969.5491,608.3361 970.3701,609.5231 971.5161,610.1441 C972.2901,610.5651 973.1731,610.5351 973.9971,610.2781 Z M959.127,614.9481 C959.182,615.1381 959.241,615.3281 959.301,615.5171 C957.086,614.2871 955.088,612.5161 953.562,610.4341 C953.708,608.4521 953.98,606.4681 954.147,604.5061 C954.473,600.7021 954.266,596.8731 954.507,593.0661 C955.175,592.4401 955.91,591.8791 956.69,591.3821 C956.928,595.7611 956.864,600.1591 957.472,604.5111 C957.958,607.9961 958.149,611.5501 959.127,614.9481 Z" id="cri.planets-8"></path>
        </g>
    </g>
</svg>