<?xml version="1.0" encoding="UTF-8"?>
<svg width="15px" height="17px" viewBox="0 0 15 17" version="1.1" xmlns="http://www.w3.org/2000/svg" xmlns:xlink="http://www.w3.org/1999/xlink">
    <!-- Generator: Sketch 52.5 (67469) - http://www.bohemiancoding.com/sketch -->
    <title>cri.planets-1</title>
    <desc>Created with Sketch.</desc>
    <g id="Landing" stroke="none" stroke-width="1" fill="none" fill-rule="evenodd">
        <g id="Artboard" transform="translate(-1072.000000, -712.000000)" fill="#E07D2B">
            <path d="M1080.0551,716.7693 C1079.5371,717.3953 1079.0951,718.0903 1078.6681,718.7613 C1078.1671,719.5483 1077.6501,720.3623 1077.0141,721.0563 C1076.1891,721.9583 1074.7011,722.9383 1073.2081,722.7503 C1073.0591,722.1543 1072.9301,721.4983 1072.8031,720.6933 C1073.9661,720.5023 1075.0631,720.2553 1075.7531,719.4273 C1075.9961,719.1353 1076.1641,718.7913 1076.3271,718.4583 L1076.3351,718.4413 C1076.3761,718.3573 1076.4171,718.2733 1076.4591,718.1913 C1076.8911,717.3413 1077.4581,716.5753 1078.1441,715.9153 C1078.7851,715.2983 1079.4011,714.9153 1080.0261,714.7443 C1080.7731,714.5423 1081.5581,714.6763 1082.0751,715.0963 L1082.0981,715.1283 C1082.3441,715.4483 1082.5891,715.7793 1082.8271,716.1133 C1081.8721,716.0743 1080.5981,716.1133 1080.0551,716.7693 Z M1074.9388,714.343 C1075.7508,713.663 1076.7318,712.961 1077.8968,712.843 C1076.8268,713.547 1075.4178,714.57 1074.7958,715.033 C1074.1238,715.533 1073.4748,715.858 1072.8648,715.998 C1073.2158,715.573 1073.7028,715.235 1074.1748,714.907 C1074.4488,714.717 1074.7068,714.537 1074.9388,714.343 Z M1078.028,714.2 C1077.331,714.647 1076.703,715.232 1076.096,715.797 C1075.021,716.797 1074.005,717.742 1072.64,718.001 C1072.535,718.021 1072.44,718.026 1072.364,718.029 C1072.313,717.51 1072.337,717.096 1072.437,716.766 C1072.496,716.574 1072.582,716.393 1072.701,716.215 C1073.4,716.096 1074.142,715.749 1074.905,715.18 C1075.593,714.668 1077.174,713.521 1078.254,712.83 C1078.824,712.833 1079.397,712.982 1079.962,713.271 C1079.351,713.504 1078.657,713.797 1078.028,714.2 Z M1082.9716,716.3169 C1082.9876,716.3399 1083.0036,716.3629 1083.0206,716.3849 C1082.4136,716.6509 1081.7636,717.1389 1081.4056,717.4909 C1080.0406,718.8329 1078.8406,720.3389 1077.8386,721.9689 C1077.7606,722.0949 1077.6846,722.2219 1077.6076,722.3489 L1077.5786,722.3969 C1077.1006,723.1929 1076.6056,724.0159 1075.8966,724.6139 C1075.4096,725.0239 1074.7716,725.3019 1074.1826,725.3599 C1073.8066,724.6639 1073.5036,723.8729 1073.2576,722.9439 C1074.7906,723.1009 1076.2686,722.1419 1077.1486,721.1809 C1077.7956,720.4729 1078.3176,719.6529 1078.8226,718.8599 C1079.2496,718.1889 1079.6876,717.4999 1080.1956,716.8859 C1080.5836,716.4189 1081.4886,716.2279 1082.9606,716.3019 L1082.9716,716.3169 Z M1079.9781,714.5684 C1079.3221,714.7464 1078.6811,715.1444 1078.0171,715.7834 C1077.3161,716.4574 1076.7371,717.2394 1076.2961,718.1074 C1076.2511,718.1964 1076.2071,718.2854 1076.1641,718.3744 C1076.0061,718.6984 1075.8421,719.0334 1075.6121,719.3104 C1074.9621,720.0894 1073.9011,720.3274 1072.7751,720.5124 C1072.7511,720.3594 1072.7281,720.2064 1072.7061,720.0544 C1072.6891,719.9344 1072.6671,719.8074 1072.6431,719.6764 L1072.6471,719.6744 L1072.6321,719.6194 C1072.6131,719.5154 1072.5911,719.4024 1072.5691,719.2884 C1072.5001,718.9364 1072.4301,718.5744 1072.3851,718.2134 C1072.4961,718.2124 1072.6031,718.1944 1072.6741,718.1804 C1074.0921,717.9124 1075.1741,716.9054 1076.2201,715.9314 C1076.8231,715.3694 1077.4451,714.7914 1078.1271,714.3534 C1078.7791,713.9354 1079.4941,713.6414 1080.1721,713.3874 C1080.7101,713.6974 1081.2391,714.1374 1081.7161,714.6684 C1081.1991,714.4424 1080.5801,714.4044 1079.9781,714.5684 Z M1083.1282,716.5415 C1083.4412,716.9945 1083.7382,717.4515 1084.0122,717.9005 C1081.7692,718.6745 1079.8932,720.3065 1078.8572,722.3885 C1078.6682,722.7675 1078.5052,723.1645 1078.3472,723.5485 C1078.2112,723.8805 1078.0612,724.2445 1077.8982,724.5845 C1077.3642,725.7025 1076.6202,726.7055 1075.9572,727.5415 C1075.6382,727.2745 1075.3402,726.9805 1075.0712,726.6675 C1074.7802,726.3265 1074.5202,725.9545 1074.2782,725.5315 C1074.8882,725.4545 1075.5172,725.1735 1076.0142,724.7535 C1076.7472,724.1355 1077.2492,723.2995 1077.7362,722.4905 L1077.7462,722.4735 C1077.8282,722.3365 1077.9112,722.2005 1077.9942,722.0645 C1078.9882,720.4475 1080.1792,718.9525 1081.5342,717.6215 C1081.8982,717.2635 1082.5282,716.7945 1083.1282,716.5415 Z M1084.9143,719.5117 C1083.1703,720.0797 1081.3793,720.6807 1080.6243,722.5317 C1080.2153,723.5347 1080.0073,724.6147 1079.8053,725.6587 C1079.6493,726.4687 1079.4873,727.3057 1079.2323,728.1007 C1079.1443,728.3757 1079.0403,728.6587 1078.9223,728.9407 C1077.9353,728.7847 1076.9603,728.3417 1076.0983,727.6577 C1076.7683,726.8127 1077.5213,725.7987 1078.0643,724.6637 C1078.2253,724.3267 1078.3693,723.9767 1078.5093,723.6377 C1078.6713,723.2417 1078.8343,722.8457 1079.0213,722.4707 C1080.0423,720.4187 1081.8943,718.8137 1084.1093,718.0607 C1084.4063,718.5557 1084.6773,719.0437 1084.9143,719.5117 Z M1082.8363,727.6821 C1082.8233,727.8431 1082.8113,728.0511 1082.8303,728.2611 L1082.8223,728.2651 C1082.6253,728.3501 1082.4413,728.4251 1082.2593,728.4931 C1081.8553,728.6451 1081.4573,728.7641 1081.0753,728.8481 C1081.1583,727.1291 1081.4203,725.6631 1081.8783,724.3661 C1082.5403,722.4911 1083.6853,720.9081 1085.1073,719.9031 C1085.2573,720.2171 1085.3863,720.5071 1085.5003,720.7891 C1085.6093,721.0551 1085.7053,721.3261 1085.7873,721.5971 C1084.1083,723.0231 1083.0333,725.2391 1082.8363,727.6821 Z M1081.7053,724.3053 C1081.2373,725.6303 1080.9713,727.1293 1080.8903,728.8863 C1080.5333,728.9553 1080.1973,728.9943 1079.8653,729.0033 C1079.6233,729.0103 1079.3703,728.9973 1079.1093,728.9653 C1079.2233,728.6903 1079.3233,728.4183 1079.4073,728.1573 C1079.6653,727.3523 1079.8273,726.5093 1079.9853,725.6933 C1080.1843,724.6583 1080.3913,723.5873 1080.7943,722.6003 C1081.5193,720.8223 1083.2833,720.2353 1084.9973,719.6773 L1085.0273,719.7373 C1083.5623,720.7633 1082.3843,722.3843 1081.7053,724.3053 Z M1086.1011,723.5258 C1085.3821,724.2668 1084.9781,725.4308 1084.9881,726.7288 C1084.4881,727.3128 1083.8221,727.8018 1083.0081,728.1798 C1082.9971,728.0058 1083.0071,727.8328 1083.0191,727.6968 C1083.2091,725.3358 1084.2371,723.1878 1085.8431,721.7908 C1086.0071,722.3868 1086.0941,722.9688 1086.1011,723.5258 Z M1085.1738,726.4965 C1085.7528,725.7275 1086.0628,724.8225 1086.0988,723.8005 C1085.5408,724.4605 1085.2078,725.4285 1085.1738,726.4965 Z" id="cri.planets-1"></path>
        </g>
    </g>
</svg>