<?xml version="1.0" encoding="UTF-8"?>
<svg width="100px" height="130px" viewBox="0 0 100 130" version="1.1" xmlns="http://www.w3.org/2000/svg" xmlns:xlink="http://www.w3.org/1999/xlink">
    <!-- Generator: Sketch 52.5 (67469) - http://www.bohemiancoding.com/sketch -->
    <title>cri.planets-9</title>
    <desc>Created with Sketch.</desc>
    <g id="Landing" stroke="none" stroke-width="1" fill="none" fill-rule="evenodd">
        <g id="Artboard" transform="translate(-977.000000, -492.000000)" fill="#FACC21">
            <path d="M1063.2821,501.3395 C1062.5821,499.7025 1061.9631,497.9895 1061.6361,496.2305 C1065.7111,498.5655 1069.1161,502.0115 1071.3421,506.7685 C1072.2321,508.6705 1072.9361,510.6345 1073.5011,512.6405 C1072.3751,512.4885 1071.3031,511.9805 1070.3691,511.3125 C1067.0621,508.9485 1064.8491,505.0025 1063.2821,501.3395 Z M1065.9156,506.7828 C1067.6066,509.3298 1070.2726,512.5918 1073.5766,512.9168 C1073.7126,513.4098 1073.8426,513.9058 1073.9616,514.4038 C1073.9116,514.4748 1073.8566,514.5418 1073.8046,514.6108 C1071.7016,515.9118 1069.2086,517.0628 1066.7116,516.6678 C1064.6196,516.3368 1063.0556,514.8348 1061.9586,513.1078 C1060.6426,511.0368 1059.8356,508.6558 1059.1366,506.3198 C1058.3846,503.8088 1057.7816,501.2568 1057.0766,498.7338 C1056.5966,497.0158 1056.0976,495.2288 1055.3166,493.5998 C1057.4356,494.1978 1059.4636,495.0138 1061.3526,496.0648 C1061.6416,497.7468 1062.2066,499.3888 1062.8516,500.9628 C1063.6836,502.9928 1064.7016,504.9538 1065.9156,506.7828 Z M1066.2772,516.8389 C1068.7182,517.3969 1071.1992,516.4199 1073.3352,515.1819 C1071.7062,516.9919 1069.4562,517.9849 1066.8922,517.8809 C1063.8342,517.7559 1060.8892,516.3529 1058.4972,514.5089 C1056.0032,512.5859 1054.1142,510.1039 1053.1002,507.1129 C1052.1082,504.1889 1051.9562,501.0749 1051.0722,498.1259 C1050.6322,496.6559 1049.9722,495.2549 1048.9582,494.0899 C1048.3562,493.3989 1047.6552,492.8209 1046.8962,492.3279 C1049.6682,492.4229 1052.3952,492.8089 1054.9932,493.5129 C1055.7882,495.1079 1056.2922,496.8729 1056.7692,498.5639 C1057.5052,501.1749 1058.1242,503.8179 1058.9042,506.4169 C1060.0532,510.2419 1061.8002,515.8159 1066.2772,516.8389 Z M1074.0435,514.7561 C1074.3295,515.9891 1074.5735,517.2341 1074.7725,518.4911 C1071.2995,519.8551 1067.4845,520.3791 1063.7785,520.0491 C1059.2355,519.6461 1054.5875,517.8781 1051.5475,514.3571 C1049.3535,511.8151 1048.4705,508.3011 1047.6165,505.1371 C1046.8195,502.1821 1046.0995,499.0401 1044.3475,496.4761 C1043.4335,495.1371 1042.2095,494.0471 1040.7255,493.3781 C1040.0905,493.0921 1039.4275,492.8921 1038.7515,492.7521 C1040.1745,492.5871 1041.5875,492.4591 1042.9815,492.3761 C1044.1195,492.3081 1045.2575,492.2871 1046.3905,492.3121 C1047.3125,492.8631 1048.1585,493.5311 1048.8605,494.3631 C1049.8545,495.5431 1050.4855,496.9611 1050.9025,498.4361 C1051.7485,501.4331 1051.9215,504.5761 1052.9775,507.5221 C1054.0185,510.4251 1055.9205,512.8391 1058.3535,514.7161 C1060.7095,516.5321 1063.5925,517.9151 1066.5935,518.1161 C1069.5855,518.3171 1072.2215,517.0921 1073.9855,514.7921 C1074.0045,514.7801 1074.0245,514.7681 1074.0435,514.7561 Z M1062.7273,520.1864 C1066.7713,520.7234 1070.9983,520.2364 1074.8143,518.7474 C1075.0253,520.1244 1075.1913,521.5124 1075.3203,522.9084 C1074.9763,523.8524 1074.4613,524.7264 1073.7223,525.4584 C1072.3833,526.7854 1070.5573,527.4574 1068.7233,527.7354 C1064.3363,528.4014 1059.6713,527.2234 1055.6283,525.5694 C1053.6413,524.7564 1051.7073,523.7674 1049.9523,522.5234 C1049.2333,522.0144 1048.5403,521.4594 1047.9203,520.8314 C1047.1573,520.0584 1046.5603,519.1254 1045.9823,518.2114 C1043.1743,513.7774 1041.2633,508.8404 1038.4143,504.4284 C1035.6753,500.1884 1031.9403,496.6324 1026.7963,495.7694 C1026.1553,495.6614 1025.5083,495.6014 1024.8583,495.5684 C1029.1783,494.3214 1033.5253,493.4234 1037.7783,492.8764 C1040.2383,493.2184 1042.4753,494.2784 1044.0313,496.4604 C1045.9213,499.1104 1046.6283,502.4554 1047.4663,505.5424 C1048.2963,508.5984 1049.1913,511.9004 1051.2463,514.3944 C1054.0443,517.7884 1058.4573,519.6194 1062.7273,520.1864 Z M1073.2365,526.2173 C1074.1885,525.4843 1074.8925,524.5293 1075.3695,523.4583 C1075.3795,523.5743 1075.3915,523.6903 1075.4005,523.8063 C1075.4565,525.9703 1075.0365,528.2133 1073.5515,529.8693 C1072.1815,531.3993 1070.1795,532.1433 1068.1945,532.4593 C1063.1295,533.2673 1057.7235,531.9243 1052.9335,530.3533 C1050.5095,529.5583 1048.1295,528.6183 1045.8255,527.5233 C1044.1025,526.7043 1042.3745,525.8113 1040.8375,524.6733 C1035.8795,521.0033 1033.1155,515.1493 1030.0375,509.9803 C1027.0745,505.0053 1023.4985,499.9363 1017.8895,497.8883 C1020.0855,497.0543 1022.3065,496.3133 1024.5375,495.6603 C1024.5235,495.7273 1024.5525,495.8013 1024.6405,495.8053 C1027.4665,495.9233 1030.1865,496.7363 1032.5225,498.3503 C1034.6665,499.8323 1036.3795,501.8453 1037.8285,503.9943 C1040.8615,508.4943 1042.8025,513.6133 1045.6805,518.2023 C1046.2595,519.1253 1046.8535,520.0803 1047.6085,520.8703 C1048.1895,521.4783 1048.8405,522.0213 1049.5175,522.5203 C1051.2125,523.7683 1053.0955,524.7633 1055.0275,525.5903 C1059.0545,527.3143 1063.6505,528.5203 1068.0595,528.0733 C1069.8965,527.8863 1071.7555,527.3583 1073.2365,526.2173 Z M1075.547,525.8979 C1075.717,528.7109 1075.776,531.5389 1075.809,534.3419 C1075.023,535.4499 1074.06,536.4359 1072.908,537.2449 C1070.343,539.0459 1067.219,539.9239 1064.13,540.2389 C1060.769,540.5809 1057.317,540.1829 1054.032,539.4379 C1050.922,538.7329 1047.907,537.6079 1045.111,536.0719 C1039.375,532.9209 1034.745,528.1449 1031.084,522.7709 C1029.5,520.4439 1027.914,518.1509 1026.172,515.9339 C1024.236,513.4709 1022.191,511.0849 1019.963,508.8799 C1017.786,506.7239 1015.421,504.6999 1012.761,503.1609 C1011.708,502.5519 1010.589,502.0189 1009.429,501.6209 C1012.051,500.2889 1014.75,499.0949 1017.491,498.0389 C1019.708,498.8039 1021.733,500.0289 1023.485,501.6579 C1025.872,503.8769 1027.711,506.6189 1029.391,509.3909 C1032.618,514.7149 1035.367,520.6609 1040.349,524.6169 C1041.776,525.7489 1043.419,526.6189 1045.045,527.4229 C1047.344,528.5599 1049.728,529.5299 1052.154,530.3579 C1056.985,532.0059 1062.346,533.3769 1067.489,532.8079 C1069.499,532.5859 1071.564,531.9919 1073.12,530.6449 C1074.53,529.4239 1075.283,527.7089 1075.547,525.8979 Z M1063.1497,540.5709 C1067.9227,540.2729 1072.9007,538.5499 1075.8147,534.7879 C1075.8287,536.1259 1075.8377,537.4579 1075.8527,538.7799 C1075.7457,538.9069 1075.6357,539.0309 1075.5227,539.1509 C1073.4587,541.3539 1070.5877,542.7419 1067.7887,543.7579 C1061.0107,546.2159 1053.5107,546.5529 1046.6297,544.2999 C1039.0077,541.8039 1032.6257,536.4599 1027.9707,530.0189 C1026.8607,528.4819 1025.9337,526.8369 1024.8807,525.2659 C1024.0477,524.0239 1023.2547,522.7559 1022.4557,521.4929 C1020.7277,518.7619 1018.9757,516.0359 1016.9597,513.5059 C1013.5517,509.2259 1008.9987,505.2069 1003.3957,505.0059 C1005.2627,503.8439 1007.1937,502.7659 1009.1627,501.7569 C1013.0437,502.9929 1016.5667,505.9369 1019.3357,508.6169 C1023.6647,512.8059 1027.3317,517.6339 1030.6817,522.6219 C1034.3247,528.0459 1038.9427,532.8929 1044.6757,536.1169 C1047.4247,537.6629 1050.3847,538.8169 1053.4507,539.5589 C1056.5917,540.3189 1059.9157,540.7729 1063.1497,540.5709 Z M1066.9065,544.3274 C1069.7345,543.3984 1073.3345,541.8174 1075.6315,539.4234 C1072.5815,543.8754 1067.4795,547.1514 1062.6685,549.2244 C1058.5465,550.9994 1054.0365,551.9884 1049.5365,551.7414 C1045.4785,551.5194 1041.5535,550.2644 1038.0355,548.2484 C1030.6675,544.0284 1025.2035,537.0314 1020.7715,529.9394 C1019.6455,528.1384 1018.5755,526.3014 1017.5495,524.4414 C1016.5325,522.5994 1015.6105,520.7244 1014.3985,518.9964 C1012.4335,516.1954 1009.8705,513.9454 1006.6145,512.7954 C1004.8195,512.1624 1002.9245,511.8494 1001.0315,511.7054 C999.6265,511.5994 998.1895,511.7134 996.7845,511.7874 C995.8645,511.8364 994.9425,511.8944 994.0225,511.9694 C996.7785,509.5204 999.7885,507.2894 1002.9725,505.2764 C1004.9115,505.2734 1006.8315,505.6974 1008.6445,506.5784 C1011.6595,508.0434 1014.1255,510.4624 1016.2405,513.0194 C1018.4065,515.6364 1020.2595,518.4934 1022.0755,521.3584 C1022.8605,522.5994 1023.6385,523.8444 1024.4485,525.0694 C1025.4865,526.6384 1026.4225,528.2694 1027.5105,529.8064 C1032.0785,536.2584 1038.3555,541.6604 1045.8765,544.3094 C1052.6745,546.7044 1060.0895,546.5674 1066.9065,544.3274 Z M996.7362,547.9269 C990.7042,545.3799 983.9392,543.7289 977.4732,545.2139 C977.5422,542.5459 977.8512,539.9669 978.3822,537.4819 C979.8142,536.8759 981.3342,536.4499 982.7832,536.1129 C986.1012,535.3409 989.5562,534.9819 992.9612,535.0839 C1000.5752,535.3129 1007.4772,538.8449 1013.0512,543.8639 C1015.9582,546.4819 1018.5462,549.4299 1021.1552,552.3379 C1023.6702,555.1429 1026.2702,557.9519 1029.4122,560.0699 C1030.9442,561.1019 1032.6012,561.9559 1034.3592,562.5329 C1036.3842,563.1989 1038.6162,563.4169 1040.7392,563.4679 C1044.8662,563.5649 1048.9142,562.6639 1052.7532,561.1919 C1054.8092,560.4029 1056.7542,559.4009 1058.7572,558.4969 C1060.7272,557.6089 1062.7812,556.9239 1064.8442,556.2929 C1068.6472,555.1289 1072.5462,554.1459 1076.1552,552.4439 C1076.1792,553.4369 1076.2032,554.4299 1076.2272,555.4229 C1070.3162,558.5669 1065.3032,563.2719 1059.1832,566.0709 C1055.5842,567.7169 1051.7852,568.9769 1047.8962,569.7209 C1044.1162,570.4439 1040.1662,570.7009 1036.3992,569.7739 C1032.6392,568.8489 1029.1392,567.0369 1025.8372,565.0579 C1022.4542,563.0309 1019.2302,560.7569 1015.9472,558.5759 C1012.9502,556.5859 1009.8432,554.7719 1006.7182,552.9889 C1003.4782,551.1399 1000.1762,549.3799 996.7362,547.9269 Z M977.9789,553.8136 C977.7579,552.0536 977.5949,550.2956 977.5079,548.5396 C977.4569,547.5156 977.4449,546.5046 977.4639,545.5046 C983.3199,544.1676 989.4869,545.3496 995.1439,547.5516 C998.7439,548.9536 1002.1869,550.7276 1005.5519,552.6166 C1008.6789,554.3726 1011.8049,556.1656 1014.8089,558.1266 C1021.1979,562.3006 1027.4499,567.2816 1034.8299,569.5946 C1042.0009,571.8416 1049.8899,570.0756 1056.7019,567.3986 C1058.4319,566.7176 1060.1299,565.9486 1061.7719,565.0766 C1063.4569,564.1826 1065.0389,563.0536 1066.6059,561.9716 C1069.7539,559.7966 1072.8519,557.5026 1076.2339,555.6976 C1076.2529,556.4866 1076.2719,557.2766 1076.2909,558.0666 C1071.2249,560.4276 1066.6049,563.7126 1061.8479,566.6246 C1055.7609,570.3526 1049.1229,573.5746 1041.8159,573.4326 C1034.6669,573.2936 1028.0799,570.2376 1021.9819,566.7566 C1015.9269,563.3006 1010.1149,559.2976 1003.6059,556.7126 C995.8179,553.6196 987.0699,553.1556 978.7919,553.7476 C978.5209,553.7676 978.2499,553.7916 977.9789,553.8136 Z M1001.8546,586.9376 C996.5676,585.4486 991.2716,583.8106 985.7736,583.7096 C983.1226,575.7646 980.4866,567.6696 978.9096,559.5666 C981.5476,559.8156 984.2276,559.7146 986.8666,559.6706 C990.9636,559.6026 995.0026,559.6836 998.9786,560.7736 C1006.8686,562.9376 1013.5756,567.9116 1020.8706,571.4256 C1028.0856,574.8996 1035.9566,577.4116 1044.0246,577.4976 C1047.9796,577.5386 1051.9296,576.9766 1055.6966,575.7616 C1058.7826,574.7666 1061.7076,573.2776 1064.6246,571.8736 C1067.4756,570.5006 1070.2966,569.0456 1072.9586,567.3286 C1074.1566,566.5566 1075.3446,565.7236 1076.4536,564.8016 C1076.4546,564.8366 1076.4556,564.8706 1076.4566,564.9046 C1076.5046,566.9016 1076.5656,568.9096 1076.5806,570.9186 C1075.0646,571.3086 1073.5756,571.8256 1072.1286,572.3876 C1068.6336,573.7446 1065.2736,575.4216 1061.7896,576.8036 C1058.0926,578.2696 1054.1216,579.0826 1050.2126,579.7676 C1046.1856,580.4726 1042.0946,580.7636 1038.0216,580.2976 C1030.1856,579.3996 1022.9966,575.7006 1015.6286,573.1366 C1009.2356,570.9106 1002.2826,569.2356 995.5686,571.0286 C993.1996,571.6616 990.8756,572.5926 988.6896,573.6976 C987.6626,574.2166 986.6456,574.7876 985.7296,575.4876 C985.1216,575.9526 984.4276,576.5366 984.1706,577.2876 C984.0816,577.5476 984.0606,577.8166 984.1326,578.0836 C984.1736,578.2396 984.4226,578.1986 984.3806,578.0416 C984.1776,577.2836 984.8326,576.5976 985.3456,576.1326 C986.1996,575.3586 987.2136,574.7626 988.2266,574.2216 C990.4126,573.0546 992.7556,572.1016 995.1366,571.4096 C1001.7326,569.4916 1008.6036,571.0066 1014.9386,573.1646 C1021.9606,575.5566 1028.7706,579.0596 1036.1386,580.2866 C1040.0226,580.9326 1043.9656,580.9056 1047.8616,580.3866 C1049.8146,580.1266 1051.7506,579.7566 1053.6756,579.3386 C1055.5616,578.9286 1057.4946,578.5576 1059.3316,577.9636 C1065.1786,576.0746 1070.5976,572.6436 1076.5816,571.1586 C1076.5866,572.0476 1076.5786,572.9366 1076.5606,573.8246 C1071.3166,576.6106 1065.4236,577.8776 1059.8126,579.7366 C1053.2136,581.9236 1046.4526,583.4076 1039.6226,584.6716 C1036.2146,585.3026 1032.7996,585.8926 1029.3916,586.5226 C1026.0316,587.1436 1022.7056,587.8996 1019.3586,588.5776 C1013.4396,589.7766 1007.5636,588.5456 1001.8546,586.9376 Z M989.1016,589.2933 C988.4726,588.9903 987.8776,588.6173 987.2846,588.2433 C986.8126,586.8213 986.3366,585.3963 985.8586,583.9643 C996.5736,584.2073 1006.4806,590.4413 1017.3546,589.1523 C1018.9376,588.9653 1020.4726,588.5723 1022.0276,588.2373 C1023.7186,587.8723 1025.4136,587.5323 1027.1126,587.2073 C1030.5546,586.5473 1034.0086,585.9473 1037.4576,585.3233 C1044.1986,584.1043 1050.9446,582.7953 1057.4936,580.7553 C1061.0756,579.6403 1064.6636,578.5433 1068.2426,577.4193 C1071.0926,576.5243 1073.9116,575.5003 1076.5546,574.1103 C1076.5276,575.2523 1076.4726,576.3923 1076.3856,577.5293 C1076.0966,577.7143 1075.8046,577.8923 1075.5116,578.0593 C1073.3336,579.2993 1070.9576,580.1843 1068.5726,580.9353 C1063.8006,582.4383 1058.8816,583.3793 1053.9806,584.3413 C1046.2826,585.8503 1038.6756,587.7963 1030.9566,589.2023 C1027.1206,589.9003 1023.2706,590.4143 1019.3876,590.7663 C1015.5156,591.1173 1011.6506,591.5413 1007.7706,591.7933 C1003.4066,592.0773 999.0476,592.1933 994.7576,591.2063 C992.8316,590.7623 990.8866,590.1533 989.1016,589.2933 Z M997.8936,597.1481 C994.7316,596.2331 991.8536,594.6361 988.9066,593.2071 C988.4196,591.6841 987.9186,590.1551 987.4086,588.6181 C987.8056,588.8671 988.2046,589.1111 988.6166,589.3281 C990.1666,590.1451 991.8926,590.7161 993.5806,591.1701 C997.2136,592.1491 1000.8956,592.3391 1004.6386,592.2051 C1008.6186,592.0621 1012.5846,591.6671 1016.5466,591.2861 C1020.5126,590.9051 1024.4636,590.5471 1028.3976,589.9011 C1036.3096,588.6031 1044.0866,586.6261 1051.9356,585.0091 C1057.1726,583.9301 1062.4396,583.0211 1067.5746,581.5011 C1070.2936,580.6961 1073.0136,579.7481 1075.4946,578.3571 C1075.7856,578.1941 1076.0756,578.0201 1076.3636,577.8401 C1076.3036,578.5711 1076.2226,579.3001 1076.1296,580.0281 C1073.9656,580.6171 1071.7796,581.1241 1069.5956,581.6341 C1067.8616,582.0391 1066.1006,582.3941 1064.3926,582.9051 C1062.9396,583.3411 1061.5276,584.0381 1060.1496,584.6681 C1058.4026,585.4661 1056.6836,586.3241 1054.9776,587.2061 C1048.2166,590.7061 1041.5986,594.6621 1034.2856,596.9291 C1030.3356,598.1541 1026.1666,598.1581 1022.0706,598.2741 C1018.0316,598.3891 1014.0056,598.5951 1009.9626,598.4921 C1007.9526,598.4411 1005.9436,598.3321 1003.9416,598.1391 C1001.9106,597.9431 999.8586,597.7161 997.8936,597.1481 Z M991.2169,600.9957 C990.9869,600.1107 990.7539,599.2417 990.5079,598.4017 C990.0359,596.7937 989.5349,595.1747 989.0159,593.5467 C991.1629,594.5967 993.2759,595.7217 995.5029,596.5957 C999.1999,598.0467 1003.1599,598.4097 1007.0969,598.6297 C1011.1649,598.8557 1015.2519,598.8137 1019.3209,598.6287 C1023.4509,598.4417 1027.6559,598.5877 1031.7349,597.8217 C1035.4909,597.1177 1039.1189,595.5327 1042.5589,593.9137 C1046.1089,592.2417 1049.5499,590.3527 1053.0169,588.5177 C1056.4739,586.6887 1059.9659,584.9067 1063.6039,583.4617 C1065.2859,582.7937 1067.1129,582.4717 1068.8699,582.0617 C1071.1889,581.5207 1073.5109,580.9877 1075.8119,580.3747 C1075.9069,580.3497 1075.9999,580.3217 1076.0949,580.2967 C1075.9249,581.5737 1075.7049,582.8447 1075.4079,584.1057 C1075.3969,584.1507 1075.3839,584.1947 1075.3729,584.2407 C1074.9769,584.3537 1074.5819,584.4617 1074.1879,584.5637 C1072.0459,585.1197 1069.8709,585.5507 1067.7509,586.1867 C1065.5929,586.8357 1063.5639,587.8297 1061.5389,588.8037 C1059.2869,589.8877 1057.0629,591.0267 1054.8389,592.1677 C1050.4159,594.4367 1045.9859,596.7197 1041.3539,598.5417 C1037.3919,600.0997 1033.1419,601.4827 1028.8799,601.8807 C1024.6699,602.2747 1020.4249,602.4207 1016.1999,602.5317 C1010.3489,602.6867 1004.4639,602.7217 998.6279,602.2257 C996.3629,602.0337 994.0609,601.7867 991.8629,601.1787 C991.6699,601.1257 991.4499,601.0657 991.2169,600.9957 Z M997.6112,609.0099 C995.9502,608.5839 994.3662,607.9499 992.8532,607.1689 C992.2752,605.2079 991.7882,603.2119 991.2922,601.2879 C992.7112,601.7519 994.2372,601.9719 995.6872,602.1649 C1001.4992,602.9389 1007.4312,602.9329 1013.2832,602.8429 C1018.1312,602.7699 1022.9862,602.5939 1027.8212,602.2219 C1036.0872,601.5859 1043.8902,597.9889 1051.1952,594.3089 C1055.8362,591.9699 1060.4222,589.5229 1065.1692,587.3979 C1068.3902,585.9559 1071.9242,585.5019 1075.2972,584.5309 C1074.6592,587.0389 1073.6742,589.3199 1072.4302,591.4169 C1067.4352,592.7439 1062.3262,593.6579 1057.4482,595.3899 C1054.5322,596.4249 1051.7312,597.7629 1048.8272,598.8349 C1045.9212,599.9079 1042.9722,600.8639 1040.0002,601.7359 C1034.1682,603.4479 1028.2512,604.8439 1022.3332,606.2229 C1019.4102,606.9039 1016.4912,607.6049 1013.5702,608.2939 C1011.0652,608.8849 1008.5302,609.3849 1005.9632,609.6029 C1003.1682,609.8389 1000.3362,609.7089 997.6112,609.0099 Z M1008.5669,614.1268 C1004.1439,614.6048 999.5399,614.5568 995.2509,613.3698 C994.2959,611.5348 993.5639,609.5288 992.9459,607.4738 C996.1919,609.0798 999.7119,609.9668 1003.4349,609.9648 C1008.8709,609.9608 1014.1549,608.3898 1019.4049,607.1628 C1031.3499,604.3728 1043.3659,601.6588 1054.6619,596.7608 C1060.2929,594.3188 1066.3429,593.2918 1072.2429,591.7308 C1070.2489,594.9918 1067.6089,597.7928 1064.6369,600.2918 C1062.6759,600.1548 1060.7029,600.1408 1058.7399,600.2128 C1053.3499,600.4108 1048.1759,601.9698 1043.1499,603.8418 C1037.0879,606.0998 1031.1929,608.8988 1024.9479,610.6398 C1019.5749,612.1388 1014.1239,613.5258 1008.5669,614.1268 Z M999.3259,618.4078 C998.3859,617.7158 997.5249,616.8838 996.7799,615.8668 C996.2739,615.1748 995.8239,614.4378 995.4099,613.6728 C998.6429,614.5358 1002.0489,614.7698 1005.4079,614.6218 C1011.0599,614.3728 1016.6209,613.1198 1022.0719,611.6778 C1024.8549,610.9418 1027.5999,610.1298 1030.3059,609.1418 C1033.3519,608.0298 1036.3469,606.7838 1039.3579,605.5818 C1044.8549,603.3878 1050.6269,601.1028 1056.5779,600.5908 C1059.0179,600.3808 1061.4879,600.3678 1063.9329,600.4958 C1064.0759,600.5028 1064.2189,600.5128 1064.3619,600.5218 C1059.9629,604.1668 1054.8609,607.1628 1050.0039,609.9648 C1049.8219,610.0698 1049.6389,610.1738 1049.4569,610.2778 C1048.8239,610.3478 1048.1889,610.4108 1047.5559,610.4708 C1043.7819,610.8328 1040.0489,611.5118 1036.3359,612.2678 C1031.6629,613.2198 1027.0289,614.3558 1022.4189,615.5708 C1020.1439,616.1708 1017.8829,616.8708 1015.5819,617.3608 C1013.4809,617.8088 1011.3449,618.0708 1009.2019,618.2068 C1005.9139,618.4178 1002.6189,618.3708 999.3259,618.4078 Z M1047.1393,610.7634 C1047.7283,610.7064 1048.3183,610.6504 1048.9083,610.5904 C1037.8883,616.8134 1025.6013,621.6974 1012.7813,621.6194 C1008.2633,621.5914 1003.3723,621.1824 999.6713,618.6484 C1002.4303,618.6204 1005.1903,618.6454 1007.9483,618.5254 C1010.1063,618.4304 1012.2623,618.2324 1014.3903,617.8514 C1016.7173,617.4344 1018.9813,616.7444 1021.2633,616.1364 C1025.9563,614.8854 1030.6703,613.7074 1035.4253,612.7124 C1039.2953,611.9044 1043.2013,611.1424 1047.1393,610.7634 Z M990.0842,559.4004 C986.3482,559.3614 982.5892,559.6564 978.8622,559.3074 C978.5272,557.5604 978.2362,555.8124 978.0112,554.0654 C981.7332,553.7664 985.4712,553.6904 989.1982,553.9544 C993.5012,554.2584 997.8562,554.9244 1001.9382,556.3574 C1008.6272,558.7034 1014.5582,562.7244 1020.6422,566.2734 C1026.5312,569.7084 1032.8102,572.9034 1039.6992,573.5624 C1046.8612,574.2484 1053.5382,571.7414 1059.6532,568.2224 C1065.2382,565.0094 1070.4512,561.0804 1076.2972,558.3404 C1076.3472,560.3844 1076.3972,562.4284 1076.4462,564.4724 C1075.8482,564.9744 1075.2302,565.4524 1074.6052,565.9044 C1071.9912,567.7954 1069.1452,569.3514 1066.2632,570.7904 C1063.6502,572.0954 1061.0022,573.4144 1058.3032,574.5344 C1054.4992,576.1134 1050.4312,577.0064 1046.3182,577.2044 C1038.1852,577.5954 1030.1512,575.3604 1022.7912,572.0434 C1015.5412,568.7764 1009.0072,563.9604 1001.4842,561.2984 C997.7732,559.9854 994.0112,559.4414 990.0842,559.4004 Z M984.6105,535.4805 C982.5425,535.8505 980.4135,536.3695 978.4405,537.2015 C979.2285,533.6385 980.4655,530.2655 982.0825,527.0925 C983.0365,528.3035 984.9195,528.7295 986.4375,528.8825 C989.1515,529.1565 991.9385,528.8465 994.6105,528.3605 C997.8555,527.7685 1001.1955,526.7765 1004.5245,527.0585 C1008.4065,527.3885 1011.3545,529.8265 1013.9495,532.5415 C1019.3545,538.1975 1022.9625,545.3545 1028.8445,550.5855 C1034.9285,555.9965 1043.2315,559.4975 1051.4445,558.3305 C1055.6305,557.7355 1059.6255,556.1855 1063.3535,554.2325 C1067.0045,552.3195 1070.4605,550.0575 1074.1345,548.1865 C1074.7595,547.8685 1075.3925,547.5675 1076.0295,547.2745 C1076.0685,548.9085 1076.1085,550.5425 1076.1485,552.1755 C1073.2375,553.5645 1070.0985,554.4715 1067.0135,555.3825 C1065.0355,555.9675 1063.0545,556.5535 1061.1175,557.2665 C1059.0885,558.0145 1057.1865,559.0135 1055.2155,559.8945 C1047.4895,563.3465 1037.9415,565.0595 1030.3345,560.3655 C1027.0235,558.3225 1024.3155,555.4695 1021.7285,552.5995 C1019.1435,549.7315 1016.6055,546.8085 1013.7695,544.1815 C1008.3585,539.1705 1001.7065,535.4535 994.2315,534.8975 C991.0315,534.6595 987.7645,534.9155 984.6105,535.4805 Z M982.3342,527.0316 C982.2862,526.9746 982.2502,526.9126 982.2082,526.8536 C985.0402,521.3766 988.9982,516.4936 993.7102,512.2486 C994.6312,512.1676 995.5542,512.1066 996.4762,512.0546 C997.9432,511.9736 999.4502,511.8426 1000.9192,511.9496 C1002.8702,512.0916 1004.8202,512.4126 1006.6642,513.0806 C1010.0922,514.3246 1012.6792,516.8156 1014.6562,519.8216 C1015.8462,521.6306 1016.7752,523.5846 1017.8342,525.4686 C1018.8772,527.3246 1019.9662,529.1556 1021.1142,530.9496 C1025.4752,537.7636 1030.8302,544.4376 1037.9632,548.4956 C1041.3022,550.3966 1045.0012,551.6316 1048.8392,551.9466 C1053.1462,552.2986 1057.5512,551.5296 1061.5632,549.9516 C1066.8322,547.8796 1072.5482,544.4726 1075.8622,539.6026 C1075.8742,540.5526 1075.8892,541.4966 1075.9122,542.4326 C1075.9492,543.9566 1075.9862,545.4796 1076.0222,547.0026 C1068.8372,550.3116 1062.5162,555.3956 1054.7472,557.3906 C1050.5982,558.4566 1046.3652,558.6506 1042.1952,557.5696 C1038.1512,556.5216 1034.2662,554.4936 1030.9402,551.9816 C1024.6332,547.2176 1020.8882,540.1836 1015.8412,534.2656 C1013.5192,531.5436 1010.8412,528.6606 1007.3922,527.4216 C1004.5812,526.4116 1001.6092,526.7646 998.7382,527.3016 C995.7872,527.8546 992.8712,528.5186 989.8642,528.6816 C988.4642,528.7566 987.0432,528.7506 985.6552,528.5276 C984.4802,528.3376 983.1372,527.9776 982.3342,527.0316 Z" id="cri.planets-9"></path>
        </g>
    </g>
</svg>