<svg width="553.2" height="90.514" version="1.1" xmlns="http://www.w3.org/2000/svg">
 <g transform="translate(-99.654 -68.439)">
  <g fill="#1d3557">
   <path d="m260.85 68.607v89.747h-16.764v-4.7897c-4.4704 3.1931-8.861 4.7897-13.172 4.7897-9.1803 0-16.465-2.9936-21.853-8.9807-5.3884-5.9871-8.0826-12.972-8.0826-20.955 0-7.9828 2.6942-14.968 8.0826-20.955 5.3884-5.9871 12.673-8.9806 21.853-8.9807 5.9871 0.3992 10.378 2.0157 13.172 4.8496v-34.785zm-16.764 65.2v-9.6991c-0.79833-6.7055-4.9893-10.637-12.573-11.795-9.5794 0.75842-14.968 5.7277-16.165 14.908 0.39913 11.176 5.7875 16.964 16.165 17.363 7.5836-1.1974 11.775-4.7897 12.573-10.777z"/>
   <path d="m298.7 158.95c-8.7013 0-15.966-2.9237-21.793-8.7711-5.8275-5.8474-8.7412-13.102-8.7412-21.763 0-8.7012 2.9137-15.966 8.7412-21.793 5.8274-5.8274 13.092-8.7411 21.793-8.7412 8.7012 6.1e-5 15.966 2.9138 21.793 8.7412 5.8274 5.8275 8.7411 13.092 8.7412 21.793-6e-5 8.7013-2.9138 15.966-8.7412 21.793-5.8275 5.8275-13.092 8.7412-21.793 8.7412zm-0.0599-14.489c4.5502 2e-5 8.2422-1.5267 11.076-4.5801 2.8338-3.0534 4.2508-6.8552 4.2508-11.405-4e-5 -4.5502-1.417-8.362-4.2508-11.435-2.834-3.0734-6.546-4.61-11.136-4.6101-4.5103 5e-5 -8.1824 1.5367-11.016 4.6101-2.8339 3.0734-4.2509 6.8852-4.2509 11.435-2e-5 4.5502 1.4169 8.3521 4.2509 11.405 2.8339 3.0534 6.5259 4.5802 11.076 4.5801z"/>
   <path d="m373.55 155.54c-2.8739 1.876-6.1668 2.814-9.8788 2.814-6.7854 0-12.174-1.8959-16.165-5.6878-3.9914-3.7918-5.9871-8.6813-5.9871-14.668v-25.924h-8.9807v-13.531h8.9807v-16.225l16.824-1.7961v18.021h8.9807v13.531h-8.9807v23.529c-3e-5 3.1932 0.66853 5.4383 2.0057 6.7355 1.3371 1.2972 3.0634 1.9458 5.1789 1.9458 0.63859 1e-5 2.1354-0.25943 4.4903-0.77833l3.5324 12.034z"/>
   <path d="m376.44 158.35 35.923-89.807h17.961l35.863 89.747-19.099 0.0599-5.3884-13.77h-40.712l-5.3884 13.77zm45.382-65.858-13.651 34.127h26.942z"/>
   <path d="m511.16 155.54c-2.8739 1.876-6.1668 2.814-9.8788 2.814-6.7854 0-12.174-1.8959-16.165-5.6878-3.9914-3.7918-5.9871-8.6813-5.9871-14.668v-25.924h-8.9807v-13.531h8.9807v-16.225l16.824-1.7961v18.021h8.9807v13.531h-8.9807v23.529c-3e-5 3.1932 0.66853 5.4383 2.0057 6.7355 1.3371 1.2972 3.0634 1.9458 5.1789 1.9458 0.63859 1e-5 2.1354-0.25943 4.4903-0.77833l3.5324 12.034z"/>
   <path d="m517.4 158.35v-89.807h16.764v89.807z"/>
   <path d="m548.78 105.67c7.5837-4.7896 16.365-7.1845 26.343-7.1845 7.1845 5.9e-5 12.872 1.9958 17.063 5.9871 4.1909 3.9915 6.2864 9.9786 6.2865 17.961v35.923h-16.764v-4.7897c-4.8696 3.1931-9.2601 4.7897-13.172 4.7897-7.9828 0-13.97-1.6964-17.961-5.0891-3.9914-3.3927-5.9871-8.0826-5.9871-14.07 0-5.588 1.8859-10.577 5.6578-14.968 3.7719-4.3905 9.8688-6.5858 18.291-6.5858 3.8716 4e-5 8.2622 1.1975 13.172 3.5923v-1.7961c-0.0799-4.3905-3.273-6.7854-9.5794-7.1846-7.1846 5e-5 -12.773 1.1975-16.764 3.5923zm32.929 34.725v-6.7654c-1.5966-3.0734-5.3884-4.61-11.376-4.6101-7.1846 0.79831-10.976 3.5923-11.376 8.382 0.39912 4.7498 4.191 7.3243 11.376 7.7234 5.9871 1e-5 9.7789-1.5766 11.376-4.7298z"/>
   <path d="m630.22 98.124c5.6279 6.1e-5 9.9985 0.6786 13.112 2.0356 3.1133 1.3571 6.027 3.3728 8.7412 6.047l-9.3399 10.537c-2.7142-3.233-6.1069-4.8495-10.178-4.8496-4.0314 5e-5 -6.7256 0.74844-8.0826 2.2452-1.3571 1.4968-1.3571 2.8539 0 4.0712 1.3571 1.2174 4.0513 2.2252 8.0826 3.0235 5.9472 0.55884 10.817 2.2552 14.609 5.0891 3.7918 2.8339 5.6877 7.7633 5.6878 14.788-5e-5 5.6678-2.2352 10.058-6.7056 13.172-4.4704 3.1133-9.6792 4.67-15.626 4.67-5.6678 0-10.388-0.80826-14.16-2.4248-3.7719-1.6165-7.0149-3.7819-9.7291-6.496l9.28-10.477c2.7142 3.2331 6.9251 5.109 12.633 5.6279 4.5901 1e-5 7.5537-0.74838 8.8909-2.2452 1.3371-1.4968 1.5367-2.9935 0.59872-4.4903-0.93802-1.4968-4.1012-2.5046-9.4896-3.0235-4.8696-0.55877-9.33-2.0556-13.381-4.4903-4.0513-2.4347-6.0769-7.0249-6.0769-13.77 0-6.1866 2.305-10.906 6.9151-14.16 4.6101-3.2529 9.3499-4.8794 14.219-4.8795z"/>
  </g>
  <g transform="matrix(.95657 0 0 .95657 8.2583 6.9028)">
   <g fill="#1d3557">
    <g transform="matrix(-.069981 .069981 -.069981 -.069981 175.81 90.747)">
     <path d="m300.9 311.5c0 78.2-63.4 141.6-141.6 141.6s-141.6-63.4-141.6-141.6 63.4-141.6 141.6-141.6 141.6 63.4 141.6 141.6z" fill-opacity=".5"/>
    </g>
    <g transform="matrix(-.069981 .069981 -.069981 -.069981 202.89 136.99)">
     <path d="m389.4 159.2c0 78.2-63.4 141.6-141.6 141.6s-141.6-63.4-141.6-141.6 63.4-141.6 141.6-141.6 141.6 63.4 141.6 141.6z" fill-opacity=".5"/>
    </g>
    <g transform="matrix(-.12391 .12391 -.12391 -.12391 229.33 194.95)">
     <path transform="matrix(.8516 0 0 .8516 -7.957 658.2)" d="m267.7 181c0 51.88-42.06 93.94-93.94 93.94s-93.94-42.06-93.94-93.94 42.06-93.94 93.94-93.94 93.94 42.06 93.94 93.94z" fill-opacity="1"/>
    </g>
    <g transform="matrix(-.069981 .069981 -.069981 -.069981 177.54 99.252)">
     <path d="m477.9 159.2c0 78.2-63.4 141.6-141.6 141.6s-141.6-63.4-141.6-141.6 63.4-141.6 141.6-141.6 141.6 63.4 141.6 141.6z" fill-opacity=".2"/>
    </g>
    <g transform="matrix(-.069981 .069981 -.069981 -.069981 209.08 67.709)">
     <path d="m477.9 159.2c0 78.2-63.4 141.6-141.6 141.6s-141.6-63.4-141.6-141.6 63.4-141.6 141.6-141.6 141.6 63.4 141.6 141.6z" fill-opacity="1"/>
    </g>
    <g transform="matrix(-.12391 .12391 -.12391 -.12391 229.33 226.5)">
     <path transform="matrix(.8516 0 0 .8516 -7.957 658.2)" d="m267.7 181c0 51.88-42.06 93.94-93.94 93.94s-93.94-42.06-93.94-93.94 42.06-93.94 93.94-93.94 93.94 42.06 93.94 93.94z" fill-opacity="1"/>
    </g>
    <g transform="matrix(-.069981 .069981 -.069981 -.069981 139.8 73.902)">
     <path d="m389.4 159.2c0 78.2-63.4 141.6-141.6 141.6s-141.6-63.4-141.6-141.6 63.4-141.6 141.6-141.6 141.6 63.4 141.6 141.6z" fill-opacity=".2"/>
    </g>
    <g transform="matrix(-.069981 .069981 -.069981 -.069981 175.81 153.83)">
     <path d="m300.9 311.5c0 78.2-63.4 141.6-141.6 141.6s-141.6-63.4-141.6-141.6 63.4-141.6 141.6-141.6 141.6 63.4 141.6 141.6z" fill-opacity="1"/>
    </g>
   </g>
   <path d="m164.5 121.55c-5.4725-5.4725-5.4725-14.346 0-19.819 5.4725-5.4725 14.346-5.4725 19.819 0 5.4725 5.4725 5.4725 14.346 0 19.819-5.4725 5.4725-14.346 5.4725-19.819 0z" fill="#1d3557" fill-opacity=".2"/>
  </g>
 </g>
</svg>
