<?xml version="1.0" encoding="UTF-8" standalone="no"?>
<svg
   xmlns:dc="http://purl.org/dc/elements/1.1/"
   xmlns:cc="http://creativecommons.org/ns#"
   xmlns:rdf="http://www.w3.org/1999/02/22-rdf-syntax-ns#"
   xmlns:svg="http://www.w3.org/2000/svg"
   xmlns="http://www.w3.org/2000/svg"
   xmlns:sodipodi="http://sodipodi.sourceforge.net/DTD/sodipodi-0.dtd"
   xmlns:inkscape="http://www.inkscape.org/namespaces/inkscape"
   viewBox="0 0 300 117.452"
   version="1.1"
   id="svg2"
   inkscape:version="0.91 r13725"
   sodipodi:docname="Fondation_Bettencourt_Schueller-logo.svg"
   width="300"
   height="117.452"
   inkscape:export-filename="/home/cri-ninja/Downloads/logo-Fondation_Bettencourt_Schueller-square.png"
   inkscape:export-xdpi="90"
   inkscape:export-ydpi="90">
  <metadata
     id="metadata255">
    <rdf:RDF>
      <cc:Work
         rdf:about="">
        <dc:format>image/svg+xml</dc:format>
        <dc:type
           rdf:resource="http://purl.org/dc/dcmitype/StillImage" />
        <dc:title></dc:title>
      </cc:Work>
    </rdf:RDF>
  </metadata>
  <sodipodi:namedview
     pagecolor="#ffffff"
     bordercolor="#666666"
     borderopacity="1"
     objecttolerance="10"
     gridtolerance="10"
     guidetolerance="10"
     inkscape:pageopacity="0"
     inkscape:pageshadow="2"
     inkscape:window-width="1920"
     inkscape:window-height="1056"
     id="namedview253"
     showgrid="false"
     showguides="true"
     inkscape:guide-bbox="true"
     inkscape:zoom="1.5374023"
     inkscape:cx="200"
     inkscape:cy="-34.4411"
     inkscape:window-x="0"
     inkscape:window-y="24"
     inkscape:window-maximized="1"
     inkscape:current-layer="svg2"
     fit-margin-top="0"
     fit-margin-left="0"
     fit-margin-right="0"
     fit-margin-bottom="0" />
  <defs
     id="defs4">
    <clipPath
       id="k"
       clipPathUnits="userSpaceOnUse">
      <path
         d="m 219.69,769.4 107.43,0 0,35.782 -107.43,0 0,-35.782 z"
         id="path7"
         inkscape:connector-curvature="0" />
    </clipPath>
    <clipPath
       id="j"
       clipPathUnits="userSpaceOnUse">
      <path
         d="m 219.69,774.84 107.43,0 0,30.34 -107.43,0 0,-30.34 z"
         id="path10"
         inkscape:connector-curvature="0" />
    </clipPath>
    <clipPath
       id="i"
       clipPathUnits="userSpaceOnUse">
      <path
         d="m 219.69,769.4 107.43,0 0,35.782 -107.43,0 0,-35.782 z"
         id="path13"
         inkscape:connector-curvature="0" />
    </clipPath>
    <clipPath
       id="h"
       clipPathUnits="userSpaceOnUse">
      <path
         d="m 219.69,774.84 107.43,0 0,30.34 -107.43,0 0,-30.34 z"
         id="path16"
         inkscape:connector-curvature="0" />
    </clipPath>
    <clipPath
       id="g"
       clipPathUnits="userSpaceOnUse">
      <path
         d="m 219.69,769.4 107.43,0 0,35.782 -107.43,0 0,-35.782 z"
         id="path19"
         inkscape:connector-curvature="0" />
    </clipPath>
    <clipPath
       id="f"
       clipPathUnits="userSpaceOnUse">
      <path
         d="m 219.69,774.84 107.43,0 0,30.34 -107.43,0 0,-30.34 z"
         id="path22"
         inkscape:connector-curvature="0" />
    </clipPath>
    <clipPath
       id="e"
       clipPathUnits="userSpaceOnUse">
      <path
         d="m 219.69,769.4 107.43,0 0,35.782 -107.43,0 0,-35.782 z"
         id="path25"
         inkscape:connector-curvature="0" />
    </clipPath>
    <clipPath
       id="d"
       clipPathUnits="userSpaceOnUse">
      <path
         d="m 219.69,774.84 107.43,0 0,30.34 -107.43,0 0,-30.34 z"
         id="path28"
         inkscape:connector-curvature="0" />
    </clipPath>
    <clipPath
       id="c"
       clipPathUnits="userSpaceOnUse">
      <path
         d="m 219.69,769.4 107.43,0 0,35.782 -107.43,0 0,-35.782 z"
         id="path31"
         inkscape:connector-curvature="0" />
    </clipPath>
    <clipPath
       id="b"
       clipPathUnits="userSpaceOnUse">
      <path
         d="m 219.69,774.84 107.43,0 0,30.34 -107.43,0 0,-30.34 z"
         id="path34"
         inkscape:connector-curvature="0" />
    </clipPath>
    <clipPath
       id="a"
       clipPathUnits="userSpaceOnUse">
      <path
         d="m 219.69,769.4 107.43,0 0,35.782 -107.43,0 0,-35.782 z"
         id="path37"
         inkscape:connector-curvature="0" />
    </clipPath>
    <clipPath
       id="clipPath4418"
       clipPathUnits="userSpaceOnUse">
      <path
         inkscape:connector-curvature="0"
         id="path4420"
         d="m 350.363,789.87 131.527,0 0,-54.426 -131.527,0 0,54.426 z" />
    </clipPath>
    <clipPath
       id="clipPath4428"
       clipPathUnits="userSpaceOnUse">
      <path
         inkscape:connector-curvature="0"
         id="path4430"
         d="m 354,738 125,0 0,49 -125,0 0,-49 z" />
    </clipPath>
  </defs>
  <g
     id="g4412"
     transform="matrix(2.4077336,0,0,-2.4077336,-852.44002,1894.9975)" />
  <g
     id="g5335"
     transform="translate(-3.0617131e-6,-90.606901)">
    <path
       inkscape:connector-curvature="0"
       id="path4434"
       style="fill:#231f20;fill-opacity:1;fill-rule:nonzero;stroke:none"
       d="m 104.53055,95.733315 0,8.256115 10.43994,0 c 0.11316,0.48877 0.14928,0.94143 0.14928,1.39167 0,0.45266 -0.0361,0.9029 -0.14928,1.39408 l -10.43994,0 0,10.21361 c -0.52729,0.11316 -1.01606,0.1878 -1.54335,0.1878 -0.48877,0 -0.97754,-0.0746 -1.50484,-0.1878 l 0,-24.115862 14.83405,0 c 0.11076,0.48877 0.14928,0.97754 0.14928,1.468717 0,0.450246 -0.0385,0.939016 -0.14928,1.39167 l -11.78586,0 z" />
    <path
       inkscape:connector-curvature="0"
       id="path4436"
       style="fill:#231f20;fill-opacity:1;fill-rule:nonzero;stroke:none"
       d="m 133.89286,108.1187 c 0,-3.8283 -2.33068,-6.56348 -6.04581,-6.56348 -3.71514,0 -6.04823,2.73518 -6.04823,6.56348 0,3.83792 2.33309,6.53699 6.04823,6.53699 3.71513,0 6.04581,-2.69907 6.04581,-6.53699 m -15.16872,0 c 0,-5.29461 3.93906,-9.385349 9.23607,-9.385349 5.29461,0 9.00974,4.090739 9.00974,9.385349 0,5.2946 -3.94146,9.34923 -9.23607,9.34923 -5.2946,0 -9.00974,-4.05463 -9.00974,-9.34923" />
    <path
       inkscape:connector-curvature="0"
       id="path4438"
       style="fill:#231f20;fill-opacity:1;fill-rule:nonzero;stroke:none"
       d="m 157.35864,105.98304 0,10.99612 c -0.48877,0.11316 -1.05218,0.15891 -1.54095,0.15891 -0.47914,0 -0.97754,-0.0457 -1.49521,-0.15891 l 0,-9.94154 c 0,-3.87404 -1.76968,-5.44629 -5.18385,-5.44629 -1.9936,0 -3.76088,0.63083 -4.76731,1.23276 l 0,14.15507 c -0.48877,0.11316 -1.05459,0.15891 -1.54336,0.15891 -0.48877,0 -0.97754,-0.0457 -1.50483,-0.15891 l 0,-15.50099 c 1.73116,-1.42779 4.76972,-2.708703 8.11647,-2.708703 5.5113,0 7.91904,3.378053 7.91904,7.213573" />
    <path
       inkscape:connector-curvature="0"
       id="path4440"
       style="fill:#231f20;fill-opacity:1;fill-rule:nonzero;stroke:none"
       d="m 175.342,113.97912 0,-11.34283 c -1.20387,-0.78011 -2.54738,-1.00644 -4.24243,-1.00644 -3.67661,0 -6.34678,2.54739 -6.34678,6.56349 0,4.06425 2.52089,6.53699 6.23603,6.53699 1.57947,0.0385 3.00966,-0.1878 4.35318,-0.75121 m 3.00967,-21.659971 0,23.427251 c -1.76728,0.97754 -4.65415,1.76005 -7.36285,1.76005 -5.25849,0 -9.31312,-3.301 -9.31312,-9.23607 0,-5.8219 4.28095,-9.462389 9.42387,-9.462389 1.84433,0 3.07709,0.262443 4.24243,0.82826 l 0,-7.317102 c 0.48877,-0.113164 0.97754,-0.151687 1.46872,-0.151687 0.48877,0 1.01365,0.03852 1.54095,0.151687" />
    <path
       inkscape:connector-curvature="0"
       id="path4442"
       style="fill:#231f20;fill-opacity:1;fill-rule:nonzero;stroke:none"
       d="m 190.13752,114.80738 c 1.8058,0 3.37564,-0.30097 4.54099,-0.7151 l 0,-4.31706 c -1.42779,-0.67898 -3.1132,-0.97995 -4.919,-0.97995 -2.43422,0 -4.16538,0.79214 -4.16538,2.82186 0,1.90934 1.50483,3.19025 4.54339,3.19025 m 7.51454,-9.12531 0,10.10285 c -1.65652,0.9029 -4.76972,1.72153 -7.55306,1.72153 -5.40777,0 -7.61807,-2.47515 -7.61807,-5.73763 0,-3.6116 3.15172,-5.6341 7.27858,-5.6341 1.95748,0 3.65012,0.37561 4.919,0.9029 l 0,-1.35555 c 0,-2.67018 -1.71912,-4.09074 -4.84196,-4.09074 -2.13565,0 -3.94146,0.78974 -5.03216,1.60837 -0.86437,-0.4045 -1.39167,-1.19424 -1.53372,-2.0225 1.11959,-1.12682 3.71513,-2.407733 6.71516,-2.407733 4.24243,0 7.66623,1.957483 7.66623,6.912603" />
    <path
       inkscape:connector-curvature="0"
       id="path4444"
       style="fill:#231f20;fill-opacity:1;fill-rule:nonzero;stroke:none"
       d="m 214.8818,115.59712 c -0.94142,0.86437 -2.77371,1.87081 -4.95752,1.87081 -3.56345,0 -6.15899,-1.68301 -6.15899,-5.92544 l 0,-9.65019 -3.03856,0 c -0.11316,-0.45025 -0.14928,-0.78974 -0.14928,-1.23999 0,-0.41413 0.0361,-0.789732 0.14928,-1.203862 l 3.03856,0 0,-4.76972 c 0.48877,-0.113164 0.97754,-0.14928 1.50484,-0.14928 0.48877,0 0.97754,0.03612 1.46631,0.14928 l 0,4.76972 7.01613,0 c 0.11317,0.41413 0.15169,0.789732 0.15169,1.203862 0,0.45025 -0.0385,0.78974 -0.15169,1.23999 l -7.01613,0 0,9.04826 c 0,3.18784 1.4952,3.86682 3.41416,3.86682 1.4302,0 2.81224,-0.86678 3.37805,-1.35555 0.75122,0.52729 1.20387,1.35555 1.35315,2.14529" />
    <path
       inkscape:connector-curvature="0"
       id="path4446"
       style="fill:#231f20;fill-opacity:1;fill-rule:nonzero;stroke:none"
       d="m 218.06964,116.97916 0,-17.718515 c 0.52729,-0.113164 1.05459,-0.151687 1.54336,-0.151687 0.48877,0 1.01606,0.03852 1.50483,0.151687 l 0,17.718515 c -0.48877,0.12279 -1.01606,0.14928 -1.50483,0.14928 -0.48877,0 -1.01607,-0.0265 -1.54336,-0.14928 m -0.62842,-22.902366 c 0,-1.203866 0.92939,-2.135659 2.17178,-2.135659 1.16534,0 2.10676,0.931793 2.10676,2.135659 0,1.203867 -0.94142,2.145291 -2.10676,2.145291 -1.20387,0 -2.17178,-0.941424 -2.17178,-2.145291" />
    <path
       inkscape:connector-curvature="0"
       id="path4448"
       style="fill:#231f20;fill-opacity:1;fill-rule:nonzero;stroke:none"
       d="m 240.82994,108.1187 c 0,-3.8283 -2.33068,-6.56348 -6.04581,-6.56348 -3.71514,0 -6.04823,2.73518 -6.04823,6.56348 0,3.83792 2.33309,6.53699 6.04823,6.53699 3.71513,0 6.04581,-2.69907 6.04581,-6.53699 m -15.16872,0 c 0,-5.29461 3.93906,-9.385349 9.23607,-9.385349 5.29461,0 9.00974,4.090739 9.00974,9.385349 0,5.2946 -3.94146,9.34923 -9.23607,9.34923 -5.2946,0 -9.00974,-4.05463 -9.00974,-9.34923" />
    <path
       inkscape:connector-curvature="0"
       id="path4450"
       style="fill:#231f20;fill-opacity:1;fill-rule:nonzero;stroke:none"
       d="m 264.29572,105.98304 0,10.99612 c -0.48877,0.11316 -1.05218,0.15891 -1.54095,0.15891 -0.48877,0 -0.97754,-0.0457 -1.50484,-0.15891 l 0,-9.94154 c 0,-3.87404 -1.76005,-5.44629 -5.17422,-5.44629 -1.9936,0 -3.76088,0.63083 -4.77694,1.23276 l 0,14.15507 c -0.47914,0.11316 -1.04496,0.15891 -1.53373,0.15891 -0.48877,0 -0.97754,-0.0457 -1.50483,-0.15891 l 0,-15.50099 c 1.73116,-1.42779 4.76972,-2.708703 8.11647,-2.708703 5.5113,0 7.91904,3.378053 7.91904,7.213573" />
    <path
       inkscape:connector-curvature="0"
       id="path4452"
       style="fill:#231f20;fill-opacity:1;fill-rule:nonzero;stroke:none"
       d="m 115.23293,143.36069 c 0,-2.8965 -2.21993,-4.21353 -5.93266,-4.21353 l -4.80824,0 0,8.5306 c 0.94142,0.14928 2.09714,0.26244 3.8283,0.26244 4.88288,0 6.9126,-1.31703 6.9126,-4.57951 m -10.7409,-14.68236 0,7.73124 4.46875,0 c 3.78978,0 5.21997,-1.54095 5.21997,-4.12927 0,-2.44385 -1.95749,-3.78977 -5.6341,-3.78977 -1.39167,0 -2.69907,0.0385 -4.05462,0.1878 m 13.74094,14.53068 c 0,4.73119 -3.41417,7.43026 -9.72484,7.43026 -3.301,0 -5.36925,-0.1878 -7.06188,-0.48877 l 0,-23.65357 c 1.69263,-0.33949 3.91256,-0.64046 6.9126,-0.64046 5.93506,0 8.7473,2.21993 8.7473,6.42383 0,2.51127 -1.16775,4.16779 -3.00004,5.14533 2.58591,0.86438 4.12686,2.66295 4.12686,5.78338" />
    <path
       inkscape:connector-curvature="0"
       id="path4454"
       style="fill:#231f20;fill-opacity:1;fill-rule:nonzero;stroke:none"
       d="m 135.02209,139.71057 c 0,-2.3981 -1.2785,-5.03216 -4.73119,-5.03216 -3.08431,0 -5.03217,2.29697 -5.36925,5.03216 l 10.10044,0 z m 3.00004,2.5209 -13.14864,0 c 0.23596,3.26488 2.48479,5.70873 5.70874,5.70873 2.93503,0 4.29058,-1.0907 5.25849,-1.84191 0.75121,0.3756 1.46631,1.2785 1.65411,2.06824 -1.42778,1.19424 -3.63808,2.54979 -6.94871,2.54979 -5.17422,0 -8.82194,-3.64049 -8.82194,-9.31311 0,-5.48241 3.75125,-9.42387 8.56672,-9.42387 4.54339,0 7.88292,3.26488 7.88292,7.84439 0,0.94143 -0.0385,1.39167 -0.15169,2.40774" />
    <path
       inkscape:connector-curvature="0"
       id="path4456"
       style="fill:#231f20;fill-opacity:1;fill-rule:nonzero;stroke:none"
       d="m 154.5464,148.80699 c -0.93901,0.85474 -2.78334,1.87081 -4.95511,1.87081 -3.57308,0 -6.16139,-1.69264 -6.16139,-5.93507 l 0,-9.65019 -3.03615,0 c -0.11317,-0.45025 -0.16132,-0.78974 -0.16132,-1.23036 0,-0.41413 0.0481,-0.79214 0.16132,-1.20386 l 3.03615,0 0,-4.76972 c 0.48877,-0.11317 0.97995,-0.14928 1.4952,-0.14928 0.49118,0 0.97995,0.0361 1.46872,0.14928 l 0,4.76972 7.02576,0 c 0.11317,0.41172 0.14928,0.78973 0.14928,1.20386 0,0.44062 -0.0361,0.78011 -0.14928,1.23036 l -7.02576,0 0,9.04826 c 0,3.19747 1.50483,3.87645 3.42379,3.87645 1.41816,0 2.81224,-0.86678 3.37565,-1.35555 0.75121,0.52729 1.19423,1.35555 1.35314,2.14529" />
    <path
       inkscape:connector-curvature="0"
       id="path4458"
       style="fill:#231f20;fill-opacity:1;fill-rule:nonzero;stroke:none"
       d="m 169.52973,148.80699 c -0.94142,0.85474 -2.78334,1.87081 -4.96475,1.87081 -3.56585,0 -6.15176,-1.69264 -6.15176,-5.93507 l 0,-9.65019 -3.04819,0 c -0.11316,-0.45025 -0.14928,-0.78974 -0.14928,-1.23036 0,-0.41413 0.0361,-0.79214 0.14928,-1.20386 l 3.04819,0 0,-4.76972 c 0.48877,-0.11317 0.97754,-0.14928 1.49521,-0.14928 0.48877,0 0.97754,0.0361 1.46631,0.14928 l 0,4.76972 7.02576,0 c 0.11317,0.41172 0.15169,0.78973 0.15169,1.20386 0,0.44062 -0.0385,0.78011 -0.15169,1.23036 l -7.02576,0 0,9.04826 c 0,3.19747 1.50483,3.87645 3.42379,3.87645 1.42057,0 2.81224,-0.86678 3.37805,-1.35555 0.75122,0.52729 1.20387,1.35555 1.35315,2.14529" />
    <path
       inkscape:connector-curvature="0"
       id="path4460"
       style="fill:#231f20;fill-opacity:1;fill-rule:nonzero;stroke:none"
       d="m 184.42879,139.71057 c 0,-2.3981 -1.27129,-5.03216 -4.7312,-5.03216 -3.07708,0 -5.03216,2.29697 -5.36202,5.03216 l 10.09322,0 z m 3.00966,2.5209 -13.14863,0 c 0.23355,3.26488 2.48237,5.70873 5.70874,5.70873 2.93502,0 4.28817,-1.0907 5.25608,-1.84191 0.75362,0.3756 1.46872,1.2785 1.65652,2.06824 -1.4302,1.19424 -3.64049,2.54979 -6.95113,2.54979 -5.18144,0 -8.82193,-3.64049 -8.82193,-9.31311 0,-5.48241 3.75365,-9.42387 8.55949,-9.42387 4.54098,0 7.89014,3.26488 7.89014,7.84439 0,0.94143 -0.0361,1.39167 -0.14928,2.40774" />
    <path
       inkscape:connector-curvature="0"
       id="path4462"
       style="fill:#231f20;fill-opacity:1;fill-rule:nonzero;stroke:none"
       d="m 207.90419,139.18568 0,11.00335 c -0.48877,0.11316 -1.05459,0.14928 -1.54336,0.14928 -0.48877,0 -0.97754,-0.0361 -1.50483,-0.14928 l 0,-9.95117 c 0,-3.86441 -1.75765,-5.43666 -5.18145,-5.43666 -1.98638,0 -3.75365,0.63083 -4.76972,1.23276 l 0,14.15507 c -0.48877,0.11316 -1.04254,0.14928 -1.53372,0.14928 -0.48877,0 -0.97754,-0.0361 -1.50484,-0.14928 l 0,-15.51062 c 1.72153,-1.41816 4.76972,-2.69907 8.10925,-2.69907 5.52093,0 7.92867,3.37805 7.92867,7.20634" />
    <path
       inkscape:connector-curvature="0"
       id="path4464"
       style="fill:#231f20;fill-opacity:1;fill-rule:nonzero;stroke:none"
       d="m 212.22125,141.36709 c 0,-5.55946 3.97758,-9.38775 9.15902,-9.38775 2.62443,0 4.7312,1.01606 5.8508,2.07065 -0.25522,0.89327 -0.81863,1.683 -1.72153,2.2103 -1.05218,-0.82826 -2.3331,-1.54336 -4.12927,-1.54336 -4.2039,0 -6.08434,3.23599 -6.08434,6.65016 0,3.41417 1.88044,6.57311 6.08434,6.57311 2.47515,0 3.71514,-1.12682 4.39171,-1.65411 0.82826,0.45025 1.43019,1.16534 1.73116,2.10677 -1.12923,1.15571 -3.45991,2.32346 -6.12287,2.32346 -5.36924,0 -9.15902,-3.49121 -9.15902,-9.34923" />
    <path
       inkscape:connector-curvature="0"
       id="path4466"
       style="fill:#231f20;fill-opacity:1;fill-rule:nonzero;stroke:none"
       d="m 245.1109,141.32857 c 0,-3.8283 -2.3331,-6.57312 -6.04823,-6.57312 -3.71513,0 -6.04823,2.74482 -6.04823,6.57312 0,3.82829 2.3331,6.53699 6.04823,6.53699 3.71513,0 6.04823,-2.7087 6.04823,-6.53699 m -15.17113,0 c 0,-5.29461 3.94146,-9.38535 9.23606,-9.38535 5.29461,0 9.00974,4.09074 9.00974,9.38535 0,5.2946 -3.94146,9.34923 -9.23607,9.34923 -5.2946,0 -9.00973,-4.05463 -9.00973,-9.34923" />
    <path
       inkscape:connector-curvature="0"
       id="path4468"
       style="fill:#231f20;fill-opacity:1;fill-rule:nonzero;stroke:none"
       d="m 268.12401,132.54515 0,16.44964 c -2.14288,0.92939 -4.54098,1.72153 -8.14295,1.72153 -5.03217,0 -7.51695,-2.69907 -7.51695,-6.9415 l 0,-11.22967 c 0.5273,-0.11316 1.05459,-0.15168 1.54336,-0.15168 0.48877,0 1.01606,0.0385 1.50483,0.15168 l 0,9.98728 c 0,3.37565 0.78011,5.37166 5.17182,5.37166 1.65652,0 3.08671,-0.30097 4.40374,-0.79215 l 0,-14.56679 c 0.51526,-0.11316 1.05218,-0.15168 1.53132,-0.15168 0.48877,0 1.01606,0.0385 1.50483,0.15168" />
    <path
       inkscape:connector-curvature="0"
       id="path4470"
       style="fill:#231f20;fill-opacity:1;fill-rule:nonzero;stroke:none"
       d="m 283.7478,135.2057 c -0.97995,-0.26244 -2.14529,-0.37561 -3.22637,-0.37561 -1.54335,0 -2.8965,0.30097 -3.87645,0.9029 l 0,14.45604 c -0.48877,0.11316 -1.01365,0.14928 -1.53132,0.14928 -0.52729,0 -1.01606,-0.0361 -1.54335,-0.14928 l 0,-15.80196 c 1.45908,-1.23998 4.2039,-2.40773 7.13893,-2.40773 1.42056,0 2.5859,0.1878 3.78977,0.60193 0.0746,0.9029 -0.22633,1.94786 -0.75121,2.62443" />
    <path
       inkscape:connector-curvature="0"
       id="path4472"
       style="fill:#231f20;fill-opacity:1;fill-rule:nonzero;stroke:none"
       d="m 300,148.80699 c -0.93179,0.85474 -2.77612,1.87081 -4.94789,1.87081 -3.57308,0 -6.16139,-1.69264 -6.16139,-5.93507 l 0,-9.65019 -3.04579,0 c -0.11316,-0.45025 -0.14205,-0.78974 -0.14205,-1.23036 0,-0.41413 0.0289,-0.79214 0.14205,-1.20386 l 3.04579,0 0,-4.76972 c 0.48877,-0.11317 0.97031,-0.14928 1.4952,-0.14928 0.49118,0 0.97995,0.0361 1.46872,0.14928 l 0,4.76972 7.02576,0 c 0.11317,0.41172 0.14928,0.78973 0.14928,1.20386 0,0.44062 -0.0361,0.78011 -0.14928,1.23036 l -7.02576,0 0,9.04826 c 0,3.19747 1.50483,3.87645 3.42379,3.87645 1.42057,0 2.81224,-0.86678 3.37564,-1.35555 0.75363,0.52729 1.20387,1.35555 1.34593,2.14529" />
    <path
       inkscape:connector-curvature="0"
       id="path4474"
       style="fill:#231f20;fill-opacity:1;fill-rule:nonzero;stroke:none"
       d="m 99.536914,180.91652 c 0.337083,-1.11959 1.052176,-1.79857 1.880436,-2.28734 1.42057,1.45908 3.45269,2.54979 6.11324,2.54979 3.75366,0 5.52093,-1.79617 5.52093,-4.31707 0,-1.87081 -0.9029,-3.41417 -5.55705,-4.50487 -3.75365,-0.9029 -7.24246,-2.43663 -7.24246,-7.10041 0,-3.74402 3.03615,-6.56589 7.73123,-6.56589 3.78978,0 6.04582,1.12923 7.70234,2.36199 -0.0843,0.93902 -0.86678,2.06824 -1.61799,2.44385 -1.57948,-1.12923 -3.33953,-1.98397 -6.08435,-1.98397 -2.92539,0 -4.73119,1.60836 -4.73119,3.56344 0,1.94786 0.97754,3.1132 4.88047,4.09315 4.84436,1.20387 7.95756,3.03615 7.95756,7.61807 0,4.55062 -3.33952,7.21357 -8.55949,7.21357 -4.2039,0 -6.68628,-1.69264 -7.993676,-3.08431" />
    <path
       inkscape:connector-curvature="0"
       id="path4476"
       style="fill:#231f20;fill-opacity:1;fill-rule:nonzero;stroke:none"
       d="m 119.51388,174.57696 c 0,-5.55946 3.97758,-9.38775 9.15902,-9.38775 2.62443,0 4.73119,1.01606 5.86042,2.06102 -0.26244,0.9029 -0.82826,1.69263 -1.73116,2.21993 -1.05218,-0.82826 -2.33309,-1.54336 -4.12926,-1.54336 -4.2039,0 -6.08434,3.22636 -6.08434,6.65016 0,3.41417 1.88044,6.57311 6.08434,6.57311 2.47515,0 3.71513,-1.12922 4.39411,-1.65411 0.82585,0.45025 1.42779,1.16534 1.72875,2.09714 -1.12681,1.16534 -3.45991,2.33309 -6.12286,2.33309 -5.36925,0 -9.15902,-3.49121 -9.15902,-9.34923" />
    <path
       inkscape:connector-curvature="0"
       id="path4478"
       style="fill:#231f20;fill-opacity:1;fill-rule:nonzero;stroke:none"
       d="m 154.7631,172.43167 0,10.96723 c -0.48877,0.11316 -1.04255,0.14928 -1.53132,0.14928 -0.49118,0 -0.97995,-0.0361 -1.50483,-0.14928 l 0,-9.87653 c 0,-2.8965 -1.05459,-5.44388 -5.18385,-5.44388 -1.56985,0 -3.33712,0.52488 -4.69268,1.31462 l 0,14.00579 c -0.48877,0.11316 -1.01606,0.14928 -1.50483,0.14928 -0.47914,0 -1.00643,-0.0361 -1.53373,-0.14928 l 0,-24.66964 c 0.5273,-0.11317 1.05459,-0.15169 1.53373,-0.15169 0.48877,0 1.01606,0.0385 1.50483,0.15169 l 0,7.85162 c 1.46631,-0.83549 3.12283,-1.39167 5.25849,-1.39167 5.33073,0 7.65419,3.56585 7.65419,7.24246" />
    <path
       inkscape:connector-curvature="0"
       id="path4480"
       style="fill:#231f20;fill-opacity:1;fill-rule:nonzero;stroke:none"
       d="m 175.68149,165.74539 0,16.44964 c -2.14529,0.93901 -4.54339,1.73116 -8.14536,1.73116 -5.03217,0 -7.51454,-2.7087 -7.51454,-6.95113 l 0,-11.22967 c 0.52729,-0.11316 1.05218,-0.14205 1.54336,-0.14205 0.48877,0 1.01365,0.0289 1.50483,0.14205 l 0,9.98728 c 0,3.38528 0.78974,5.38129 5.17181,5.38129 1.65412,0 3.08431,-0.30097 4.40134,-0.79215 l 0,-14.57642 c 0.52729,-0.11316 1.05459,-0.14205 1.53373,-0.14205 0.48877,0 1.01606,0.0289 1.50483,0.14205" />
    <path
       inkscape:connector-curvature="0"
       id="path4482"
       style="fill:#231f20;fill-opacity:1;fill-rule:nonzero;stroke:none"
       d="m 193.4,172.92044 c 0,-2.40773 -1.26887,-5.03216 -4.7312,-5.03216 -3.07467,0 -5.02253,2.29697 -5.35961,5.03216 l 10.09081,0 z m 3.00967,2.5209 -13.14864,0 c 0.23596,3.26488 2.48479,5.6991 5.70874,5.6991 2.93503,0 4.29058,-1.08107 5.25849,-1.83228 0.75121,0.3756 1.46631,1.2785 1.65411,2.05861 -1.42778,1.20387 -3.63808,2.55942 -6.94872,2.55942 -5.17421,0 -8.82193,-3.64049 -8.82193,-9.31311 0,-5.48241 3.75125,-9.42387 8.55708,-9.42387 4.5434,0 7.89255,3.26488 7.89255,7.84439 0,0.94143 -0.0385,1.39167 -0.15168,2.40774" />
    <path
       inkscape:connector-curvature="0"
       id="path4484"
       style="fill:#231f20;fill-opacity:1;fill-rule:nonzero;stroke:none"
       d="m 201.0277,183.3989 0,-24.66964 c 0.52729,-0.11317 1.01606,-0.15169 1.50483,-0.15169 0.47914,0 1.05459,0.0385 1.53373,0.15169 l 0,24.66964 c -0.47914,0.11316 -1.05459,0.14928 -1.53373,0.14928 -0.48877,0 -0.97754,-0.0361 -1.50483,-0.14928" />
    <path
       inkscape:connector-curvature="0"
       id="path4486"
       style="fill:#231f20;fill-opacity:1;fill-rule:nonzero;stroke:none"
       d="m 209.84964,183.3989 0,-24.66964 c 0.52729,-0.11317 1.01606,-0.15169 1.50483,-0.15169 0.48877,0 1.05459,0.0385 1.53373,0.15169 l 0,24.66964 c -0.47914,0.11316 -1.04496,0.14928 -1.53373,0.14928 -0.48877,0 -0.97754,-0.0361 -1.50483,-0.14928" />
    <path
       inkscape:connector-curvature="0"
       id="path4488"
       style="fill:#231f20;fill-opacity:1;fill-rule:nonzero;stroke:none"
       d="m 230.76803,172.92044 c 0,-2.40773 -1.28092,-5.03216 -4.7312,-5.03216 -3.08431,0 -5.03216,2.29697 -5.37165,5.03216 l 10.10285,0 z m 3.00003,2.5209 -13.139,0 c 0.22633,3.26488 2.47274,5.6991 5.70874,5.6991 2.92539,0 4.27854,-1.08107 5.24886,-1.83228 0.75121,0.3756 1.46631,1.2785 1.65411,2.05861 -1.4302,1.20387 -3.64049,2.55942 -6.95113,2.55942 -5.17181,0 -8.82193,-3.64049 -8.82193,-9.31311 0,-5.48241 3.76328,-9.42387 8.56912,-9.42387 4.54339,0 7.88051,3.26488 7.88051,7.84439 0,0.94143 -0.0361,1.39167 -0.14928,2.40774" />
    <path
       inkscape:connector-curvature="0"
       id="path4490"
       style="fill:#231f20;fill-opacity:1;fill-rule:nonzero;stroke:none"
       d="m 248.37337,168.41557 c -0.97754,-0.26244 -2.14288,-0.37561 -3.22636,-0.37561 -1.54095,0 -2.8965,0.30097 -3.87404,0.9029 l 0,14.45604 c -0.48877,0.11316 -1.00643,0.14928 -1.53373,0.14928 -0.52488,0 -1.01606,-0.0361 -1.54095,-0.14928 l 0,-15.81159 c 1.46631,-1.23998 4.2039,-2.3981 7.13893,-2.3981 1.42779,0 2.58591,0.1878 3.78977,0.5923 0.0746,0.9029 -0.22632,1.95749 -0.75362,2.63406" />
  </g>
  <g
     id="g5366"
     transform="translate(-3.0617131e-6,-90.606901)">
    <path
       inkscape:connector-curvature="0"
       id="path4492"
       style="fill:#231f20;fill-opacity:1;fill-rule:nonzero;stroke:none"
       d="m 103.41096,195.96486 c -0.43339,0 -0.69584,0.0169 -0.9968,0.0746 l -0.79937,4.13889 c 0.3756,0.0265 0.74399,0.0554 1.12923,0.0554 1.95507,0 2.90613,-0.97754 2.90613,-2.31383 0,-1.12923 -0.77048,-1.95508 -2.23919,-1.95508 m 0.63082,5.05865 2.16215,4.07388 -1.3074,0 -1.9936,-3.90534 -0.33709,0.01 c -0.33949,0 -0.75362,-0.0169 -1.13886,-0.065 l -0.7801,3.96072 -1.081073,0 1.945453,-9.99932 c 0.4984,-0.0746 1.07144,-0.12279 1.8058,-0.12279 2.2103,0 3.46232,1.25202 3.46232,2.85076 0,1.52409 -0.98958,2.76407 -2.7376,3.19747" />
    <path
       inkscape:connector-curvature="0"
       id="path4494"
       style="fill:#231f20;fill-opacity:1;fill-rule:nonzero;stroke:none"
       d="m 111.40463,201.59655 0.0193,-0.27208 c -0.0193,-0.6862 -0.45987,-1.17497 -1.1846,-1.17497 -0.78974,0 -1.50483,0.60193 -1.86118,1.44705 l 3.02652,0 z m -4.28817,1.26165 c 0,-1.74079 1.32666,-3.63086 3.21673,-3.63086 1.4013,0 2.1164,1.07144 2.1164,2.2753 0,0.30097 -0.0554,0.60194 -0.13965,0.9029 l -4.15816,0 -0.01,0.34913 c 0,1.05218 0.65732,1.53372 1.63726,1.53372 0.43099,0 0.93902,-0.10353 1.47594,-0.30096 l 0.17818,0.874 c -0.54415,0.22633 -0.95828,0.34672 -1.78654,0.34672 -1.33629,0 -2.53053,-0.64768 -2.53053,-2.34995" />
    <path
       inkscape:connector-curvature="0"
       id="path4496"
       style="fill:#231f20;fill-opacity:1;fill-rule:nonzero;stroke:none"
       d="m 117.89588,200.61901 c -0.43339,-0.28171 -0.9029,-0.46951 -1.4952,-0.46951 -1.25202,0 -2.18381,1.14608 -2.18381,2.46311 0,1.1196 0.81863,1.67578 1.77931,1.67578 0.45025,0 0.94865,-0.11316 1.33389,-0.30096 l 0.18058,0.84511 c -0.59231,0.23596 -1.07385,0.37561 -1.7408,0.37561 -1.25202,0 -2.57627,-0.83549 -2.57627,-2.54739 0,-1.73116 1.39167,-3.43342 3.38527,-3.43342 0.70547,0 1.35315,0.27207 1.81543,0.60193 l -0.4984,0.78974 z" />
    <path
       inkscape:connector-curvature="0"
       id="path4498"
       style="fill:#231f20;fill-opacity:1;fill-rule:nonzero;stroke:none"
       d="m 121.76993,200.1495 c -0.47914,0 -0.94865,0.24318 -1.29777,0.60193 -0.48877,0.47914 -0.79937,1.25925 -0.79937,2.04898 0,0.88605 0.47914,1.48798 1.32666,1.48798 0.47914,0 0.94865,-0.24559 1.3074,-0.60193 0.47914,-0.48155 0.78974,-1.26165 0.78974,-2.04176 0,-0.89327 -0.47914,-1.4952 -1.32666,-1.4952 m 1.23276,4.13889 c -0.53693,0.53452 -1.26166,0.91976 -2.10677,0.91976 -1.33629,0 -2.24882,-0.92939 -2.24882,-2.35958 0,-0.95106 0.41413,-1.98397 1.11959,-2.69907 0.53693,-0.53693 1.26888,-0.92216 2.1164,-0.92216 1.32666,0 2.24882,0.94142 2.24882,2.36198 0,0.94865 -0.41413,1.98398 -1.12922,2.69907" />
    <path
       inkscape:connector-curvature="0"
       id="path4500"
       style="fill:#231f20;fill-opacity:1;fill-rule:nonzero;stroke:none"
       d="m 130.39443,201.31484 -0.74158,3.78255 -1.08348,0 0.71509,-3.62123 c 0.0385,-0.17095 0.0578,-0.33949 0.0578,-0.48155 0,-0.57304 -0.29134,-0.86437 -0.87642,-0.86437 -0.64768,0 -1.25924,0.44302 -1.79617,0.97754 l -0.77047,3.98961 -1.08107,0 1.11959,-5.75689 1.03292,0 -0.19743,0.95828 c 0.71509,-0.64768 1.52409,-1.07144 2.27771,-1.07144 0.95828,0 1.4013,0.63082 1.4013,1.51446 0,0.17817 -0.01,0.36598 -0.0578,0.57304" />
    <path
       inkscape:connector-curvature="0"
       id="path4502"
       style="fill:#231f20;fill-opacity:1;fill-rule:nonzero;stroke:none"
       d="m 136.71473,201.31484 -0.74158,3.78255 -1.08348,0 0.71509,-3.62123 c 0.0385,-0.17095 0.0578,-0.33949 0.0578,-0.48155 0,-0.57304 -0.29134,-0.86437 -0.88364,-0.86437 -0.64046,0 -1.26165,0.44302 -1.78895,0.97754 l -0.77047,3.98961 -1.08107,0 1.11959,-5.75689 1.03292,0 -0.19743,0.95828 c 0.71509,-0.64768 1.52409,-1.07144 2.27771,-1.07144 0.95828,0 1.4013,0.63082 1.4013,1.51446 0,0.17817 -0.0193,0.36598 -0.0578,0.57304" />
    <path
       inkscape:connector-curvature="0"
       id="path4504"
       style="fill:#231f20;fill-opacity:1;fill-rule:nonzero;stroke:none"
       d="m 142.2164,205.09739 -1.03292,0 0.19744,-0.96068 c -0.7151,0.65008 -1.5241,1.07144 -2.27772,1.07144 -0.95828,0 -1.4013,-0.62842 -1.4013,-1.50484 0,-0.17817 0.01,-0.3756 0.0578,-0.58267 l 0.74159,-3.78014 1.08348,0 -0.7151,3.62123 c -0.0482,0.17817 -0.0578,0.33708 -0.0578,0.47914 0,0.57304 0.29134,0.86438 0.88364,0.86438 0.64046,0 1.25202,-0.44062 1.79858,-0.97754 l 0.76084,-3.98721 1.08108,0 -1.1196,5.75689 z" />
    <path
       inkscape:connector-curvature="0"
       id="path4506"
       style="fill:#231f20;fill-opacity:1;fill-rule:nonzero;stroke:none"
       d="m 148.33927,201.59655 0.0193,-0.27208 c -0.0193,-0.6862 -0.45988,-1.17497 -1.18461,-1.17497 -0.78973,0 -1.50483,0.60193 -1.86117,1.44705 l 3.02652,0 z m -4.28818,1.26165 c 0,-1.74079 1.32666,-3.63086 3.22637,-3.63086 1.39167,0 2.10676,1.07144 2.10676,2.2753 0,0.30097 -0.0578,0.60194 -0.14205,0.9029 l -4.14612,0 -0.0193,0.34913 c 0,1.05218 0.65731,1.53372 1.62763,1.53372 0.44061,0 0.94864,-0.10353 1.48557,-0.30096 l 0.17817,0.874 c -0.54415,0.22633 -0.95828,0.34672 -1.77691,0.34672 -1.34592,0 -2.54016,-0.64768 -2.54016,-2.34995" />
    <path
       inkscape:connector-curvature="0"
       id="path4508"
       style="fill:#231f20;fill-opacity:1;fill-rule:nonzero;stroke:none"
       d="m 156.3522,200.13024 c -1.22072,0 -2.16214,1.00643 -2.16214,2.46311 0,1.06422 0.58267,1.68541 1.51446,1.68541 0.54656,0 0.92217,-0.15169 1.3074,-0.48155 l 0.63083,-3.22395 c -0.34912,-0.27448 -0.78251,-0.44302 -1.29055,-0.44302 m 1.47835,4.96715 -1.01606,0 0.0843,-0.42376 c -0.41413,0.32023 -0.92216,0.53452 -1.55299,0.53452 -1.15571,0 -2.20789,-1.04255 -2.20789,-2.42459 0,-1.89248 1.36278,-3.55622 3.25285,-3.55622 0.57304,0 1.10033,0.20706 1.42056,0.42376 l 0.87401,-4.59877 1.0907,0 -1.94545,10.04506 z" />
    <path
       inkscape:connector-curvature="0"
       id="path4510"
       style="fill:#231f20;fill-opacity:1;fill-rule:nonzero;stroke:none"
       d="m 160.55851,197.82604 -0.15168,-0.2167 c 0.71509,-0.57304 0.96791,-0.96791 1.14849,-1.35315 -0.36839,-0.0843 -0.57545,-0.36838 -0.57545,-0.69583 0,-0.37802 0.30096,-0.67898 0.67898,-0.67898 0.36597,0 0.66694,0.31059 0.66694,0.75362 0,0.79937 -0.72473,1.57947 -1.76728,2.19104" />
    <path
       inkscape:connector-curvature="0"
       id="path4512"
       style="fill:#231f20;fill-opacity:1;fill-rule:nonzero;stroke:none"
       d="m 166.23836,205.09739 -1.03533,0 0.18781,-0.96068 c -0.71269,0.65008 -1.51447,1.07144 -2.26568,1.07144 -0.95828,0 -1.4013,-0.62842 -1.4013,-1.50484 0,-0.17817 0.01,-0.3756 0.0457,-0.58267 l 0.75362,-3.78014 1.08108,0 -0.7151,3.62123 c -0.0361,0.17817 -0.0554,0.33708 -0.0554,0.47914 0,0.57304 0.29134,0.86438 0.87401,0.86438 0.65009,0 1.26165,-0.44062 1.79617,-0.97754 l 0.76325,-3.98721 1.0907,0 -1.11959,5.75689 z" />
    <path
       inkscape:connector-curvature="0"
       id="path4514"
       style="fill:#231f20;fill-opacity:1;fill-rule:nonzero;stroke:none"
       d="m 171.64613,200.27229 -1.59874,0 -0.63082,3.23359 -0.0361,0.26485 c 0,0.32745 0.25281,0.48877 0.81622,0.48877 0.2167,0 0.4045,-0.0193 0.61157,-0.0482 l -0.16855,0.88605 c -0.32022,0.065 -0.60193,0.11076 -0.89326,0.11076 -0.94143,0 -1.40131,-0.45025 -1.40131,-1.25925 0,-0.15891 0.01,-0.30096 0.0385,-0.46951 l 0.62842,-3.2071 -1.04255,0 0,-0.0939 1.23998,-0.95105 0.23596,-1.16535 1.1196,-0.42376 -0.3395,1.70227 1.59874,0 -0.17817,0.93179 z" />
    <path
       inkscape:connector-curvature="0"
       id="path4516"
       style="fill:#231f20;fill-opacity:1;fill-rule:nonzero;stroke:none"
       d="m 173.96959,198.0331 c -0.38524,0 -0.6862,-0.30097 -0.6862,-0.66694 0,-0.36839 0.30096,-0.68861 0.6862,-0.68861 0.36598,0 0.66694,0.32022 0.66694,0.68861 0,0.36597 -0.30096,0.66694 -0.66694,0.66694 m -0.97754,7.06429 -1.08348,0 1.12923,-5.75689 1.08107,0 -1.12682,5.75689 z" />
    <path
       inkscape:connector-curvature="0"
       id="path4518"
       style="fill:#231f20;fill-opacity:1;fill-rule:nonzero;stroke:none"
       d="m 175.77539,205.09739 -1.08107,0 1.94545,-10.04506 1.08107,0 -1.94545,10.04506 z" />
    <path
       inkscape:connector-curvature="0"
       id="path4520"
       style="fill:#231f20;fill-opacity:1;fill-rule:nonzero;stroke:none"
       d="m 179.52664,198.0331 c -0.37561,0 -0.6862,-0.30097 -0.6862,-0.66694 0,-0.36839 0.31059,-0.68861 0.6862,-0.68861 0.37801,0 0.67898,0.32022 0.67898,0.68861 0,0.36597 -0.30097,0.66694 -0.67898,0.66694 m -0.96791,7.06429 -1.08107,0 1.11959,-5.75689 1.09071,0 -1.12923,5.75689 z" />
    <path
       inkscape:connector-curvature="0"
       id="path4522"
       style="fill:#231f20;fill-opacity:1;fill-rule:nonzero;stroke:none"
       d="m 184.04114,200.27229 -1.59873,0 -0.63805,3.23359 -0.0193,0.26485 c 0,0.32745 0.23596,0.48877 0.809,0.48877 0.2167,0 0.4045,-0.0193 0.61157,-0.0482 l -0.17818,0.88605 c -0.31059,0.065 -0.60193,0.11076 -0.89326,0.11076 -0.9318,0 -1.39408,-0.45025 -1.39408,-1.25925 0,-0.15891 0.01,-0.30096 0.0385,-0.46951 l 0.63083,-3.2071 -1.04496,0 0,-0.0939 1.23276,-0.95105 0.24318,-1.16535 1.1196,-0.42376 -0.34672,1.70227 1.60837,0 -0.18058,0.93179 z" />
    <path
       inkscape:connector-curvature="0"
       id="path4524"
       style="fill:#231f20;fill-opacity:1;fill-rule:nonzero;stroke:none"
       d="m 187.45531,198.59651 -0.26245,-0.60193 2.35236,-1.73839 0.51525,1.02329 -2.60516,1.31703 z m 1.20386,3.00004 0.0193,-0.27208 c -0.0193,-0.6862 -0.45025,-1.17497 -1.18461,-1.17497 -0.78974,0 -1.50483,0.60193 -1.86118,1.44705 l 3.02652,0 z m -4.28817,1.25202 c 0,-1.72153 1.32666,-3.62123 3.22636,-3.62123 1.39167,0 2.10677,1.07144 2.10677,2.2753 0,0.30097 -0.0554,0.60194 -0.13243,0.9029 l -4.15574,0 -0.0193,0.34913 c 0,1.05218 0.65732,1.53372 1.63726,1.53372 0.43099,0 0.93902,-0.10353 1.47594,-0.30096 l 0.17818,0.874 c -0.54415,0.22633 -0.95828,0.34672 -1.77691,0.34672 -1.34592,0 -2.54016,-0.64768 -2.54016,-2.35958" />
    <path
       inkscape:connector-curvature="0"
       id="path4526"
       style="fill:#231f20;fill-opacity:1;fill-rule:nonzero;stroke:none"
       d="m 196.54209,200.16876 c -0.60193,0 -0.96791,0.22392 -1.39167,0.60193 l -0.60193,3.09394 c 0.33708,0.27208 0.78011,0.41413 1.29777,0.41413 1.20386,0 2.15251,-1.07385 2.15251,-2.53053 0,-0.96068 -0.56341,-1.57947 -1.45668,-1.57947 m -0.75362,5.03939 c -0.51525,0 -1.02328,-0.16854 -1.41815,-0.38524 l -0.64046,3.23599 -1.08107,0 1.70227,-8.7184 1.03291,0 -0.13001,0.6212 c 0.50803,-0.48877 1.07144,-0.73436 1.74801,-0.73436 1.06422,0 2.05139,0.97754 2.05139,2.36198 0,1.93582 -1.32666,3.61883 -3.26489,3.61883" />
    <path
       inkscape:connector-curvature="0"
       id="path4528"
       style="fill:#231f20;fill-opacity:1;fill-rule:nonzero;stroke:none"
       d="m 204.50688,205.09739 -1.02329,0 0.1878,-0.96068 c -0.70546,0.65008 -1.51446,1.07144 -2.27531,1.07144 -0.96068,0 -1.39407,-0.62842 -1.39407,-1.50484 0,-0.17817 0.01,-0.3756 0.0578,-0.58267 l 0.73436,-3.78014 1.0907,0 -0.71509,3.62123 c -0.0482,0.17817 -0.0578,0.33708 -0.0578,0.47914 0,0.57304 0.28411,0.86438 0.87642,0.86438 0.64768,0 1.26887,-0.44062 1.79617,-0.97754 l 0.77047,-3.98721 1.08107,0 -1.12922,5.75689 z" />
    <path
       inkscape:connector-curvature="0"
       id="path4530"
       style="fill:#231f20;fill-opacity:1;fill-rule:nonzero;stroke:none"
       d="m 209.38976,200.16876 c -0.50803,0 -1.01606,0.22392 -1.37241,0.55378 l -0.61156,3.1132 c 0.32745,0.30097 0.76084,0.46951 1.28813,0.46951 1.20387,0 2.15252,-1.10034 2.15252,-2.55702 0,-0.96068 -0.56341,-1.57947 -1.45668,-1.57947 m -0.65972,5.03939 c -0.5923,0 -1.10996,-0.20707 -1.53132,-0.53452 l -0.0867,0.42376 -1.03291,0 1.94544,-10.04506 1.08348,0 -0.9029,4.68304 c 0.42136,-0.3106 0.95828,-0.50803 1.58911,-0.50803 1.32666,0 2.10677,1.10996 2.10677,2.36198 0,1.93582 -1.41094,3.61883 -3.17099,3.61883" />
    <path
       inkscape:connector-curvature="0"
       id="path4532"
       style="fill:#231f20;fill-opacity:1;fill-rule:nonzero;stroke:none"
       d="m 213.75257,205.09739 -1.08107,0 1.94786,-10.04506 1.08107,0 -1.94786,10.04506 z" />
    <path
       inkscape:connector-curvature="0"
       id="path4534"
       style="fill:#231f20;fill-opacity:1;fill-rule:nonzero;stroke:none"
       d="m 217.50623,198.0331 c -0.38524,0 -0.67657,-0.30097 -0.67657,-0.66694 0,-0.36839 0.29133,-0.68861 0.67657,-0.68861 0.37561,0 0.67657,0.32022 0.67657,0.68861 0,0.36597 -0.30096,0.66694 -0.67657,0.66694 m -0.96791,7.06429 -1.08348,0 1.1196,-5.75689 1.0907,0 -1.12682,5.75689 z" />
    <path
       inkscape:connector-curvature="0"
       id="path4536"
       style="fill:#231f20;fill-opacity:1;fill-rule:nonzero;stroke:none"
       d="m 221.6066,200.13024 c -1.19424,0 -2.15251,1.03532 -2.15251,2.46311 0,1.06422 0.62841,1.68541 1.56021,1.68541 0.53692,0 0.86437,-0.15169 1.24961,-0.48155 l 0.63083,-3.22395 c -0.33709,-0.27448 -0.78011,-0.44302 -1.28814,-0.44302 m 0.92216,7.92866 -1.08107,0 0.62842,-3.22636 c -0.37561,0.23596 -0.74158,0.37561 -1.3074,0.37561 -1.28814,0 -2.36921,-1.08108 -2.36921,-2.42459 0,-1.89248 1.35314,-3.55622 3.25525,-3.55622 0.57305,0 1.11719,0.23595 1.47595,0.45265 l 0.065,-0.33949 1.01607,0 -1.68301,8.7184 z" />
    <path
       inkscape:connector-curvature="0"
       id="path4538"
       style="fill:#231f20;fill-opacity:1;fill-rule:nonzero;stroke:none"
       d="m 229.41247,205.09739 -1.03292,0 0.18781,-0.96068 c -0.70547,0.65008 -1.51447,1.07144 -2.26809,1.07144 -0.96791,0 -1.4013,-0.62842 -1.4013,-1.50484 0,-0.17817 0.0193,-0.3756 0.0482,-0.58267 l 0.75121,-3.78014 1.08107,0 -0.71269,3.62123 c -0.0385,0.17817 -0.0578,0.33708 -0.0578,0.47914 0,0.57304 0.29133,0.86438 0.874,0.86438 0.65009,0 1.26166,-0.44062 1.79858,-0.97754 l 0.77048,-3.98721 1.08107,0 -1.1196,5.75689 z" />
    <path
       inkscape:connector-curvature="0"
       id="path4540"
       style="fill:#231f20;fill-opacity:1;fill-rule:nonzero;stroke:none"
       d="m 235.53534,201.59655 0.0193,-0.27208 c -0.0193,-0.6862 -0.45025,-1.17497 -1.1846,-1.17497 -0.78974,0 -1.50484,0.60193 -1.86359,1.44705 l 3.02893,0 z m -4.28817,1.26165 c 0,-1.74079 1.32666,-3.63086 3.22636,-3.63086 1.39167,0 2.10677,1.07144 2.10677,2.2753 0,0.30097 -0.0578,0.60194 -0.14206,0.9029 l -4.14612,0 -0.0193,0.34913 c 0,1.05218 0.65731,1.53372 1.63485,1.53372 0.43339,0 0.94142,-0.10353 1.47835,-0.30096 l 0.17817,0.874 c -0.54655,0.22633 -0.96068,0.34672 -1.77691,0.34672 -1.34592,0 -2.54015,-0.64768 -2.54015,-2.34995" />
    <path
       inkscape:connector-curvature="0"
       id="path4542"
       style="fill:#231f20;fill-opacity:1;fill-rule:nonzero;stroke:none"
       d="m 243.54828,200.13024 c -1.22072,0 -2.16215,1.00643 -2.16215,2.46311 0,1.06422 0.58267,1.68541 1.50483,1.68541 0.55378,0 0.9318,-0.15169 1.3074,-0.48155 l 0.63083,-3.22395 c -0.33949,-0.27448 -0.78251,-0.44302 -1.28091,-0.44302 m 1.47834,4.96715 -1.01606,0 0.0843,-0.42376 c -0.41413,0.32023 -0.92216,0.53452 -1.55299,0.53452 -1.15571,0 -2.20067,-1.04255 -2.20067,-2.42459 0,-1.89248 1.35556,-3.55622 3.24563,-3.55622 0.57304,0 1.0907,0.20706 1.42056,0.42376 l 0.88364,-4.59877 1.08107,0 -1.94545,10.04506 z" />
    <path
       inkscape:connector-curvature="0"
       id="path4544"
       style="fill:#231f20;fill-opacity:1;fill-rule:nonzero;stroke:none"
       d="m 251.15671,201.59655 0.01,-0.27208 c -0.01,-0.6862 -0.45025,-1.17497 -1.17498,-1.17497 -0.79937,0 -1.51446,0.60193 -1.87081,1.44705 l 3.03615,0 z m -4.2978,1.26165 c 0,-1.74079 1.33629,-3.63086 3.22636,-3.63086 1.4013,0 2.10677,1.07144 2.10677,2.2753 0,0.30097 -0.0457,0.60194 -0.13243,0.9029 l -4.15574,0 -0.01,0.34913 c 0,1.05218 0.65008,1.53372 1.62762,1.53372 0.44062,0 0.94865,-0.10353 1.47594,-0.30096 l 0.18781,0.874 c -0.55378,0.22633 -0.96791,0.34672 -1.78654,0.34672 -1.34592,0 -2.54016,-0.64768 -2.54016,-2.34995" />
    <path
       inkscape:connector-curvature="0"
       id="path4546"
       style="fill:#231f20;fill-opacity:1;fill-rule:nonzero;stroke:none"
       d="m 256.08534,200.16876 c -0.60193,0 -0.9679,0.22392 -1.39167,0.60193 l -0.60193,3.09394 c 0.33949,0.27208 0.78011,0.41413 1.29777,0.41413 1.20387,0 2.15492,-1.07385 2.15492,-2.53053 0,-0.96068 -0.56582,-1.57947 -1.45909,-1.57947 m -0.75121,5.03939 c -0.51766,0 -1.02569,-0.16854 -1.42056,-0.38524 l -0.63083,3.23599 -1.0907,0 1.70227,-8.7184 1.02569,0 -0.12279,0.6212 c 0.50803,-0.48877 1.07144,-0.73436 1.74079,-0.73436 1.07144,0 2.05861,0.97754 2.05861,2.36198 0,1.93582 -1.33388,3.61883 -3.26248,3.61883" />
    <path
       inkscape:connector-curvature="0"
       id="path4548"
       style="fill:#231f20;fill-opacity:1;fill-rule:nonzero;stroke:none"
       d="m 264.05254,205.09739 -1.0257,0 0.1878,-0.96068 c -0.70546,0.65008 -1.52409,1.07144 -2.2753,1.07144 -0.95828,0 -1.39167,-0.62842 -1.39167,-1.50484 0,-0.17817 0.01,-0.3756 0.0457,-0.58267 l 0.74399,-3.78014 1.08107,0 -0.70546,3.62123 c -0.0457,0.17817 -0.0554,0.33708 -0.0554,0.47914 0,0.57304 0.28171,0.86438 0.87401,0.86438 0.64046,0 1.26165,-0.44062 1.79617,-0.97754 l 0.76325,-3.98721 1.0907,0 -1.12922,5.75689 z" />
    <path
       inkscape:connector-curvature="0"
       id="path4550"
       style="fill:#231f20;fill-opacity:1;fill-rule:nonzero;stroke:none"
       d="m 267.74841,198.0331 c -0.38524,0 -0.68621,-0.30097 -0.68621,-0.66694 0,-0.36839 0.30097,-0.68861 0.68621,-0.68861 0.36597,0 0.66694,0.32022 0.66694,0.68861 0,0.36597 -0.30097,0.66694 -0.66694,0.66694 m -0.97754,7.06429 -1.08108,0 1.11719,-5.75689 1.09311,0 -1.12922,5.75689 z" />
    <path
       inkscape:connector-curvature="0"
       id="path4552"
       style="fill:#231f20;fill-opacity:1;fill-rule:nonzero;stroke:none"
       d="m 272.21716,200.57326 c -0.32023,-0.24559 -0.68861,-0.45265 -1.15812,-0.45265 -0.6862,0 -1.06181,0.34912 -1.06181,0.80899 0,0.38524 0.45025,0.60194 0.96791,0.85716 0.809,0.39487 1.27851,0.72232 1.27851,1.53132 0,1.1846 -1.03292,1.89007 -2.12603,1.89007 -0.73195,0 -1.45668,-0.30097 -1.96471,-0.75122 l 0.63082,-0.74399 c 0.39487,0.33949 0.92216,0.60194 1.4302,0.60194 0.6862,0 1.05218,-0.32745 1.05218,-0.87401 0,-0.45025 -0.45025,-0.65731 -1.03533,-0.95105 -0.66694,-0.32746 -1.18461,-0.62842 -1.18461,-1.43742 0,-1.0907 1.0257,-1.82506 2.16456,-1.82506 0.61878,0 1.19423,0.24559 1.57947,0.57304 l -0.57304,0.77288 z" />
    <path
       inkscape:connector-curvature="0"
       id="path4554"
       style="fill:#231f20;fill-opacity:1;fill-rule:nonzero;stroke:none"
       d="m 278.55431,205.09739 -1.08107,0 1.28814,-6.62127 -1.42056,0.47914 -0.19744,-0.95105 2.8026,-0.97754 0.19022,0 -1.58189,8.07072 z" />
    <path
       inkscape:connector-curvature="0"
       id="path4556"
       style="fill:#231f20;fill-opacity:1;fill-rule:nonzero;stroke:none"
       d="m 284.38585,197.96809 c -0.97754,0 -1.60837,0.78011 -1.60837,1.77691 0,0.88364 0.50803,1.48557 1.46872,1.48557 1.07144,0 1.59873,-0.83789 1.59873,-1.79617 0,-0.84752 -0.60193,-1.46631 -1.45908,-1.46631 m -2.73519,7.37248 -0.3106,-0.9029 c 1.79617,-0.51766 3.13969,-1.50483 3.93905,-2.68944 -0.2817,0.13965 -0.75121,0.32986 -1.23998,0.32986 -1.41093,0 -2.33309,-1.00643 -2.33309,-2.22956 0,-1.4952 1.15571,-2.78334 2.78334,-2.78334 1.62763,0 2.43662,1.23998 2.43662,2.54738 0,1.90934 -1.28813,4.33633 -5.27534,5.728" />
    <path
       inkscape:connector-curvature="0"
       id="path4558"
       style="fill:#231f20;fill-opacity:1;fill-rule:nonzero;stroke:none"
       d="m 291.14917,197.94883 c -0.88364,0 -1.48557,0.73195 -1.48557,1.45668 0,0.73436 0.47914,1.23276 1.22072,1.23276 0.86678,0 1.46872,-0.73436 1.46872,-1.47594 0,-0.58267 -0.36839,-1.2135 -1.20387,-1.2135 m -0.73436,3.55381 c -0.97754,0 -1.5891,0.73436 -1.5891,1.56262 0,0.74159 0.53692,1.27851 1.39167,1.27851 1.01606,0 1.53372,-0.74399 1.53372,-1.56021 0,-0.65009 -0.44302,-1.28092 -1.33629,-1.28092 m 1.50483,-0.38523 c 0.56582,0.38523 0.91254,1.00643 0.91254,1.70226 0,1.28814 -1.10034,2.40774 -2.68944,2.40774 -1.42057,0 -2.40774,-0.79937 -2.40774,-2.08751 0,-0.94864 0.63083,-1.85395 1.68301,-2.1814 -0.51766,-0.36839 -0.79937,-0.92217 -0.79937,-1.5241 0,-1.13886 1.01606,-2.36921 2.56665,-2.36921 1.34592,0 2.21029,0.88364 2.21029,1.98397 0,0.88364 -0.45024,1.66375 -1.47594,2.06825" />
    <path
       inkscape:connector-curvature="0"
       id="path4560"
       style="fill:#231f20;fill-opacity:1;fill-rule:nonzero;stroke:none"
       d="m 295.07137,205.09739 -1.15812,0 4.40133,-6.91501 -3.59233,0 0.19743,-0.98717 5.08032,0 -4.92863,7.90218 z" />
  </g>
  <g
     id="g5403"
     transform="translate(-3.0617131e-6,-90.606901)">
    <path
       inkscape:connector-curvature="0"
       id="path4562"
       style="fill:#2f6abc;fill-opacity:1;fill-rule:nonzero;stroke:none"
       d="m 94.105616,137.9724 c 0,25.812 -20.928115,46.74012 -46.742955,46.74012 -25.812003,0 -46.74011812,-20.92812 -46.74011812,-46.74012 0,-25.81485 20.92811512,-46.742959 46.74011812,-46.742959 25.81484,0 46.742955,20.928109 46.742955,46.742959" />
    <path
       inkscape:connector-curvature="0"
       id="path4564"
       style="fill:#f78d18;fill-opacity:1;fill-rule:nonzero;stroke:none"
       d="m 47.827794,142.64641 -0.01131,0 C 38.689682,141.23966 30.158476,137.99225 22.634111,133.2842 20.952261,144.84161 11.35749,153.8039 4.5223152,156.67128 10.206004,169.66662 21.62727,179.55068 35.575564,183.18382 35.2097,160.17395 47.82783,142.64641 47.82783,142.64641" />
    <path
       inkscape:connector-curvature="0"
       id="path4566"
       style="fill:#db89cb;fill-opacity:1;fill-rule:nonzero;stroke:none"
       d="m 5.2738653,117.62002 c 4.8101477,6.18286 10.6923687,11.48934 17.3602097,15.66418 2.26043,-15.56491 -6.058064,-24.8477 -8.962304,-27.69522 -3.389226,3.52253 -6.2367425,7.57826 -8.3979057,12.03104" />
    <path
       inkscape:connector-curvature="0"
       id="path4568"
       style="fill:#c31993;fill-opacity:1;fill-rule:nonzero;stroke:none"
       d="m 93.839015,133.0403 c -0.754421,-7.23224 -3.168005,-13.96815 -6.846519,-19.84187 -26.424617,8.10011 -39.164702,29.44798 -39.164702,29.44798 3.335337,0.51051 6.747253,0.77711 10.215892,0.77711 13.171183,0 25.446137,-3.81181 35.795329,-10.38322 z" />
    <path
       inkscape:connector-curvature="0"
       id="path4570"
       style="fill:#73cef4;fill-opacity:1;fill-rule:nonzero;stroke:none"
       d="m 93.839015,133.0403 c -10.349192,6.57141 -22.624146,10.38322 -35.795329,10.38322 -3.468639,0 -6.880555,-0.2666 -10.215892,-0.77711 0,0 -12.629476,17.53889 -12.252265,40.5601 3.766437,0.98415 7.711552,1.50601 11.787132,1.50601 25.81484,0 46.742955,-20.92812 46.742955,-46.74012 0,-1.67335 -0.09076,-3.31266 -0.266601,-4.9321" />
    <path
       inkscape:connector-curvature="0"
       id="path4572"
       style="fill:#59c481;fill-opacity:1;fill-rule:nonzero;stroke:none"
       d="m 5.2738653,117.62002 c -2.9779808,6.14883 -4.65132242,13.04923 -4.65132242,20.35238 0,6.64515 1.39539672,12.97265 3.89973682,18.69888 C 11.357455,153.8039 20.952225,144.84161 22.634075,133.2842 15.966234,129.10936 10.084013,123.80288 5.2738653,117.62002" />
    <path
       inkscape:connector-curvature="0"
       id="path4574"
       style="fill:#e8ec20;fill-opacity:1;fill-rule:nonzero;stroke:none"
       d="m 43.176471,126.22781 c 6.31332,0 11.43261,-5.1193 11.43261,-11.43261 0,-6.31616 -5.11929,-11.43546 -11.43261,-11.43546 -6.304811,0 -11.424101,5.1193 -11.424101,11.43546 0,6.31331 5.11929,11.43261 11.424101,11.43261" />
    <path
       inkscape:connector-curvature="0"
       id="path4576"
       style="fill:none;stroke:#ffffff;stroke-width:1.24507964;stroke-linecap:butt;stroke-linejoin:miter;stroke-miterlimit:10;stroke-dasharray:none;stroke-opacity:1"
       d="m 86.992496,113.19843 c -26.424617,8.10011 -39.164702,29.44798 -39.164702,29.44798 0,0 -12.629476,17.53889 -12.252265,40.5601 M 13.671771,105.58898 c 2.90424,2.84752 11.222734,12.13031 8.962304,27.69522 -1.68185,11.55741 -11.27662,20.5197 -18.1117953,23.38708 M 93.839015,133.0403 c -10.349192,6.57141 -22.624146,10.38322 -35.795329,10.38322 -3.468639,0 -6.880555,-0.2666 -10.215892,-0.77711 l -0.01131,0 C 38.689646,141.23966 30.15844,137.99225 22.634075,133.2842 15.966234,129.10936 10.084013,123.80288 5.2738653,117.62002 M 94.105616,137.9724 c 0,25.812 -20.928115,46.74012 -46.742955,46.74012 -25.812003,0 -46.74011812,-20.92812 -46.74011812,-46.74012 0,-25.81485 20.92811512,-46.742959 46.74011812,-46.742959 25.81484,0 46.742955,20.928109 46.742955,46.742959 z M 43.176471,126.22781 c 6.31332,0 11.43261,-5.1193 11.43261,-11.43261 0,-6.31616 -5.11929,-11.4241 -11.43261,-11.4241 -6.304811,0 -11.424101,5.10794 -11.424101,11.4241 0,6.31331 5.11929,11.43261 11.424101,11.43261" />
  </g>
</svg>
