<?xml version="1.0" encoding="UTF-8"?>
<svg width="200px" height="156px" viewBox="0 0 200 156" version="1.1" xmlns="http://www.w3.org/2000/svg" xmlns:xlink="http://www.w3.org/1999/xlink">
    <title>Ministère-Éducation-Nationale-Jeunesse-Sports</title>
    <g id="Page-1" stroke="none" stroke-width="1" fill="none" fill-rule="evenodd">
        <g id="Artboard" transform="translate(-13.000000, -429.000000)" fill-rule="nonzero">
            <g id="Ministère-Éducation-Nationale-Jeunesse-Sports" transform="translate(13.000000, 429.000000)">
                <path d="M26.6487098,20.7267742 C26.9178887,20.4575953 27.1870676,20.1884164 27.4562465,19.9192375 L27.4562465,19.9192375 C27.9946042,19.3808798 28.2637831,18.842522 28.8021409,18.3041642 C29.0713198,18.0349853 29.0713198,18.0349853 29.3404987,18.0349853 C29.3404987,18.0349853 29.3404987,18.0349853 29.3404987,17.7658064 C29.0713198,17.7658064 29.0713198,18.0349853 28.8021409,18.0349853 C28.8021409,18.0349853 28.8021409,18.0349853 28.8021409,18.0349853 C29.0713198,18.0349853 29.0713198,17.7658064 29.3404987,17.7658064 C29.3404987,17.7658064 29.3404987,17.7658064 29.3404987,17.7658064 C29.3404987,17.7658064 29.3404987,17.7658064 29.3404987,17.7658064 C28.8021409,17.7658064 28.2637831,18.0349853 27.9946042,18.3041642 C27.9946042,18.3041642 27.7254254,18.3041642 27.7254254,18.3041642 C27.1870676,18.5733431 26.6487098,19.1117009 25.8411731,19.3808798 L25.8411731,19.3808798 C25.5719942,19.3808798 25.3028153,19.6500586 25.0336365,19.6500586 C24.7644576,19.6500586 24.2260998,19.6500586 23.9569209,19.6500586 C23.4185631,19.6500586 22.8802053,19.9192375 22.3418476,19.9192375 C22.3418476,19.9192375 22.3418476,19.9192375 22.3418476,19.9192375 C22.0726687,19.9192375 21.8034898,20.1884164 21.5343109,20.1884164 C21.5343109,20.1884164 21.5343109,20.1884164 21.5343109,20.1884164 C21.5343109,20.1884164 21.5343109,20.1884164 21.5343109,20.1884164 C21.5343109,20.1884164 21.265132,20.4575953 21.265132,20.4575953 C20.9959531,20.7267742 20.7267742,20.7267742 20.4575953,20.9959531 C20.4575953,20.9959531 20.4575953,20.9959531 20.4575953,20.9959531 C20.1884164,21.265132 19.9192375,21.5343109 19.6500586,21.8034898 C19.6500586,21.8034898 19.6500586,21.8034898 19.3808798,21.8034898 C19.3808798,21.8034898 19.3808798,21.8034898 19.3808798,21.8034898 C19.3808798,21.8034898 19.3808798,21.8034898 19.3808798,21.8034898 C19.3808798,21.8034898 19.3808798,21.8034898 19.3808798,21.5343109 C19.3808798,21.5343109 19.3808798,21.265132 19.3808798,21.265132 C19.3808798,21.265132 19.3808798,20.9959531 19.6500586,20.9959531 C19.6500586,20.9959531 19.6500586,20.9959531 19.6500586,20.9959531 C19.6500586,20.9959531 19.6500586,20.9959531 19.6500586,20.9959531 C19.9192375,20.7267742 20.1884164,20.7267742 20.4575953,20.4575953 L20.4575953,20.4575953 C20.4575953,20.4575953 20.4575953,20.4575953 20.4575953,20.4575953 C20.4575953,20.4575953 20.4575953,20.4575953 20.4575953,20.4575953 C20.4575953,20.4575953 20.4575953,20.4575953 20.4575953,20.4575953 C20.4575953,20.4575953 20.4575953,20.4575953 20.4575953,20.4575953 C20.4575953,20.4575953 20.1884164,20.4575953 20.1884164,20.7267742 C20.1884164,20.7267742 19.9192375,20.9959531 19.9192375,20.9959531 C19.9192375,20.9959531 19.9192375,20.9959531 19.9192375,20.9959531 C19.9192375,20.9959531 19.9192375,20.9959531 19.9192375,20.9959531 C19.9192375,20.9959531 19.9192375,20.9959531 19.9192375,20.9959531 C19.9192375,20.9959531 19.9192375,20.9959531 19.9192375,20.9959531 C19.9192375,20.9959531 19.9192375,20.9959531 19.9192375,20.9959531 C19.9192375,20.9959531 19.9192375,20.9959531 19.9192375,20.9959531 C19.9192375,20.9959531 19.9192375,20.9959531 19.9192375,20.9959531 C19.9192375,20.9959531 19.9192375,20.9959531 19.9192375,20.9959531 C19.9192375,20.9959531 19.9192375,20.9959531 19.9192375,20.9959531 C19.9192375,20.9959531 19.9192375,20.9959531 19.9192375,20.9959531 C19.9192375,20.9959531 19.9192375,20.9959531 19.9192375,20.9959531 C19.9192375,20.9959531 19.9192375,20.9959531 19.9192375,20.9959531 C19.9192375,20.9959531 19.9192375,20.9959531 19.9192375,20.9959531 C19.9192375,20.9959531 19.9192375,20.9959531 19.9192375,20.9959531 C19.9192375,20.9959531 20.1884164,20.7267742 20.1884164,20.7267742 L20.1884164,20.7267742 C20.4575953,20.7267742 20.4575953,20.4575953 20.7267742,20.4575953 C20.7267742,20.4575953 20.7267742,20.4575953 20.7267742,20.4575953 C20.4575953,20.4575953 20.1884164,20.7267742 19.9192375,20.7267742 C19.9192375,20.7267742 19.9192375,20.7267742 19.9192375,20.7267742 C19.9192375,20.7267742 19.9192375,20.7267742 19.9192375,20.7267742 C19.9192375,20.7267742 19.9192375,20.7267742 19.9192375,20.7267742 C19.9192375,20.7267742 20.1884164,20.7267742 20.1884164,20.4575953 C20.1884164,20.4575953 20.1884164,20.4575953 20.1884164,20.4575953 C21.5343109,19.3808798 23.4185631,19.6500586 25.0336364,19.1117009 C25.0336364,19.1117009 25.3028153,18.842522 25.3028153,18.842522 C25.5719942,18.842522 25.5719942,18.5733431 25.8411731,18.3041642 C26.110352,18.0349853 26.3795309,17.7658064 26.6487098,17.2274486 C26.6487098,17.2274486 26.6487098,17.2274486 26.6487098,17.2274486 C26.110352,17.7658064 25.3028153,18.3041642 24.7644576,18.5733431 C24.2260998,18.3041642 23.1493842,18.3041642 22.0726687,18.3041642 C22.0726687,18.3041642 22.0726687,18.3041642 22.3418476,18.3041642 C22.3418476,18.3041642 22.3418476,18.0349853 22.6110264,18.0349853 L22.6110264,18.0349853 C22.6110264,18.0349853 22.6110264,18.0349853 22.6110264,18.0349853 C22.6110264,18.0349853 22.8802053,18.0349853 22.8802053,18.0349853 C22.8802053,17.7658064 22.6110264,18.0349853 22.3418476,18.0349853 C22.3418476,18.0349853 22.3418476,17.7658064 22.3418476,17.7658064 L22.6110264,17.7658064 C22.6110264,17.7658064 22.6110264,17.4966275 22.6110264,17.4966275 C23.1493842,17.2274486 23.9569209,16.6890909 24.4952787,16.419912 C24.4952787,16.419912 24.2260998,16.419912 24.2260998,16.419912 C24.2260998,16.419912 24.2260998,16.419912 24.2260998,16.419912 C24.7644576,16.419912 25.0336365,16.1507331 25.5719942,15.8815542 C25.3028153,15.8815542 25.3028153,15.8815542 25.0336365,15.8815542 C25.0336365,15.8815542 25.0336365,15.8815542 25.3028153,15.8815542 L25.3028153,15.8815542 C25.3028153,15.8815542 25.3028153,15.8815542 25.3028153,15.8815542 C25.3028153,15.8815542 25.3028153,15.8815542 25.3028153,15.8815542 C25.3028153,15.8815542 25.5719942,15.8815542 25.5719942,15.8815542 C25.5719942,15.8815542 25.5719942,15.8815542 25.5719942,15.8815542 C25.5719942,15.6123753 25.8411731,15.6123753 26.110352,15.6123753 C26.110352,15.6123753 25.8411731,15.6123753 25.8411731,15.6123753 C25.8411731,15.6123753 25.8411731,15.6123753 25.8411731,15.6123753 L25.8411731,15.6123753 C25.8411731,15.6123753 25.8411731,15.6123753 25.8411731,15.3431964 C26.110352,15.0740175 26.110352,14.5356597 26.110352,14.2664808 C26.110352,14.2664808 26.110352,14.2664808 26.110352,14.2664808 C25.5719942,14.8048386 25.0336365,14.8048386 24.2260998,15.0740175 L23.9569209,15.0740175 C23.687742,15.0740175 23.4185631,15.0740175 23.1493842,15.0740175 C22.8802053,15.0740175 22.8802053,14.8048386 22.6110264,14.8048386 C22.3418476,14.5356597 21.8034898,14.5356597 21.5343109,14.2664809 C20.9959531,13.1897653 19.6500587,12.9205864 18.5733431,12.9205864 C19.1117009,12.6514075 19.6500587,12.6514075 20.1884164,12.3822286 C20.9959531,12.1130497 21.5343109,11.8438708 22.3418476,11.8438708 C22.3418476,11.8438708 22.0726687,11.8438708 21.8034898,11.8438708 C21.265132,11.8438708 20.4575953,11.8438708 19.9192375,12.1130497 C19.3808798,12.1130497 19.1117009,12.3822286 18.5733431,12.3822286 C18.3041642,12.3822286 18.3041642,12.6514075 17.7658064,12.6514075 L17.7658064,12.6514075 C18.3041642,12.1130497 18.842522,11.574692 19.3808798,11.574692 C20.1884164,11.574692 20.9959531,11.574692 21.8034898,11.574692 C22.3418476,11.574692 22.8802053,11.8438708 23.4185631,11.8438708 C23.687742,11.8438708 23.687742,12.1130497 23.9569209,12.1130497 C24.2260998,12.1130497 24.4952787,12.1130497 24.7644576,12.3822286 C24.7644576,12.3822286 24.7644576,12.1130497 24.7644576,12.1130497 C25.0336365,11.8438708 25.0336365,12.1130497 25.3028153,12.1130497 C25.5719942,11.8438708 25.0336365,11.574692 24.7644576,11.3055131 C24.7644576,11.3055131 24.7644576,11.3055131 24.7644576,11.3055131 C25.0336365,11.5746919 25.3028153,11.8438708 25.8411731,12.1130497 C26.110352,12.1130497 26.6487098,12.3822286 26.3795309,12.1130497 C26.110352,11.574692 25.8411731,11.3055131 25.3028153,10.7671553 L25.3028153,10.4979764 C25.3028153,10.4979764 25.3028153,10.4979764 25.3028153,10.4979764 L25.3028153,10.2287975 C25.0336365,10.2287975 25.3028153,9.95961861 25.0336365,9.95961861 C25.0336365,9.69043972 25.0336365,9.42126083 25.0336365,9.15208194 C25.0336365,8.88290305 25.0336365,8.61372416 24.7644576,8.34454527 C24.7644576,7.5370086 24.4952787,6.99865082 24.4952787,6.19111415 C24.4952787,5.38357748 25.0336365,4.57604081 25.3028153,4.03768303 C25.5719942,3.49932525 25.8411731,2.96096747 26.6487098,2.69178858 C26.6487098,2.1534308 27.1870676,1.61507302 27.4562465,1.34589413 C27.7254254,0.80753635 28.2637831,0.53835746 28.8021409,0.53835746 C29.3404987,0.26917857 29.8788565,-3.20000007e-07 29.8788565,-3.20000007e-07 L38.7617598,-3.20000007e-07 C38.7617598,-3.20000007e-07 38.7617598,-3.20000007e-07 39.0309387,-3.20000007e-07 C39.3001176,-3.20000007e-07 39.5692965,0.26917857 39.5692965,0.26917857 C39.8384754,0.53835746 40.1076543,0.53835746 40.3768332,1.07671524 C40.3768332,1.07671524 40.6460121,1.34589413 40.3768332,1.61507302 C40.3768332,1.88425191 40.3768332,2.1534308 40.1076543,2.1534308 C39.8384754,2.1534308 39.5692965,2.1534308 39.3001176,2.1534308 C39.0309387,2.1534308 39.0309387,2.1534308 38.7617598,2.1534308 C39.3001176,2.42260969 40.1076543,2.69178858 40.3768332,3.23014636 C40.3768332,3.23014636 40.6460121,3.23014636 40.6460121,3.23014636 C40.6460121,3.23014636 40.6460121,3.23014636 40.6460121,3.23014636 C40.6460121,3.23014636 40.3768332,3.23014636 40.6460121,3.49932525 L40.6460121,3.49932525 C40.915191,3.49932525 40.915191,2.96096747 41.1843699,3.23014636 C41.4535487,3.23014636 41.4535487,3.76850414 41.4535487,3.76850414 C41.1843699,4.03768303 41.1843699,4.03768303 40.915191,4.30686192 C40.915191,4.30686192 40.915191,4.57604081 40.915191,4.57604081 C40.915191,4.8452197 41.1843699,4.8452197 41.1843699,5.11439859 C41.1843699,5.38357748 41.4535487,5.65275637 41.4535487,6.19111415 C41.7227276,6.72947193 41.7227276,7.5370086 41.7227276,8.07536638 C41.7227276,8.34454527 41.4535487,8.61372416 41.7227276,9.15208194 C41.7227276,9.42126083 41.9919065,9.69043972 42.2610854,9.95961861 C42.5302643,10.2287975 42.5302643,10.4979764 42.7994432,10.7671553 C43.0686221,11.3055131 43.6069799,11.5746919 43.337801,12.1130497 C43.337801,12.3822286 42.7994432,12.3822286 42.5302643,12.6514075 C42.2610854,12.9205864 42.5302643,13.1897653 42.5302643,13.4589442 C42.7994432,13.7281231 42.2610854,13.997302 41.9919065,14.2664808 C41.9919065,14.2664808 42.2610854,14.2664808 42.2610854,14.5356597 C42.2610854,14.8048386 42.5302643,14.8048386 42.2610854,15.0740175 C41.9919065,15.3431964 41.4535487,15.3431964 41.7227276,15.8815542 C41.9919065,16.1507331 41.7227276,16.419912 41.7227276,16.9582697 C41.7227276,17.2274486 41.1843699,17.4966275 40.915191,17.4966275 C40.6460121,17.4966275 40.3768332,17.4966275 40.1076543,17.4966275 C40.1076543,17.4966275 39.8384754,17.4966275 39.8384754,17.4966275 C39.0309387,17.4966275 38.2234021,17.2274486 37.6850443,17.2274486 C37.4158654,17.2274486 37.1466865,17.2274486 37.1466865,17.4966275 C37.1466865,17.7658064 37.1466865,18.0349853 36.8775076,18.3041642 C36.8775076,18.3041642 36.8775076,18.3041642 36.8775076,18.3041642 C36.8775076,18.3041642 36.8775076,18.3041642 36.8775076,18.3041642 C36.8775076,18.3041642 36.8775076,18.3041642 36.8775076,18.3041642 C36.8775076,18.3041642 36.8775076,18.3041642 36.8775076,18.3041642 C36.8775076,18.5733431 36.6083287,18.5733431 36.6083287,18.842522 C36.6083287,18.842522 36.6083287,18.842522 36.6083287,18.842522 C36.6083287,18.842522 36.6083287,18.842522 36.6083287,18.842522 C36.3391498,19.1117009 36.3391498,19.3808798 36.3391498,19.6500586 C36.0699709,20.7267742 36.0699709,21.5343109 36.3391498,21.8034898 C36.3391498,21.8034898 37.6850443,22.3418475 38.7617598,22.6110264 C39.3001176,22.8802053 39.5692965,22.8802053 39.8384754,23.1493842 L21.8034898,23.1493842 C22.6110264,22.6110264 23.4185631,22.3418475 24.7644576,21.8034898 C24.7644576,21.5343109 26.110352,20.9959531 26.6487098,20.7267742 M19.6500587,17.4966275 C19.6500587,17.4966275 19.3808798,17.4966275 19.6500587,17.4966275 C19.3808798,17.2274486 19.6500587,17.2274486 19.9192375,17.2274486 C19.9192375,17.2274486 20.1884164,17.2274486 20.1884164,17.2274486 C20.1884164,17.2274486 20.4575953,17.2274486 20.4575953,17.4966275 C20.4575953,17.4966275 20.1884164,17.2274486 19.6500587,17.4966275 M12.9205864,16.419912 C12.9205864,16.419912 12.9205864,16.419912 12.9205864,16.419912 C13.4589442,15.6123753 13.997302,14.8048386 14.2664809,13.997302 C14.8048386,13.7281231 15.3431964,13.1897653 15.8815542,12.6514075 C16.6890909,11.8438708 17.4966275,11.0363342 18.3041642,10.7671553 C18.5733431,10.7671553 19.1117009,10.7671553 19.3808798,10.7671553 C19.3808798,11.0363342 19.1117009,10.7671553 18.842522,11.0363342 C18.842522,11.0363342 18.842522,11.0363342 18.842522,11.0363342 C18.842522,11.0363342 18.842522,11.0363342 18.842522,11.0363342 C18.3041642,11.574692 17.7658064,11.8438708 17.4966275,12.3822286 C17.2274486,12.9205864 16.9582698,13.4589442 16.419912,13.4589442 C16.1507331,13.4589442 16.419912,13.4589442 16.419912,13.4589442 C15.0740175,14.2664809 13.997302,15.3431964 12.9205864,16.419912 M16.6890909,13.4589442 C16.6890909,13.7281231 16.6890909,13.7281231 16.6890909,13.4589442 C16.419912,13.7281231 16.419912,13.7281231 16.419912,13.7281231 C16.419912,13.7281231 16.419912,13.7281231 16.419912,13.7281231 C16.419912,13.7281231 16.419912,13.4589442 16.6890909,13.4589442 C16.6890909,13.4589442 16.6890909,13.4589442 16.6890909,13.4589442 M18.842522,20.1884164 C18.842522,20.1884164 18.5733431,20.1884164 18.842522,20.1884164 C18.5733431,20.1884164 18.842522,20.4575953 18.842522,20.1884164 C18.5733431,20.4575953 18.5733431,20.4575953 18.5733431,20.7267742 C18.5733431,20.7267742 18.5733431,20.7267742 18.5733431,20.7267742 C18.5733431,20.7267742 18.5733431,20.7267742 18.3041642,20.9959531 C18.3041642,20.9959531 18.0349853,20.9959531 18.0349853,20.9959531 C18.0349853,20.9959531 18.3041642,20.7267742 18.3041642,20.7267742 C18.3041642,20.7267742 18.3041642,20.7267742 18.5733431,20.4575953 C18.3041642,20.1884164 18.5733431,20.1884164 18.842522,20.1884164 C18.5733431,20.1884164 18.842522,20.1884164 18.842522,20.1884164 M18.0349853,19.9192375 C18.0349853,19.9192375 18.0349853,19.9192375 18.0349853,19.9192375 C17.7658064,19.9192375 17.7658064,20.1884164 17.4966275,20.1884164 C17.2274486,20.1884164 17.2274486,20.4575953 16.9582698,20.4575953 C16.9582698,20.4575953 16.9582698,20.4575953 16.9582698,20.4575953 C16.9582698,20.4575953 16.9582698,20.4575953 16.9582698,20.4575953 C16.6890909,20.4575953 16.6890909,20.7267742 16.419912,20.7267742 C16.419912,20.7267742 16.419912,20.7267742 16.419912,20.7267742 C16.419912,20.7267742 16.419912,20.7267742 16.419912,20.7267742 C16.419912,20.7267742 16.419912,20.7267742 16.419912,20.7267742 C16.419912,20.7267742 16.419912,20.7267742 16.419912,20.7267742 C16.419912,20.7267742 16.419912,20.7267742 16.419912,20.7267742 C16.419912,20.7267742 16.419912,20.7267742 16.419912,20.7267742 C16.419912,20.7267742 16.419912,20.7267742 16.419912,20.7267742 C16.419912,20.7267742 16.419912,20.7267742 16.419912,20.7267742 C16.419912,20.7267742 16.419912,20.7267742 16.419912,20.7267742 C16.419912,20.7267742 16.419912,20.7267742 16.419912,20.7267742 C16.419912,20.7267742 16.419912,20.7267742 16.419912,20.7267742 C16.419912,20.7267742 16.419912,20.7267742 16.419912,20.7267742 C16.419912,20.7267742 16.419912,20.7267742 16.419912,20.7267742 C16.419912,20.7267742 16.419912,20.7267742 16.419912,20.7267742 C16.419912,20.7267742 16.419912,20.7267742 16.1507331,20.7267742 C16.1507331,20.7267742 15.8815542,20.9959531 15.8815542,20.9959531 C15.8815542,20.9959531 15.8815542,20.9959531 15.8815542,20.9959531 C15.8815542,20.9959531 15.8815542,20.9959531 15.8815542,20.9959531 C15.8815542,20.9959531 15.8815542,20.9959531 15.8815542,20.9959531 C15.8815542,20.9959531 15.8815542,20.9959531 15.8815542,20.9959531 C15.8815542,20.9959531 15.8815542,20.9959531 15.8815542,20.9959531 C15.8815542,20.9959531 15.8815542,20.9959531 15.8815542,20.9959531 L15.8815542,20.9959531 C15.8815542,20.9959531 15.8815542,20.9959531 15.8815542,20.9959531 C15.8815542,20.9959531 15.8815542,20.9959531 15.8815542,20.9959531 C15.8815542,20.9959531 15.8815542,20.9959531 15.8815542,20.9959531 C15.8815542,20.9959531 15.8815542,20.9959531 15.8815542,20.9959531 L15.8815542,20.9959531 C15.8815542,20.9959531 15.8815542,20.9959531 15.8815542,20.9959531 C15.8815542,20.9959531 15.8815542,20.9959531 16.1507331,20.7267742 C16.1507331,20.7267742 16.1507331,20.7267742 16.1507331,20.7267742 C16.1507331,20.7267742 16.1507331,20.7267742 16.1507331,20.7267742 C16.1507331,20.7267742 16.1507331,20.7267742 16.1507331,20.7267742 C16.1507331,20.7267742 16.1507331,20.7267742 16.1507331,20.7267742 C16.1507331,20.7267742 16.1507331,20.7267742 16.419912,20.4575953 C16.419912,20.4575953 16.419912,20.4575953 16.419912,20.4575953 C16.419912,20.4575953 16.419912,20.4575953 16.419912,20.4575953 C16.419912,20.4575953 16.419912,20.4575953 16.419912,20.4575953 C16.419912,20.4575953 16.419912,20.4575953 16.419912,20.4575953 C16.419912,20.4575953 16.419912,20.4575953 16.419912,20.4575953 C16.419912,20.4575953 16.419912,20.4575953 16.419912,20.4575953 C16.419912,20.4575953 16.419912,20.4575953 16.419912,20.4575953 C16.419912,20.4575953 16.419912,20.4575953 16.419912,20.4575953 C16.419912,20.4575953 16.419912,20.4575953 16.419912,20.4575953 C16.419912,20.4575953 16.419912,20.4575953 16.419912,20.4575953 C16.419912,20.4575953 16.419912,20.4575953 16.419912,20.4575953 C16.419912,20.4575953 16.419912,20.4575953 16.419912,20.4575953 C16.419912,20.4575953 16.419912,20.4575953 16.419912,20.4575953 C16.419912,20.4575953 16.419912,20.4575953 16.419912,20.4575953 C16.419912,20.4575953 16.419912,20.1884164 16.6890909,20.1884164 C16.6890909,20.1884164 16.6890909,20.1884164 16.6890909,20.1884164 C16.6890909,20.1884164 16.6890909,20.1884164 16.419912,20.4575953 C16.419912,20.4575953 16.1507331,20.4575953 16.419912,20.4575953 C16.419912,20.4575953 16.419912,20.4575953 16.419912,20.4575953 C16.419912,20.4575953 16.419912,20.4575953 16.419912,20.4575953 C16.419912,20.4575953 16.6890909,20.1884164 16.6890909,20.1884164 C16.6890909,20.1884164 16.6890909,20.1884164 16.9582698,20.1884164 C16.9582698,20.1884164 16.9582698,20.1884164 16.9582698,20.1884164 C16.9582698,20.1884164 16.9582698,20.1884164 16.9582698,20.1884164 C16.9582698,20.1884164 16.9582698,20.1884164 16.9582698,20.1884164 C17.4966275,19.6500587 18.0349853,19.9192375 18.5733431,19.6500587 C18.842522,19.6500587 19.1117009,19.6500587 19.3808798,19.6500587 C19.3808798,19.6500587 19.6500587,19.6500587 19.6500587,19.6500587 C18.5733431,19.3808798 18.3041642,19.6500587 18.0349853,19.9192375 M18.842522,16.6890909 C18.842522,16.6890909 18.842522,16.6890909 18.842522,16.6890909 L18.842522,16.6890909 C18.5733431,16.6890909 18.5733431,16.6890909 18.842522,16.6890909 C18.3041642,16.6890909 18.0349853,16.6890909 18.0349853,16.6890909 C17.7658064,16.6890909 17.4966275,16.9582698 17.2274486,16.9582698 C16.6890909,17.2274486 16.419912,17.4966275 15.8815542,17.7658064 C15.8815542,17.7658064 15.8815542,17.7658064 15.8815542,17.7658064 C15.8815542,17.7658064 16.1507331,17.4966275 16.1507331,17.4966275 C16.1507331,17.4966275 16.1507331,17.4966275 16.1507331,17.4966275 C16.419912,16.9582698 16.9582698,16.6890909 17.4966275,16.419912 L17.4966275,16.419912 C17.4966275,16.1507331 17.7658064,16.1507331 18.0349853,15.8815542 C18.0349853,15.8815542 18.3041642,15.6123753 18.5733431,15.6123753 C18.5733431,15.6123753 18.5733431,15.6123753 18.5733431,15.6123753 C18.3041642,15.6123753 18.3041642,15.6123753 18.0349853,15.6123753 C18.0349853,15.6123753 18.3041642,15.6123753 18.3041642,15.3431964 C18.3041642,15.3431964 18.3041642,15.3431964 18.3041642,15.3431964 C18.3041642,15.3431964 18.3041642,15.0740175 18.5733431,15.0740175 C18.842522,15.0740175 18.842522,15.0740175 19.1117009,14.8048386 C18.842522,14.8048386 18.5733431,14.8048386 18.0349853,14.8048386 C18.3041642,14.2664809 18.5733431,13.7281231 19.1117009,13.4589442 C19.1117009,13.4589442 19.1117009,13.4589442 19.1117009,13.4589442 C19.1117009,13.7281231 19.1117009,13.7281231 18.842522,13.997302 C19.1117009,13.997302 19.6500587,13.997302 19.9192375,14.2664809 C19.9192375,14.2664809 19.9192375,14.2664809 19.6500587,14.2664809 C19.9192375,14.2664809 20.1884164,14.2664809 20.4575953,14.5356597 C20.4575953,14.5356597 20.1884164,14.5356597 20.1884164,14.5356597 C21.5343109,14.8048386 22.8802053,15.3431964 24.2260998,16.1507331 C23.1493842,16.6890909 22.3418476,16.9582698 21.265132,16.9582698 C21.265132,16.9582698 20.9959531,16.9582698 20.9959531,16.9582698 C20.9959531,16.9582698 20.9959531,16.9582698 20.9959531,16.9582698 C20.7267742,16.9582698 20.7267742,16.9582698 20.4575953,16.9582698 C19.1117009,16.9582698 18.842522,16.9582698 18.842522,16.6890909" id="Fond_1_" fill="#FFFFFF"></path>
                <path d="M26.6487098,20.7267742 C26.9178887,20.4575953 27.1870676,20.1884164 27.4562465,19.9192375 L27.4562465,19.9192375 C27.9946042,19.3808798 28.2637831,18.842522 28.8021409,18.3041642 C29.0713198,18.0349853 29.0713198,18.0349853 29.3404987,18.0349853 C29.3404987,18.0349853 29.3404987,18.0349853 29.3404987,17.7658064 C29.0713198,17.7658064 29.0713198,18.0349853 28.8021409,18.0349853 C28.8021409,18.0349853 28.8021409,18.0349853 28.8021409,18.0349853 C29.0713198,18.0349853 29.0713198,17.7658064 29.3404987,17.7658064 C29.3404987,17.7658064 29.3404987,17.7658064 29.3404987,17.7658064 C29.3404987,17.7658064 29.3404987,17.7658064 29.3404987,17.7658064 C28.8021409,17.7658064 28.2637831,18.0349853 27.9946042,18.3041642 C27.9946042,18.3041642 27.7254254,18.3041642 27.7254254,18.3041642 C27.1870676,18.5733431 26.6487098,19.1117009 25.8411731,19.3808798 L25.8411731,19.3808798 C25.5719942,19.3808798 25.3028153,19.6500586 25.0336365,19.6500586 C24.7644576,19.6500586 24.2260998,19.6500586 23.9569209,19.6500586 C23.4185631,19.6500586 22.8802053,19.9192375 22.3418476,19.9192375 C22.3418476,19.9192375 22.3418476,19.9192375 22.3418476,19.9192375 C22.0726687,19.9192375 21.8034898,20.1884164 21.5343109,20.1884164 C21.5343109,20.1884164 21.5343109,20.1884164 21.5343109,20.1884164 C21.5343109,20.1884164 21.5343109,20.1884164 21.5343109,20.1884164 C21.5343109,20.1884164 21.265132,20.4575953 21.265132,20.4575953 C20.9959531,20.7267742 20.7267742,20.7267742 20.4575953,20.9959531 C20.4575953,20.9959531 20.4575953,20.9959531 20.4575953,20.9959531 C20.1884164,21.265132 19.9192375,21.5343109 19.6500586,21.8034898 C19.6500586,21.8034898 19.6500586,21.8034898 19.3808798,21.8034898 C19.3808798,21.8034898 19.3808798,21.8034898 19.3808798,21.8034898 C19.3808798,21.8034898 19.3808798,21.8034898 19.3808798,21.8034898 C19.3808798,21.8034898 19.3808798,21.8034898 19.3808798,21.5343109 C19.3808798,21.5343109 19.3808798,21.265132 19.3808798,21.265132 C19.3808798,21.265132 19.3808798,20.9959531 19.6500586,20.9959531 C19.6500586,20.9959531 19.6500586,20.9959531 19.6500586,20.9959531 C19.6500586,20.9959531 19.6500586,20.9959531 19.6500586,20.9959531 C19.9192375,20.7267742 20.1884164,20.7267742 20.4575953,20.4575953 L20.4575953,20.4575953 C20.4575953,20.4575953 20.4575953,20.4575953 20.4575953,20.4575953 C20.4575953,20.4575953 20.4575953,20.4575953 20.4575953,20.4575953 C20.4575953,20.4575953 20.4575953,20.4575953 20.4575953,20.4575953 C20.4575953,20.4575953 20.4575953,20.4575953 20.4575953,20.4575953 C20.4575953,20.4575953 20.1884164,20.4575953 20.1884164,20.7267742 C20.1884164,20.7267742 19.9192375,20.9959531 19.9192375,20.9959531 C19.9192375,20.9959531 19.9192375,20.9959531 19.9192375,20.9959531 C19.9192375,20.9959531 19.9192375,20.9959531 19.9192375,20.9959531 C19.9192375,20.9959531 19.9192375,20.9959531 19.9192375,20.9959531 C19.9192375,20.9959531 19.9192375,20.9959531 19.9192375,20.9959531 C19.9192375,20.9959531 19.9192375,20.9959531 19.9192375,20.9959531 C19.9192375,20.9959531 19.9192375,20.9959531 19.9192375,20.9959531 C19.9192375,20.9959531 19.9192375,20.9959531 19.9192375,20.9959531 C19.9192375,20.9959531 19.9192375,20.9959531 19.9192375,20.9959531 C19.9192375,20.9959531 19.9192375,20.9959531 19.9192375,20.9959531 C19.9192375,20.9959531 19.9192375,20.9959531 19.9192375,20.9959531 C19.9192375,20.9959531 19.9192375,20.9959531 19.9192375,20.9959531 C19.9192375,20.9959531 19.9192375,20.9959531 19.9192375,20.9959531 C19.9192375,20.9959531 19.9192375,20.9959531 19.9192375,20.9959531 C19.9192375,20.9959531 19.9192375,20.9959531 19.9192375,20.9959531 C19.9192375,20.9959531 20.1884164,20.7267742 20.1884164,20.7267742 L20.1884164,20.7267742 C20.4575953,20.7267742 20.4575953,20.4575953 20.7267742,20.4575953 C20.7267742,20.4575953 20.7267742,20.4575953 20.7267742,20.4575953 C20.4575953,20.4575953 20.1884164,20.7267742 19.9192375,20.7267742 C19.9192375,20.7267742 19.9192375,20.7267742 19.9192375,20.7267742 C19.9192375,20.7267742 19.9192375,20.7267742 19.9192375,20.7267742 C19.9192375,20.7267742 19.9192375,20.7267742 19.9192375,20.7267742 C19.9192375,20.7267742 20.1884164,20.7267742 20.1884164,20.4575953 C20.1884164,20.4575953 20.1884164,20.4575953 20.1884164,20.4575953 C21.5343109,19.3808798 23.4185631,19.6500586 25.0336364,19.1117009 C25.0336364,19.1117009 25.3028153,18.842522 25.3028153,18.842522 C25.5719942,18.842522 25.5719942,18.5733431 25.8411731,18.3041642 C26.110352,18.0349853 26.3795309,17.7658064 26.6487098,17.2274486 C26.6487098,17.2274486 26.6487098,17.2274486 26.6487098,17.2274486 C26.110352,17.7658064 25.3028153,18.3041642 24.7644576,18.5733431 C24.2260998,18.3041642 23.1493842,18.3041642 22.0726687,18.3041642 C22.0726687,18.3041642 22.0726687,18.3041642 22.3418476,18.3041642 C22.3418476,18.3041642 22.3418476,18.0349853 22.6110264,18.0349853 L22.6110264,18.0349853 C22.6110264,18.0349853 22.6110264,18.0349853 22.6110264,18.0349853 C22.6110264,18.0349853 22.8802053,18.0349853 22.8802053,18.0349853 C22.8802053,17.7658064 22.6110264,18.0349853 22.3418476,18.0349853 C22.3418476,18.0349853 22.3418476,17.7658064 22.3418476,17.7658064 L22.6110264,17.7658064 C22.6110264,17.7658064 22.6110264,17.4966275 22.6110264,17.4966275 C23.1493842,17.2274486 23.9569209,16.6890909 24.4952787,16.419912 C24.4952787,16.419912 24.2260998,16.419912 24.2260998,16.419912 C24.2260998,16.419912 24.2260998,16.419912 24.2260998,16.419912 C24.7644576,16.419912 25.0336365,16.1507331 25.5719942,15.8815542 C25.3028153,15.8815542 25.3028153,15.8815542 25.0336365,15.8815542 C25.0336365,15.8815542 25.0336365,15.8815542 25.3028153,15.8815542 L25.3028153,15.8815542 C25.3028153,15.8815542 25.3028153,15.8815542 25.3028153,15.8815542 C25.3028153,15.8815542 25.3028153,15.8815542 25.3028153,15.8815542 C25.3028153,15.8815542 25.5719942,15.8815542 25.5719942,15.8815542 C25.5719942,15.8815542 25.5719942,15.8815542 25.5719942,15.8815542 C25.5719942,15.6123753 25.8411731,15.6123753 26.110352,15.6123753 C26.110352,15.6123753 25.8411731,15.6123753 25.8411731,15.6123753 C25.8411731,15.6123753 25.8411731,15.6123753 25.8411731,15.6123753 L25.8411731,15.6123753 C25.8411731,15.6123753 25.8411731,15.6123753 25.8411731,15.3431964 C26.110352,15.0740175 26.110352,14.5356597 26.110352,14.2664808 C26.110352,14.2664808 26.110352,14.2664808 26.110352,14.2664808 C25.5719942,14.8048386 25.0336365,14.8048386 24.2260998,15.0740175 L23.9569209,15.0740175 C23.687742,15.0740175 23.4185631,15.0740175 23.1493842,15.0740175 C22.8802053,15.0740175 22.8802053,14.8048386 22.6110264,14.8048386 C22.3418476,14.5356597 21.8034898,14.5356597 21.5343109,14.2664809 C20.9959531,13.1897653 19.6500587,12.9205864 18.5733431,12.9205864 C19.1117009,12.6514075 19.6500587,12.6514075 20.1884164,12.3822286 C20.9959531,12.1130497 21.5343109,11.8438708 22.3418476,11.8438708 C22.3418476,11.8438708 22.0726687,11.8438708 21.8034898,11.8438708 C21.265132,11.8438708 20.4575953,11.8438708 19.9192375,12.1130497 C19.3808798,12.1130497 19.1117009,12.3822286 18.5733431,12.3822286 C18.3041642,12.3822286 18.3041642,12.6514075 17.7658064,12.6514075 L17.7658064,12.6514075 C18.3041642,12.1130497 18.842522,11.574692 19.3808798,11.574692 C20.1884164,11.574692 20.9959531,11.574692 21.8034898,11.574692 C22.3418476,11.574692 22.8802053,11.8438708 23.4185631,11.8438708 C23.687742,11.8438708 23.687742,12.1130497 23.9569209,12.1130497 C24.2260998,12.1130497 24.4952787,12.1130497 24.7644576,12.3822286 C24.7644576,12.3822286 24.7644576,12.1130497 24.7644576,12.1130497 C25.0336365,11.8438708 25.0336365,12.1130497 25.3028153,12.1130497 C25.5719942,11.8438708 25.0336365,11.574692 24.7644576,11.3055131 C24.7644576,11.3055131 24.7644576,11.3055131 24.7644576,11.3055131 C25.0336365,11.574692 25.3028153,11.8438708 25.8411731,12.1130497 C26.110352,12.1130497 26.6487098,12.3822286 26.3795309,12.1130497 C26.110352,11.574692 25.8411731,11.3055131 25.3028153,10.7671553 L25.3028153,10.4979764 C25.3028153,10.4979764 25.3028153,10.4979764 25.3028153,10.4979764 L25.3028153,10.2287975 C25.0336365,10.2287975 25.3028153,9.95961861 25.0336365,9.95961861 C25.0336365,9.69043972 25.0336365,9.42126083 25.0336365,9.15208194 C25.0336365,8.88290305 25.0336365,8.61372416 24.7644576,8.34454527 C24.7644576,7.5370086 24.4952787,6.99865082 24.4952787,6.19111415 C24.4952787,5.38357748 25.0336365,4.57604081 25.3028153,4.03768303 C25.5719942,3.49932525 25.8411731,2.96096747 26.6487098,2.69178858 C26.6487098,2.1534308 27.1870676,1.61507302 27.4562465,1.34589413 C27.7254254,0.80753635 28.2637831,0.53835746 28.8021409,0.53835746 C29.3404987,0.26917857 29.8788565,-3.20000003e-07 29.8788565,-3.20000003e-07 L-3.19999998e-07,-3.20000003e-07 L-3.19999998e-07,23.4185631 L21.265132,23.4185631 C22.0726687,22.8802053 22.8802053,22.6110264 24.2260998,22.0726687 C24.7644576,21.5343109 26.110352,20.9959531 26.6487098,20.7267742 M19.6500587,17.4966275 C19.6500587,17.4966275 19.3808798,17.4966275 19.6500587,17.4966275 C19.3808798,17.2274486 19.6500587,17.2274486 19.9192375,17.2274486 C19.9192375,17.2274486 20.1884164,17.2274486 20.1884164,17.2274486 C20.1884164,17.2274486 20.4575953,17.2274486 20.4575953,17.4966275 C20.4575953,17.4966275 20.1884164,17.2274486 19.6500587,17.4966275 M12.9205864,16.419912 C12.9205864,16.419912 12.9205864,16.419912 12.9205864,16.419912 C13.4589442,15.6123753 13.997302,14.8048386 14.2664809,13.997302 C14.8048386,13.7281231 15.3431964,13.1897653 15.8815542,12.6514075 C16.6890909,11.8438708 17.4966275,11.0363342 18.3041642,10.7671553 C18.5733431,10.7671553 19.1117009,10.7671553 19.3808798,10.7671553 C19.3808798,11.0363342 19.1117009,10.7671553 18.842522,11.0363342 C18.842522,11.0363342 18.842522,11.0363342 18.842522,11.0363342 C18.842522,11.0363342 18.842522,11.0363342 18.842522,11.0363342 C18.3041642,11.574692 17.7658064,11.8438708 17.4966275,12.3822286 C17.2274486,12.9205864 16.9582698,13.4589442 16.419912,13.4589442 C16.1507331,13.4589442 16.419912,13.4589442 16.419912,13.4589442 C15.0740175,14.2664809 13.997302,15.3431964 12.9205864,16.419912 M16.6890909,13.4589442 C16.6890909,13.7281231 16.6890909,13.7281231 16.6890909,13.4589442 C16.419912,13.7281231 16.419912,13.7281231 16.419912,13.7281231 C16.419912,13.7281231 16.419912,13.7281231 16.419912,13.7281231 C16.419912,13.7281231 16.419912,13.4589442 16.6890909,13.4589442 C16.6890909,13.4589442 16.6890909,13.4589442 16.6890909,13.4589442 M18.842522,20.1884164 C18.842522,20.1884164 18.5733431,20.1884164 18.842522,20.1884164 C18.5733431,20.1884164 18.842522,20.4575953 18.842522,20.1884164 C18.5733431,20.4575953 18.5733431,20.4575953 18.5733431,20.7267742 C18.5733431,20.7267742 18.5733431,20.7267742 18.5733431,20.7267742 C18.5733431,20.7267742 18.5733431,20.7267742 18.3041642,20.9959531 C18.3041642,20.9959531 18.0349853,20.9959531 18.0349853,20.9959531 C18.0349853,20.9959531 18.3041642,20.7267742 18.3041642,20.7267742 C18.3041642,20.7267742 18.3041642,20.7267742 18.5733431,20.4575953 C18.3041642,20.1884164 18.5733431,20.1884164 18.842522,20.1884164 C18.5733431,20.1884164 18.842522,20.1884164 18.842522,20.1884164 M18.0349853,19.9192375 C18.0349853,19.9192375 18.0349853,19.9192375 18.0349853,19.9192375 C17.7658064,19.9192375 17.7658064,20.1884164 17.4966275,20.1884164 C17.2274486,20.1884164 17.2274486,20.4575953 16.9582698,20.4575953 C16.9582698,20.4575953 16.9582698,20.4575953 16.9582698,20.4575953 C16.9582698,20.4575953 16.9582698,20.4575953 16.9582698,20.4575953 C16.6890909,20.4575953 16.6890909,20.7267742 16.419912,20.7267742 C16.419912,20.7267742 16.419912,20.7267742 16.419912,20.7267742 C16.419912,20.7267742 16.419912,20.7267742 16.419912,20.7267742 C16.419912,20.7267742 16.419912,20.7267742 16.419912,20.7267742 C16.419912,20.7267742 16.419912,20.7267742 16.419912,20.7267742 C16.419912,20.7267742 16.419912,20.7267742 16.419912,20.7267742 C16.419912,20.7267742 16.419912,20.7267742 16.419912,20.7267742 C16.419912,20.7267742 16.419912,20.7267742 16.419912,20.7267742 C16.419912,20.7267742 16.419912,20.7267742 16.419912,20.7267742 C16.419912,20.7267742 16.419912,20.7267742 16.419912,20.7267742 C16.419912,20.7267742 16.419912,20.7267742 16.419912,20.7267742 C16.419912,20.7267742 16.419912,20.7267742 16.419912,20.7267742 C16.419912,20.7267742 16.419912,20.7267742 16.419912,20.7267742 C16.419912,20.7267742 16.419912,20.7267742 16.419912,20.7267742 C16.419912,20.7267742 16.419912,20.7267742 16.419912,20.7267742 C16.419912,20.7267742 16.419912,20.7267742 16.1507331,20.7267742 C16.1507331,20.7267742 15.8815542,20.9959531 15.8815542,20.9959531 C15.8815542,20.9959531 15.8815542,20.9959531 15.8815542,20.9959531 C15.8815542,20.9959531 15.8815542,20.9959531 15.8815542,20.9959531 C15.8815542,20.9959531 15.8815542,20.9959531 15.8815542,20.9959531 C15.8815542,20.9959531 15.8815542,20.9959531 15.8815542,20.9959531 C15.8815542,20.9959531 15.8815542,20.9959531 15.8815542,20.9959531 C15.8815542,20.9959531 15.8815542,20.9959531 15.8815542,20.9959531 L15.8815542,20.9959531 C15.8815542,20.9959531 15.8815542,20.9959531 15.8815542,20.9959531 C15.8815542,20.9959531 15.8815542,20.9959531 15.8815542,20.9959531 C15.8815542,20.9959531 15.8815542,20.9959531 15.8815542,20.9959531 C15.8815542,20.9959531 15.8815542,20.9959531 15.8815542,20.9959531 L15.8815542,20.9959531 C15.8815542,20.9959531 15.8815542,20.9959531 15.8815542,20.9959531 C15.8815542,20.9959531 15.8815542,20.9959531 16.1507331,20.7267742 C16.1507331,20.7267742 16.1507331,20.7267742 16.1507331,20.7267742 C16.1507331,20.7267742 16.1507331,20.7267742 16.1507331,20.7267742 C16.1507331,20.7267742 16.1507331,20.7267742 16.1507331,20.7267742 C16.1507331,20.7267742 16.1507331,20.7267742 16.1507331,20.7267742 C16.1507331,20.7267742 16.1507331,20.7267742 16.419912,20.4575953 C16.419912,20.4575953 16.419912,20.4575953 16.419912,20.4575953 C16.419912,20.4575953 16.419912,20.4575953 16.419912,20.4575953 C16.419912,20.4575953 16.419912,20.4575953 16.419912,20.4575953 C16.419912,20.4575953 16.419912,20.4575953 16.419912,20.4575953 C16.419912,20.4575953 16.419912,20.4575953 16.419912,20.4575953 C16.419912,20.4575953 16.419912,20.4575953 16.419912,20.4575953 C16.419912,20.4575953 16.419912,20.4575953 16.419912,20.4575953 C16.419912,20.4575953 16.419912,20.4575953 16.419912,20.4575953 C16.419912,20.4575953 16.419912,20.4575953 16.419912,20.4575953 C16.419912,20.4575953 16.419912,20.4575953 16.419912,20.4575953 C16.419912,20.4575953 16.419912,20.4575953 16.419912,20.4575953 C16.419912,20.4575953 16.419912,20.4575953 16.419912,20.4575953 C16.419912,20.4575953 16.419912,20.4575953 16.419912,20.4575953 C16.419912,20.4575953 16.419912,20.4575953 16.419912,20.4575953 C16.419912,20.4575953 16.419912,20.1884164 16.6890909,20.1884164 C16.6890909,20.1884164 16.6890909,20.1884164 16.6890909,20.1884164 C16.6890909,20.1884164 16.6890909,20.1884164 16.419912,20.4575953 C16.419912,20.4575953 16.1507331,20.4575953 16.419912,20.4575953 C16.419912,20.4575953 16.419912,20.4575953 16.419912,20.4575953 C16.419912,20.4575953 16.419912,20.4575953 16.419912,20.4575953 C16.419912,20.4575953 16.6890909,20.1884164 16.6890909,20.1884164 C16.6890909,20.1884164 16.6890909,20.1884164 16.9582698,20.1884164 C16.9582698,20.1884164 16.9582698,20.1884164 16.9582698,20.1884164 C16.9582698,20.1884164 16.9582698,20.1884164 16.9582698,20.1884164 C16.9582698,20.1884164 16.9582698,20.1884164 16.9582698,20.1884164 C17.4966275,19.6500587 18.0349853,19.9192375 18.5733431,19.6500587 C18.842522,19.6500587 19.1117009,19.6500587 19.3808798,19.6500587 C19.3808798,19.6500587 19.6500587,19.6500587 19.6500587,19.6500587 C18.5733431,19.3808798 18.3041642,19.6500587 18.0349853,19.9192375 M18.842522,16.6890909 C18.842522,16.6890909 18.842522,16.6890909 18.842522,16.6890909 L18.842522,16.6890909 C18.5733431,16.6890909 18.5733431,16.6890909 18.842522,16.6890909 C18.3041642,16.6890909 18.0349853,16.6890909 18.0349853,16.6890909 C17.7658064,16.6890909 17.4966275,16.9582698 17.2274486,16.9582698 C16.6890909,17.2274486 16.419912,17.4966275 15.8815542,17.7658064 C15.8815542,17.7658064 15.8815542,17.7658064 15.8815542,17.7658064 C15.8815542,17.7658064 16.1507331,17.4966275 16.1507331,17.4966275 C16.1507331,17.4966275 16.1507331,17.4966275 16.1507331,17.4966275 C16.419912,16.9582698 16.9582698,16.6890909 17.4966275,16.419912 L17.4966275,16.419912 C17.4966275,16.1507331 17.7658064,16.1507331 18.0349853,15.8815542 C18.0349853,15.8815542 18.3041642,15.6123753 18.5733431,15.6123753 C18.5733431,15.6123753 18.5733431,15.6123753 18.5733431,15.6123753 C18.3041642,15.6123753 18.3041642,15.6123753 18.0349853,15.6123753 C18.0349853,15.6123753 18.3041642,15.6123753 18.3041642,15.3431964 C18.3041642,15.3431964 18.3041642,15.3431964 18.3041642,15.3431964 C18.3041642,15.3431964 18.3041642,15.0740175 18.5733431,15.0740175 C18.842522,15.0740175 18.842522,15.0740175 19.1117009,14.8048386 C18.842522,14.8048386 18.5733431,14.8048386 18.0349853,14.8048386 C18.3041642,14.2664809 18.5733431,13.7281231 19.1117009,13.4589442 C19.1117009,13.4589442 19.1117009,13.4589442 19.1117009,13.4589442 C19.1117009,13.7281231 19.1117009,13.7281231 18.842522,13.997302 C19.1117009,13.997302 19.6500587,13.997302 19.9192375,14.2664809 C19.9192375,14.2664809 19.9192375,14.2664809 19.6500587,14.2664809 C19.9192375,14.2664809 20.1884164,14.2664809 20.4575953,14.5356597 C20.4575953,14.5356597 20.1884164,14.5356597 20.1884164,14.5356597 C21.5343109,14.8048386 22.8802053,15.3431964 24.2260998,16.1507331 C23.1493842,16.6890909 22.3418476,16.9582698 21.265132,16.9582698 C21.265132,16.9582698 20.9959531,16.9582698 20.9959531,16.9582698 C20.9959531,16.9582698 20.9959531,16.9582698 20.9959531,16.9582698 C20.7267742,16.9582698 20.7267742,16.9582698 20.4575953,16.9582698 C19.1117009,16.9582698 18.842522,16.9582698 18.842522,16.6890909" id="Rouge_2_" fill="#000091"></path>
                <path d="M64.0645755,-3.19999998e-07 L39.0309387,-3.19999998e-07 C39.0309387,-3.19999998e-07 39.0309387,-3.19999998e-07 39.3001176,-3.19999998e-07 C39.5692965,-3.19999998e-07 39.8384754,0.26917857 39.8384754,0.26917857 C40.1076543,0.53835746 40.3768332,0.53835746 40.6460121,1.07671524 C40.6460121,1.07671524 40.915191,1.34589413 40.6460121,1.61507302 C40.6460121,1.88425191 40.6460121,2.1534308 40.3768332,2.1534308 C40.1076543,2.1534308 39.8384754,2.1534308 39.5692965,2.1534308 C39.3001176,2.1534308 39.3001176,2.1534308 39.0309387,2.1534308 C39.5692965,2.42260969 40.3768332,2.69178858 40.6460121,3.23014636 C40.6460121,3.23014636 40.915191,3.23014636 40.915191,3.23014636 C40.915191,3.23014636 40.915191,3.23014636 40.915191,3.23014636 C40.915191,3.23014636 40.6460121,3.23014636 40.915191,3.49932525 L40.915191,3.49932525 C41.1843699,3.49932525 41.1843699,2.96096747 41.4535487,3.23014636 C41.7227276,3.23014636 41.7227276,3.76850414 41.7227276,3.76850414 C41.4535487,4.03768303 41.4535487,4.03768303 41.1843699,4.30686192 C41.1843699,4.30686192 41.1843699,4.57604081 41.1843699,4.57604081 C41.1843699,4.8452197 41.4535487,4.8452197 41.4535487,5.11439859 C41.4535487,5.38357748 41.7227276,5.65275637 41.7227276,6.19111415 C41.9919065,6.72947193 41.9919065,7.5370086 41.9919065,8.07536638 C41.9919065,8.34454527 41.7227276,8.61372416 41.9919065,9.15208194 C41.9919065,9.42126083 42.2610854,9.69043972 42.5302643,9.95961861 C42.7994432,10.2287975 42.7994432,10.4979764 43.0686221,10.7671553 C43.337801,11.3055131 43.8761588,11.574692 43.6069799,12.1130497 C43.6069799,12.3822286 43.0686221,12.3822286 42.7994432,12.6514075 C42.5302643,12.9205864 42.7994432,13.1897653 42.7994432,13.4589442 C43.0686221,13.7281231 42.5302643,13.997302 42.2610854,14.2664808 C42.2610854,14.2664808 42.5302643,14.2664808 42.5302643,14.5356597 C42.5302643,14.8048386 42.7994432,14.8048386 42.5302643,15.0740175 C42.2610854,15.3431964 41.7227276,15.3431964 41.9919065,15.8815542 C42.2610854,16.1507331 41.9919065,16.419912 41.9919065,16.9582697 C41.9919065,17.2274486 41.4535487,17.4966275 41.1843699,17.4966275 C40.915191,17.4966275 40.6460121,17.4966275 40.3768332,17.4966275 C40.3768332,17.4966275 40.1076543,17.4966275 40.1076543,17.4966275 C39.3001176,17.4966275 38.492581,17.2274486 37.9542232,17.2274486 C37.6850443,17.2274486 37.4158654,17.2274486 37.4158654,17.4966275 C37.1466865,17.7658064 37.1466865,18.0349853 36.8775076,18.3041642 C36.8775076,18.3041642 36.8775076,18.3041642 36.8775076,18.3041642 C36.8775076,18.3041642 36.8775076,18.3041642 36.8775076,18.3041642 C36.8775076,18.3041642 36.8775076,18.3041642 36.8775076,18.3041642 C36.8775076,18.3041642 36.8775076,18.3041642 36.8775076,18.3041642 C36.8775076,18.5733431 36.6083287,18.5733431 36.6083287,18.842522 C36.6083287,18.842522 36.6083287,18.842522 36.6083287,18.842522 C36.6083287,18.842522 36.6083287,18.842522 36.6083287,18.842522 C36.3391498,19.1117009 36.3391498,19.3808798 36.3391498,19.6500586 C36.0699709,20.7267742 36.0699709,21.5343109 36.3391498,21.8034898 C36.3391498,21.8034898 37.6850443,22.3418475 38.7617598,22.6110264 C39.3001176,22.8802053 39.5692965,22.8802053 39.8384754,23.1493842 L64.0645755,23.1493842 L64.0645755,-3.19999998e-07 Z" id="Bleu_2_" fill="#E1000F"></path>
                <path d="M40.6460121,8.61372416 C40.915191,8.61372416 41.1843699,8.61372416 41.1843699,8.61372416 C41.1843699,8.88290305 40.6460121,9.15208194 40.3768332,9.42126083 L40.3768332,9.42126083 C40.3768332,9.42126083 40.3768332,9.69043972 40.1076543,9.69043972 C40.1076543,9.69043972 39.8384754,9.69043972 39.8384754,9.69043972 C40.1076543,9.95961861 40.1076543,9.95961861 40.3768332,9.95961861 C40.3768332,9.95961861 40.3768332,9.95961861 40.3768332,10.2287975 C40.3768332,10.2287975 40.3768332,10.2287975 40.3768332,10.2287975 C40.3768332,10.2287975 40.3768332,10.2287975 40.3768332,10.2287975 L40.3768332,10.4979764 C40.3768332,10.7671553 40.1076543,10.4979764 39.8384754,10.4979764 C40.1076543,10.4979764 40.6460121,10.4979764 40.915191,10.4979764 C41.1843699,10.4979764 40.915191,9.95961861 41.1843699,9.69043972 C41.1843699,9.69043972 41.1843699,9.69043972 41.1843699,9.69043972 C41.1843699,9.69043972 41.4535487,9.42126083 41.4535487,9.42126083 C41.4535487,9.42126083 41.7227276,9.42126083 41.7227276,9.42126083 C41.7227276,9.42126083 41.4535487,9.42126083 41.7227276,9.15208194 C41.9919065,8.88290305 42.2610854,8.61372416 41.9919065,8.34454527 C41.9919065,8.34454527 41.7227276,8.34454527 41.4535487,8.07536638 C41.1843699,8.07536638 40.915191,8.07536638 40.6460121,8.07536638 C40.3768332,8.07536638 40.1076543,8.07536638 40.1076543,8.34454527 C39.8384754,8.34454527 39.5692965,8.61372416 39.3001176,8.88290305 C39.5692965,8.88290305 39.8384754,8.61372416 40.3768332,8.61372416 C40.1076543,8.61372416 40.3768332,8.61372416 40.6460121,8.61372416" id="Yeux_2_" fill="#9C9B9B"></path>
                <path d="M-3.19999998e-07,51.9515255 L-3.19999998e-07,34.9932554 L4.30686192,34.9932554 L8.34454527,41.9919065 L12.3822286,34.9932554 L16.6890909,34.9932554 L16.6890909,51.9515255 L13.1897653,51.9515255 L13.1897653,39.8384754 L9.42126083,46.0295899 L6.99865082,46.0295899 L3.49932525,39.8384754 L3.49932525,51.9515255 L-3.19999998e-07,51.9515255 Z M21.5343109,51.9515255 L21.5343109,34.9932554 L25.0336365,34.9932554 L25.0336365,51.9515255 L21.5343109,51.9515255 Z M29.8788565,51.9515255 L29.8788565,34.9932554 L34.1857187,34.9932554 L41.7227276,47.1063054 L41.7227276,34.9932554 L45.2220532,34.9932554 L45.2220532,51.9515255 L40.915191,51.9515255 L33.378182,39.8384754 L33.378182,51.9515255 L29.8788565,51.9515255 Z M50.0672732,51.9515255 L50.0672732,34.9932554 L53.5665988,34.9932554 L53.5665988,51.9515255 L50.0672732,51.9515255 Z M56.7967455,49.5289154 L59.2193555,47.1063054 C59.7577133,47.6446632 60.296071,48.183021 60.8344288,48.7213788 C61.3727866,48.9905577 62.1803233,49.2597366 62.9878599,49.2597366 C63.7953966,49.2597366 64.3337544,48.9905577 64.6029333,48.7213788 C64.8721122,48.4521999 65.1412911,47.9138421 65.1412911,47.3754843 C65.1412911,46.5679477 64.6029333,46.0295899 63.7953966,45.760411 C62.9878599,45.4912321 62.1803233,44.9528743 61.1036077,44.4145165 C60.0268922,43.8761588 59.2193555,43.337801 58.4118188,42.5302643 C57.6042821,41.7227276 57.0659244,40.6460121 57.0659244,39.3001176 C57.0659244,38.7617598 57.0659244,37.9542232 57.3351033,37.4158654 C57.6042821,36.8775076 57.873461,36.3391498 58.4118188,35.8007921 C58.9501766,35.2624343 59.4885344,34.9932554 60.0268922,34.7240765 C60.5652499,34.4548976 61.3727866,34.4548976 62.1803233,34.4548976 C63.5262177,34.4548976 64.6029333,34.7240765 65.6796488,35.2624343 C66.7563644,35.8007921 67.5639011,36.6083287 68.3714377,37.4158654 L65.9488277,39.5692965 C65.41047,39.0309387 64.8721122,38.492581 64.3337544,37.9542232 C63.7953966,37.6850443 63.2570388,37.4158654 62.4495022,37.4158654 C61.9111444,37.4158654 61.3727866,37.6850443 61.1036077,37.9542232 C60.8344288,38.2234021 60.5652499,38.7617598 60.5652499,39.3001176 C60.5652499,40.1076543 60.8344288,40.6460121 61.9111444,40.915191 C62.718681,41.1843699 63.5262177,41.7227276 64.6029333,42.2610854 C65.6796488,42.7994432 66.4871855,43.337801 67.2947222,44.1453376 C68.1022588,44.9528743 68.6406166,46.0295899 68.6406166,47.3754843 C68.6406166,48.183021 68.3714377,48.9905577 68.1022588,49.5289154 C67.83308,50.0672732 67.2947222,50.605631 67.0255433,51.1439888 C66.4871855,51.6823466 65.9488277,51.9515255 65.1412911,52.2207043 C64.3337544,52.4898832 63.7953966,52.4898832 62.9878599,52.4898832 C61.6419655,52.4898832 60.296071,52.2207043 59.2193555,51.6823466 C58.4118188,51.1439888 57.3351032,50.605631 56.7967455,49.5289154 L56.7967455,49.5289154 Z M70.25569,38.2234021 L70.25569,34.9932554 L84.2529923,34.9932554 L84.2529923,38.2234021 L79.1385933,38.2234021 L79.1385933,51.9515255 L75.6392678,51.9515255 L75.6392678,38.2234021 L70.25569,38.2234021 Z M87.21396,51.9515255 L87.21396,34.9932554 L97.173579,34.9932554 L97.173579,37.9542232 L90.7132856,37.9542232 L90.7132856,41.9919065 L96.0968634,41.9919065 L96.0968634,44.9528743 L90.7132856,44.9528743 L90.7132856,49.2597366 L97.173579,49.2597366 L97.173579,52.2207043 L87.21396,52.2207043 L87.21396,51.9515255 Z M90.7132856,33.6473609 L87.4831389,30.4172143 L90.9824645,30.4172143 L93.6742534,33.6473609 L90.7132856,33.6473609 Z M101.211262,51.9515255 L101.211262,34.9932554 L106.325661,34.9932554 C108.209913,34.9932554 109.555808,35.5316132 110.632523,36.3391498 C111.709239,37.1466865 112.247597,38.492581 112.247597,40.1076543 C112.247597,41.1843699 111.978418,41.9919065 111.44006,42.7994432 C110.901702,43.6069799 110.363345,44.1453376 109.555808,44.4145165 L114.939386,51.9515255 L110.901702,51.9515255 L106.325661,45.2220532 L104.441409,45.2220532 L104.441409,51.9515255 L101.211262,51.9515255 Z M106.59484,37.9542232 L104.710588,37.9542232 L104.710588,42.2610854 L106.59484,42.2610854 C107.402377,42.2610854 107.940735,41.9919065 108.209913,41.7227276 C108.748271,41.4535487 108.748271,40.915191 108.748271,40.1076543 C108.748271,39.5692965 108.479092,39.0309387 108.209913,38.492581 C107.940735,38.2234021 107.402377,37.9542232 106.59484,37.9542232 Z M117.092817,51.9515255 L117.092817,34.9932554 L127.052436,34.9932554 L127.052436,37.9542232 L120.592142,37.9542232 L120.592142,41.9919065 L125.97572,41.9919065 L125.97572,44.9528743 L120.592142,44.9528743 L120.592142,49.2597366 L127.052436,49.2597366 L127.052436,52.2207043 L117.092817,52.2207043 L117.092817,51.9515255 Z M-3.19999998e-07,77.52352 L-3.19999998e-07,60.5652499 L6.72947193,60.5652499 C8.07536638,60.5652499 9.42126083,60.8344288 10.4979764,61.3727866 C11.574692,61.9111444 12.6514075,62.4495022 13.4589442,63.2570388 C14.2664809,64.0645755 14.8048386,64.8721122 15.3431964,65.9488277 C15.8815542,67.0255433 15.8815542,68.1022589 15.8815542,69.1789744 C15.8815542,70.25569 15.6123753,71.3324055 15.3431964,72.4091211 C14.8048386,73.4858367 14.2664809,74.2933733 13.4589442,75.10091 C12.6514075,75.9084467 11.8438708,76.4468044 10.4979764,76.9851622 C9.42126083,77.52352 8.07536638,77.7926989 6.72947193,77.7926989 L-3.19999998e-07,77.7926989 L-3.19999998e-07,77.52352 Z M6.72947193,63.7953966 L3.49932525,63.7953966 L3.49932525,74.5625522 L6.72947193,74.5625522 C7.5370086,74.5625522 8.34454527,74.2933733 8.88290305,74.0241944 C9.42126083,73.7550155 10.2287975,73.4858366 10.4979764,72.9474789 C11.0363342,72.4091211 11.3055131,71.8707633 11.574692,71.3324055 C11.8438708,70.7940478 12.1130497,69.9865111 12.1130497,69.1789744 C12.1130497,68.3714377 11.8438708,67.83308 11.574692,67.0255433 C11.3055131,66.4871855 11.0363342,65.6796488 10.4979764,65.41047 C9.95961861,64.8721122 9.42126083,64.6029333 8.88290305,64.3337544 C8.34454527,63.7953966 7.5370086,63.7953966 6.72947193,63.7953966 Z M19.1117009,77.52352 L19.1117009,60.5652499 L29.0713198,60.5652499 L29.0713198,63.5262177 L22.6110264,63.5262177 L22.6110264,67.5639011 L27.9946042,67.5639011 L27.9946042,70.5248689 L22.6110264,70.5248689 L22.6110264,74.8317311 L29.0713198,74.8317311 L29.0713198,77.52352 L19.1117009,77.52352 Z M39.3001176,77.52352 L39.3001176,60.5652499 L42.7994432,60.5652499 L42.7994432,74.2933733 L49.2597366,74.2933733 L49.2597366,77.52352 L39.3001176,77.52352 Z M51.4131677,67.5639011 L48.4521999,67.5639011 L50.605631,60.5652499 L54.1049566,60.5652499 L51.4131677,67.5639011 Z M56.7967455,77.52352 L56.7967455,60.5652499 L66.7563644,60.5652499 L66.7563644,63.5262177 L60.296071,63.5262177 L60.296071,67.5639011 L65.6796488,67.5639011 L65.6796488,70.5248689 L60.296071,70.5248689 L60.296071,74.8317311 L66.7563644,74.8317311 L66.7563644,77.52352 L56.7967455,77.52352 Z M63.2570388,59.2193555 L60.0268922,59.2193555 L62.7186811,55.9892088 L66.2180066,55.9892088 L63.2570388,59.2193555 Z M70.5248689,77.52352 L70.5248689,60.5652499 L77.2543411,60.5652499 C78.6002356,60.5652499 79.94613,60.8344288 81.0228456,61.3727866 C82.0995611,61.9111444 83.1762767,62.4495022 83.9838134,63.2570388 C84.79135,64.0645755 85.3297078,64.8721122 85.8680656,65.9488277 C86.4064234,67.0255433 86.4064234,68.1022589 86.4064234,69.1789744 C86.4064234,70.25569 86.1372445,71.3324055 85.8680656,72.4091211 C85.3297078,73.4858367 84.79135,74.2933733 83.9838134,75.10091 C83.1762767,75.9084467 82.36874,76.4468044 81.0228456,76.9851622 C79.94613,77.52352 78.6002356,77.7926989 77.2543411,77.7926989 L70.5248689,77.7926989 L70.5248689,77.52352 Z M77.2543411,63.7953966 L74.0241944,63.7953966 L74.0241944,74.5625522 L77.2543411,74.5625522 C78.0618778,74.5625522 78.8694145,74.2933733 79.4077722,74.0241944 C79.94613,73.7550155 80.7536667,73.4858366 81.0228456,72.9474789 C81.5612034,72.4091211 81.8303822,71.8707633 82.0995611,71.3324055 C82.36874,70.7940478 82.6379189,69.9865111 82.6379189,69.1789744 C82.6379189,68.3714377 82.36874,67.83308 82.0995611,67.0255433 C81.8303822,66.4871855 81.5612033,65.6796488 81.0228456,65.41047 C80.4844878,64.8721122 79.94613,64.6029333 79.4077722,64.3337544 C78.8694145,63.7953966 78.0618778,63.7953966 77.2543411,63.7953966 Z M99.596189,71.3324055 L99.596189,60.8344288 L103.095515,60.8344288 L103.095515,71.0632266 C103.095515,73.2166578 102.557157,75.10091 101.211262,76.1776256 C99.8653679,77.52352 98.2502945,78.0618778 96.0968634,78.0618778 C93.9434323,78.0618778 92.328359,77.52352 90.9824645,76.1776256 C89.6365701,74.8317311 89.0982123,73.2166578 89.0982123,71.0632266 L89.0982123,60.8344288 L92.5975378,60.8344288 L92.5975378,71.3324055 C92.5975378,72.4091211 92.8667167,73.2166578 93.4050745,74.0241944 C93.9434323,74.5625522 94.750969,75.10091 95.8276845,75.10091 C96.9044001,75.10091 97.7119368,74.8317311 98.2502945,74.0241944 C99.3270101,73.2166578 99.596189,72.4091211 99.596189,71.3324055 L99.596189,71.3324055 Z M115.208565,74.8317311 C116.28528,74.8317311 117.092817,74.5625522 117.900354,74.2933733 C118.70789,73.7550155 119.246248,73.2166578 119.784606,72.6783 L122.476395,74.8317311 C121.668858,75.9084467 120.592142,76.7159833 119.515427,77.2543411 C118.169532,77.7926989 116.823638,78.3310567 115.477743,78.3310567 C114.131849,78.3310567 113.055133,78.0618778 111.709239,77.52352 C110.632523,76.9851622 109.555808,76.4468044 108.748271,75.6392678 C107.940735,74.8317311 107.402377,73.7550155 106.864019,72.6783 C106.325661,71.6015844 106.325661,70.5248689 106.325661,69.1789744 C106.325661,67.83308 106.59484,66.7563644 106.864019,65.6796488 C107.402377,64.6029333 107.940735,63.5262177 108.748271,62.7186811 C109.555808,61.9111444 110.363345,61.3727866 111.709239,60.8344288 C112.785955,60.296071 114.131849,60.0268922 115.477743,60.0268922 C117.092817,60.0268922 118.438711,60.296071 119.515427,61.1036077 C120.861321,61.6419655 121.668858,62.4495022 122.476395,63.5262177 L119.784606,65.6796488 C119.246248,64.8721122 118.70789,64.3337544 117.900354,64.0645755 C117.092817,63.5262177 116.28528,63.5262177 115.208565,63.5262177 C114.401028,63.5262177 113.593491,63.7953966 113.055133,64.0645755 C112.247597,64.3337544 111.709239,64.8721122 111.44006,65.41047 C110.901702,65.9488277 110.632523,66.4871855 110.363345,67.2947222 C110.094166,68.1022589 109.824987,68.6406166 109.824987,69.4481533 C109.824987,70.25569 110.094166,71.0632266 110.363345,71.6015844 C110.632523,72.4091211 110.901702,72.9474789 111.44006,73.4858367 C111.978418,74.0241944 112.516776,74.2933733 113.055133,74.8317311 C113.593491,74.8317311 114.401028,74.8317311 115.208565,74.8317311 Z M123.014752,77.52352 L129.475046,60.5652499 L134.051087,60.5652499 L140.51138,77.52352 L136.742876,77.52352 L135.127802,73.2166578 L128.39833,73.2166578 L126.783257,77.52352 L123.014752,77.52352 Z M129.475046,70.25569 L134.051087,70.25569 L131.628477,63.7953966 L129.475046,70.25569 Z M139.434665,63.7953966 L139.434665,60.5652499 L153.431967,60.5652499 L153.431967,63.7953966 L148.317568,63.7953966 L148.317568,77.52352 L144.818243,77.52352 L144.818243,63.7953966 L139.434665,63.7953966 Z M156.392935,77.52352 L156.392935,60.5652499 L159.89226,60.5652499 L159.89226,77.52352 L156.392935,77.52352 Z M172.274489,60.0268922 C173.620384,60.0268922 174.697099,60.296071 176.042994,60.8344288 C177.119709,61.3727866 178.196425,61.9111444 179.003962,62.7186811 C179.811498,63.5262177 180.349856,64.6029333 180.888214,65.6796488 C181.426572,66.7563644 181.426572,67.83308 181.426572,69.1789744 C181.426572,70.5248689 181.157393,71.6015844 180.888214,72.6783 C180.349856,73.7550155 179.811498,74.8317311 179.003962,75.6392678 C178.196425,76.4468044 177.388888,76.9851622 176.042994,77.52352 C174.966278,78.0618778 173.620384,78.3310567 172.274489,78.3310567 C170.928595,78.3310567 169.851879,78.0618778 168.505985,77.52352 C167.429269,76.9851622 166.352554,76.4468044 165.545017,75.6392678 C164.73748,74.8317311 164.199123,73.7550155 163.660765,72.6783 C163.122407,71.6015844 163.122407,70.5248689 163.122407,69.1789744 C163.122407,67.83308 163.391586,66.7563644 163.660765,65.6796488 C164.199123,64.6029333 164.73748,63.5262177 165.545017,62.7186811 C166.352554,61.9111444 167.16009,61.3727866 168.505985,60.8344288 C169.851879,60.296071 170.928595,60.0268922 172.274489,60.0268922 L172.274489,60.0268922 Z M172.274489,74.8317311 C173.082026,74.8317311 173.889563,74.5625522 174.42792,74.2933733 C174.966278,74.0241944 175.773815,73.4858367 176.042994,72.9474789 C176.581352,72.4091211 176.85053,71.8707633 177.119709,71.0632266 C177.388888,70.25569 177.658067,69.7173322 177.658067,68.9097955 C177.658067,68.1022589 177.388888,67.2947222 177.119709,66.7563644 C176.85053,65.9488277 176.581352,65.41047 176.042994,64.8721122 C175.504636,64.3337544 174.966278,64.0645755 174.42792,63.5262177 C173.889563,63.2570388 173.082026,62.9878599 172.274489,62.9878599 C171.466953,62.9878599 170.659416,63.2570388 170.121058,63.5262177 C169.313521,63.7953966 168.775164,64.3337544 168.505985,64.8721122 C167.967627,65.41047 167.698448,65.9488277 167.429269,66.7563644 C167.16009,67.5639011 166.890911,68.1022589 166.890911,68.9097955 C166.890911,69.7173322 167.16009,70.5248689 167.429269,71.0632266 C167.698448,71.8707633 167.967627,72.4091211 168.505985,72.9474789 C169.044343,73.4858367 169.5827,73.7550155 170.121058,74.2933733 C170.659416,74.8317311 171.466953,74.8317311 172.274489,74.8317311 Z M184.656718,77.52352 L184.656718,60.5652499 L188.96358,60.5652499 L196.500589,72.6783 L196.500589,60.5652499 L199.999915,60.5652499 L199.999915,77.52352 L195.693053,77.52352 L187.886865,65.41047 L187.886865,77.52352 L184.656718,77.52352 Z M-3.19999998e-07,103.364693 L-3.19999998e-07,86.4064234 L4.30686192,86.4064234 L11.8438708,98.5194734 L11.8438708,86.4064234 L15.6123753,86.4064234 L15.6123753,103.364693 L11.3055131,103.364693 L3.49932525,90.9824645 L3.49932525,103.095515 L-3.19999998e-07,103.095515 L-3.19999998e-07,103.364693 Z M18.0349853,103.364693 L24.4952787,86.4064234 L29.0713198,86.4064234 L35.5316132,103.364693 L31.7631087,103.364693 L30.1480354,99.0578312 L23.4185631,99.0578312 L21.8034898,103.364693 L18.0349853,103.364693 Z M24.4952787,95.8276845 L29.0713198,95.8276845 L26.6487098,89.3673912 L24.4952787,95.8276845 Z M34.7240765,89.3673912 L34.7240765,86.1372445 L48.7213788,86.1372445 L48.7213788,89.3673912 L43.6069799,89.3673912 L43.6069799,103.095515 L39.8384754,103.095515 L39.8384754,89.3673912 L34.7240765,89.3673912 Z M51.6823466,103.364693 L51.6823466,86.4064234 L55.1816721,86.4064234 L55.1816721,103.364693 L51.6823466,103.364693 Z M67.2947222,85.8680656 C68.6406166,85.8680656 69.7173322,86.1372445 71.0632266,86.6756023 C72.1399422,87.21396 73.2166578,87.7523178 74.0241944,88.5598545 C74.8317311,89.3673912 75.3700889,90.4441067 75.9084467,91.5208223 C76.4468044,92.5975378 76.4468044,93.6742534 76.4468044,95.0201479 C76.4468044,96.3660423 76.1776256,97.4427579 75.9084467,98.5194734 C75.3700889,99.596189 74.8317311,100.672905 74.0241944,101.480441 C73.2166578,102.287978 72.4091211,102.826336 71.0632266,103.364693 C69.9865111,103.903051 68.6406166,104.17223 67.2947222,104.17223 C65.9488277,104.17223 64.8721122,103.903051 63.5262177,103.364693 C62.4495022,102.826336 61.3727866,102.287978 60.5652499,101.480441 C59.7577133,100.672905 59.2193555,99.596189 58.6809977,98.5194734 C58.1426399,97.4427579 58.1426399,96.3660423 58.1426399,95.0201479 C58.1426399,93.6742534 58.4118188,92.5975378 58.6809977,91.5208223 C59.2193555,90.4441067 59.7577133,89.3673912 60.5652499,88.5598545 C61.3727866,87.7523178 62.1803233,87.21396 63.5262177,86.6756023 C64.8721122,86.1372445 65.9488277,85.8680656 67.2947222,85.8680656 L67.2947222,85.8680656 Z M67.2947222,100.403726 C68.1022589,100.403726 68.9097955,100.134547 69.4481533,99.8653679 C69.9865111,99.596189 70.7940478,99.0578312 71.0632266,98.5194734 C71.6015844,97.9811156 71.8707633,97.4427579 72.1399422,96.6352212 C72.4091211,95.8276845 72.6783,95.2893267 72.6783,94.4817901 C72.6783,93.6742534 72.4091211,92.8667167 72.1399422,92.328359 C71.8707633,91.5208223 71.6015844,90.9824645 71.0632266,90.4441067 C70.5248689,89.9057489 69.9865111,89.6365701 69.4481533,89.0982123 C68.9097955,88.8290334 68.1022589,88.5598545 67.2947222,88.5598545 C66.4871855,88.5598545 65.6796488,88.8290334 65.1412911,89.0982123 C64.3337544,89.3673912 63.7953966,89.9057489 63.5262177,90.4441067 C62.9878599,90.9824645 62.7186811,91.5208223 62.4495022,92.328359 C62.1803233,93.1358956 61.9111444,93.6742534 61.9111444,94.4817901 C61.9111444,95.2893267 62.1803233,96.0968634 62.4495022,96.6352212 C62.7186811,97.4427579 62.9878599,97.9811156 63.5262177,98.5194734 C64.0645755,99.0578312 64.6029333,99.3270101 65.1412911,99.8653679 C65.9488277,100.403726 66.4871855,100.403726 67.2947222,100.403726 L67.2947222,100.403726 Z M79.6769511,103.364693 L79.6769511,86.4064234 L83.9838134,86.4064234 L91.5208223,98.5194734 L91.5208223,86.4064234 L95.0201479,86.4064234 L95.0201479,103.364693 L90.7132856,103.364693 L83.1762767,90.9824645 L83.1762767,103.095515 L79.6769511,103.095515 L79.6769511,103.364693 Z M97.7119368,103.364693 L104.17223,86.4064234 L108.748271,86.4064234 L115.208565,103.364693 L111.44006,103.364693 L109.824987,98.7886523 L103.095515,98.7886523 L101.480441,103.095515 L97.7119368,103.095515 L97.7119368,103.364693 Z M104.17223,95.8276845 L108.748271,95.8276845 L106.325661,89.3673912 L104.17223,95.8276845 Z M117.631175,103.364693 L117.631175,86.4064234 L121.1305,86.4064234 L121.1305,100.134547 L127.590794,100.134547 L127.590794,103.364693 L117.631175,103.364693 Z M130.551761,103.364693 L130.551761,86.4064234 L140.51138,86.4064234 L140.51138,89.3673912 L134.051087,89.3673912 L134.051087,93.4050745 L139.434665,93.4050745 L139.434665,96.3660423 L134.051087,96.3660423 L134.051087,100.672905 L140.51138,100.672905 L140.51138,103.633872 L130.551761,103.633872 L130.551761,103.364693 Z M145.625779,107.133198 L142.664811,107.133198 L144.818243,99.8653679 L148.317568,99.8653679 L145.625779,107.133198 Z M-3.20000007e-07,128.936688 L-3.20000007e-07,111.978418 L6.72947193,111.978418 C8.07536638,111.978418 9.42126083,112.247597 10.4979764,112.785955 C11.5746919,113.324312 12.6514075,113.86267 13.4589442,114.670207 C14.2664809,115.477743 14.8048386,116.28528 15.3431964,117.361996 C15.8815542,118.438711 15.8815542,119.515427 15.8815542,120.592142 C15.8815542,121.668858 15.6123753,122.745574 15.3431964,123.822289 C14.8048386,124.899005 14.2664809,125.706541 13.4589442,126.514078 C12.6514075,127.321615 11.8438708,127.859972 10.4979764,128.39833 C9.42126083,128.936688 8.07536638,129.205867 6.72947193,129.205867 L-3.20000007e-07,129.205867 L-3.20000007e-07,128.936688 Z M6.72947193,114.939386 L3.49932525,114.939386 L3.49932525,125.706541 L6.72947193,125.706541 C7.5370086,125.706541 8.34454527,125.437362 8.88290305,125.168184 C9.42126083,124.899005 10.2287975,124.629826 10.4979764,124.091468 C11.0363342,123.55311 11.3055131,123.014752 11.5746919,122.476395 C11.8438708,121.938037 12.1130497,121.1305 12.1130497,120.322964 C12.1130497,119.515427 11.8438708,118.977069 11.5746919,118.169532 C11.3055131,117.631175 11.0363342,116.823638 10.4979764,116.554459 C9.95961861,116.016101 9.42126083,115.746922 8.88290305,115.477743 C8.34454527,115.208565 7.5370086,114.939386 6.72947193,114.939386 L6.72947193,114.939386 Z M19.1117009,128.936688 L19.1117009,111.978418 L29.0713198,111.978418 L29.0713198,114.939386 L22.6110264,114.939386 L22.6110264,118.977069 L27.9946042,118.977069 L27.9946042,121.938037 L22.6110264,121.938037 L22.6110264,125.97572 L29.0713198,125.97572 L29.0713198,128.936688 L19.1117009,128.936688 Z M39.3001176,128.936688 L39.3001176,111.978418 L42.7994432,111.978418 L42.7994432,125.706541 L49.2597366,125.706541 L49.2597366,128.936688 L39.3001176,128.936688 Z M50.8748099,128.936688 L57.3351033,111.978418 L61.9111444,111.978418 L68.3714377,128.936688 L64.6029333,128.936688 L62.9878599,124.629826 L55.9892088,124.629826 L54.3741355,128.936688 L50.8748099,128.936688 Z M57.0659244,121.668858 L61.6419655,121.668858 L59.4885344,115.208565 L57.0659244,121.668858 Z M80.7536667,127.590794 C80.7536667,129.475046 80.2153089,130.82094 79.4077722,131.897656 C78.6002356,132.705192 77.2543411,133.24355 75.3700889,133.24355 C75.10091,133.24355 74.8317311,133.24355 74.5625522,133.24355 C74.2933733,133.24355 74.0241944,133.24355 74.0241944,133.24355 L74.0241944,130.282582 C74.0241944,130.282582 74.2933733,130.282582 74.2933733,130.282582 C74.5625522,130.282582 74.5625522,130.282582 74.8317311,130.282582 C75.6392678,130.282582 76.1776256,130.013404 76.4468044,129.744225 C76.7159833,129.475046 76.9851622,128.667509 76.9851622,127.859972 L76.9851622,112.247597 L80.4844878,112.247597 L80.4844878,127.590794 L80.7536667,127.590794 Z M85.5988867,128.936688 L85.5988867,111.978418 L95.5585056,111.978418 L95.5585056,114.939386 L89.0982123,114.939386 L89.0982123,118.977069 L94.4817901,118.977069 L94.4817901,121.938037 L89.0982123,121.938037 L89.0982123,125.97572 L95.5585056,125.97572 L95.5585056,128.936688 L85.5988867,128.936688 Z M109.286629,122.476395 L109.286629,111.978418 L112.785955,111.978418 L112.785955,122.207216 C112.785955,124.360647 112.247597,126.244899 110.901702,127.321615 C109.555808,128.667509 107.940735,129.205867 105.787303,129.205867 C103.633872,129.205867 102.018799,128.667509 100.672905,127.321615 C99.3270101,125.97572 99.0578312,124.360647 99.0578312,122.207216 L99.0578312,111.978418 L102.557157,111.978418 L102.557157,122.476395 C102.557157,123.55311 102.826336,124.360647 103.364693,125.168184 C103.903051,125.706541 104.710588,126.244899 105.787303,126.244899 C106.864019,126.244899 107.671556,125.97572 108.209913,125.168184 C109.01745,124.629826 109.286629,123.55311 109.286629,122.476395 L109.286629,122.476395 Z M117.092817,128.936688 L117.092817,111.978418 L121.399679,111.978418 L128.936688,124.091468 L128.936688,111.978418 L132.436014,111.978418 L132.436014,128.936688 L128.129151,128.936688 L120.592142,116.823638 L120.592142,128.936688 L117.092817,128.936688 Z M137.281234,128.936688 L137.281234,111.978418 L147.240853,111.978418 L147.240853,114.939386 L140.780559,114.939386 L140.780559,118.977069 L146.164137,118.977069 L146.164137,121.938037 L140.780559,121.938037 L140.780559,125.97572 L147.240853,125.97572 L147.240853,128.936688 L137.281234,128.936688 Z M149.663463,126.514078 L152.086073,124.091468 C152.62443,124.629826 153.162788,125.168184 153.701146,125.706541 C154.239504,125.97572 155.04704,126.244899 155.854577,126.244899 C156.662114,126.244899 157.200471,125.97572 157.46965,125.706541 C157.738829,125.437362 158.008008,124.899005 158.008008,124.360647 C158.008008,123.55311 157.46965,123.014752 156.662114,122.745574 C155.854577,122.476395 155.04704,121.938037 153.970325,121.399679 C152.893609,120.861321 152.086073,120.322964 151.278536,119.515427 C150.740178,118.70789 150.20182,117.900354 150.20182,116.28528 C150.20182,115.746922 150.20182,114.939386 150.470999,114.401028 C150.740178,113.86267 151.009357,113.324312 151.547715,112.785955 C152.086073,112.247597 152.62443,111.978418 153.162788,111.709239 C153.701146,111.44006 154.508683,111.44006 155.316219,111.44006 C156.662114,111.44006 157.738829,111.709239 158.815545,112.247597 C159.89226,112.785955 160.699797,113.593491 161.507334,114.401028 L159.084724,116.554459 C158.546366,116.016101 158.008008,115.477743 157.46965,114.939386 C156.931293,114.670207 156.392935,114.401028 155.585398,114.401028 C155.04704,114.401028 154.508683,114.670207 154.239504,114.939386 C153.970325,115.208565 153.701146,115.746922 153.701146,116.28528 C153.701146,117.092817 153.970325,117.631175 155.04704,117.900354 C155.854577,118.169532 156.662114,118.70789 157.738829,119.246248 C158.815545,119.784606 159.623081,120.322964 160.430618,121.1305 C161.238155,121.938037 161.776513,123.014752 161.776513,124.360647 C161.776513,125.168184 161.507334,125.97572 161.238155,126.514078 C160.968976,127.052436 160.430618,127.590794 160.161439,128.129151 C159.623081,128.667509 159.084724,128.936688 158.277187,129.205867 C157.46965,129.475046 156.931293,129.475046 156.123756,129.475046 C154.777861,129.475046 153.431967,129.205867 152.355251,128.667509 C151.278536,128.129151 150.470999,127.321615 149.663463,126.514078 L149.663463,126.514078 Z M163.391586,126.514078 L165.814196,124.091468 C166.352554,124.629826 166.890911,125.168184 167.429269,125.706541 C167.967627,125.97572 168.775164,126.244899 169.5827,126.244899 C170.390237,126.244899 170.928595,125.97572 171.197774,125.706541 C171.466953,125.437362 171.736132,124.899005 171.736132,124.360647 C171.736132,123.55311 171.197774,123.014752 170.390237,122.745574 C169.5827,122.476395 168.775164,121.938037 167.698448,121.399679 C166.621733,120.861321 165.814196,120.322964 165.006659,119.515427 C164.199123,118.70789 163.660765,117.631175 163.660765,116.28528 C163.660765,115.746922 163.660765,114.939386 163.929944,114.401028 C164.199123,113.86267 164.468301,113.324312 165.006659,112.785955 C165.545017,112.247597 166.083375,111.978418 166.621733,111.709239 C167.16009,111.44006 167.967627,111.44006 168.775164,111.44006 C170.121058,111.44006 171.197774,111.709239 172.274489,112.247597 C173.351205,112.785955 174.158742,113.593491 174.966278,114.401028 L172.543668,116.554459 C172.00531,116.016101 171.466953,115.477743 170.928595,114.939386 C170.390237,114.670207 169.851879,114.401028 169.044343,114.401028 C168.505985,114.401028 167.967627,114.670207 167.698448,114.939386 C167.429269,115.208565 167.16009,115.746922 167.16009,116.28528 C167.16009,117.092817 167.429269,117.631175 168.505985,117.900354 C169.313521,118.169532 170.121058,118.70789 171.197774,119.246248 C172.274489,119.784606 173.082026,120.322964 173.889563,121.1305 C174.697099,121.938037 175.235457,123.014752 175.235457,124.360647 C175.235457,125.168184 174.966278,125.97572 174.697099,126.514078 C174.42792,127.052436 173.889563,127.590794 173.620384,128.129151 C173.082026,128.667509 172.543668,128.936688 171.736131,129.205867 C170.928595,129.475046 170.390237,129.475046 169.5827,129.475046 C168.236806,129.475046 166.890911,129.205867 165.814196,128.667509 C165.006659,128.129151 164.199123,127.321615 163.391586,126.514078 L163.391586,126.514078 Z M179.003962,128.936688 L179.003962,111.978418 L188.96358,111.978418 L188.96358,114.939386 L182.503287,114.939386 L182.503287,118.977069 L187.886865,118.977069 L187.886865,121.938037 L182.503287,121.938037 L182.503287,125.97572 L188.96358,125.97572 L188.96358,128.936688 L179.003962,128.936688 Z M-3.20000026e-07,154.508683 L-3.20000026e-07,137.550412 L9.95961861,137.550412 L9.95961861,140.51138 L3.49932525,140.51138 L3.49932525,144.549064 L8.88290305,144.549064 L8.88290305,147.510031 L3.49932525,147.510031 L3.49932525,151.816894 L9.95961861,151.816894 L9.95961861,154.777861 L-3.20000026e-07,154.777861 L-3.20000026e-07,154.508683 Z M12.6514075,140.780559 L12.6514075,137.550412 L26.3795309,137.550412 L26.3795309,140.780559 L21.265132,140.780559 L21.265132,154.508683 L17.7658064,154.508683 L17.7658064,140.780559 L12.6514075,140.780559 Z M35.800792,154.508683 L35.800792,137.550412 L42.5302643,137.550412 C43.8761588,137.550412 45.2220532,137.819591 46.2987688,138.357949 C47.3754843,138.896307 48.4521999,139.434665 49.2597366,140.242201 C50.0672732,141.049738 50.605631,141.857275 51.1439888,142.93399 C51.6823466,144.010706 51.6823466,145.087421 51.6823466,146.164137 C51.6823466,147.240853 51.4131677,148.317568 51.1439888,149.394284 C50.605631,150.470999 50.0672732,151.278536 49.2597366,152.086073 C48.4521999,152.893609 47.6446632,153.431967 46.2987688,153.970325 C45.2220532,154.508683 43.8761588,154.777861 42.5302643,154.777861 L35.800792,154.777861 L35.800792,154.508683 Z M42.5302643,140.780559 L39.3001176,140.780559 L39.3001176,151.547715 L42.5302643,151.547715 C43.337801,151.547715 44.1453376,151.278536 44.6836954,151.009357 C45.2220532,150.740178 46.0295899,150.470999 46.2987688,149.932641 C46.8371265,149.394284 47.1063054,148.855926 47.3754843,148.317568 C47.9138421,147.510031 47.9138421,146.702495 47.9138421,146.164137 C47.9138421,145.3566 47.6446632,144.818243 47.3754843,144.010706 C47.1063054,143.472348 46.8371265,142.664811 46.2987688,142.395632 C45.760411,141.857275 45.2220532,141.588096 44.6836954,141.318917 C44.1453376,140.780559 43.337801,140.780559 42.5302643,140.780559 Z M54.9124932,154.508683 L54.9124932,137.550412 L64.8721122,137.550412 L64.8721122,140.51138 L58.4118188,140.51138 L58.4118188,144.549064 L63.7953966,144.549064 L63.7953966,147.510031 L58.4118188,147.510031 L58.4118188,151.816894 L64.8721122,151.816894 L64.8721122,154.777861 L54.9124932,154.777861 L54.9124932,154.508683 Z M67.2947222,152.086073 L69.7173322,149.663463 C70.25569,150.20182 70.7940478,150.740178 71.3324055,151.278536 C71.8707633,151.547715 72.6783,151.816894 73.4858367,151.816894 C74.2933733,151.816894 74.8317311,151.547715 75.10091,151.278536 C75.3700889,151.009357 75.6392678,150.470999 75.6392678,149.932641 C75.6392678,149.125105 75.10091,148.586747 74.2933733,148.317568 C73.4858367,148.048389 72.6783,147.510031 71.6015844,146.971674 C70.5248689,146.433316 69.7173322,145.894958 68.9097955,145.087421 C68.1022589,144.279885 67.5639011,143.203169 67.5639011,141.857275 C67.5639011,141.318917 67.5639011,140.51138 67.83308,139.973022 C68.1022589,139.434665 68.3714377,138.896307 68.9097955,138.357949 C69.4481533,137.819591 69.9865111,137.550412 70.5248689,137.281234 C71.0632266,137.012055 71.8707633,137.012055 72.6783,137.012055 C74.0241944,137.012055 75.10091,137.281234 76.1776256,137.819591 C77.2543411,138.357949 78.0618778,139.165486 78.8694145,139.973022 L76.7159833,142.126454 C76.1776256,141.588096 75.6392678,141.049738 75.10091,140.51138 C74.5625522,140.242201 74.0241944,139.973022 73.2166578,139.973022 C72.6783,139.973022 72.1399422,140.242201 71.8707633,140.51138 C71.6015844,140.780559 71.3324055,141.318917 71.3324055,141.857275 C71.3324055,142.664811 71.6015844,143.203169 72.6783,143.472348 C73.4858366,143.741527 74.2933733,144.279885 75.3700889,144.818243 C76.4468044,145.3566 77.2543411,145.894958 78.0618778,146.702495 C78.8694145,147.510031 79.4077722,148.586747 79.4077722,149.932641 C79.4077722,150.740178 79.1385933,151.547715 78.8694145,152.086073 C78.6002356,152.62443 78.0618778,153.162788 77.7926989,153.701146 C77.2543411,154.239504 76.7159833,154.508683 75.9084467,154.777861 C75.10091,155.04704 74.5625522,155.04704 73.7550155,155.04704 C72.4091211,155.04704 71.0632266,154.777861 69.9865111,154.239504 C68.9097955,153.701146 67.83308,153.162788 67.2947222,152.086073 L67.2947222,152.086073 Z M87.4831389,152.086073 L89.9057489,149.663463 C90.4441067,150.20182 90.9824645,150.740178 91.5208223,151.278536 C92.0591801,151.547715 92.8667167,151.816894 93.6742534,151.816894 C94.4817901,151.816894 95.0201479,151.547715 95.2893267,151.278536 C95.5585056,151.009357 95.8276845,150.470999 95.8276845,149.932641 C95.8276845,149.125105 95.2893267,148.586747 94.4817901,148.317568 C93.6742534,148.048389 92.8667167,147.510031 91.7900012,146.971674 C90.7132856,146.433316 89.9057489,145.894958 89.0982123,145.087421 C88.2906756,144.279885 88.2906756,143.472348 88.2906756,142.126454 C88.2906756,141.588096 88.2906756,140.780559 88.5598545,140.242201 C88.8290334,139.703844 89.0982123,139.165486 89.6365701,138.627128 C90.1749278,138.08877 90.7132856,137.819591 91.2516434,137.550412 C91.7900012,137.281234 92.5975378,137.281234 93.4050745,137.281234 C94.750969,137.281234 95.8276845,137.550412 96.9044001,138.08877 C97.9811156,138.627128 98.7886523,139.434665 99.596189,140.242201 L96.9044001,142.126454 C96.3660423,141.588096 95.8276845,141.049738 95.2893267,140.51138 C94.750969,140.242201 94.2126112,139.973022 93.4050745,139.973022 C92.8667167,139.973022 92.328359,140.242201 92.0591801,140.51138 C91.7900012,140.780559 91.5208223,141.318917 91.5208223,141.857275 C91.5208223,142.664811 91.7900012,143.203169 92.8667167,143.472348 C93.6742534,143.741527 94.4817901,144.279885 95.5585056,144.818242 C96.6352212,145.3566 97.4427579,145.894958 98.2502945,146.702495 C99.0578312,147.510031 99.596189,148.586747 99.596189,149.932641 C99.596189,150.740178 99.3270101,151.547715 99.0578312,152.086073 C98.7886523,152.62443 98.2502945,153.162788 97.9811156,153.701146 C97.4427579,154.239504 96.9044001,154.508683 96.0968634,154.777861 C95.2893267,155.04704 94.750969,155.04704 93.9434323,155.04704 C92.5975378,155.04704 91.2516434,154.777861 90.1749278,154.239504 C89.0982123,153.701146 88.2906756,153.162788 87.4831389,152.086073 L87.4831389,152.086073 Z M103.095515,154.508683 L103.095515,137.550412 L108.748271,137.550412 C110.632523,137.550412 111.978418,138.08877 113.055133,138.896307 C114.131849,139.703844 114.670207,141.049738 114.670207,142.664811 C114.670207,144.279885 114.131849,145.3566 113.055133,146.433316 C111.978418,147.240853 110.632523,147.77921 108.748271,147.77921 L106.59484,147.77921 L106.59484,154.508683 L103.095515,154.508683 Z M108.748271,140.51138 L106.325661,140.51138 L106.325661,144.818243 L108.748271,144.818243 C109.555808,144.818243 110.094166,144.549064 110.363345,144.279885 C110.901702,144.010706 110.901702,143.472348 110.901702,142.664811 C110.901702,142.126454 110.632523,141.588096 110.363345,141.049738 C110.094166,140.780559 109.555808,140.51138 108.748271,140.51138 L108.748271,140.51138 Z M125.437362,137.012055 C126.783257,137.012055 127.859972,137.281234 129.205867,137.819591 C130.282582,138.357949 131.359298,138.896307 132.166835,139.703844 C132.974371,140.51138 133.512729,141.588096 134.051087,142.664811 C134.589445,143.741527 134.589445,144.818242 134.589445,146.164137 C134.589445,147.510031 134.320266,148.586747 134.051087,149.663463 C133.512729,150.740178 132.974371,151.816894 132.166835,152.62443 C131.359298,153.431967 130.551761,153.970325 129.205867,154.508683 C128.129151,155.04704 126.783257,155.316219 125.437362,155.316219 C124.091468,155.316219 123.014752,155.04704 121.668858,154.508683 C120.592142,153.970325 119.515427,153.431967 118.70789,152.62443 C117.900354,151.816894 117.361996,150.740178 116.823638,149.663463 C116.28528,148.586747 116.28528,147.510031 116.28528,146.164137 C116.28528,144.818242 116.554459,143.741527 116.823638,142.664811 C117.361996,141.588096 117.900354,140.51138 118.70789,139.703844 C119.515427,138.896307 120.322964,138.357949 121.668858,137.819591 C123.014752,137.281234 124.091468,137.012055 125.437362,137.012055 L125.437362,137.012055 Z M125.437362,151.816894 C126.244899,151.816894 127.052436,151.547715 127.590794,151.278536 C128.129151,151.009357 128.936688,150.470999 129.205867,149.932641 C129.744225,149.394284 130.013404,148.855926 130.282582,148.048389 C130.551761,147.240853 130.82094,146.702495 130.82094,145.894958 C130.82094,145.087421 130.551761,144.279885 130.282582,143.741527 C130.013404,142.93399 129.744225,142.395632 129.205867,141.857275 C128.667509,141.318917 128.129151,141.049738 127.590794,140.51138 C127.052436,140.242201 126.244899,139.973022 125.437362,139.973022 C124.629826,139.973022 123.822289,140.242201 123.283931,140.51138 C122.476395,140.780559 121.938037,141.318917 121.668858,141.857275 C121.1305,142.395632 120.861321,142.93399 120.592142,143.741527 C120.322964,144.549064 120.053785,145.087421 120.053785,145.894958 C120.053785,146.702495 120.322964,147.510031 120.592142,148.048389 C120.861321,148.855926 121.1305,149.394284 121.668858,149.932641 C122.207216,150.470999 122.745574,150.740178 123.283931,151.278536 C123.822289,151.547715 124.629826,151.816894 125.437362,151.816894 Z M137.819591,154.508683 L137.819591,137.550412 L142.93399,137.550412 C144.818243,137.550412 146.164137,138.08877 147.240853,138.896307 C148.317568,139.703844 148.855926,141.049738 148.855926,142.664811 C148.855926,143.741527 148.586747,144.549064 148.048389,145.3566 C147.510031,146.164137 146.971674,146.702495 146.164137,146.971674 L151.547715,154.508683 L147.510031,154.508683 L142.93399,147.77921 L141.049738,147.77921 L141.049738,154.508683 L137.819591,154.508683 Z M143.203169,140.51138 L141.318917,140.51138 L141.318917,144.818243 L143.203169,144.818243 C144.010706,144.818243 144.549064,144.549064 144.818243,144.279885 C145.087421,144.010706 145.3566,143.472348 145.3566,142.664811 C145.3566,142.126454 145.087421,141.588096 144.818243,141.049738 C144.279885,140.780559 143.741527,140.51138 143.203169,140.51138 L143.203169,140.51138 Z M151.278536,140.780559 L151.278536,137.550412 L165.275838,137.550412 L165.275838,140.780559 L160.161439,140.780559 L160.161439,154.508683 L156.662114,154.508683 L156.662114,140.780559 L151.278536,140.780559 Z M166.352554,152.086073 L168.775164,149.663463 C169.313521,150.20182 169.851879,150.740178 170.390237,151.278536 C170.928595,151.547715 171.736132,151.816894 172.543668,151.816894 C173.351205,151.816894 173.889563,151.547715 174.158742,151.278536 C174.42792,151.009357 174.697099,150.470999 174.697099,149.932641 C174.697099,149.125105 174.158742,148.586747 173.351205,148.317568 C172.543668,148.048389 171.736132,147.510031 170.659416,146.971674 C169.5827,146.433316 168.775164,145.894958 167.967627,145.087421 C167.16009,144.279885 166.621733,143.203169 166.621733,141.857275 C166.621733,141.318917 166.621733,140.51138 166.890911,139.973022 C167.16009,139.434665 167.429269,138.896307 167.967627,138.357949 C168.505985,137.819591 169.044343,137.550412 169.5827,137.281234 C170.121058,137.012055 170.928595,137.012055 171.736132,137.012055 C173.082026,137.012055 174.158742,137.281234 175.235457,137.819591 C176.312173,138.357949 177.119709,139.165486 177.927246,139.973022 L175.773815,142.126454 C175.235457,141.588096 174.697099,141.049738 174.158742,140.51138 C173.620384,140.242201 173.082026,139.973022 172.274489,139.973022 C171.736132,139.973022 171.197774,140.242201 170.928595,140.51138 C170.659416,140.780559 170.390237,141.318917 170.390237,141.857275 C170.390237,142.664811 170.659416,143.203169 171.736132,143.472348 C172.543668,143.741527 173.351205,144.279885 174.42792,144.818243 C175.504636,145.3566 176.312173,145.894958 177.119709,146.702495 C177.927246,147.510031 178.465604,148.586747 178.465604,149.932641 C178.465604,150.740178 178.196425,151.547715 177.927246,152.086073 C177.658067,152.62443 177.119709,153.162788 176.85053,153.701146 C176.312173,154.239504 175.773815,154.508683 174.966278,154.777861 C174.158742,155.04704 173.620384,155.04704 172.812847,155.04704 C171.466953,155.04704 170.121058,154.777861 169.044343,154.239504 C167.967627,153.701146 166.890911,153.162788 166.352554,152.086073 L166.352554,152.086073 Z" id="path11" fill="#000000"></path>
            </g>
        </g>
    </g>
</svg>