<svg id="Calque_1" data-name="Calque 1" xmlns="http://www.w3.org/2000/svg" viewBox="0 0 402.45 146.79"><defs><style>.cls-1{fill:none;}.cls-2{fill:#e42313;}.cls-3{fill:#2a327b;}</style></defs><title>LOGO_RIDF_2019</title><rect class="cls-1" width="402.45" height="146.79"/><path class="cls-2" d="M111.14,81H104.6l5.72-7.6h7.76L123.8,81h-6.54l-3.06-4.09L111.14,81m-1.28,29.37V83.81h8.68v26.51Z"/><polygon class="cls-2" points="122.77 73.86 131.45 73.86 131.45 110.32 122.77 110.32 122.77 73.86 122.77 73.86"/><path class="cls-2" d="M142.43,99.19c.15,3.62,2.25,6,5.93,6a5.16,5.16,0,0,0,4.94-2.91h8.13c-1.58,6.13-7.26,8.78-13.18,8.78-8.63,0-14.5-5.2-14.5-14.09,0-8.12,6.48-13.94,14.3-13.94,9.5,0,14.24,7.15,13.84,16.14H142.43m10.77-4.84c-.15-3-2.25-5.43-5.15-5.43-3.07,0-5.11,2.2-5.62,5.43Z"/><path class="cls-2" d="M183,110.32h-3.42v-2.81h-.08c-1.13,2.29-3.79,3.29-6.64,3.29-6.41,0-9.59-5.07-9.59-11S166.37,89,172.74,89c2.13,0,5.19.8,6.72,3.26h.08V81.57H183v28.75m-9.67-2.54c4.6,0,6.37-3.94,6.37-7.84,0-4.12-1.86-7.89-6.56-7.89s-6.25,4-6.25,8c0,3.9,2,7.68,6.44,7.68Z"/><path class="cls-2" d="M204,103.72c-.93,4.59-4.23,7.08-8.9,7.08-6.64,0-9.79-4.59-10-11,0-6.24,4.11-10.83,9.79-10.83,7.37,0,9.62,6.89,9.42,11.93H188.72c-.12,3.62,1.94,6.83,6.48,6.83,2.82,0,4.79-1.37,5.4-4.06H204m-3.31-5.8a6,6,0,0,0-6-5.87c-3.58,0-5.71,2.69-5.95,5.87Z"/><polygon class="cls-2" points="206.52 73.86 233.38 73.86 233.38 81.47 216.01 81.47 216.01 88.92 231.03 88.92 231.03 96.27 216.01 96.27 216.01 110.32 206.52 110.32 206.52 73.86 206.52 73.86"/><path class="cls-2" d="M235.11,83.81h8.43v4.65h.1c1.28-3.37,4.23-5.16,8-5.16a9.49,9.49,0,0,1,2,.21v7.91a12.36,12.36,0,0,0-3.32-.51c-4.29,0-6.54,3-6.54,6.29v13.12h-8.68V83.81Z"/><path class="cls-2" d="M253.65,92a8.19,8.19,0,0,1,4.13-7.1,17.57,17.57,0,0,1,8.43-1.83c6.28,0,12.36,1.38,12.36,8.89v11.59c0,2.25,0,4.69,1,6.79h-8.74a10.57,10.57,0,0,1-.51-2.5,12,12,0,0,1-8.74,3.26c-5.05,0-9-2.54-9-8,0-8.63,9.39-8,15.42-9.19,1.48-.31,2.3-.82,2.3-2.46,0-2-2.4-2.75-4.19-2.75-2.4,0-3.93,1.08-4.34,3.31h-8.12m11.24,13.74c4.13,0,5.51-2.34,5.3-7.81-1.22.76-3.47.92-5.36,1.43s-3.57,1.27-3.57,3.37,1.68,3,3.63,3Z"/><path class="cls-2" d="M281.74,83.81h8.43v3.63h.1c1.58-2.71,5.15-4.39,8.32-4.39,8.84,0,9.55,6.43,9.55,10.27v17h-8.68V97.51c0-3.63.41-7.31-4.34-7.31-3.27,0-4.7,2.76-4.7,5.67v14.45h-8.68V83.81Z"/><path class="cls-2" d="M328.62,93.52a4.09,4.09,0,0,0-4.23-3.83c-4.86,0-5.63,4.14-5.63,7.82,0,3.42,1.49,6.94,5.16,6.94,3,0,4.56-1.74,4.95-4.54h8.43C336.54,107,331,111.08,324,111.08c-8,0-13.89-5.46-13.89-13.57,0-8.43,5.36-14.46,13.89-14.46,6.59,0,12.47,3.47,13.08,10.47Z"/><path class="cls-2" d="M346.5,99.19c.15,3.62,2.24,6,5.92,6a5.17,5.17,0,0,0,4.95-2.91h8.13c-1.59,6.13-7.26,8.78-13.18,8.78-8.63,0-14.51-5.2-14.51-14.09,0-8.12,6.49-13.94,14.3-13.94,9.5,0,14.25,7.15,13.84,16.14H346.5m10.77-4.84c-.15-3-2.25-5.43-5.16-5.43-3.06,0-5.1,2.2-5.61,5.43Z"/><path class="cls-3" d="M109.86,36.47h14.65c5.84,0,9.46,3.18,9.46,8.15,0,3.75-1.66,6.85-5.41,7.89v.09c3.62.7,4.36,3.36,4.67,6.41s.08,6.45,1.83,8.59h-4.62c-1.18-1.27-.53-4.63-1.14-7.68-.43-3.05-1.17-5.62-5.19-5.62H114V67.6h-4.14Zm12.77,14.34c3.88,0,7.2-1,7.2-5.53,0-3.06-1.66-5.32-5.54-5.32H114V50.81Z"/><path class="cls-3" d="M158.34,60.45c-1,5-4.58,7.67-9.64,7.67-7.19,0-10.59-5-10.81-11.86,0-6.76,4.45-11.73,10.6-11.73,8,0,10.42,7.46,10.2,12.91H141.82c-.13,3.92,2.09,7.41,7,7.41,3,0,5.18-1.48,5.84-4.4Zm-3.58-6.28a6.48,6.48,0,0,0-6.49-6.37c-3.88,0-6.19,2.92-6.45,6.37Zm-5.62-18.44h4.75L148.18,42h-2.79Z"/><path class="cls-3" d="M182,65.68c0,7.32-3.36,11.07-10.46,11.07-4.23,0-9.11-1.7-9.33-6.63h3.7c.18,2.71,3.4,3.67,5.84,3.67,4.84,0,6.76-3.49,6.76-8.55V63.76h-.09a7.5,7.5,0,0,1-7,4.1c-6.72,0-10.07-5.28-10.07-11.42,0-5.32,2.61-11.91,10.41-11.91a7.37,7.37,0,0,1,6.72,3.75h0V45.06H182Zm-3.66-9.81c0-4-1.75-8.07-6.41-8.07s-6.67,3.88-6.67,8.2c0,4,1.48,8.59,6.36,8.59S178.31,60.1,178.31,55.87Z"/><path class="cls-3" d="M191.47,41h-3.7V36.47h3.7Zm-3.7,4.06h3.7V67.6h-3.7Z"/><path class="cls-3" d="M207,44.53c7.15,0,10.94,5.19,10.94,11.82S214.1,68.12,207,68.12,196,62.93,196,56.35,199.8,44.53,207,44.53Zm0,20.32c3.88,0,7-3,7-8.5s-3.14-8.55-7-8.55-7,3.06-7,8.55S203.07,64.85,207,64.85Z"/><path class="cls-3" d="M222.26,45.06h3.48v3.57h.09a7.85,7.85,0,0,1,7.32-4.1c5.93,0,7.76,3.4,7.76,8.24V67.6h-3.7V52.34a4.25,4.25,0,0,0-4.58-4.54c-4.49,0-6.67,3-6.67,7.07V67.6h-3.7Z"/><path class="cls-2" d="M80.87,63.24a6.45,6.45,0,0,0-.84.31c-.06,0-.11,0-.1-.08.07-.27-1.17.88-1.23.44,0-.08.06,0-.11,0,.45.06-2.78,1.08-2.78,1a.94.94,0,0,1,.08-1c.26-.65-.55-1.56-.24-1.29a.42.42,0,0,1,0-.66c.14.1,0,0,.08-.31.09-.06-.17-.41.06-.29a2.44,2.44,0,0,0,.3-2c-.53-1.24-.3-10.14,0-9.8.09-.62-.48-1.07-.21-1.53,0-.47-.42-.48-.36-.8-.24-.94-1.56-.92-1.42-1.12-.7.15-3.28,4.3-3.3,4.41.16-.16-1.75,2.7-1.71,2.71-.21,0-.44.33-.49.76,0,.05-1.08,1.36-1,1.1-.37.61-.8,1.19-1.13,1.81.26-.16-.47.51-.36.49s-.82,2-.83,1.83-1,1-1.15,1c-.23.95-3.75-1.38-3.82-2.44,0,0-.07-1-.54-1.1l-2.3-2.09c-1.42-1.89-2.54-1.84-4.63-3.67A7.3,7.3,0,0,0,52,49.37c-.79.2-1.86,1.43-1.64,1.73-.33.14-.4-.28-.53-.43a20.41,20.41,0,0,0,.35,3.14c-.05.39.18,2.38.27,2.08l.15.17s-.24.3,0,.49c.33.57,1,1,.75,1.76-.29.15,0,1.19,0,.85-.32,1.64,3.53,4.73,3,6.92-.25.19.74,1.36.53,1.3a4.7,4.7,0,0,1-2,.83c-.2.12-.41,0-.63,0s-2-.76-2.45-.43c0,0-1.45-.33-1.46-.26.26-.3-1.64.4-1.35-.22.12-.48-1.65.51-1.21.25,0,0-.78.43-.76.31s-.67,0-.5,0c-.12,0-.87-.25-.76-.17-.41-.28-.5.1-1-.14a1.67,1.67,0,0,1-.7.1s-1.1,0-1.1,0-.94.3-1,0c0,0-.81.6-1.05.2.1-.33-1,.27-1.13.29s-.66-.26-.56-.09c-.09,0-.75.86-.75.86s3.65,2.69,3.09,2.27a12,12,0,0,0,1.31.87c-.15.39,1.36,0,1.12.87,1.4-.82,4.27,3,5.28,2.43.13,0,.56.67.7.62-.23-.2.73.32.43.3.13.15.08.1.54.57,1.15,0,1.63.9,2,1.22,1.26,2.42-4,4.77-4.43,6,0,.07,0,.12-.09.1s-.73.34-.82.73l-.79,1c-.69-.2-2.47,2.61-3.19,3l-1.7.78a3.74,3.74,0,0,0-.4.48,1.62,1.62,0,0,1-.57.59,15.25,15.25,0,0,0-1.2,1.1l-.27.5.43.19a2.16,2.16,0,0,0-.32.46c-.06.12-.21.47.12.54s.54.08.62.24,1.45.27,1.56.25l.78-.34a7.23,7.23,0,0,1,3.07,0,19.37,19.37,0,0,0,3.23-1c.1,0,2-.65,2-.65.51-.24,1.67-.43,2-.85a4,4,0,0,1,2-.31c.16.09,4.62-.84,4.77-1.41a.5.5,0,0,1,.42.39A14.24,14.24,0,0,1,58,92.36c0-.23-.63.43-.41.78.45.14.42,0,.7.63-.13-.29,0,1.33,0,1.91,0,.31.51,1.35-.31,1.75,0,0-.47,1-.49,1,.06-.48.06.24,0,.11.42-.2.29,1.08.2,1.23.08-.2-.22.25-.25.1-.67,1.32.74,1.46-.07,1.61.35.11.53,1.86.51,1.61a3.85,3.85,0,0,1-.15,1.72c-.12-.37-.32.67-.26,1,.14.66-.19,1.91.44,2.2-.1-.26.47.6.47.6,1.47.62,1.83-1.3,2.49-1.61.22,0,.47-.93.69-.86,0-.07.9-4.3,1.58-4.08a20.78,20.78,0,0,0,1.38-2.48c0,.05-.56-.61.61-1.12.57.2.84-1.33,1-2.19,0-.5.39-.26.44-.79a8.82,8.82,0,0,0,1.18-2.25c.17,0,.19-.78.31-.67-.32-.28.27-.6.2-.84.11-.42.07-.8.25-.76.18-.82.69-.46.8-.39s.58-.07.62.53c-.23.31.76.59.68.78,0-.14,4.76,5.5,6.08,6.59.06.05,3.77,3.73,3.61,3.69.41.22.75,1,.78.91-.16.24.71.63.86.63.56,1,.59.78.89.61.1.44.84.23,1.11.37-.08-.21.59-.4.44-.63.21.07-.13-.8,0-.69-.23-.42-1.64-2.29-1.54-2.63,0-.11.2-.07.3,0s-.18-.22-.27-.3c.26,0,.31-.14.17-.41-.25.13-.6-1.46-.38-1.69.09-.4-1.15-5.4-1.73-5.89a6.19,6.19,0,0,0-.25-1.37c-1-.61-.16-1.81-.83-2-.16.3-.85-.84-.95-1.78-.33-.59,0-2-.22-1.79-.19-.22,1-.73,1.3-.08,2.52,1,7.33-.62,9.07.72.41-.77,1.34-.17.84-.31-.07.09.09.14.2.17a6.23,6.23,0,0,1,2,0c-.74-.18,1.09-.06,1-.09a8.89,8.89,0,0,0,3.37-1c.75-.23.61-.62.93-1.33-.13.6.19-.61-.44-1-3.68-.92-6.61-3.64-10.28-4.6-1.42-.3-3.72-3.78-4.94-3.56,2.22-2.54,4.38-5.06,6.67-7.21.45-.44,5-5.39,5-5.33.18-.25.43-1.07.41-.72a.72.72,0,0,0-.17-.45c0,.06-1.72-1.28-2.17-.44.61.37-1.22.5-1.67.61a.42.42,0,0,1-.36,0c-.46-.11-1.06.41-1.36.48-.67-.6-2.36.51-3.12.77a8.73,8.73,0,0,1-.92-.08c-.26.42-.25.3-.19.26a4.78,4.78,0,0,1-1.3.61c.1,0-.57.32-.83.26,0,.11-.1.43-.49.35s-.26-.19-.37-.07"/></svg>